%TF.GenerationSoftware,KiCad,Pcbnew,(6.0.11)*%
%TF.CreationDate,2023-05-24T14:48:23-07:00*%
%TF.ProjectId,keeb,6b656562-2e6b-4696-9361-645f70636258,rev?*%
%TF.SameCoordinates,Original*%
%TF.FileFunction,Copper,L2,Bot*%
%TF.FilePolarity,Positive*%
%FSLAX46Y46*%
G04 Gerber Fmt 4.6, Leading zero omitted, Abs format (unit mm)*
G04 Created by KiCad (PCBNEW (6.0.11)) date 2023-05-24 14:48:23*
%MOMM*%
%LPD*%
G01*
G04 APERTURE LIST*
G04 Aperture macros list*
%AMRoundRect*
0 Rectangle with rounded corners*
0 $1 Rounding radius*
0 $2 $3 $4 $5 $6 $7 $8 $9 X,Y pos of 4 corners*
0 Add a 4 corners polygon primitive as box body*
4,1,4,$2,$3,$4,$5,$6,$7,$8,$9,$2,$3,0*
0 Add four circle primitives for the rounded corners*
1,1,$1+$1,$2,$3*
1,1,$1+$1,$4,$5*
1,1,$1+$1,$6,$7*
1,1,$1+$1,$8,$9*
0 Add four rect primitives between the rounded corners*
20,1,$1+$1,$2,$3,$4,$5,0*
20,1,$1+$1,$4,$5,$6,$7,0*
20,1,$1+$1,$6,$7,$8,$9,0*
20,1,$1+$1,$8,$9,$2,$3,0*%
%AMHorizOval*
0 Thick line with rounded ends*
0 $1 width*
0 $2 $3 position (X,Y) of the first rounded end (center of the circle)*
0 $4 $5 position (X,Y) of the second rounded end (center of the circle)*
0 Add line between two ends*
20,1,$1,$2,$3,$4,$5,0*
0 Add two circle primitives to create the rounded ends*
1,1,$1,$2,$3*
1,1,$1,$4,$5*%
G04 Aperture macros list end*
%TA.AperFunction,ComponentPad*%
%ADD10C,2.600000*%
%TD*%
%TA.AperFunction,ComponentPad*%
%ADD11C,2.200000*%
%TD*%
%TA.AperFunction,SMDPad,CuDef*%
%ADD12R,0.600000X2.000000*%
%TD*%
%TA.AperFunction,SMDPad,CuDef*%
%ADD13RoundRect,0.237500X0.237500X-0.250000X0.237500X0.250000X-0.237500X0.250000X-0.237500X-0.250000X0*%
%TD*%
%TA.AperFunction,SMDPad,CuDef*%
%ADD14HorizOval,1.998980X-0.096967X-0.361884X0.096967X0.361884X0*%
%TD*%
%TA.AperFunction,SMDPad,CuDef*%
%ADD15HorizOval,1.016000X-0.490690X0.131480X0.490690X-0.131480X0*%
%TD*%
%TA.AperFunction,SMDPad,CuDef*%
%ADD16C,1.143000*%
%TD*%
%TA.AperFunction,SMDPad,CuDef*%
%ADD17RoundRect,0.237500X-0.237500X0.250000X-0.237500X-0.250000X0.237500X-0.250000X0.237500X0.250000X0*%
%TD*%
%TA.AperFunction,SMDPad,CuDef*%
%ADD18R,1.200000X2.500000*%
%TD*%
%TA.AperFunction,ViaPad*%
%ADD19C,0.800000*%
%TD*%
%TA.AperFunction,Conductor*%
%ADD20C,0.250000*%
%TD*%
G04 APERTURE END LIST*
D10*
%TO.P,SW25,*%
%TO.N,*%
X84000000Y-60150000D03*
D11*
%TO.P,SW25,1,1*%
%TO.N,+5V*%
X89000000Y-49100000D03*
%TO.P,SW25,2,2*%
%TO.N,Net-(SW25-Pad2)*%
X94000000Y-51200000D03*
%TD*%
D10*
%TO.P,SW5,*%
%TO.N,*%
X179000000Y-60150000D03*
D11*
%TO.P,SW5,1,1*%
%TO.N,+5V*%
X184000000Y-49100000D03*
%TO.P,SW5,2,2*%
%TO.N,Net-(SW37-Pad2)*%
X189000000Y-51200000D03*
%TD*%
D10*
%TO.P,SW12,*%
%TO.N,*%
X160000000Y-114150000D03*
D11*
%TO.P,SW12,1,1*%
%TO.N,+5V*%
X165000000Y-103100000D03*
%TO.P,SW12,2,2*%
%TO.N,Net-(SW12-Pad2)*%
X170000000Y-105200000D03*
%TD*%
D10*
%TO.P,SW6,*%
%TO.N,*%
X179000000Y-78150000D03*
D11*
%TO.P,SW6,1,1*%
%TO.N,+5V*%
X184000000Y-67100000D03*
%TO.P,SW6,2,2*%
%TO.N,Net-(SW38-Pad2)*%
X189000000Y-69200000D03*
%TD*%
D10*
%TO.P,SW7,*%
%TO.N,*%
X179000000Y-96150000D03*
D11*
%TO.P,SW7,1,1*%
%TO.N,+5V*%
X184000000Y-85100000D03*
%TO.P,SW7,2,2*%
%TO.N,Net-(SW39-Pad2)*%
X189000000Y-87200000D03*
%TD*%
D10*
%TO.P,SW19,*%
%TO.N,*%
X122000000Y-96150000D03*
D11*
%TO.P,SW19,1,1*%
%TO.N,+5V*%
X127000000Y-85100000D03*
%TO.P,SW19,2,2*%
%TO.N,Net-(SW19-Pad2)*%
X132000000Y-87200000D03*
%TD*%
D10*
%TO.P,SW3,*%
%TO.N,*%
X198000000Y-96150000D03*
D11*
%TO.P,SW3,1,1*%
%TO.N,+5V*%
X203000000Y-85100000D03*
%TO.P,SW3,2,2*%
%TO.N,Net-(SW3-Pad2)*%
X208000000Y-87200000D03*
%TD*%
D10*
%TO.P,SW9,*%
%TO.N,*%
X160000000Y-60150000D03*
D11*
%TO.P,SW9,1,1*%
%TO.N,+5V*%
X165000000Y-49100000D03*
%TO.P,SW9,2,2*%
%TO.N,Net-(SW41-Pad2)*%
X170000000Y-51200000D03*
%TD*%
D10*
%TO.P,SW14,*%
%TO.N,*%
X141000000Y-78150000D03*
D11*
%TO.P,SW14,1,1*%
%TO.N,+5V*%
X146000000Y-67100000D03*
%TO.P,SW14,2,2*%
%TO.N,Net-(SW14-Pad2)*%
X151000000Y-69200000D03*
%TD*%
D10*
%TO.P,SW1,*%
%TO.N,*%
X198000000Y-60150000D03*
D11*
%TO.P,SW1,1,1*%
%TO.N,+5V*%
X203000000Y-49100000D03*
%TO.P,SW1,2,2*%
%TO.N,Net-(SW1-Pad2)*%
X208000000Y-51200000D03*
%TD*%
D10*
%TO.P,SW32,*%
%TO.N,*%
X106094873Y-159960031D03*
D11*
%TO.P,SW32,1,1*%
%TO.N,+5V*%
X115950000Y-152890450D03*
%TO.P,SW32,2,2*%
%TO.N,Net-(SW32-Pad2)*%
X119230127Y-157209103D03*
%TD*%
D10*
%TO.P,SW20,*%
%TO.N,*%
X122000000Y-114150000D03*
D11*
%TO.P,SW20,1,1*%
%TO.N,+5V*%
X127000000Y-103100000D03*
%TO.P,SW20,2,2*%
%TO.N,Net-(SW20-Pad2)*%
X132000000Y-105200000D03*
%TD*%
D10*
%TO.P,SW29,*%
%TO.N,*%
X74094873Y-140960031D03*
D11*
%TO.P,SW29,1,1*%
%TO.N,+5V*%
X83950000Y-133890450D03*
%TO.P,SW29,2,2*%
%TO.N,Net-(SW29-Pad2)*%
X87230127Y-138209103D03*
%TD*%
D10*
%TO.P,SW10,*%
%TO.N,*%
X160000000Y-78150000D03*
D11*
%TO.P,SW10,1,1*%
%TO.N,+5V*%
X165000000Y-67100000D03*
%TO.P,SW10,2,2*%
%TO.N,Net-(SW10-Pad2)*%
X170000000Y-69200000D03*
%TD*%
D10*
%TO.P,SW8,*%
%TO.N,*%
X179000000Y-114150000D03*
D11*
%TO.P,SW8,1,1*%
%TO.N,+5V*%
X184000000Y-103100000D03*
%TO.P,SW8,2,2*%
%TO.N,Net-(SW40-Pad2)*%
X189000000Y-105200000D03*
%TD*%
D10*
%TO.P,SW31,*%
%TO.N,*%
X90094873Y-150960031D03*
D11*
%TO.P,SW31,1,1*%
%TO.N,+5V*%
X99950000Y-143890450D03*
%TO.P,SW31,2,2*%
%TO.N,Net-(SW31-Pad2)*%
X103230127Y-148209103D03*
%TD*%
D10*
%TO.P,SW15,*%
%TO.N,*%
X141000000Y-96150000D03*
D11*
%TO.P,SW15,1,1*%
%TO.N,+5V*%
X146000000Y-85100000D03*
%TO.P,SW15,2,2*%
%TO.N,Net-(SW15-Pad2)*%
X151000000Y-87200000D03*
%TD*%
D10*
%TO.P,SW2,*%
%TO.N,*%
X198000000Y-78150000D03*
D11*
%TO.P,SW2,1,1*%
%TO.N,+5V*%
X203000000Y-67100000D03*
%TO.P,SW2,2,2*%
%TO.N,Net-(SW2-Pad2)*%
X208000000Y-69200000D03*
%TD*%
D10*
%TO.P,SW11,*%
%TO.N,*%
X160000000Y-96150000D03*
D11*
%TO.P,SW11,1,1*%
%TO.N,+5V*%
X165000000Y-85100000D03*
%TO.P,SW11,2,2*%
%TO.N,Net-(SW11-Pad2)*%
X170000000Y-87200000D03*
%TD*%
D10*
%TO.P,SW30,*%
%TO.N,*%
X94905127Y-162039969D03*
D11*
%TO.P,SW30,1,1*%
%TO.N,+5V*%
X85050000Y-169109550D03*
%TO.P,SW30,2,2*%
%TO.N,Net-(SW30-Pad2)*%
X81769873Y-164790897D03*
%TD*%
D10*
%TO.P,SW22,*%
%TO.N,*%
X103000000Y-78150000D03*
D11*
%TO.P,SW22,1,1*%
%TO.N,+5V*%
X108000000Y-67100000D03*
%TO.P,SW22,2,2*%
%TO.N,Net-(SW22-Pad2)*%
X113000000Y-69200000D03*
%TD*%
D10*
%TO.P,SW4,*%
%TO.N,*%
X198000000Y-114150000D03*
D11*
%TO.P,SW4,1,1*%
%TO.N,+5V*%
X203000000Y-103100000D03*
%TO.P,SW4,2,2*%
%TO.N,Net-(SW36-Pad2)*%
X208000000Y-105200000D03*
%TD*%
D10*
%TO.P,SW21,*%
%TO.N,*%
X103000000Y-60150000D03*
D11*
%TO.P,SW21,1,1*%
%TO.N,+5V*%
X108000000Y-49100000D03*
%TO.P,SW21,2,2*%
%TO.N,Net-(SW21-Pad2)*%
X113000000Y-51200000D03*
%TD*%
D10*
%TO.P,SW17,*%
%TO.N,*%
X122000000Y-60150000D03*
D11*
%TO.P,SW17,1,1*%
%TO.N,+5V*%
X127000000Y-49100000D03*
%TO.P,SW17,2,2*%
%TO.N,Net-(SW17-Pad2)*%
X132000000Y-51200000D03*
%TD*%
D10*
%TO.P,SW16,*%
%TO.N,*%
X141000000Y-114150000D03*
D11*
%TO.P,SW16,1,1*%
%TO.N,+5V*%
X146000000Y-103100000D03*
%TO.P,SW16,2,2*%
%TO.N,Net-(SW16-Pad2)*%
X151000000Y-105200000D03*
%TD*%
D10*
%TO.P,SW26,*%
%TO.N,*%
X84000000Y-78150000D03*
D11*
%TO.P,SW26,1,1*%
%TO.N,+5V*%
X89000000Y-67100000D03*
%TO.P,SW26,2,2*%
%TO.N,Net-(SW26-Pad2)*%
X94000000Y-69200000D03*
%TD*%
D10*
%TO.P,SW24,*%
%TO.N,*%
X103000000Y-114150000D03*
D11*
%TO.P,SW24,1,1*%
%TO.N,+5V*%
X108000000Y-103100000D03*
%TO.P,SW24,2,2*%
%TO.N,Net-(SW24-Pad2)*%
X113000000Y-105200000D03*
%TD*%
D10*
%TO.P,SW18,*%
%TO.N,*%
X122000000Y-78150000D03*
D11*
%TO.P,SW18,1,1*%
%TO.N,+5V*%
X127000000Y-67100000D03*
%TO.P,SW18,2,2*%
%TO.N,Net-(SW18-Pad2)*%
X132000000Y-69200000D03*
%TD*%
D10*
%TO.P,SW27,*%
%TO.N,*%
X84000000Y-96150000D03*
D11*
%TO.P,SW27,1,1*%
%TO.N,+5V*%
X89000000Y-85100000D03*
%TO.P,SW27,2,2*%
%TO.N,Net-(SW27-Pad2)*%
X94000000Y-87200000D03*
%TD*%
D10*
%TO.P,SW28,*%
%TO.N,*%
X84000000Y-114150000D03*
D11*
%TO.P,SW28,1,1*%
%TO.N,+5V*%
X89000000Y-103100000D03*
%TO.P,SW28,2,2*%
%TO.N,Net-(SW28-Pad2)*%
X94000000Y-105200000D03*
%TD*%
D10*
%TO.P,SW13,*%
%TO.N,*%
X141000000Y-60150000D03*
D11*
%TO.P,SW13,1,1*%
%TO.N,+5V*%
X146000000Y-49100000D03*
%TO.P,SW13,2,2*%
%TO.N,Net-(SW13-Pad2)*%
X151000000Y-51200000D03*
%TD*%
D10*
%TO.P,SW23,*%
%TO.N,*%
X103000000Y-96150000D03*
D11*
%TO.P,SW23,1,1*%
%TO.N,+5V*%
X108000000Y-85100000D03*
%TO.P,SW23,2,2*%
%TO.N,Net-(SW23-Pad2)*%
X113000000Y-87200000D03*
%TD*%
D10*
%TO.P,SW38,*%
%TO.N,*%
X189000000Y-78150000D03*
D11*
%TO.P,SW38,1,1*%
%TO.N,+5V*%
X184000000Y-67100000D03*
%TO.P,SW38,2,2*%
%TO.N,Net-(SW38-Pad2)*%
X179000000Y-69200000D03*
%TD*%
D10*
%TO.P,SW57,*%
%TO.N,*%
X94000000Y-60150000D03*
D11*
%TO.P,SW57,1,1*%
%TO.N,+5V*%
X89000000Y-49100000D03*
%TO.P,SW57,2,2*%
%TO.N,Net-(SW25-Pad2)*%
X84000000Y-51200000D03*
%TD*%
D12*
%TO.P,U4,1,GPB0*%
%TO.N,Net-(SW1-Pad2)*%
X208255000Y-44700000D03*
%TO.P,U4,2,GPB1*%
%TO.N,Net-(SW2-Pad2)*%
X206985000Y-44700000D03*
%TO.P,U4,3,GPB2*%
%TO.N,Net-(SW3-Pad2)*%
X205715000Y-44700000D03*
%TO.P,U4,4,GPB3*%
%TO.N,Net-(SW36-Pad2)*%
X204445000Y-44700000D03*
%TO.P,U4,5,GPB4*%
%TO.N,Net-(SW37-Pad2)*%
X203175000Y-44700000D03*
%TO.P,U4,6,GPB5*%
%TO.N,Net-(SW38-Pad2)*%
X201905000Y-44700000D03*
%TO.P,U4,7,GPB6*%
%TO.N,Net-(SW39-Pad2)*%
X200635000Y-44700000D03*
%TO.P,U4,8,GPB7*%
%TO.N,Net-(SW40-Pad2)*%
X199365000Y-44700000D03*
%TO.P,U4,9,VDD*%
%TO.N,+5V*%
X198095000Y-44700000D03*
%TO.P,U4,10,VSS*%
%TO.N,GND*%
X196825000Y-44700000D03*
%TO.P,U4,11,NC*%
%TO.N,unconnected-(U4-Pad11)*%
X195555000Y-44700000D03*
%TO.P,U4,12,SCK*%
%TO.N,/SCK*%
X194285000Y-44700000D03*
%TO.P,U4,13,SDA*%
%TO.N,/SDA*%
X193015000Y-44700000D03*
%TO.P,U4,14,NC*%
%TO.N,unconnected-(U4-Pad14)*%
X191745000Y-44700000D03*
%TO.P,U4,15,A0*%
%TO.N,GND*%
X191745000Y-35300000D03*
%TO.P,U4,16,A1*%
X193015000Y-35300000D03*
%TO.P,U4,17,A2*%
X194285000Y-35300000D03*
%TO.P,U4,18,~{RESET}*%
%TO.N,/Reset 3*%
X195555000Y-35300000D03*
%TO.P,U4,19,INTB*%
%TO.N,unconnected-(U4-Pad19)*%
X196825000Y-35300000D03*
%TO.P,U4,20,INTA*%
%TO.N,unconnected-(U4-Pad20)*%
X198095000Y-35300000D03*
%TO.P,U4,21,GPA0*%
%TO.N,Net-(SW41-Pad2)*%
X199365000Y-35300000D03*
%TO.P,U4,22,GPA1*%
%TO.N,Net-(SW10-Pad2)*%
X200635000Y-35300000D03*
%TO.P,U4,23,GPA2*%
%TO.N,Net-(SW11-Pad2)*%
X201905000Y-35300000D03*
%TO.P,U4,24,GPA3*%
%TO.N,Net-(SW12-Pad2)*%
X203175000Y-35300000D03*
%TO.P,U4,25,GPA4*%
%TO.N,Net-(SW13-Pad2)*%
X204445000Y-35300000D03*
%TO.P,U4,26,GPA5*%
%TO.N,Net-(SW14-Pad2)*%
X205715000Y-35300000D03*
%TO.P,U4,27,GPA6*%
%TO.N,Net-(SW15-Pad2)*%
X206985000Y-35300000D03*
%TO.P,U4,28,GPA7*%
%TO.N,Net-(SW16-Pad2)*%
X208255000Y-35300000D03*
%TD*%
D10*
%TO.P,SW47,*%
%TO.N,*%
X151000000Y-96150000D03*
D11*
%TO.P,SW47,1,1*%
%TO.N,+5V*%
X146000000Y-85100000D03*
%TO.P,SW47,2,2*%
%TO.N,Net-(SW15-Pad2)*%
X141000000Y-87200000D03*
%TD*%
D13*
%TO.P,R5,1*%
%TO.N,/SDA*%
X124000000Y-45912500D03*
%TO.P,R5,2*%
%TO.N,+5V*%
X124000000Y-44087500D03*
%TD*%
D10*
%TO.P,SW45,*%
%TO.N,*%
X151000000Y-60150000D03*
D11*
%TO.P,SW45,1,1*%
%TO.N,+5V*%
X146000000Y-49100000D03*
%TO.P,SW45,2,2*%
%TO.N,Net-(SW13-Pad2)*%
X141000000Y-51200000D03*
%TD*%
D10*
%TO.P,SW37,*%
%TO.N,*%
X189000000Y-60150000D03*
D11*
%TO.P,SW37,1,1*%
%TO.N,+5V*%
X184000000Y-49100000D03*
%TO.P,SW37,2,2*%
%TO.N,Net-(SW37-Pad2)*%
X179000000Y-51200000D03*
%TD*%
D10*
%TO.P,SW33,*%
%TO.N,*%
X208000000Y-60150000D03*
D11*
%TO.P,SW33,1,1*%
%TO.N,+5V*%
X203000000Y-49100000D03*
%TO.P,SW33,2,2*%
%TO.N,Net-(SW1-Pad2)*%
X198000000Y-51200000D03*
%TD*%
D12*
%TO.P,U5,1,GPB0*%
%TO.N,Net-(SW17-Pad2)*%
X143755000Y-44700000D03*
%TO.P,U5,2,GPB1*%
%TO.N,Net-(SW18-Pad2)*%
X142485000Y-44700000D03*
%TO.P,U5,3,GPB2*%
%TO.N,Net-(SW19-Pad2)*%
X141215000Y-44700000D03*
%TO.P,U5,4,GPB3*%
%TO.N,Net-(SW20-Pad2)*%
X139945000Y-44700000D03*
%TO.P,U5,5,GPB4*%
%TO.N,Net-(SW21-Pad2)*%
X138675000Y-44700000D03*
%TO.P,U5,6,GPB5*%
%TO.N,Net-(SW22-Pad2)*%
X137405000Y-44700000D03*
%TO.P,U5,7,GPB6*%
%TO.N,Net-(SW23-Pad2)*%
X136135000Y-44700000D03*
%TO.P,U5,8,GPB7*%
%TO.N,Net-(SW24-Pad2)*%
X134865000Y-44700000D03*
%TO.P,U5,9,VDD*%
%TO.N,+5V*%
X133595000Y-44700000D03*
%TO.P,U5,10,VSS*%
%TO.N,GND*%
X132325000Y-44700000D03*
%TO.P,U5,11,NC*%
%TO.N,unconnected-(U5-Pad11)*%
X131055000Y-44700000D03*
%TO.P,U5,12,SCK*%
%TO.N,/SCK*%
X129785000Y-44700000D03*
%TO.P,U5,13,SDA*%
%TO.N,/SDA*%
X128515000Y-44700000D03*
%TO.P,U5,14,NC*%
%TO.N,unconnected-(U5-Pad14)*%
X127245000Y-44700000D03*
%TO.P,U5,15,A0*%
%TO.N,+5V*%
X127245000Y-35300000D03*
%TO.P,U5,16,A1*%
%TO.N,GND*%
X128515000Y-35300000D03*
%TO.P,U5,17,A2*%
X129785000Y-35300000D03*
%TO.P,U5,18,~{RESET}*%
%TO.N,/Reset 4*%
X131055000Y-35300000D03*
%TO.P,U5,19,INTB*%
%TO.N,unconnected-(U5-Pad19)*%
X132325000Y-35300000D03*
%TO.P,U5,20,INTA*%
%TO.N,unconnected-(U5-Pad20)*%
X133595000Y-35300000D03*
%TO.P,U5,21,GPA0*%
%TO.N,Net-(SW25-Pad2)*%
X134865000Y-35300000D03*
%TO.P,U5,22,GPA1*%
%TO.N,Net-(SW26-Pad2)*%
X136135000Y-35300000D03*
%TO.P,U5,23,GPA2*%
%TO.N,Net-(SW27-Pad2)*%
X137405000Y-35300000D03*
%TO.P,U5,24,GPA3*%
%TO.N,Net-(SW28-Pad2)*%
X138675000Y-35300000D03*
%TO.P,U5,25,GPA4*%
%TO.N,Net-(SW29-Pad2)*%
X139945000Y-35300000D03*
%TO.P,U5,26,GPA5*%
%TO.N,Net-(SW30-Pad2)*%
X141215000Y-35300000D03*
%TO.P,U5,27,GPA6*%
%TO.N,Net-(SW31-Pad2)*%
X142485000Y-35300000D03*
%TO.P,U5,28,GPA7*%
%TO.N,Net-(SW32-Pad2)*%
X143755000Y-35300000D03*
%TD*%
D10*
%TO.P,SW42,*%
%TO.N,*%
X170000000Y-78150000D03*
D11*
%TO.P,SW42,1,1*%
%TO.N,+5V*%
X165000000Y-67100000D03*
%TO.P,SW42,2,2*%
%TO.N,Net-(SW10-Pad2)*%
X160000000Y-69200000D03*
%TD*%
D10*
%TO.P,SW35,*%
%TO.N,*%
X208000000Y-96150000D03*
D11*
%TO.P,SW35,1,1*%
%TO.N,+5V*%
X203000000Y-85100000D03*
%TO.P,SW35,2,2*%
%TO.N,Net-(SW3-Pad2)*%
X198000000Y-87200000D03*
%TD*%
D10*
%TO.P,SW34,*%
%TO.N,*%
X208000000Y-78150000D03*
D11*
%TO.P,SW34,1,1*%
%TO.N,+5V*%
X203000000Y-67100000D03*
%TO.P,SW34,2,2*%
%TO.N,Net-(SW2-Pad2)*%
X198000000Y-69200000D03*
%TD*%
D10*
%TO.P,SW63,*%
%TO.N,*%
X98755127Y-155960031D03*
D11*
%TO.P,SW63,1,1*%
%TO.N,+5V*%
X99950000Y-143890450D03*
%TO.P,SW63,2,2*%
%TO.N,Net-(SW31-Pad2)*%
X94569873Y-143209103D03*
%TD*%
D10*
%TO.P,SW49,*%
%TO.N,*%
X132000000Y-60150000D03*
D11*
%TO.P,SW49,1,1*%
%TO.N,+5V*%
X127000000Y-49100000D03*
%TO.P,SW49,2,2*%
%TO.N,Net-(SW17-Pad2)*%
X122000000Y-51200000D03*
%TD*%
D10*
%TO.P,SW55,*%
%TO.N,*%
X113000000Y-96150000D03*
D11*
%TO.P,SW55,1,1*%
%TO.N,+5V*%
X108000000Y-85100000D03*
%TO.P,SW55,2,2*%
%TO.N,Net-(SW23-Pad2)*%
X103000000Y-87200000D03*
%TD*%
D10*
%TO.P,SW53,*%
%TO.N,*%
X113000000Y-60150000D03*
D11*
%TO.P,SW53,1,1*%
%TO.N,+5V*%
X108000000Y-49100000D03*
%TO.P,SW53,2,2*%
%TO.N,Net-(SW21-Pad2)*%
X103000000Y-51200000D03*
%TD*%
D10*
%TO.P,SW40,*%
%TO.N,*%
X189000000Y-114150000D03*
D11*
%TO.P,SW40,1,1*%
%TO.N,+5V*%
X184000000Y-103100000D03*
%TO.P,SW40,2,2*%
%TO.N,Net-(SW40-Pad2)*%
X179000000Y-105200000D03*
%TD*%
D10*
%TO.P,SW43,*%
%TO.N,*%
X170000000Y-96150000D03*
D11*
%TO.P,SW43,1,1*%
%TO.N,+5V*%
X165000000Y-85100000D03*
%TO.P,SW43,2,2*%
%TO.N,Net-(SW11-Pad2)*%
X160000000Y-87200000D03*
%TD*%
D10*
%TO.P,SW56,*%
%TO.N,*%
X113000000Y-114150000D03*
D11*
%TO.P,SW56,1,1*%
%TO.N,+5V*%
X108000000Y-103100000D03*
%TO.P,SW56,2,2*%
%TO.N,Net-(SW24-Pad2)*%
X103000000Y-105200000D03*
%TD*%
D10*
%TO.P,SW46,*%
%TO.N,*%
X151000000Y-78150000D03*
D11*
%TO.P,SW46,1,1*%
%TO.N,+5V*%
X146000000Y-67100000D03*
%TO.P,SW46,2,2*%
%TO.N,Net-(SW14-Pad2)*%
X141000000Y-69200000D03*
%TD*%
D10*
%TO.P,SW51,*%
%TO.N,*%
X132000000Y-96150000D03*
D11*
%TO.P,SW51,1,1*%
%TO.N,+5V*%
X127000000Y-85100000D03*
%TO.P,SW51,2,2*%
%TO.N,Net-(SW19-Pad2)*%
X122000000Y-87200000D03*
%TD*%
D14*
%TO.P,U3,1,PA02_A0_D0*%
%TO.N,unconnected-(U3-Pad1)*%
X102753424Y-119894638D03*
%TO.P,U3,2,PA4_A1_D1*%
%TO.N,unconnected-(U3-Pad2)*%
X105206876Y-120552039D03*
%TO.P,U3,3,PA10_A2_D2*%
%TO.N,unconnected-(U3-Pad3)*%
X107660328Y-121209439D03*
%TO.P,U3,4,PA11_A3_D3*%
%TO.N,unconnected-(U3-Pad4)*%
X110113779Y-121866839D03*
%TO.P,U3,5,PA8_A4_D4_SDA*%
%TO.N,/SDA*%
X112567231Y-122524240D03*
%TO.P,U3,6,PA9_A5_D5_SCL*%
%TO.N,/SCK*%
X115020682Y-123181640D03*
%TO.P,U3,7,PB08_A6_D6_TX*%
%TO.N,unconnected-(U3-Pad7)*%
X117474134Y-123839041D03*
%TO.P,U3,8,PB09_A7_D7_RX*%
%TO.N,unconnected-(U3-Pad8)*%
X113290438Y-139452806D03*
%TO.P,U3,9,PA7_A8_D8_SCK*%
%TO.N,unconnected-(U3-Pad9)*%
X110836986Y-138795406D03*
%TO.P,U3,10,PA5_A9_D9_MISO*%
%TO.N,unconnected-(U3-Pad10)*%
X108383535Y-138138006D03*
%TO.P,U3,11,PA6_A10_D10_MOSI*%
%TO.N,unconnected-(U3-Pad11)*%
X105930083Y-137480605D03*
%TO.P,U3,12,3V3*%
%TO.N,unconnected-(U3-Pad12)*%
X103476632Y-136823205D03*
%TO.P,U3,13,GND*%
%TO.N,GND*%
X101023180Y-136165805D03*
%TO.P,U3,14,5V*%
%TO.N,+5V*%
X98569728Y-135508404D03*
D15*
%TO.P,U3,15,5V*%
%TO.N,unconnected-(U3-Pad15)*%
X116737949Y-130750898D03*
%TO.P,U3,16,GND*%
%TO.N,unconnected-(U3-Pad16)*%
X116077960Y-133214008D03*
D16*
%TO.P,U3,17,PA31_SWDIO*%
%TO.N,unconnected-(U3-Pad17)*%
X100313475Y-126348734D03*
%TO.P,U3,18,PA30_SWCLK*%
%TO.N,unconnected-(U3-Pad18)*%
X99656075Y-128802186D03*
%TO.P,U3,19,RESET*%
%TO.N,unconnected-(U3-Pad19)*%
X102766927Y-127006134D03*
%TO.P,U3,20,GND*%
%TO.N,unconnected-(U3-Pad20)*%
X102109527Y-129459586D03*
%TD*%
D13*
%TO.P,R6,1*%
%TO.N,/SCK*%
X121000000Y-45912500D03*
%TO.P,R6,2*%
%TO.N,+5V*%
X121000000Y-44087500D03*
%TD*%
D10*
%TO.P,SW50,*%
%TO.N,*%
X132000000Y-78150000D03*
D11*
%TO.P,SW50,1,1*%
%TO.N,+5V*%
X127000000Y-67100000D03*
%TO.P,SW50,2,2*%
%TO.N,Net-(SW18-Pad2)*%
X122000000Y-69200000D03*
%TD*%
D10*
%TO.P,SW62,*%
%TO.N,*%
X86244873Y-157039969D03*
D11*
%TO.P,SW62,1,1*%
%TO.N,+5V*%
X85050000Y-169109550D03*
%TO.P,SW62,2,2*%
%TO.N,Net-(SW30-Pad2)*%
X90430127Y-169790897D03*
%TD*%
D17*
%TO.P,R7,1*%
%TO.N,/Reset 3*%
X210500000Y-34587500D03*
%TO.P,R7,2*%
%TO.N,+5V*%
X210500000Y-36412500D03*
%TD*%
D10*
%TO.P,SW64,*%
%TO.N,*%
X114755127Y-164960031D03*
D11*
%TO.P,SW64,1,1*%
%TO.N,+5V*%
X115950000Y-152890450D03*
%TO.P,SW64,2,2*%
%TO.N,Net-(SW32-Pad2)*%
X110569873Y-152209103D03*
%TD*%
D18*
%TO.P,J2,R1*%
%TO.N,/SDA*%
X87095000Y-44250000D03*
%TO.P,J2,R2*%
%TO.N,/SCK*%
X84095000Y-44250000D03*
%TO.P,J2,S*%
%TO.N,+5V*%
X92195000Y-37750000D03*
%TO.P,J2,T*%
%TO.N,GND*%
X91095000Y-44250000D03*
%TD*%
D10*
%TO.P,SW54,*%
%TO.N,*%
X113000000Y-78150000D03*
D11*
%TO.P,SW54,1,1*%
%TO.N,+5V*%
X108000000Y-67100000D03*
%TO.P,SW54,2,2*%
%TO.N,Net-(SW22-Pad2)*%
X103000000Y-69200000D03*
%TD*%
D10*
%TO.P,SW60,*%
%TO.N,*%
X94000000Y-114150000D03*
D11*
%TO.P,SW60,1,1*%
%TO.N,+5V*%
X89000000Y-103100000D03*
%TO.P,SW60,2,2*%
%TO.N,Net-(SW28-Pad2)*%
X84000000Y-105200000D03*
%TD*%
D10*
%TO.P,SW41,*%
%TO.N,*%
X170000000Y-60150000D03*
D11*
%TO.P,SW41,1,1*%
%TO.N,+5V*%
X165000000Y-49100000D03*
%TO.P,SW41,2,2*%
%TO.N,Net-(SW41-Pad2)*%
X160000000Y-51200000D03*
%TD*%
D10*
%TO.P,SW59,*%
%TO.N,*%
X94000000Y-96150000D03*
D11*
%TO.P,SW59,1,1*%
%TO.N,+5V*%
X89000000Y-85100000D03*
%TO.P,SW59,2,2*%
%TO.N,Net-(SW27-Pad2)*%
X84000000Y-87200000D03*
%TD*%
D10*
%TO.P,SW36,*%
%TO.N,*%
X208000000Y-114150000D03*
D11*
%TO.P,SW36,1,1*%
%TO.N,+5V*%
X203000000Y-103100000D03*
%TO.P,SW36,2,2*%
%TO.N,Net-(SW36-Pad2)*%
X198000000Y-105200000D03*
%TD*%
D10*
%TO.P,SW61,*%
%TO.N,*%
X82755127Y-145960031D03*
D11*
%TO.P,SW61,1,1*%
%TO.N,+5V*%
X83950000Y-133890450D03*
%TO.P,SW61,2,2*%
%TO.N,Net-(SW29-Pad2)*%
X78569873Y-133209103D03*
%TD*%
D10*
%TO.P,SW48,*%
%TO.N,*%
X151000000Y-114150000D03*
D11*
%TO.P,SW48,1,1*%
%TO.N,+5V*%
X146000000Y-103100000D03*
%TO.P,SW48,2,2*%
%TO.N,Net-(SW16-Pad2)*%
X141000000Y-105200000D03*
%TD*%
D10*
%TO.P,SW52,*%
%TO.N,*%
X132000000Y-114150000D03*
D11*
%TO.P,SW52,1,1*%
%TO.N,+5V*%
X127000000Y-103100000D03*
%TO.P,SW52,2,2*%
%TO.N,Net-(SW20-Pad2)*%
X122000000Y-105200000D03*
%TD*%
D10*
%TO.P,SW44,*%
%TO.N,*%
X170000000Y-114150000D03*
D11*
%TO.P,SW44,1,1*%
%TO.N,+5V*%
X165000000Y-103100000D03*
%TO.P,SW44,2,2*%
%TO.N,Net-(SW12-Pad2)*%
X160000000Y-105200000D03*
%TD*%
D17*
%TO.P,R8,1*%
%TO.N,/Reset 4*%
X148500000Y-39087500D03*
%TO.P,R8,2*%
%TO.N,+5V*%
X148500000Y-40912500D03*
%TD*%
D10*
%TO.P,SW39,*%
%TO.N,*%
X189000000Y-96150000D03*
D11*
%TO.P,SW39,1,1*%
%TO.N,+5V*%
X184000000Y-85100000D03*
%TO.P,SW39,2,2*%
%TO.N,Net-(SW39-Pad2)*%
X179000000Y-87200000D03*
%TD*%
D10*
%TO.P,SW58,*%
%TO.N,*%
X94000000Y-78150000D03*
D11*
%TO.P,SW58,1,1*%
%TO.N,+5V*%
X89000000Y-67100000D03*
%TO.P,SW58,2,2*%
%TO.N,Net-(SW26-Pad2)*%
X84000000Y-69200000D03*
%TD*%
D19*
%TO.N,/SDA*%
X81500000Y-44000000D03*
X87000000Y-42000000D03*
X83500000Y-121000000D03*
X128500000Y-48000000D03*
X193000000Y-43000000D03*
%TO.N,/SCK*%
X130000000Y-47500000D03*
X82500000Y-45000000D03*
X83500000Y-120000000D03*
X85000000Y-42000000D03*
X194500000Y-43000000D03*
%TO.N,+5V*%
X87500000Y-39599502D03*
X81500000Y-39500000D03*
X162911160Y-36139627D03*
X125706250Y-35206250D03*
X125000000Y-42500000D03*
%TO.N,GND*%
X132000000Y-46500000D03*
X83500000Y-123000000D03*
X92000000Y-40000000D03*
X93500000Y-34500000D03*
%TO.N,Net-(SW1-Pad2)*%
X208000000Y-42500000D03*
X165000000Y-43255000D03*
%TO.N,Net-(SW2-Pad2)*%
X183487701Y-41012299D03*
X166380000Y-42985000D03*
X207000000Y-42500000D03*
%TO.N,Net-(SW3-Pad2)*%
X205500000Y-42500000D03*
X183475825Y-42500000D03*
X167650000Y-42715000D03*
%TO.N,Net-(SW10-Pad2)*%
X172730000Y-37365000D03*
X200500000Y-37500000D03*
X184599848Y-36900152D03*
%TO.N,Net-(SW11-Pad2)*%
X171460000Y-37095000D03*
X185817342Y-36274500D03*
X201500000Y-37000000D03*
%TO.N,Net-(SW12-Pad2)*%
X203175000Y-37000000D03*
X186793245Y-35824500D03*
X170190000Y-37000000D03*
%TO.N,Net-(SW13-Pad2)*%
X204437002Y-36937002D03*
X187500000Y-35000000D03*
X168920000Y-36920000D03*
%TO.N,Net-(SW14-Pad2)*%
X167650000Y-37000000D03*
X175500000Y-38000000D03*
%TO.N,Net-(SW15-Pad2)*%
X166380000Y-36985000D03*
X177000000Y-38825500D03*
%TO.N,Net-(SW16-Pad2)*%
X165110000Y-37255000D03*
X178420201Y-38850500D03*
%TO.N,Net-(SW17-Pad2)*%
X143500000Y-43000000D03*
X143500000Y-47224500D03*
X99745000Y-43255000D03*
%TO.N,Net-(SW18-Pad2)*%
X101015000Y-43015000D03*
X142500000Y-47674500D03*
X142500000Y-43000000D03*
%TO.N,Net-(SW19-Pad2)*%
X141500000Y-48724500D03*
X141000000Y-43000000D03*
X102285000Y-43285000D03*
%TO.N,Net-(SW20-Pad2)*%
X140000000Y-43000000D03*
X140500000Y-49224500D03*
X103847253Y-42967599D03*
%TO.N,Net-(SW21-Pad2)*%
X135449501Y-58000000D03*
X139500000Y-49949000D03*
X138500000Y-43000000D03*
X104825000Y-43175000D03*
%TO.N,Net-(SW22-Pad2)*%
X135500000Y-70500000D03*
X138500000Y-50500000D03*
X106095000Y-43095000D03*
X137500000Y-43000000D03*
%TO.N,Net-(SW23-Pad2)*%
X137793245Y-51224500D03*
X135500000Y-88500000D03*
X136000000Y-43000000D03*
X107365000Y-43000000D03*
%TO.N,Net-(SW24-Pad2)*%
X135500000Y-106500000D03*
X137000000Y-52000000D03*
X108555500Y-43079500D03*
X135000000Y-43000000D03*
%TO.N,Net-(SW25-Pad2)*%
X109000000Y-37000000D03*
%TO.N,Net-(SW26-Pad2)*%
X107365000Y-37000000D03*
X110000000Y-37450500D03*
%TO.N,Net-(SW27-Pad2)*%
X110964336Y-37713295D03*
X106000000Y-37000000D03*
%TO.N,Net-(SW28-Pad2)*%
X105000000Y-37000000D03*
X112000000Y-38249500D03*
%TO.N,Net-(SW29-Pad2)*%
X113000000Y-38574500D03*
X103555000Y-37000000D03*
%TO.N,Net-(SW30-Pad2)*%
X113831728Y-39149500D03*
X102285000Y-36715000D03*
%TO.N,Net-(SW31-Pad2)*%
X114716873Y-39613747D03*
X101000614Y-36984781D03*
%TO.N,Net-(SW32-Pad2)*%
X112500000Y-40699500D03*
X99745000Y-36745000D03*
%TO.N,Net-(SW36-Pad2)*%
X168920000Y-42555000D03*
X183250000Y-43500000D03*
X204500000Y-42500000D03*
%TO.N,Net-(SW37-Pad2)*%
X182987701Y-44512299D03*
X170190000Y-42825000D03*
X203000000Y-42500000D03*
%TO.N,Net-(SW38-Pad2)*%
X171460000Y-42905000D03*
X176000000Y-50000000D03*
X201905000Y-42595000D03*
%TO.N,Net-(SW39-Pad2)*%
X200635000Y-42635000D03*
X172730000Y-42635000D03*
X175000000Y-48375500D03*
%TO.N,Net-(SW40-Pad2)*%
X174000000Y-48000000D03*
X199500000Y-42500000D03*
X174000000Y-43000000D03*
%TO.N,Net-(SW41-Pad2)*%
X174000000Y-37365000D03*
%TD*%
D20*
%TO.N,/SDA*%
X128500000Y-48000000D02*
X128515000Y-47985000D01*
X94500000Y-123000000D02*
X85500000Y-123000000D01*
X87095000Y-43069695D02*
X87095000Y-44250000D01*
X85500000Y-123000000D02*
X83500000Y-121000000D01*
X85300305Y-41275000D02*
X87095000Y-43069695D01*
X127870000Y-46025000D02*
X128515000Y-45380000D01*
X81500000Y-44000000D02*
X84225000Y-41275000D01*
X124087500Y-46000000D02*
X126595000Y-46000000D01*
X124000000Y-45912500D02*
X124087500Y-46000000D01*
X99388599Y-118111401D02*
X94500000Y-123000000D01*
X126595000Y-46000000D02*
X126620000Y-46025000D01*
X193015000Y-43015000D02*
X193000000Y-43000000D01*
X126620000Y-46025000D02*
X127870000Y-46025000D01*
X109765766Y-118111401D02*
X99388599Y-118111401D01*
X193015000Y-44700000D02*
X193015000Y-43015000D01*
X128515000Y-47985000D02*
X128515000Y-44700000D01*
X87095000Y-44250000D02*
X87095000Y-42095000D01*
X112567231Y-120912866D02*
X109765766Y-118111401D01*
X128515000Y-45380000D02*
X128515000Y-44700000D01*
X87095000Y-42095000D02*
X87000000Y-42000000D01*
X84225000Y-41275000D02*
X85300305Y-41275000D01*
X112567231Y-122524240D02*
X112567231Y-120912866D01*
%TO.N,/SCK*%
X194285000Y-43215000D02*
X194500000Y-43000000D01*
X129785000Y-44700000D02*
X129785000Y-44000000D01*
X130000000Y-47500000D02*
X129785000Y-47285000D01*
X115020682Y-123181640D02*
X115020682Y-121570266D01*
X82500000Y-45000000D02*
X83345000Y-45000000D01*
X124370495Y-45000000D02*
X121912500Y-45000000D01*
X121912500Y-45000000D02*
X121000000Y-45912500D01*
X125995495Y-43375000D02*
X124370495Y-45000000D01*
X115020682Y-121570266D02*
X111111817Y-117661401D01*
X194285000Y-44700000D02*
X194285000Y-43215000D01*
X85000000Y-43345000D02*
X85000000Y-42000000D01*
X85838599Y-117661401D02*
X111111817Y-117661401D01*
X84095000Y-44250000D02*
X85000000Y-43345000D01*
X83345000Y-45000000D02*
X84095000Y-44250000D01*
X129785000Y-44000000D02*
X129160000Y-43375000D01*
X129160000Y-43375000D02*
X125995495Y-43375000D01*
X85838599Y-117661401D02*
X83500000Y-120000000D01*
X129785000Y-47285000D02*
X129785000Y-44700000D01*
%TO.N,+5V*%
X87500000Y-39599502D02*
X89349502Y-37750000D01*
X127245000Y-35300000D02*
X125800000Y-35300000D01*
X124000000Y-44087500D02*
X124000000Y-43500000D01*
X208880000Y-46025000D02*
X210500000Y-44405000D01*
X98569728Y-135508404D02*
X98569728Y-137119778D01*
X210500000Y-44405000D02*
X210500000Y-36412500D01*
X198720000Y-46025000D02*
X208880000Y-46025000D01*
X197875000Y-43375000D02*
X198095000Y-43595000D01*
X133595000Y-45380000D02*
X133595000Y-44700000D01*
X114340400Y-152890450D02*
X115950000Y-152890450D01*
X148500000Y-42456250D02*
X144931250Y-46025000D01*
X148500000Y-40912500D02*
X148500000Y-42456250D01*
X196200000Y-46025000D02*
X196200000Y-43375000D01*
X98569728Y-137119778D02*
X114340400Y-152890450D01*
X198095000Y-45400000D02*
X198720000Y-46025000D01*
X162911160Y-36139627D02*
X162911160Y-37179652D01*
X130425305Y-49100000D02*
X127000000Y-49100000D01*
X143905000Y-46500000D02*
X134715000Y-46500000D01*
X196200000Y-43375000D02*
X197875000Y-43375000D01*
X124000000Y-43500000D02*
X125000000Y-42500000D01*
X144931250Y-46025000D02*
X144380000Y-46025000D01*
X162911160Y-37179652D02*
X150990812Y-49100000D01*
X150990812Y-49100000D02*
X146000000Y-49100000D01*
X133595000Y-45930305D02*
X130425305Y-49100000D01*
X198095000Y-43595000D02*
X198095000Y-44700000D01*
X87435492Y-39664010D02*
X87500000Y-39599502D01*
X199275000Y-49100000D02*
X196200000Y-46025000D01*
X121000000Y-44087500D02*
X124000000Y-44087500D01*
X203000000Y-49100000D02*
X199275000Y-49100000D01*
X134715000Y-46500000D02*
X133595000Y-45380000D01*
X81664010Y-39664010D02*
X87435492Y-39664010D01*
X81500000Y-39500000D02*
X81664010Y-39664010D01*
X125800000Y-35300000D02*
X125706250Y-35206250D01*
X133595000Y-44700000D02*
X133595000Y-45930305D01*
X89349502Y-37750000D02*
X92195000Y-37750000D01*
X198095000Y-44700000D02*
X198095000Y-45400000D01*
X144380000Y-46025000D02*
X143905000Y-46500000D01*
%TO.N,GND*%
X94500000Y-37945000D02*
X92445000Y-40000000D01*
X194285000Y-35300000D02*
X194285000Y-34600000D01*
X91095000Y-40905000D02*
X92000000Y-40000000D01*
X129785000Y-35300000D02*
X129785000Y-33465000D01*
X189570000Y-33125000D02*
X130125000Y-33125000D01*
X196825000Y-45400000D02*
X196825000Y-44700000D01*
X83950000Y-123450000D02*
X83500000Y-123000000D01*
X94500000Y-34000000D02*
X94500000Y-37945000D01*
X132325000Y-44700000D02*
X132325000Y-46175000D01*
X195360000Y-33525000D02*
X210720495Y-33525000D01*
X191745000Y-35300000D02*
X193015000Y-35300000D01*
X210950000Y-44218604D02*
X210950000Y-44591396D01*
X94500000Y-33125000D02*
X94500000Y-34000000D01*
X193015000Y-35300000D02*
X194285000Y-35300000D01*
X209066396Y-46475000D02*
X197900000Y-46475000D01*
X101023180Y-134554431D02*
X89918749Y-123450000D01*
X132325000Y-46175000D02*
X132000000Y-46500000D01*
X191745000Y-35300000D02*
X189570000Y-33125000D01*
X94000000Y-34000000D02*
X94500000Y-34000000D01*
X197900000Y-46475000D02*
X196825000Y-45400000D01*
X130125000Y-33125000D02*
X94500000Y-33125000D01*
X210950000Y-44591396D02*
X209066396Y-46475000D01*
X129785000Y-33465000D02*
X130125000Y-33125000D01*
X89918749Y-123450000D02*
X83950000Y-123450000D01*
X210720495Y-33525000D02*
X211300000Y-34104505D01*
X211300000Y-43868604D02*
X210950000Y-44218604D01*
X129785000Y-35300000D02*
X128515000Y-35300000D01*
X93500000Y-34500000D02*
X94000000Y-34000000D01*
X92445000Y-40000000D02*
X92000000Y-40000000D01*
X211300000Y-34104505D02*
X211300000Y-43868604D01*
X91095000Y-44250000D02*
X91095000Y-40905000D01*
X194285000Y-34600000D02*
X195360000Y-33525000D01*
X101023180Y-136165805D02*
X101023180Y-134554431D01*
%TO.N,Net-(SW1-Pad2)*%
X194700000Y-51200000D02*
X208000000Y-51200000D01*
X208255000Y-44700000D02*
X208255000Y-42755000D01*
X198000000Y-51200000D02*
X208000000Y-51200000D01*
X183075000Y-39575000D02*
X194700000Y-51200000D01*
X168680000Y-39575000D02*
X183075000Y-39575000D01*
X165000000Y-43255000D02*
X168680000Y-39575000D01*
X208255000Y-42755000D02*
X208000000Y-42500000D01*
%TO.N,Net-(SW2-Pad2)*%
X198000000Y-69200000D02*
X208000000Y-69200000D01*
X183512299Y-41012299D02*
X193900000Y-51400000D01*
X193900000Y-51400000D02*
X193900000Y-65100000D01*
X206985000Y-44700000D02*
X206985000Y-42515000D01*
X166380000Y-42959695D02*
X166380000Y-42985000D01*
X169314695Y-40025000D02*
X166380000Y-42959695D01*
X206985000Y-42515000D02*
X207000000Y-42500000D01*
X183487701Y-41012299D02*
X183512299Y-41012299D01*
X183487701Y-41012299D02*
X182500402Y-40025000D01*
X182500402Y-40025000D02*
X169314695Y-40025000D01*
X193900000Y-65100000D02*
X198000000Y-69200000D01*
%TO.N,Net-(SW3-Pad2)*%
X182951651Y-42500000D02*
X180926651Y-40475000D01*
X198000000Y-87200000D02*
X208000000Y-87200000D01*
X183475825Y-42500000D02*
X182951651Y-42500000D01*
X205715000Y-42715000D02*
X205500000Y-42500000D01*
X205715000Y-44700000D02*
X205715000Y-42715000D01*
X183475825Y-42500000D02*
X193450000Y-52474175D01*
X193450000Y-82650000D02*
X198000000Y-87200000D01*
X169890000Y-40475000D02*
X167650000Y-42715000D01*
X180926651Y-40475000D02*
X169890000Y-40475000D01*
X193450000Y-52474175D02*
X193450000Y-82650000D01*
%TO.N,Net-(SW10-Pad2)*%
X173455000Y-36640000D02*
X174860000Y-36640000D01*
X160000000Y-69200000D02*
X163300000Y-69200000D01*
X163300000Y-69200000D02*
X170000000Y-69200000D01*
X157450000Y-47913604D02*
X157450000Y-63450000D01*
X163200000Y-69200000D02*
X163300000Y-69200000D01*
X184599848Y-36900152D02*
X184149695Y-36450000D01*
X174860000Y-36640000D02*
X175050000Y-36450000D01*
X168307208Y-38675000D02*
X166491104Y-40491104D01*
X172297500Y-37797500D02*
X171420000Y-38675000D01*
X200635000Y-35300000D02*
X200635000Y-37365000D01*
X175050000Y-36450000D02*
X184149695Y-36450000D01*
X171420000Y-38675000D02*
X168307208Y-38675000D01*
X172730000Y-37365000D02*
X172297500Y-37797500D01*
X157450000Y-63450000D02*
X163200000Y-69200000D01*
X166491104Y-40491104D02*
X164872500Y-40491104D01*
X164872500Y-40491104D02*
X157450000Y-47913604D01*
X172297500Y-37797500D02*
X173455000Y-36640000D01*
X200635000Y-37365000D02*
X200500000Y-37500000D01*
%TO.N,Net-(SW11-Pad2)*%
X171250000Y-37750000D02*
X170775000Y-38225000D01*
X157000000Y-84200000D02*
X157000000Y-47727208D01*
X173000000Y-36000000D02*
X171250000Y-37750000D01*
X201905000Y-36595000D02*
X201905000Y-35300000D01*
X171460000Y-37540000D02*
X171250000Y-37750000D01*
X170775000Y-38225000D02*
X168120812Y-38225000D01*
X160000000Y-87200000D02*
X170000000Y-87200000D01*
X185817342Y-36274500D02*
X185542842Y-36000000D01*
X164686104Y-40041104D02*
X157000000Y-47727208D01*
X160000000Y-87200000D02*
X157000000Y-84200000D01*
X171460000Y-37095000D02*
X171460000Y-37540000D01*
X201500000Y-37000000D02*
X201905000Y-36595000D01*
X185542842Y-36000000D02*
X173000000Y-36000000D01*
X166304708Y-40041104D02*
X164686104Y-40041104D01*
X168120812Y-38225000D02*
X166304708Y-40041104D01*
%TO.N,Net-(SW12-Pad2)*%
X167934416Y-37775000D02*
X166118312Y-39591104D01*
X164499708Y-39591104D02*
X156450000Y-47640812D01*
X156450000Y-102450000D02*
X159200000Y-105200000D01*
X170190000Y-37000000D02*
X169415000Y-37775000D01*
X169415000Y-37775000D02*
X167934416Y-37775000D01*
X159200000Y-105200000D02*
X170000000Y-105200000D01*
X156450000Y-47640812D02*
X156450000Y-102450000D01*
X171640000Y-35550000D02*
X170190000Y-37000000D01*
X166118312Y-39591104D02*
X164499708Y-39591104D01*
X203175000Y-35300000D02*
X203175000Y-37000000D01*
X186793245Y-35824500D02*
X186518745Y-35550000D01*
X186518745Y-35550000D02*
X171640000Y-35550000D01*
%TO.N,Net-(SW13-Pad2)*%
X204437002Y-36937002D02*
X204445000Y-36929004D01*
X164436903Y-35630000D02*
X163485000Y-36581903D01*
X168920000Y-36920000D02*
X167630000Y-35630000D01*
X187400000Y-35100000D02*
X170740000Y-35100000D01*
X187500000Y-35000000D02*
X187400000Y-35100000D01*
X151000000Y-49727208D02*
X151000000Y-51200000D01*
X204445000Y-36929004D02*
X204445000Y-35300000D01*
X141000000Y-51200000D02*
X151000000Y-51200000D01*
X163485000Y-37242208D02*
X151000000Y-49727208D01*
X167630000Y-35630000D02*
X164436903Y-35630000D01*
X170740000Y-35100000D02*
X168920000Y-36920000D01*
X163485000Y-36581903D02*
X163485000Y-37242208D01*
%TO.N,Net-(SW14-Pad2)*%
X141000000Y-69200000D02*
X151000000Y-69200000D01*
X167650000Y-37000000D02*
X166730000Y-36080000D01*
X166730000Y-36080000D02*
X164623299Y-36080000D01*
X175500000Y-38000000D02*
X175824500Y-37675500D01*
X155000000Y-46363604D02*
X155000000Y-65200000D01*
X175824500Y-37675500D02*
X183377403Y-37675500D01*
X163935000Y-36768299D02*
X163935000Y-37428604D01*
X155000000Y-65200000D02*
X151000000Y-69200000D01*
X164623299Y-36080000D02*
X163935000Y-36768299D01*
X184201903Y-38500000D02*
X203898604Y-38500000D01*
X203898604Y-38500000D02*
X205715000Y-36683604D01*
X163935000Y-37428604D02*
X155000000Y-46363604D01*
X205715000Y-36683604D02*
X205715000Y-35300000D01*
X183377403Y-37675500D02*
X184201903Y-38500000D01*
%TO.N,Net-(SW15-Pad2)*%
X206985000Y-35300000D02*
X206985000Y-36050000D01*
X166380000Y-36985000D02*
X165925000Y-36530000D01*
X155550000Y-46450000D02*
X155550000Y-86000000D01*
X179270006Y-38675000D02*
X178720506Y-38125500D01*
X204035000Y-39000000D02*
X183772792Y-39000000D01*
X178720506Y-38125500D02*
X177700000Y-38125500D01*
X164385000Y-36954695D02*
X164385000Y-37615000D01*
X183447792Y-38675000D02*
X179270006Y-38675000D01*
X141000000Y-87200000D02*
X151000000Y-87200000D01*
X164385000Y-37615000D02*
X155550000Y-46450000D01*
X206985000Y-36050000D02*
X204035000Y-39000000D01*
X177700000Y-38125500D02*
X177000000Y-38825500D01*
X183772792Y-39000000D02*
X183447792Y-38675000D01*
X165925000Y-36530000D02*
X164809695Y-36530000D01*
X154350000Y-87200000D02*
X151000000Y-87200000D01*
X155550000Y-86000000D02*
X154350000Y-87200000D01*
X164809695Y-36530000D02*
X164385000Y-36954695D01*
%TO.N,Net-(SW16-Pad2)*%
X141000000Y-105200000D02*
X151000000Y-105200000D01*
X183636396Y-39500000D02*
X204735000Y-39500000D01*
X208255000Y-35980000D02*
X208255000Y-35300000D01*
X153800000Y-105200000D02*
X151000000Y-105200000D01*
X156000000Y-47000000D02*
X156000000Y-103000000D01*
X178420201Y-38850500D02*
X178694701Y-39125000D01*
X156000000Y-103000000D02*
X153800000Y-105200000D01*
X178694701Y-39125000D02*
X183261396Y-39125000D01*
X204735000Y-39500000D02*
X208255000Y-35980000D01*
X165110000Y-37255000D02*
X165110000Y-37890000D01*
X165110000Y-37890000D02*
X156000000Y-47000000D01*
X183261396Y-39125000D02*
X183636396Y-39500000D01*
%TO.N,Net-(SW17-Pad2)*%
X143755000Y-43255000D02*
X143500000Y-43000000D01*
X122200000Y-51200000D02*
X132000000Y-51200000D01*
X119400000Y-46490812D02*
X119400000Y-48400000D01*
X103345500Y-39654500D02*
X110200084Y-39654500D01*
X143755000Y-44700000D02*
X143755000Y-43255000D01*
X117559188Y-44650000D02*
X119400000Y-46490812D01*
X143225500Y-46950000D02*
X134050000Y-46950000D01*
X119400000Y-48400000D02*
X122200000Y-51200000D01*
X132000000Y-49000000D02*
X132000000Y-51200000D01*
X134050000Y-46950000D02*
X132000000Y-49000000D01*
X110200084Y-39654500D02*
X115195584Y-44650000D01*
X143500000Y-47224500D02*
X143225500Y-46950000D01*
X115195584Y-44650000D02*
X117559188Y-44650000D01*
X99745000Y-43255000D02*
X103345500Y-39654500D01*
%TO.N,Net-(SW18-Pad2)*%
X133825001Y-67374999D02*
X132000000Y-69200000D01*
X142500000Y-47674500D02*
X142325500Y-47500000D01*
X115009188Y-45100000D02*
X117372792Y-45100000D01*
X117372792Y-45100000D02*
X118950000Y-46677208D01*
X142325500Y-47500000D02*
X134136396Y-47500000D01*
X103531896Y-40104500D02*
X110013688Y-40104500D01*
X118950000Y-67450000D02*
X120700000Y-69200000D01*
X101015000Y-42621396D02*
X103531896Y-40104500D01*
X133825001Y-51674999D02*
X133825001Y-67374999D01*
X110013688Y-40104500D02*
X115009188Y-45100000D01*
X134136396Y-47500000D02*
X133850000Y-47786396D01*
X120700000Y-69200000D02*
X132000000Y-69200000D01*
X142485000Y-43015000D02*
X142500000Y-43000000D01*
X118950000Y-46677208D02*
X118950000Y-67450000D01*
X142485000Y-44700000D02*
X142485000Y-43015000D01*
X133850000Y-51650000D02*
X133825001Y-51674999D01*
X101015000Y-43015000D02*
X101015000Y-42621396D01*
X133850000Y-47786396D02*
X133850000Y-51650000D01*
%TO.N,Net-(SW19-Pad2)*%
X102285000Y-43285000D02*
X103570000Y-42000000D01*
X141215000Y-44700000D02*
X141215000Y-43215000D01*
X118500000Y-80500000D02*
X125200000Y-87200000D01*
X141275500Y-48500000D02*
X134500000Y-48500000D01*
X134300000Y-51836396D02*
X134275001Y-51861395D01*
X134275001Y-84924999D02*
X132000000Y-87200000D01*
X105445500Y-40554500D02*
X109827292Y-40554500D01*
X109827292Y-40554500D02*
X114822792Y-45550000D01*
X141500000Y-48724500D02*
X141275500Y-48500000D01*
X122000000Y-87200000D02*
X125200000Y-87200000D01*
X117186396Y-45550000D02*
X118500000Y-46863604D01*
X134300000Y-48700000D02*
X134300000Y-51836396D01*
X118500000Y-46863604D02*
X118500000Y-80500000D01*
X103570000Y-42000000D02*
X104000000Y-42000000D01*
X141215000Y-43215000D02*
X141000000Y-43000000D01*
X134500000Y-48500000D02*
X134300000Y-48700000D01*
X104000000Y-42000000D02*
X105445500Y-40554500D01*
X125200000Y-87200000D02*
X132000000Y-87200000D01*
X114822792Y-45550000D02*
X117186396Y-45550000D01*
X134275001Y-51861395D02*
X134275001Y-84924999D01*
%TO.N,Net-(SW20-Pad2)*%
X118000000Y-47000000D02*
X118000000Y-100000000D01*
X123200000Y-105200000D02*
X132000000Y-105200000D01*
X134750000Y-49224500D02*
X134750000Y-52022792D01*
X134750000Y-52022792D02*
X134725001Y-52047791D01*
X109640896Y-41004500D02*
X114636396Y-46000000D01*
X103847253Y-42967599D02*
X105810352Y-41004500D01*
X134725001Y-102474999D02*
X132000000Y-105200000D01*
X114636396Y-46000000D02*
X117000000Y-46000000D01*
X105810352Y-41004500D02*
X109640896Y-41004500D01*
X140500000Y-49224500D02*
X134750000Y-49224500D01*
X134725001Y-52047791D02*
X134725001Y-102474999D01*
X118000000Y-100000000D02*
X123200000Y-105200000D01*
X139945000Y-44700000D02*
X139945000Y-43055000D01*
X139945000Y-43055000D02*
X140000000Y-43000000D01*
X117000000Y-46000000D02*
X118000000Y-47000000D01*
%TO.N,Net-(SW21-Pad2)*%
X139225500Y-49674500D02*
X135200000Y-49674500D01*
X135200000Y-49674500D02*
X135200000Y-57750499D01*
X107248799Y-41454500D02*
X109454500Y-41454500D01*
X138675000Y-43175000D02*
X138500000Y-43000000D01*
X106333299Y-42370000D02*
X107248799Y-41454500D01*
X113000000Y-45000000D02*
X113000000Y-51200000D01*
X139500000Y-49949000D02*
X139225500Y-49674500D01*
X104825000Y-43175000D02*
X105370000Y-43175000D01*
X105794695Y-42370000D02*
X106333299Y-42370000D01*
X135200000Y-57750499D02*
X135449501Y-58000000D01*
X105370000Y-42794695D02*
X105794695Y-42370000D01*
X103000000Y-51200000D02*
X113000000Y-51200000D01*
X138675000Y-44700000D02*
X138675000Y-43175000D01*
X105370000Y-43175000D02*
X105370000Y-42794695D01*
X109454500Y-41454500D02*
X113000000Y-45000000D01*
%TO.N,Net-(SW22-Pad2)*%
X106640000Y-42699695D02*
X107435195Y-41904500D01*
X136500000Y-58000000D02*
X135500000Y-59000000D01*
X106640000Y-43095000D02*
X106640000Y-42699695D01*
X106095000Y-43095000D02*
X106640000Y-43095000D01*
X107435195Y-41904500D02*
X109042201Y-41904500D01*
X99400000Y-65600000D02*
X103000000Y-69200000D01*
X109042201Y-41904500D02*
X109730500Y-42592799D01*
X137500000Y-43000000D02*
X137405000Y-43095000D01*
X103000000Y-69200000D02*
X113000000Y-69200000D01*
X135650000Y-57150000D02*
X136500000Y-58000000D01*
X109730500Y-42592799D02*
X109730500Y-43566201D01*
X108386701Y-44910000D02*
X102862792Y-44910000D01*
X102862792Y-44910000D02*
X99400000Y-48372792D01*
X137405000Y-43095000D02*
X137405000Y-44700000D01*
X109730500Y-43566201D02*
X108386701Y-44910000D01*
X99400000Y-48372792D02*
X99400000Y-65600000D01*
X135650000Y-50500000D02*
X135650000Y-57150000D01*
X138500000Y-50500000D02*
X135650000Y-50500000D01*
X135500000Y-59000000D02*
X135500000Y-70500000D01*
%TO.N,Net-(SW23-Pad2)*%
X109280500Y-42779195D02*
X109280500Y-43379805D01*
X98950000Y-78549999D02*
X107600001Y-87200000D01*
X108200305Y-44460000D02*
X102676396Y-44460000D01*
X137793245Y-51224500D02*
X136100000Y-51224500D01*
X136135000Y-44700000D02*
X136135000Y-43135000D01*
X107600001Y-87200000D02*
X103000000Y-87200000D01*
X107365000Y-43000000D02*
X108010500Y-42354500D01*
X108855805Y-42354500D02*
X109280500Y-42779195D01*
X136950000Y-87050000D02*
X135500000Y-88500000D01*
X109280500Y-43379805D02*
X108200305Y-44460000D01*
X107600001Y-87200000D02*
X113000000Y-87200000D01*
X102676396Y-44460000D02*
X98950000Y-48186396D01*
X136100000Y-51224500D02*
X136100000Y-56963604D01*
X108010500Y-42354500D02*
X108855805Y-42354500D01*
X136950000Y-57813604D02*
X136950000Y-87050000D01*
X136100000Y-56963604D02*
X136950000Y-57813604D01*
X98950000Y-48186396D02*
X98950000Y-78549999D01*
X136135000Y-43135000D02*
X136000000Y-43000000D01*
%TO.N,Net-(SW24-Pad2)*%
X98500000Y-96500000D02*
X107200000Y-105200000D01*
X98500000Y-48000000D02*
X98500000Y-96500000D01*
X137400000Y-52400000D02*
X137000000Y-52000000D01*
X102490000Y-44010000D02*
X98500000Y-48000000D01*
X108090000Y-43300305D02*
X107380305Y-44010000D01*
X107380305Y-44010000D02*
X102490000Y-44010000D01*
X137400000Y-104600000D02*
X137400000Y-52400000D01*
X103000000Y-105200000D02*
X107200000Y-105200000D01*
X134865000Y-44700000D02*
X134865000Y-43135000D01*
X108555500Y-43079500D02*
X108090000Y-43079500D01*
X134865000Y-43135000D02*
X135000000Y-43000000D01*
X135500000Y-106500000D02*
X137400000Y-104600000D01*
X108090000Y-43079500D02*
X108090000Y-43300305D01*
X107200000Y-105200000D02*
X113000000Y-105200000D01*
%TO.N,Net-(SW25-Pad2)*%
X94000000Y-50500000D02*
X94000000Y-51200000D01*
X109000000Y-37000000D02*
X106795500Y-39204500D01*
X89599999Y-52099999D02*
X89699998Y-52000000D01*
X134865000Y-36000000D02*
X134865000Y-35300000D01*
X99020000Y-45480000D02*
X94000000Y-50500000D01*
X109500000Y-36500000D02*
X126495000Y-36500000D01*
X84899999Y-52099999D02*
X89599999Y-52099999D01*
X93200000Y-52000000D02*
X94000000Y-51200000D01*
X126495000Y-36500000D02*
X126620000Y-36625000D01*
X102770195Y-39204500D02*
X99020000Y-42954695D01*
X89699998Y-52000000D02*
X93200000Y-52000000D01*
X99020000Y-42954695D02*
X99020000Y-45480000D01*
X106795500Y-39204500D02*
X102770195Y-39204500D01*
X126620000Y-36625000D02*
X134240000Y-36625000D01*
X109000000Y-37000000D02*
X109500000Y-36500000D01*
X84000000Y-51200000D02*
X84899999Y-52099999D01*
X134240000Y-36625000D02*
X134865000Y-36000000D01*
%TO.N,Net-(SW26-Pad2)*%
X102583799Y-38754500D02*
X98570000Y-42768299D01*
X91634745Y-51550000D02*
X89513602Y-51550000D01*
X110000000Y-37450500D02*
X110024195Y-37450500D01*
X85425000Y-51649999D02*
X85425000Y-50609745D01*
X82575000Y-50609745D02*
X82575000Y-51790255D01*
X134426396Y-37075000D02*
X134876396Y-36625000D01*
X82575000Y-51790255D02*
X83409745Y-52625000D01*
X107365000Y-37000000D02*
X105610500Y-38754500D01*
X110524695Y-36950000D02*
X126308604Y-36950000D01*
X83409745Y-52625000D02*
X84267373Y-52625000D01*
X83025000Y-69200000D02*
X94000000Y-69200000D01*
X110024195Y-37450500D02*
X110524695Y-36950000D01*
X134876396Y-36625000D02*
X135490000Y-36625000D01*
X86500000Y-56873835D02*
X86500000Y-65725000D01*
X83409745Y-49775000D02*
X82575000Y-50609745D01*
X89413603Y-51649999D02*
X85425000Y-51649999D01*
X135490000Y-36625000D02*
X135490000Y-35945000D01*
X126433604Y-37075000D02*
X134426396Y-37075000D01*
X105610500Y-38754500D02*
X102583799Y-38754500D01*
X85425000Y-50609745D02*
X84590255Y-49775000D01*
X86099999Y-54457626D02*
X86099999Y-56473834D01*
X98570000Y-42768299D02*
X98570000Y-45293604D01*
X84267373Y-52625000D02*
X86099999Y-54457626D01*
X94088604Y-49775000D02*
X93409745Y-49775000D01*
X98570000Y-45293604D02*
X94088604Y-49775000D01*
X135490000Y-35945000D02*
X136135000Y-35300000D01*
X84590255Y-49775000D02*
X83409745Y-49775000D01*
X89513602Y-51550000D02*
X89413603Y-51649999D01*
X86500000Y-65725000D02*
X83025000Y-69200000D01*
X93409745Y-49775000D02*
X91634745Y-51550000D01*
X86099999Y-56473834D02*
X86500000Y-56873835D01*
X126308604Y-36950000D02*
X126433604Y-37075000D01*
%TO.N,Net-(SW27-Pad2)*%
X85875000Y-51199999D02*
X85875000Y-50423349D01*
X85649999Y-54644022D02*
X85649999Y-65534746D01*
X110964336Y-37713295D02*
X111277631Y-37400000D01*
X89227206Y-51199999D02*
X85875000Y-51199999D01*
X104720805Y-38304500D02*
X102397403Y-38304500D01*
X98120000Y-45107208D02*
X93902208Y-49325000D01*
X135860000Y-37525000D02*
X137405000Y-35980000D01*
X85649999Y-65534746D02*
X82575000Y-68609745D01*
X82575000Y-69790255D02*
X86099999Y-73315254D01*
X91448348Y-51100000D02*
X89327206Y-51100000D01*
X137405000Y-35980000D02*
X137405000Y-35300000D01*
X83223349Y-53075000D02*
X84080977Y-53075000D01*
X89327206Y-51100000D02*
X89227206Y-51199999D01*
X86099999Y-79299999D02*
X94000000Y-87200000D01*
X106000000Y-37025305D02*
X104720805Y-38304500D01*
X98120000Y-42581903D02*
X98120000Y-45107208D01*
X126122208Y-37400000D02*
X126247208Y-37525000D01*
X86099999Y-73315254D02*
X86099999Y-79299999D01*
X84776651Y-49325000D02*
X83223349Y-49325000D01*
X126247208Y-37525000D02*
X135860000Y-37525000D01*
X82125000Y-50423349D02*
X82125000Y-51976651D01*
X82125000Y-51976651D02*
X83223349Y-53075000D01*
X102397403Y-38304500D02*
X98120000Y-42581903D01*
X111277631Y-37400000D02*
X126122208Y-37400000D01*
X106000000Y-37000000D02*
X106000000Y-37025305D01*
X83223349Y-49325000D02*
X82125000Y-50423349D01*
X84080977Y-53075000D02*
X85649999Y-54644022D01*
X82575000Y-68609745D02*
X82575000Y-69790255D01*
X85875000Y-50423349D02*
X84776651Y-49325000D01*
X93902208Y-49325000D02*
X93223349Y-49325000D01*
X84000000Y-87200000D02*
X94000000Y-87200000D01*
X93223349Y-49325000D02*
X91448348Y-51100000D01*
%TO.N,Net-(SW28-Pad2)*%
X93715812Y-48875000D02*
X93036953Y-48875000D01*
X81675000Y-50236953D02*
X81675000Y-52163047D01*
X138675000Y-35980000D02*
X138675000Y-35300000D01*
X81675000Y-52163047D02*
X82000000Y-52488047D01*
X112000000Y-38249500D02*
X112399500Y-37850000D01*
X105000000Y-37000000D02*
X104145500Y-37854500D01*
X97670000Y-42395507D02*
X97670000Y-44920812D01*
X126060812Y-37975000D02*
X136046396Y-37975000D01*
X84000000Y-105200000D02*
X94000000Y-105200000D01*
X138030000Y-36625000D02*
X138675000Y-35980000D01*
X136046396Y-37975000D02*
X137396396Y-36625000D01*
X82000000Y-52488047D02*
X82000000Y-91851902D01*
X97670000Y-44920812D02*
X93715812Y-48875000D01*
X93036953Y-48875000D02*
X91261952Y-50650000D01*
X89040810Y-50749999D02*
X86325000Y-50749999D01*
X84963047Y-48875000D02*
X83036953Y-48875000D01*
X102211007Y-37854500D02*
X97670000Y-42395507D01*
X91261952Y-50650000D02*
X89140810Y-50650000D01*
X86325000Y-50749999D02*
X86325000Y-50236953D01*
X82000000Y-91851902D02*
X94000000Y-103851902D01*
X89140810Y-50650000D02*
X89040810Y-50749999D01*
X112399500Y-37850000D02*
X125935812Y-37850000D01*
X86325000Y-50236953D02*
X84963047Y-48875000D01*
X83036953Y-48875000D02*
X81675000Y-50236953D01*
X137396396Y-36625000D02*
X138030000Y-36625000D01*
X125935812Y-37850000D02*
X126060812Y-37975000D01*
X94000000Y-103851902D02*
X94000000Y-105200000D01*
X104145500Y-37854500D02*
X102211007Y-37854500D01*
%TO.N,Net-(SW29-Pad2)*%
X101695305Y-35100000D02*
X98627208Y-35100000D01*
X113149500Y-38425000D02*
X136575000Y-38425000D01*
X103555000Y-37000000D02*
X103555000Y-36959695D01*
X138850000Y-37075000D02*
X139945000Y-35980000D01*
X81181802Y-128818198D02*
X78569873Y-131430127D01*
X95870000Y-42720812D02*
X92265812Y-46325000D01*
X97140812Y-36586396D02*
X97140812Y-40379111D01*
X98627208Y-35100000D02*
X97140812Y-36586396D01*
X136575000Y-38425000D02*
X137925000Y-37075000D01*
X78569873Y-133209103D02*
X80125507Y-133209103D01*
X92265812Y-46325000D02*
X83041369Y-46325000D01*
X80200000Y-53233631D02*
X80200000Y-127836396D01*
X83041369Y-46325000D02*
X79875000Y-49491369D01*
X95870000Y-41649923D02*
X95870000Y-42720812D01*
X97140812Y-40379111D02*
X95870000Y-41649923D01*
X113000000Y-38574500D02*
X113149500Y-38425000D01*
X79875000Y-49491369D02*
X79875000Y-52908631D01*
X80200000Y-127836396D02*
X81181802Y-128818198D01*
X139945000Y-35980000D02*
X139945000Y-35300000D01*
X80125507Y-133209103D02*
X85125507Y-138209103D01*
X78569873Y-131430127D02*
X78569873Y-133209103D01*
X137925000Y-37075000D02*
X138850000Y-37075000D01*
X79875000Y-52908631D02*
X80200000Y-53233631D01*
X85125507Y-138209103D02*
X87230127Y-138209103D01*
X103555000Y-36959695D02*
X101695305Y-35100000D01*
%TO.N,Net-(SW30-Pad2)*%
X97590812Y-40565507D02*
X96320000Y-41836319D01*
X96320000Y-42907208D02*
X92452208Y-46775000D01*
X80650000Y-53047235D02*
X80650000Y-127650000D01*
X83428225Y-144335031D02*
X82082029Y-144335031D01*
X81130127Y-145286933D02*
X81130127Y-164151151D01*
X102285000Y-36715000D02*
X102285000Y-36648604D01*
X84380127Y-145286933D02*
X83428225Y-144335031D01*
X82082029Y-144335031D02*
X81130127Y-145286933D01*
X138111396Y-37525000D02*
X139670000Y-37525000D01*
X101186396Y-35550000D02*
X98813604Y-35550000D01*
X98813604Y-35550000D02*
X97590812Y-36772792D01*
X136761396Y-38875000D02*
X138111396Y-37525000D01*
X80325000Y-52722235D02*
X80650000Y-53047235D01*
X90430127Y-169790897D02*
X88874493Y-169790897D01*
X80325000Y-49677765D02*
X80325000Y-52722235D01*
X89005349Y-136005349D02*
X89005349Y-141505349D01*
X88874493Y-169790897D02*
X83874493Y-164790897D01*
X97590812Y-36772792D02*
X97590812Y-40565507D01*
X102285000Y-36648604D02*
X101186396Y-35550000D01*
X92452208Y-46775000D02*
X83227765Y-46775000D01*
X84380127Y-146130570D02*
X84380127Y-145286933D01*
X96320000Y-41836319D02*
X96320000Y-42907208D01*
X139670000Y-37525000D02*
X141215000Y-35980000D01*
X83227765Y-46775000D02*
X80325000Y-49677765D01*
X80650000Y-127650000D02*
X89005349Y-136005349D01*
X141215000Y-35980000D02*
X141215000Y-35300000D01*
X114106228Y-38875000D02*
X136761396Y-38875000D01*
X81130127Y-164151151D02*
X81769873Y-164790897D01*
X83874493Y-164790897D02*
X81769873Y-164790897D01*
X113831728Y-39149500D02*
X114106228Y-38875000D01*
X89005349Y-141505349D02*
X84380127Y-146130570D01*
%TO.N,Net-(SW31-Pad2)*%
X83414161Y-47225000D02*
X80775000Y-49864161D01*
X115005620Y-39325000D02*
X137175000Y-39325000D01*
X101000614Y-36000614D02*
X101000000Y-36000000D01*
X97068198Y-143431802D02*
X101845499Y-148209103D01*
X99000000Y-36000000D02*
X99000000Y-39792715D01*
X101000614Y-36984781D02*
X101000614Y-36000614D01*
X101845499Y-148209103D02*
X103230127Y-148209103D01*
X94569873Y-143209103D02*
X96845499Y-143209103D01*
X81100000Y-52860839D02*
X81100000Y-127463604D01*
X101000000Y-36000000D02*
X99000000Y-36000000D01*
X80775000Y-52535839D02*
X81100000Y-52860839D01*
X81100000Y-127463604D02*
X97068198Y-143431802D01*
X96770000Y-42022715D02*
X96770000Y-43093604D01*
X80775000Y-49864161D02*
X80775000Y-52535839D01*
X142485000Y-35980000D02*
X142485000Y-35300000D01*
X137175000Y-39325000D02*
X138525000Y-37975000D01*
X140490000Y-37975000D02*
X142485000Y-35980000D01*
X96845499Y-143209103D02*
X97068198Y-143431802D01*
X96770000Y-43093604D02*
X92638604Y-47225000D01*
X92638604Y-47225000D02*
X83414161Y-47225000D01*
X114716873Y-39613747D02*
X115005620Y-39325000D01*
X99000000Y-39792715D02*
X96770000Y-42022715D01*
X138525000Y-37975000D02*
X140490000Y-37975000D01*
%TO.N,Net-(SW32-Pad2)*%
X139960000Y-39775000D02*
X143755000Y-35980000D01*
X113991873Y-39874500D02*
X113991873Y-39914052D01*
X115441873Y-39914052D02*
X115441873Y-39775000D01*
X113948196Y-39874500D02*
X113991873Y-39874500D01*
X113123196Y-40699500D02*
X113948196Y-39874500D01*
X113991873Y-39914052D02*
X114416568Y-40338747D01*
X119230127Y-157209103D02*
X117121023Y-155099999D01*
X97220000Y-42209111D02*
X99745000Y-39684111D01*
X113599999Y-155099999D02*
X81550000Y-123050000D01*
X117121023Y-155099999D02*
X113599999Y-155099999D01*
X143755000Y-35980000D02*
X143755000Y-35300000D01*
X81550000Y-123050000D02*
X81550000Y-52674443D01*
X92825000Y-47675000D02*
X97220000Y-43280000D01*
X115017178Y-40338747D02*
X115441873Y-39914052D01*
X97220000Y-43280000D02*
X97220000Y-42209111D01*
X81225000Y-52349443D02*
X81225000Y-50050557D01*
X114416568Y-40338747D02*
X115017178Y-40338747D01*
X112500000Y-40699500D02*
X113123196Y-40699500D01*
X99745000Y-39684111D02*
X99745000Y-36745000D01*
X115441873Y-39775000D02*
X139960000Y-39775000D01*
X81550000Y-52674443D02*
X81225000Y-52349443D01*
X83600557Y-47675000D02*
X92825000Y-47675000D01*
X81225000Y-50050557D02*
X83600557Y-47675000D01*
%TO.N,Net-(SW36-Pad2)*%
X183250000Y-43500000D02*
X182500000Y-43500000D01*
X171438604Y-40925000D02*
X170263604Y-42100000D01*
X196200000Y-105200000D02*
X208000000Y-105200000D01*
X204445000Y-42555000D02*
X204500000Y-42500000D01*
X183250000Y-43750000D02*
X189275000Y-49775000D01*
X179925000Y-40925000D02*
X171438604Y-40925000D01*
X183250000Y-43500000D02*
X183250000Y-43750000D01*
X182500000Y-43500000D02*
X179925000Y-40925000D01*
X193000000Y-53184745D02*
X193000000Y-102000000D01*
X169375000Y-42100000D02*
X168920000Y-42555000D01*
X189275000Y-49775000D02*
X189590255Y-49775000D01*
X204445000Y-44700000D02*
X204445000Y-42555000D01*
X170263604Y-42100000D02*
X169375000Y-42100000D01*
X189590255Y-49775000D02*
X193000000Y-53184745D01*
X193000000Y-102000000D02*
X196200000Y-105200000D01*
%TO.N,Net-(SW37-Pad2)*%
X182987701Y-44512299D02*
X183375903Y-44512299D01*
X179438604Y-41638604D02*
X179175000Y-41375000D01*
X183375903Y-44512299D02*
X188500000Y-49636396D01*
X170190000Y-42810000D02*
X170190000Y-42825000D01*
X171363604Y-42000000D02*
X171000000Y-42000000D01*
X171000000Y-42000000D02*
X170190000Y-42810000D01*
X203175000Y-44700000D02*
X203175000Y-42675000D01*
X188500000Y-49636396D02*
X188500000Y-51000000D01*
X179175000Y-41375000D02*
X171988604Y-41375000D01*
X203175000Y-42675000D02*
X203000000Y-42500000D01*
X189000000Y-51200000D02*
X179000000Y-51200000D01*
X188700000Y-51200000D02*
X189000000Y-51200000D01*
X182987701Y-44512299D02*
X182012299Y-44512299D01*
X179438604Y-41938604D02*
X179438604Y-41638604D01*
X188500000Y-51000000D02*
X188700000Y-51200000D01*
X171988604Y-41375000D02*
X171363604Y-42000000D01*
X182012299Y-44512299D02*
X179438604Y-41938604D01*
%TO.N,Net-(SW38-Pad2)*%
X175750000Y-43986396D02*
X177000000Y-42736396D01*
X175161701Y-42500000D02*
X174486701Y-41825000D01*
X177000000Y-42736396D02*
X177000000Y-42500000D01*
X201905000Y-44700000D02*
X201905000Y-42595000D01*
X176000000Y-50000000D02*
X175750000Y-49750000D01*
X174486701Y-41825000D02*
X172175000Y-41825000D01*
X171460000Y-42540000D02*
X171460000Y-42905000D01*
X179000000Y-69200000D02*
X189000000Y-69200000D01*
X177000000Y-42500000D02*
X175161701Y-42500000D01*
X176000000Y-66200000D02*
X179000000Y-69200000D01*
X176000000Y-50000000D02*
X176000000Y-66200000D01*
X172175000Y-41825000D02*
X171460000Y-42540000D01*
X175750000Y-49750000D02*
X175750000Y-43986396D01*
%TO.N,Net-(SW39-Pad2)*%
X173699695Y-42275000D02*
X173275000Y-42699695D01*
X175000000Y-78115255D02*
X184084745Y-87200000D01*
X176100000Y-43000000D02*
X174725000Y-43000000D01*
X174450000Y-47274708D02*
X175000000Y-47824708D01*
X174300305Y-42275000D02*
X173699695Y-42275000D01*
X184084745Y-87200000D02*
X189000000Y-87200000D01*
X184084745Y-87200000D02*
X179000000Y-87200000D01*
X200635000Y-44700000D02*
X200635000Y-42635000D01*
X173275000Y-43000000D02*
X173095000Y-43000000D01*
X173095000Y-43000000D02*
X172730000Y-42635000D01*
X173275000Y-42699695D02*
X173275000Y-43000000D01*
X174725000Y-42699695D02*
X174300305Y-42275000D01*
X174725000Y-43000000D02*
X174725000Y-42699695D01*
X175000000Y-47824708D02*
X175000000Y-78115255D01*
X174450000Y-47274708D02*
X174450000Y-44650000D01*
X174450000Y-44650000D02*
X176100000Y-43000000D01*
%TO.N,Net-(SW40-Pad2)*%
X179000000Y-105200000D02*
X184300000Y-105200000D01*
X184084745Y-105200000D02*
X184300000Y-105200000D01*
X174000000Y-43000000D02*
X174000000Y-95115255D01*
X199365000Y-44700000D02*
X199365000Y-42635000D01*
X174000000Y-95115255D02*
X184084745Y-105200000D01*
X199365000Y-42635000D02*
X199500000Y-42500000D01*
X184300000Y-105200000D02*
X189000000Y-105200000D01*
%TO.N,Net-(SW41-Pad2)*%
X162800000Y-51200000D02*
X163575000Y-50425000D01*
X164000000Y-46000000D02*
X163575000Y-46425000D01*
X174000000Y-37365000D02*
X174000000Y-38000000D01*
X184013299Y-37675000D02*
X197961396Y-37675000D01*
X175236396Y-36900000D02*
X183238299Y-36900000D01*
X199365000Y-36271396D02*
X199365000Y-35300000D01*
X168493604Y-39125000D02*
X165618604Y-42000000D01*
X164000000Y-42000000D02*
X164000000Y-46000000D01*
X163575000Y-50425000D02*
X163575000Y-50575000D01*
X174000000Y-38000000D02*
X174910000Y-37090000D01*
X174000000Y-38000000D02*
X172875000Y-39125000D01*
X165618604Y-42000000D02*
X164000000Y-42000000D01*
X183238299Y-36900000D02*
X184013299Y-37675000D01*
X163575000Y-50575000D02*
X164200000Y-51200000D01*
X197961396Y-37675000D02*
X199365000Y-36271396D01*
X163575000Y-46425000D02*
X163575000Y-50425000D01*
X164200000Y-51200000D02*
X170000000Y-51200000D01*
X175046396Y-37090000D02*
X175236396Y-36900000D01*
X160000000Y-51200000D02*
X162800000Y-51200000D01*
X174910000Y-37090000D02*
X175046396Y-37090000D01*
X172875000Y-39125000D02*
X168493604Y-39125000D01*
%TO.N,/Reset 3*%
X195555000Y-34100000D02*
X195680000Y-33975000D01*
X209887500Y-33975000D02*
X210500000Y-34587500D01*
X195555000Y-35300000D02*
X195555000Y-34100000D01*
X195680000Y-33975000D02*
X209887500Y-33975000D01*
%TO.N,/Reset 4*%
X148500000Y-35500000D02*
X146575000Y-33575000D01*
X131500000Y-33575000D02*
X131055000Y-34020000D01*
X148500000Y-39087500D02*
X148500000Y-35500000D01*
X131055000Y-34020000D02*
X131055000Y-35300000D01*
X146575000Y-33575000D02*
X131500000Y-33575000D01*
%TD*%
M02*
