%TF.GenerationSoftware,KiCad,Pcbnew,(6.0.11)*%
%TF.CreationDate,2023-05-24T14:48:24-07:00*%
%TF.ProjectId,keeb,6b656562-2e6b-4696-9361-645f70636258,rev?*%
%TF.SameCoordinates,Original*%
%TF.FileFunction,Soldermask,Bot*%
%TF.FilePolarity,Negative*%
%FSLAX46Y46*%
G04 Gerber Fmt 4.6, Leading zero omitted, Abs format (unit mm)*
G04 Created by KiCad (PCBNEW (6.0.11)) date 2023-05-24 14:48:24*
%MOMM*%
%LPD*%
G01*
G04 APERTURE LIST*
G04 Aperture macros list*
%AMRoundRect*
0 Rectangle with rounded corners*
0 $1 Rounding radius*
0 $2 $3 $4 $5 $6 $7 $8 $9 X,Y pos of 4 corners*
0 Add a 4 corners polygon primitive as box body*
4,1,4,$2,$3,$4,$5,$6,$7,$8,$9,$2,$3,0*
0 Add four circle primitives for the rounded corners*
1,1,$1+$1,$2,$3*
1,1,$1+$1,$4,$5*
1,1,$1+$1,$6,$7*
1,1,$1+$1,$8,$9*
0 Add four rect primitives between the rounded corners*
20,1,$1+$1,$2,$3,$4,$5,0*
20,1,$1+$1,$4,$5,$6,$7,0*
20,1,$1+$1,$6,$7,$8,$9,0*
20,1,$1+$1,$8,$9,$2,$3,0*%
%AMHorizOval*
0 Thick line with rounded ends*
0 $1 width*
0 $2 $3 position (X,Y) of the first rounded end (center of the circle)*
0 $4 $5 position (X,Y) of the second rounded end (center of the circle)*
0 Add line between two ends*
20,1,$1,$2,$3,$4,$5,0*
0 Add two circle primitives to create the rounded ends*
1,1,$1,$2,$3*
1,1,$1,$4,$5*%
G04 Aperture macros list end*
%ADD10C,1.900000*%
%ADD11C,5.050000*%
%ADD12C,2.600000*%
%ADD13C,2.200000*%
%ADD14C,1.500000*%
%ADD15C,1.250000*%
%ADD16C,1.650000*%
%ADD17R,0.600000X2.000000*%
%ADD18RoundRect,0.237500X0.237500X-0.250000X0.237500X0.250000X-0.237500X0.250000X-0.237500X-0.250000X0*%
%ADD19HorizOval,1.998980X-0.096967X-0.361884X0.096967X0.361884X0*%
%ADD20HorizOval,1.016000X-0.490690X0.131480X0.490690X-0.131480X0*%
%ADD21C,1.143000*%
%ADD22RoundRect,0.237500X-0.237500X0.250000X-0.237500X-0.250000X0.237500X-0.250000X0.237500X0.250000X0*%
%ADD23R,1.200000X2.500000*%
G04 APERTURE END LIST*
D10*
%TO.C,SW25*%
X83500000Y-55000000D03*
D11*
X89000000Y-55000000D03*
D10*
X94500000Y-55000000D03*
D12*
X84000000Y-60150000D03*
D13*
X89000000Y-49100000D03*
X94000000Y-51200000D03*
%TD*%
D12*
%TO.C,SW5*%
X179000000Y-60150000D03*
D10*
X178500000Y-55000000D03*
X189500000Y-55000000D03*
D11*
X184000000Y-55000000D03*
D13*
X184000000Y-49100000D03*
X189000000Y-51200000D03*
%TD*%
D10*
%TO.C,SW12*%
X170500000Y-109000000D03*
D11*
X165000000Y-109000000D03*
D10*
X159500000Y-109000000D03*
D12*
X160000000Y-114150000D03*
D13*
X165000000Y-103100000D03*
X170000000Y-105200000D03*
%TD*%
D10*
%TO.C,SW6*%
X189500000Y-73000000D03*
D12*
X179000000Y-78150000D03*
D10*
X178500000Y-73000000D03*
D11*
X184000000Y-73000000D03*
D13*
X184000000Y-67100000D03*
X189000000Y-69200000D03*
%TD*%
D10*
%TO.C,SW7*%
X178500000Y-91000000D03*
D11*
X184000000Y-91000000D03*
D12*
X179000000Y-96150000D03*
D10*
X189500000Y-91000000D03*
D13*
X184000000Y-85100000D03*
X189000000Y-87200000D03*
%TD*%
D11*
%TO.C,SW19*%
X127000000Y-91000000D03*
D10*
X121500000Y-91000000D03*
X132500000Y-91000000D03*
D12*
X122000000Y-96150000D03*
D13*
X127000000Y-85100000D03*
X132000000Y-87200000D03*
%TD*%
D11*
%TO.C,SW3*%
X203000000Y-91000000D03*
D10*
X208500000Y-91000000D03*
X197500000Y-91000000D03*
D12*
X198000000Y-96150000D03*
D13*
X203000000Y-85100000D03*
X208000000Y-87200000D03*
%TD*%
D10*
%TO.C,SW9*%
X159500000Y-55000000D03*
D12*
X160000000Y-60150000D03*
D10*
X170500000Y-55000000D03*
D11*
X165000000Y-55000000D03*
D13*
X165000000Y-49100000D03*
X170000000Y-51200000D03*
%TD*%
D10*
%TO.C,SW14*%
X140500000Y-73000000D03*
X151500000Y-73000000D03*
D12*
X141000000Y-78150000D03*
D11*
X146000000Y-73000000D03*
D13*
X146000000Y-67100000D03*
X151000000Y-69200000D03*
%TD*%
D10*
%TO.C,SW1*%
X208500000Y-55000000D03*
X197500000Y-55000000D03*
D12*
X198000000Y-60150000D03*
D11*
X203000000Y-55000000D03*
D13*
X203000000Y-49100000D03*
X208000000Y-51200000D03*
%TD*%
D10*
%TO.C,SW32*%
X117763140Y-160750000D03*
D11*
X113000000Y-158000000D03*
D10*
X108236860Y-155250000D03*
D12*
X106094873Y-159960031D03*
D13*
X115950000Y-152890450D03*
X119230127Y-157209103D03*
%TD*%
D11*
%TO.C,SW20*%
X127000000Y-109000000D03*
D12*
X122000000Y-114150000D03*
D10*
X132500000Y-109000000D03*
X121500000Y-109000000D03*
D13*
X127000000Y-103100000D03*
X132000000Y-105200000D03*
%TD*%
D12*
%TO.C,SW29*%
X74094873Y-140960031D03*
D10*
X85763140Y-141750000D03*
D11*
X81000000Y-139000000D03*
D10*
X76236860Y-136250000D03*
D13*
X83950000Y-133890450D03*
X87230127Y-138209103D03*
%TD*%
D12*
%TO.C,SW10*%
X160000000Y-78150000D03*
D10*
X159500000Y-73000000D03*
X170500000Y-73000000D03*
D11*
X165000000Y-73000000D03*
D13*
X165000000Y-67100000D03*
X170000000Y-69200000D03*
%TD*%
D14*
%TO.C,J1*%
X89495000Y-41000000D03*
X82495000Y-41000000D03*
%TD*%
D12*
%TO.C,SW8*%
X179000000Y-114150000D03*
D10*
X178500000Y-109000000D03*
D11*
X184000000Y-109000000D03*
D10*
X189500000Y-109000000D03*
D13*
X184000000Y-103100000D03*
X189000000Y-105200000D03*
%TD*%
D10*
%TO.C,SW31*%
X101763140Y-151750000D03*
X92236860Y-146250000D03*
D12*
X90094873Y-150960031D03*
D11*
X97000000Y-149000000D03*
D13*
X99950000Y-143890450D03*
X103230127Y-148209103D03*
%TD*%
D11*
%TO.C,SW15*%
X146000000Y-91000000D03*
D12*
X141000000Y-96150000D03*
D10*
X140500000Y-91000000D03*
X151500000Y-91000000D03*
D13*
X146000000Y-85100000D03*
X151000000Y-87200000D03*
%TD*%
D10*
%TO.C,SW2*%
X208500000Y-73000000D03*
X197500000Y-73000000D03*
D12*
X198000000Y-78150000D03*
D11*
X203000000Y-73000000D03*
D13*
X203000000Y-67100000D03*
X208000000Y-69200000D03*
%TD*%
D10*
%TO.C,SW11*%
X159500000Y-91000000D03*
X170500000Y-91000000D03*
D11*
X165000000Y-91000000D03*
D12*
X160000000Y-96150000D03*
D13*
X165000000Y-85100000D03*
X170000000Y-87200000D03*
%TD*%
D10*
%TO.C,SW30*%
X83236860Y-161250000D03*
D11*
X88000000Y-164000000D03*
D10*
X92763140Y-166750000D03*
D12*
X94905127Y-162039969D03*
D13*
X85050000Y-169109550D03*
X81769873Y-164790897D03*
%TD*%
D11*
%TO.C,SW22*%
X108000000Y-73000000D03*
D10*
X102500000Y-73000000D03*
X113500000Y-73000000D03*
D12*
X103000000Y-78150000D03*
D13*
X108000000Y-67100000D03*
X113000000Y-69200000D03*
%TD*%
D10*
%TO.C,SW4*%
X197500000Y-109000000D03*
D11*
X203000000Y-109000000D03*
D12*
X198000000Y-114150000D03*
D10*
X208500000Y-109000000D03*
D13*
X203000000Y-103100000D03*
X208000000Y-105200000D03*
%TD*%
D10*
%TO.C,SW21*%
X113500000Y-55000000D03*
D11*
X108000000Y-55000000D03*
D10*
X102500000Y-55000000D03*
D12*
X103000000Y-60150000D03*
D13*
X108000000Y-49100000D03*
X113000000Y-51200000D03*
%TD*%
D10*
%TO.C,SW17*%
X132500000Y-55000000D03*
X121500000Y-55000000D03*
D11*
X127000000Y-55000000D03*
D12*
X122000000Y-60150000D03*
D13*
X127000000Y-49100000D03*
X132000000Y-51200000D03*
%TD*%
D11*
%TO.C,SW16*%
X146000000Y-109000000D03*
D12*
X141000000Y-114150000D03*
D10*
X151500000Y-109000000D03*
X140500000Y-109000000D03*
D13*
X146000000Y-103100000D03*
X151000000Y-105200000D03*
%TD*%
D10*
%TO.C,SW26*%
X94500000Y-73000000D03*
D12*
X84000000Y-78150000D03*
D10*
X83500000Y-73000000D03*
D11*
X89000000Y-73000000D03*
D13*
X89000000Y-67100000D03*
X94000000Y-69200000D03*
%TD*%
D12*
%TO.C,SW24*%
X103000000Y-114150000D03*
D10*
X102500000Y-109000000D03*
D11*
X108000000Y-109000000D03*
D10*
X113500000Y-109000000D03*
D13*
X108000000Y-103100000D03*
X113000000Y-105200000D03*
%TD*%
D10*
%TO.C,SW18*%
X132500000Y-73000000D03*
D12*
X122000000Y-78150000D03*
D11*
X127000000Y-73000000D03*
D10*
X121500000Y-73000000D03*
D13*
X127000000Y-67100000D03*
X132000000Y-69200000D03*
%TD*%
D11*
%TO.C,SW27*%
X89000000Y-91000000D03*
D10*
X94500000Y-91000000D03*
D12*
X84000000Y-96150000D03*
D10*
X83500000Y-91000000D03*
D13*
X89000000Y-85100000D03*
X94000000Y-87200000D03*
%TD*%
D10*
%TO.C,SW28*%
X94500000Y-109000000D03*
D11*
X89000000Y-109000000D03*
D12*
X84000000Y-114150000D03*
D10*
X83500000Y-109000000D03*
D13*
X89000000Y-103100000D03*
X94000000Y-105200000D03*
%TD*%
D11*
%TO.C,SW13*%
X146000000Y-55000000D03*
D10*
X151500000Y-55000000D03*
D12*
X141000000Y-60150000D03*
D10*
X140500000Y-55000000D03*
D13*
X146000000Y-49100000D03*
X151000000Y-51200000D03*
%TD*%
D11*
%TO.C,SW23*%
X108000000Y-91000000D03*
D10*
X102500000Y-91000000D03*
X113500000Y-91000000D03*
D12*
X103000000Y-96150000D03*
D13*
X108000000Y-85100000D03*
X113000000Y-87200000D03*
%TD*%
D15*
%TO.C,SW38*%
X179000000Y-69200000D03*
D16*
X189000000Y-78150000D03*
D15*
X184000000Y-67100000D03*
%TD*%
%TO.C,SW57*%
X84000000Y-51200000D03*
X89000000Y-49100000D03*
D16*
X94000000Y-60150000D03*
%TD*%
D17*
%TO.C,U4*%
X208255000Y-44700000D03*
X206985000Y-44700000D03*
X205715000Y-44700000D03*
X204445000Y-44700000D03*
X203175000Y-44700000D03*
X201905000Y-44700000D03*
X200635000Y-44700000D03*
X199365000Y-44700000D03*
X198095000Y-44700000D03*
X196825000Y-44700000D03*
X195555000Y-44700000D03*
X194285000Y-44700000D03*
X193015000Y-44700000D03*
X191745000Y-44700000D03*
X191745000Y-35300000D03*
X193015000Y-35300000D03*
X194285000Y-35300000D03*
X195555000Y-35300000D03*
X196825000Y-35300000D03*
X198095000Y-35300000D03*
X199365000Y-35300000D03*
X200635000Y-35300000D03*
X201905000Y-35300000D03*
X203175000Y-35300000D03*
X204445000Y-35300000D03*
X205715000Y-35300000D03*
X206985000Y-35300000D03*
X208255000Y-35300000D03*
%TD*%
D15*
%TO.C,SW47*%
X146000000Y-85100000D03*
D16*
X151000000Y-96150000D03*
D15*
X141000000Y-87200000D03*
%TD*%
D18*
%TO.C,R5*%
X124000000Y-45912500D03*
X124000000Y-44087500D03*
%TD*%
D15*
%TO.C,SW45*%
X141000000Y-51200000D03*
D16*
X151000000Y-60150000D03*
D15*
X146000000Y-49100000D03*
%TD*%
%TO.C,SW37*%
X184000000Y-49100000D03*
X179000000Y-51200000D03*
D16*
X189000000Y-60150000D03*
%TD*%
D15*
%TO.C,SW33*%
X203000000Y-49100000D03*
X198000000Y-51200000D03*
D16*
X208000000Y-60150000D03*
%TD*%
D17*
%TO.C,U5*%
X143755000Y-44700000D03*
X142485000Y-44700000D03*
X141215000Y-44700000D03*
X139945000Y-44700000D03*
X138675000Y-44700000D03*
X137405000Y-44700000D03*
X136135000Y-44700000D03*
X134865000Y-44700000D03*
X133595000Y-44700000D03*
X132325000Y-44700000D03*
X131055000Y-44700000D03*
X129785000Y-44700000D03*
X128515000Y-44700000D03*
X127245000Y-44700000D03*
X127245000Y-35300000D03*
X128515000Y-35300000D03*
X129785000Y-35300000D03*
X131055000Y-35300000D03*
X132325000Y-35300000D03*
X133595000Y-35300000D03*
X134865000Y-35300000D03*
X136135000Y-35300000D03*
X137405000Y-35300000D03*
X138675000Y-35300000D03*
X139945000Y-35300000D03*
X141215000Y-35300000D03*
X142485000Y-35300000D03*
X143755000Y-35300000D03*
%TD*%
D16*
%TO.C,SW42*%
X170000000Y-78150000D03*
D15*
X160000000Y-69200000D03*
X165000000Y-67100000D03*
%TD*%
%TO.C,SW35*%
X203000000Y-85100000D03*
D16*
X208000000Y-96150000D03*
D15*
X198000000Y-87200000D03*
%TD*%
D16*
%TO.C,SW34*%
X208000000Y-78150000D03*
D15*
X198000000Y-69200000D03*
X203000000Y-67100000D03*
%TD*%
D16*
%TO.C,SW63*%
X98755127Y-155960031D03*
D15*
X94569873Y-143209103D03*
X99950000Y-143890450D03*
%TD*%
D16*
%TO.C,SW49*%
X132000000Y-60150000D03*
D15*
X127000000Y-49100000D03*
X122000000Y-51200000D03*
%TD*%
%TO.C,SW55*%
X108000000Y-85100000D03*
D16*
X113000000Y-96150000D03*
D15*
X103000000Y-87200000D03*
%TD*%
%TO.C,SW53*%
X103000000Y-51200000D03*
D16*
X113000000Y-60150000D03*
D15*
X108000000Y-49100000D03*
%TD*%
%TO.C,SW40*%
X184000000Y-103100000D03*
D16*
X189000000Y-114150000D03*
D15*
X179000000Y-105200000D03*
%TD*%
%TO.C,SW43*%
X165000000Y-85100000D03*
X160000000Y-87200000D03*
D16*
X170000000Y-96150000D03*
%TD*%
D15*
%TO.C,SW56*%
X103000000Y-105200000D03*
X108000000Y-103100000D03*
D16*
X113000000Y-114150000D03*
%TD*%
D15*
%TO.C,SW46*%
X141000000Y-69200000D03*
X146000000Y-67100000D03*
D16*
X151000000Y-78150000D03*
%TD*%
D15*
%TO.C,SW51*%
X122000000Y-87200000D03*
X127000000Y-85100000D03*
D16*
X132000000Y-96150000D03*
%TD*%
D19*
%TO.C,U3*%
X102753424Y-119894638D03*
X105206876Y-120552039D03*
X107660328Y-121209439D03*
X110113779Y-121866839D03*
X112567231Y-122524240D03*
X115020682Y-123181640D03*
X117474134Y-123839041D03*
X113290438Y-139452806D03*
X110836986Y-138795406D03*
X108383535Y-138138006D03*
X105930083Y-137480605D03*
X103476632Y-136823205D03*
X101023180Y-136165805D03*
X98569728Y-135508404D03*
D20*
X116737949Y-130750898D03*
X116077960Y-133214008D03*
D21*
X100313475Y-126348734D03*
X99656075Y-128802186D03*
X102766927Y-127006134D03*
X102109527Y-129459586D03*
%TD*%
D18*
%TO.C,R6*%
X121000000Y-45912500D03*
X121000000Y-44087500D03*
%TD*%
D15*
%TO.C,SW50*%
X127000000Y-67100000D03*
D16*
X132000000Y-78150000D03*
D15*
X122000000Y-69200000D03*
%TD*%
%TO.C,SW62*%
X85050000Y-169109550D03*
X90430127Y-169790897D03*
D16*
X86244873Y-157039969D03*
%TD*%
D22*
%TO.C,R7*%
X210500000Y-34587500D03*
X210500000Y-36412500D03*
%TD*%
D15*
%TO.C,SW64*%
X110569873Y-152209103D03*
D16*
X114755127Y-164960031D03*
D15*
X115950000Y-152890450D03*
%TD*%
D14*
%TO.C,J2*%
X89495000Y-41000000D03*
X82495000Y-41000000D03*
D23*
X87095000Y-44250000D03*
X84095000Y-44250000D03*
X92195000Y-37750000D03*
X91095000Y-44250000D03*
%TD*%
D16*
%TO.C,SW54*%
X113000000Y-78150000D03*
D15*
X108000000Y-67100000D03*
X103000000Y-69200000D03*
%TD*%
%TO.C,SW60*%
X89000000Y-103100000D03*
D16*
X94000000Y-114150000D03*
D15*
X84000000Y-105200000D03*
%TD*%
%TO.C,SW41*%
X160000000Y-51200000D03*
D16*
X170000000Y-60150000D03*
D15*
X165000000Y-49100000D03*
%TD*%
%TO.C,SW59*%
X89000000Y-85100000D03*
D16*
X94000000Y-96150000D03*
D15*
X84000000Y-87200000D03*
%TD*%
%TO.C,SW36*%
X198000000Y-105200000D03*
X203000000Y-103100000D03*
D16*
X208000000Y-114150000D03*
%TD*%
%TO.C,SW61*%
X82755127Y-145960031D03*
D15*
X83950000Y-133890450D03*
X78569873Y-133209103D03*
%TD*%
%TO.C,SW48*%
X146000000Y-103100000D03*
X141000000Y-105200000D03*
D16*
X151000000Y-114150000D03*
%TD*%
D15*
%TO.C,SW52*%
X127000000Y-103100000D03*
X122000000Y-105200000D03*
D16*
X132000000Y-114150000D03*
%TD*%
D15*
%TO.C,SW44*%
X160000000Y-105200000D03*
X165000000Y-103100000D03*
D16*
X170000000Y-114150000D03*
%TD*%
D22*
%TO.C,R8*%
X148500000Y-39087500D03*
X148500000Y-40912500D03*
%TD*%
D15*
%TO.C,SW39*%
X184000000Y-85100000D03*
D16*
X189000000Y-96150000D03*
D15*
X179000000Y-87200000D03*
%TD*%
%TO.C,SW58*%
X89000000Y-67100000D03*
X84000000Y-69200000D03*
D16*
X94000000Y-78150000D03*
%TD*%
M02*
