%TF.GenerationSoftware,KiCad,Pcbnew,(6.0.11)*%
%TF.CreationDate,2023-05-24T14:48:24-07:00*%
%TF.ProjectId,keeb,6b656562-2e6b-4696-9361-645f70636258,rev?*%
%TF.SameCoordinates,Original*%
%TF.FileFunction,Legend,Bot*%
%TF.FilePolarity,Positive*%
%FSLAX46Y46*%
G04 Gerber Fmt 4.6, Leading zero omitted, Abs format (unit mm)*
G04 Created by KiCad (PCBNEW (6.0.11)) date 2023-05-24 14:48:24*
%MOMM*%
%LPD*%
G01*
G04 APERTURE LIST*
%ADD10C,0.600000*%
%ADD11C,0.150000*%
%ADD12C,0.101600*%
%ADD13C,0.076200*%
%ADD14C,0.120000*%
%ADD15C,0.100000*%
%ADD16C,0.127000*%
%ADD17C,0.066040*%
%ADD18C,0.254000*%
G04 APERTURE END LIST*
D10*
X125812326Y-126562315D02*
X123397512Y-125915268D01*
X124906697Y-127182383D01*
X122966147Y-127525144D01*
X125380961Y-128172192D01*
X124795537Y-130357024D02*
X123530634Y-130018094D01*
X123331464Y-129841479D01*
X123278096Y-129580685D01*
X123401343Y-129120721D01*
X123577958Y-128921550D01*
X124680546Y-130326212D02*
X124857161Y-130127042D01*
X125011220Y-129552086D01*
X124957852Y-129291292D01*
X124758682Y-129114677D01*
X124528699Y-129053053D01*
X124267905Y-129106421D01*
X124091290Y-129305591D01*
X123937231Y-129880547D01*
X123760617Y-130079718D01*
X122600237Y-132110491D02*
X124555087Y-132634292D01*
X124815881Y-132580924D01*
X124961684Y-132496745D01*
X125138299Y-132297574D01*
X125230734Y-131952601D01*
X125177366Y-131691806D01*
X124095122Y-132511044D02*
X124271737Y-132311874D01*
X124394984Y-131851909D01*
X124341616Y-131591115D01*
X124257437Y-131445312D01*
X124058266Y-131268697D01*
X123368319Y-131083827D01*
X123107525Y-131137194D01*
X122961722Y-131221374D01*
X122785108Y-131420544D01*
X122661860Y-131880509D01*
X122715228Y-132141303D01*
X123540510Y-134580885D02*
X123717125Y-134381715D01*
X123840372Y-133921750D01*
X123787004Y-133660956D01*
X123587834Y-133484341D01*
X122667904Y-133237847D01*
X122407110Y-133291215D01*
X122230495Y-133490385D01*
X122107248Y-133950350D01*
X122160616Y-134211144D01*
X122359786Y-134387759D01*
X122589769Y-134449382D01*
X123127869Y-133361094D01*
X121025004Y-134769588D02*
X123224136Y-136221574D01*
X120593639Y-136379464D01*
X120638750Y-137131035D02*
X120492947Y-137215214D01*
X120316333Y-137414385D01*
X120162274Y-137989341D01*
X120215641Y-138250135D01*
X120299821Y-138395938D01*
X120498991Y-138572552D01*
X120728974Y-138634176D01*
X121104759Y-138611620D01*
X122854394Y-137601468D01*
X122453841Y-139096353D01*
X130547502Y-124441805D02*
X128132687Y-123794758D01*
X129052616Y-124041252D02*
X128876002Y-124240422D01*
X128752754Y-124700387D01*
X128806122Y-124961181D01*
X128890301Y-125106984D01*
X129089472Y-125283599D01*
X129779419Y-125468470D01*
X130040213Y-125415102D01*
X130186016Y-125330923D01*
X130362631Y-125131752D01*
X130485878Y-124671788D01*
X130432510Y-124410993D01*
X128413825Y-125965290D02*
X129869642Y-126971611D01*
X128105707Y-127115202D02*
X129869642Y-126971611D01*
X130506222Y-126895688D01*
X130652025Y-126811508D01*
X130828639Y-126612338D01*
X128976100Y-130306355D02*
X127366224Y-129874990D01*
X127596206Y-129936613D02*
X127450403Y-130020793D01*
X127273788Y-130219963D01*
X127181353Y-130564937D01*
X127234721Y-130825731D01*
X127433891Y-131002346D01*
X128698794Y-131341275D01*
X127433891Y-131002346D02*
X127173097Y-131055713D01*
X126996482Y-131254884D01*
X126904047Y-131599857D01*
X126957415Y-131860651D01*
X127156585Y-132037266D01*
X128421488Y-132376196D01*
X128020935Y-133871081D02*
X127967567Y-133610287D01*
X127883388Y-133464484D01*
X127684217Y-133287869D01*
X126994270Y-133102999D01*
X126733476Y-133156366D01*
X126587673Y-133240545D01*
X126411058Y-133439716D01*
X126318623Y-133784690D01*
X126371991Y-134045484D01*
X126456170Y-134191287D01*
X126655340Y-134367901D01*
X127345288Y-134552772D01*
X127606082Y-134499405D01*
X127751885Y-134415225D01*
X127928499Y-134216055D01*
X128020935Y-133871081D01*
X127443767Y-135565137D02*
X127497134Y-135825931D01*
X127373887Y-136285896D01*
X127197272Y-136485066D01*
X126936478Y-136538434D01*
X126821487Y-136507622D01*
X126622317Y-136331007D01*
X126568949Y-136070213D01*
X126661384Y-135725240D01*
X126608017Y-135464445D01*
X126408846Y-135287831D01*
X126293855Y-135257019D01*
X126033061Y-135310387D01*
X125856446Y-135509557D01*
X125764011Y-135854531D01*
X125817378Y-136115325D01*
X126919966Y-137519987D02*
X126973334Y-137780781D01*
X126850087Y-138240746D01*
X126673472Y-138439916D01*
X126412678Y-138493284D01*
X126297687Y-138462472D01*
X126098516Y-138285857D01*
X126045148Y-138025063D01*
X126137584Y-137680090D01*
X126084216Y-137419295D01*
X125885046Y-137242681D01*
X125770055Y-137211869D01*
X125509260Y-137265236D01*
X125332646Y-137464407D01*
X125240210Y-137809380D01*
X125293578Y-138070175D01*
X124932092Y-138959292D02*
X126418722Y-139850622D01*
X125145563Y-140002469D01*
X126172227Y-140770551D01*
X124439104Y-140799151D01*
X123915303Y-142754001D02*
X125870153Y-143277801D01*
X126130947Y-143224434D01*
X126276750Y-143140254D01*
X126453365Y-142941084D01*
X126545800Y-142596110D01*
X126492433Y-142335316D01*
X125410188Y-143154554D02*
X125586803Y-142955384D01*
X125710050Y-142495419D01*
X125656683Y-142234625D01*
X125572503Y-142088822D01*
X125373333Y-141912207D01*
X124683386Y-141727336D01*
X124422592Y-141780704D01*
X124276789Y-141864883D01*
X124100174Y-142064054D01*
X123976927Y-142524018D01*
X124030294Y-142784813D01*
D11*
X139619047Y-40952380D02*
X139619047Y-41666666D01*
X139666666Y-41809523D01*
X139761904Y-41904761D01*
X139904761Y-41952380D01*
X140000000Y-41952380D01*
X138666666Y-41952380D02*
X139142857Y-41952380D01*
X139142857Y-40952380D01*
X137761904Y-41857142D02*
X137809523Y-41904761D01*
X137952380Y-41952380D01*
X138047619Y-41952380D01*
X138190476Y-41904761D01*
X138285714Y-41809523D01*
X138333333Y-41714285D01*
X138380952Y-41523809D01*
X138380952Y-41380952D01*
X138333333Y-41190476D01*
X138285714Y-41095238D01*
X138190476Y-41000000D01*
X138047619Y-40952380D01*
X137952380Y-40952380D01*
X137809523Y-41000000D01*
X137761904Y-41047619D01*
X137047619Y-40952380D02*
X137047619Y-41666666D01*
X137095238Y-41809523D01*
X137190476Y-41904761D01*
X137333333Y-41952380D01*
X137428571Y-41952380D01*
X136095238Y-41952380D02*
X136571428Y-41952380D01*
X136571428Y-40952380D01*
X135190476Y-41857142D02*
X135238095Y-41904761D01*
X135380952Y-41952380D01*
X135476190Y-41952380D01*
X135619047Y-41904761D01*
X135714285Y-41809523D01*
X135761904Y-41714285D01*
X135809523Y-41523809D01*
X135809523Y-41380952D01*
X135761904Y-41190476D01*
X135714285Y-41095238D01*
X135619047Y-41000000D01*
X135476190Y-40952380D01*
X135380952Y-40952380D01*
X135238095Y-41000000D01*
X135190476Y-41047619D01*
X134476190Y-40952380D02*
X134476190Y-41666666D01*
X134523809Y-41809523D01*
X134619047Y-41904761D01*
X134761904Y-41952380D01*
X134857142Y-41952380D01*
X133523809Y-41952380D02*
X134000000Y-41952380D01*
X134000000Y-40952380D01*
X132619047Y-41857142D02*
X132666666Y-41904761D01*
X132809523Y-41952380D01*
X132904761Y-41952380D01*
X133047619Y-41904761D01*
X133142857Y-41809523D01*
X133190476Y-41714285D01*
X133238095Y-41523809D01*
X133238095Y-41380952D01*
X133190476Y-41190476D01*
X133142857Y-41095238D01*
X133047619Y-41000000D01*
X132904761Y-40952380D01*
X132809523Y-40952380D01*
X132666666Y-41000000D01*
X132619047Y-41047619D01*
X131904761Y-40952380D02*
X131904761Y-41666666D01*
X131952380Y-41809523D01*
X132047619Y-41904761D01*
X132190476Y-41952380D01*
X132285714Y-41952380D01*
X130952380Y-41952380D02*
X131428571Y-41952380D01*
X131428571Y-40952380D01*
X130047619Y-41857142D02*
X130095238Y-41904761D01*
X130238095Y-41952380D01*
X130333333Y-41952380D01*
X130476190Y-41904761D01*
X130571428Y-41809523D01*
X130619047Y-41714285D01*
X130666666Y-41523809D01*
X130666666Y-41380952D01*
X130619047Y-41190476D01*
X130571428Y-41095238D01*
X130476190Y-41000000D01*
X130333333Y-40952380D01*
X130238095Y-40952380D01*
X130095238Y-41000000D01*
X130047619Y-41047619D01*
%TO.C,SW38*%
X185809523Y-64404761D02*
X185666666Y-64452380D01*
X185428571Y-64452380D01*
X185333333Y-64404761D01*
X185285714Y-64357142D01*
X185238095Y-64261904D01*
X185238095Y-64166666D01*
X185285714Y-64071428D01*
X185333333Y-64023809D01*
X185428571Y-63976190D01*
X185619047Y-63928571D01*
X185714285Y-63880952D01*
X185761904Y-63833333D01*
X185809523Y-63738095D01*
X185809523Y-63642857D01*
X185761904Y-63547619D01*
X185714285Y-63500000D01*
X185619047Y-63452380D01*
X185380952Y-63452380D01*
X185238095Y-63500000D01*
X184904761Y-63452380D02*
X184666666Y-64452380D01*
X184476190Y-63738095D01*
X184285714Y-64452380D01*
X184047619Y-63452380D01*
X183761904Y-63452380D02*
X183142857Y-63452380D01*
X183476190Y-63833333D01*
X183333333Y-63833333D01*
X183238095Y-63880952D01*
X183190476Y-63928571D01*
X183142857Y-64023809D01*
X183142857Y-64261904D01*
X183190476Y-64357142D01*
X183238095Y-64404761D01*
X183333333Y-64452380D01*
X183619047Y-64452380D01*
X183714285Y-64404761D01*
X183761904Y-64357142D01*
X182571428Y-63880952D02*
X182666666Y-63833333D01*
X182714285Y-63785714D01*
X182761904Y-63690476D01*
X182761904Y-63642857D01*
X182714285Y-63547619D01*
X182666666Y-63500000D01*
X182571428Y-63452380D01*
X182380952Y-63452380D01*
X182285714Y-63500000D01*
X182238095Y-63547619D01*
X182190476Y-63642857D01*
X182190476Y-63690476D01*
X182238095Y-63785714D01*
X182285714Y-63833333D01*
X182380952Y-63880952D01*
X182571428Y-63880952D01*
X182666666Y-63928571D01*
X182714285Y-63976190D01*
X182761904Y-64071428D01*
X182761904Y-64261904D01*
X182714285Y-64357142D01*
X182666666Y-64404761D01*
X182571428Y-64452380D01*
X182380952Y-64452380D01*
X182285714Y-64404761D01*
X182238095Y-64357142D01*
X182190476Y-64261904D01*
X182190476Y-64071428D01*
X182238095Y-63976190D01*
X182285714Y-63928571D01*
X182380952Y-63880952D01*
%TO.C,SW57*%
X90809523Y-46404761D02*
X90666666Y-46452380D01*
X90428571Y-46452380D01*
X90333333Y-46404761D01*
X90285714Y-46357142D01*
X90238095Y-46261904D01*
X90238095Y-46166666D01*
X90285714Y-46071428D01*
X90333333Y-46023809D01*
X90428571Y-45976190D01*
X90619047Y-45928571D01*
X90714285Y-45880952D01*
X90761904Y-45833333D01*
X90809523Y-45738095D01*
X90809523Y-45642857D01*
X90761904Y-45547619D01*
X90714285Y-45500000D01*
X90619047Y-45452380D01*
X90380952Y-45452380D01*
X90238095Y-45500000D01*
X89904761Y-45452380D02*
X89666666Y-46452380D01*
X89476190Y-45738095D01*
X89285714Y-46452380D01*
X89047619Y-45452380D01*
X88190476Y-45452380D02*
X88666666Y-45452380D01*
X88714285Y-45928571D01*
X88666666Y-45880952D01*
X88571428Y-45833333D01*
X88333333Y-45833333D01*
X88238095Y-45880952D01*
X88190476Y-45928571D01*
X88142857Y-46023809D01*
X88142857Y-46261904D01*
X88190476Y-46357142D01*
X88238095Y-46404761D01*
X88333333Y-46452380D01*
X88571428Y-46452380D01*
X88666666Y-46404761D01*
X88714285Y-46357142D01*
X87809523Y-45452380D02*
X87142857Y-45452380D01*
X87571428Y-46452380D01*
%TO.C,U4*%
X209492380Y-39238095D02*
X210301904Y-39238095D01*
X210397142Y-39285714D01*
X210444761Y-39333333D01*
X210492380Y-39428571D01*
X210492380Y-39619047D01*
X210444761Y-39714285D01*
X210397142Y-39761904D01*
X210301904Y-39809523D01*
X209492380Y-39809523D01*
X209825714Y-40714285D02*
X210492380Y-40714285D01*
X209444761Y-40476190D02*
X210159047Y-40238095D01*
X210159047Y-40857142D01*
%TO.C,SW47*%
X147809523Y-82404761D02*
X147666666Y-82452380D01*
X147428571Y-82452380D01*
X147333333Y-82404761D01*
X147285714Y-82357142D01*
X147238095Y-82261904D01*
X147238095Y-82166666D01*
X147285714Y-82071428D01*
X147333333Y-82023809D01*
X147428571Y-81976190D01*
X147619047Y-81928571D01*
X147714285Y-81880952D01*
X147761904Y-81833333D01*
X147809523Y-81738095D01*
X147809523Y-81642857D01*
X147761904Y-81547619D01*
X147714285Y-81500000D01*
X147619047Y-81452380D01*
X147380952Y-81452380D01*
X147238095Y-81500000D01*
X146904761Y-81452380D02*
X146666666Y-82452380D01*
X146476190Y-81738095D01*
X146285714Y-82452380D01*
X146047619Y-81452380D01*
X145238095Y-81785714D02*
X145238095Y-82452380D01*
X145476190Y-81404761D02*
X145714285Y-82119047D01*
X145095238Y-82119047D01*
X144809523Y-81452380D02*
X144142857Y-81452380D01*
X144571428Y-82452380D01*
%TO.C,R5*%
X124166666Y-47952380D02*
X124500000Y-47476190D01*
X124738095Y-47952380D02*
X124738095Y-46952380D01*
X124357142Y-46952380D01*
X124261904Y-47000000D01*
X124214285Y-47047619D01*
X124166666Y-47142857D01*
X124166666Y-47285714D01*
X124214285Y-47380952D01*
X124261904Y-47428571D01*
X124357142Y-47476190D01*
X124738095Y-47476190D01*
X123261904Y-46952380D02*
X123738095Y-46952380D01*
X123785714Y-47428571D01*
X123738095Y-47380952D01*
X123642857Y-47333333D01*
X123404761Y-47333333D01*
X123309523Y-47380952D01*
X123261904Y-47428571D01*
X123214285Y-47523809D01*
X123214285Y-47761904D01*
X123261904Y-47857142D01*
X123309523Y-47904761D01*
X123404761Y-47952380D01*
X123642857Y-47952380D01*
X123738095Y-47904761D01*
X123785714Y-47857142D01*
%TO.C,SW45*%
X147809523Y-46404761D02*
X147666666Y-46452380D01*
X147428571Y-46452380D01*
X147333333Y-46404761D01*
X147285714Y-46357142D01*
X147238095Y-46261904D01*
X147238095Y-46166666D01*
X147285714Y-46071428D01*
X147333333Y-46023809D01*
X147428571Y-45976190D01*
X147619047Y-45928571D01*
X147714285Y-45880952D01*
X147761904Y-45833333D01*
X147809523Y-45738095D01*
X147809523Y-45642857D01*
X147761904Y-45547619D01*
X147714285Y-45500000D01*
X147619047Y-45452380D01*
X147380952Y-45452380D01*
X147238095Y-45500000D01*
X146904761Y-45452380D02*
X146666666Y-46452380D01*
X146476190Y-45738095D01*
X146285714Y-46452380D01*
X146047619Y-45452380D01*
X145238095Y-45785714D02*
X145238095Y-46452380D01*
X145476190Y-45404761D02*
X145714285Y-46119047D01*
X145095238Y-46119047D01*
X144238095Y-45452380D02*
X144714285Y-45452380D01*
X144761904Y-45928571D01*
X144714285Y-45880952D01*
X144619047Y-45833333D01*
X144380952Y-45833333D01*
X144285714Y-45880952D01*
X144238095Y-45928571D01*
X144190476Y-46023809D01*
X144190476Y-46261904D01*
X144238095Y-46357142D01*
X144285714Y-46404761D01*
X144380952Y-46452380D01*
X144619047Y-46452380D01*
X144714285Y-46404761D01*
X144761904Y-46357142D01*
%TO.C,SW37*%
X185809523Y-46404761D02*
X185666666Y-46452380D01*
X185428571Y-46452380D01*
X185333333Y-46404761D01*
X185285714Y-46357142D01*
X185238095Y-46261904D01*
X185238095Y-46166666D01*
X185285714Y-46071428D01*
X185333333Y-46023809D01*
X185428571Y-45976190D01*
X185619047Y-45928571D01*
X185714285Y-45880952D01*
X185761904Y-45833333D01*
X185809523Y-45738095D01*
X185809523Y-45642857D01*
X185761904Y-45547619D01*
X185714285Y-45500000D01*
X185619047Y-45452380D01*
X185380952Y-45452380D01*
X185238095Y-45500000D01*
X184904761Y-45452380D02*
X184666666Y-46452380D01*
X184476190Y-45738095D01*
X184285714Y-46452380D01*
X184047619Y-45452380D01*
X183761904Y-45452380D02*
X183142857Y-45452380D01*
X183476190Y-45833333D01*
X183333333Y-45833333D01*
X183238095Y-45880952D01*
X183190476Y-45928571D01*
X183142857Y-46023809D01*
X183142857Y-46261904D01*
X183190476Y-46357142D01*
X183238095Y-46404761D01*
X183333333Y-46452380D01*
X183619047Y-46452380D01*
X183714285Y-46404761D01*
X183761904Y-46357142D01*
X182809523Y-45452380D02*
X182142857Y-45452380D01*
X182571428Y-46452380D01*
%TO.C,SW33*%
X204809523Y-46404761D02*
X204666666Y-46452380D01*
X204428571Y-46452380D01*
X204333333Y-46404761D01*
X204285714Y-46357142D01*
X204238095Y-46261904D01*
X204238095Y-46166666D01*
X204285714Y-46071428D01*
X204333333Y-46023809D01*
X204428571Y-45976190D01*
X204619047Y-45928571D01*
X204714285Y-45880952D01*
X204761904Y-45833333D01*
X204809523Y-45738095D01*
X204809523Y-45642857D01*
X204761904Y-45547619D01*
X204714285Y-45500000D01*
X204619047Y-45452380D01*
X204380952Y-45452380D01*
X204238095Y-45500000D01*
X203904761Y-45452380D02*
X203666666Y-46452380D01*
X203476190Y-45738095D01*
X203285714Y-46452380D01*
X203047619Y-45452380D01*
X202761904Y-45452380D02*
X202142857Y-45452380D01*
X202476190Y-45833333D01*
X202333333Y-45833333D01*
X202238095Y-45880952D01*
X202190476Y-45928571D01*
X202142857Y-46023809D01*
X202142857Y-46261904D01*
X202190476Y-46357142D01*
X202238095Y-46404761D01*
X202333333Y-46452380D01*
X202619047Y-46452380D01*
X202714285Y-46404761D01*
X202761904Y-46357142D01*
X201809523Y-45452380D02*
X201190476Y-45452380D01*
X201523809Y-45833333D01*
X201380952Y-45833333D01*
X201285714Y-45880952D01*
X201238095Y-45928571D01*
X201190476Y-46023809D01*
X201190476Y-46261904D01*
X201238095Y-46357142D01*
X201285714Y-46404761D01*
X201380952Y-46452380D01*
X201666666Y-46452380D01*
X201761904Y-46404761D01*
X201809523Y-46357142D01*
%TO.C,U5*%
X144992380Y-39238095D02*
X145801904Y-39238095D01*
X145897142Y-39285714D01*
X145944761Y-39333333D01*
X145992380Y-39428571D01*
X145992380Y-39619047D01*
X145944761Y-39714285D01*
X145897142Y-39761904D01*
X145801904Y-39809523D01*
X144992380Y-39809523D01*
X144992380Y-40761904D02*
X144992380Y-40285714D01*
X145468571Y-40238095D01*
X145420952Y-40285714D01*
X145373333Y-40380952D01*
X145373333Y-40619047D01*
X145420952Y-40714285D01*
X145468571Y-40761904D01*
X145563809Y-40809523D01*
X145801904Y-40809523D01*
X145897142Y-40761904D01*
X145944761Y-40714285D01*
X145992380Y-40619047D01*
X145992380Y-40380952D01*
X145944761Y-40285714D01*
X145897142Y-40238095D01*
%TO.C,SW42*%
X166809523Y-64404761D02*
X166666666Y-64452380D01*
X166428571Y-64452380D01*
X166333333Y-64404761D01*
X166285714Y-64357142D01*
X166238095Y-64261904D01*
X166238095Y-64166666D01*
X166285714Y-64071428D01*
X166333333Y-64023809D01*
X166428571Y-63976190D01*
X166619047Y-63928571D01*
X166714285Y-63880952D01*
X166761904Y-63833333D01*
X166809523Y-63738095D01*
X166809523Y-63642857D01*
X166761904Y-63547619D01*
X166714285Y-63500000D01*
X166619047Y-63452380D01*
X166380952Y-63452380D01*
X166238095Y-63500000D01*
X165904761Y-63452380D02*
X165666666Y-64452380D01*
X165476190Y-63738095D01*
X165285714Y-64452380D01*
X165047619Y-63452380D01*
X164238095Y-63785714D02*
X164238095Y-64452380D01*
X164476190Y-63404761D02*
X164714285Y-64119047D01*
X164095238Y-64119047D01*
X163761904Y-63547619D02*
X163714285Y-63500000D01*
X163619047Y-63452380D01*
X163380952Y-63452380D01*
X163285714Y-63500000D01*
X163238095Y-63547619D01*
X163190476Y-63642857D01*
X163190476Y-63738095D01*
X163238095Y-63880952D01*
X163809523Y-64452380D01*
X163190476Y-64452380D01*
%TO.C,SW35*%
X204809523Y-82404761D02*
X204666666Y-82452380D01*
X204428571Y-82452380D01*
X204333333Y-82404761D01*
X204285714Y-82357142D01*
X204238095Y-82261904D01*
X204238095Y-82166666D01*
X204285714Y-82071428D01*
X204333333Y-82023809D01*
X204428571Y-81976190D01*
X204619047Y-81928571D01*
X204714285Y-81880952D01*
X204761904Y-81833333D01*
X204809523Y-81738095D01*
X204809523Y-81642857D01*
X204761904Y-81547619D01*
X204714285Y-81500000D01*
X204619047Y-81452380D01*
X204380952Y-81452380D01*
X204238095Y-81500000D01*
X203904761Y-81452380D02*
X203666666Y-82452380D01*
X203476190Y-81738095D01*
X203285714Y-82452380D01*
X203047619Y-81452380D01*
X202761904Y-81452380D02*
X202142857Y-81452380D01*
X202476190Y-81833333D01*
X202333333Y-81833333D01*
X202238095Y-81880952D01*
X202190476Y-81928571D01*
X202142857Y-82023809D01*
X202142857Y-82261904D01*
X202190476Y-82357142D01*
X202238095Y-82404761D01*
X202333333Y-82452380D01*
X202619047Y-82452380D01*
X202714285Y-82404761D01*
X202761904Y-82357142D01*
X201238095Y-81452380D02*
X201714285Y-81452380D01*
X201761904Y-81928571D01*
X201714285Y-81880952D01*
X201619047Y-81833333D01*
X201380952Y-81833333D01*
X201285714Y-81880952D01*
X201238095Y-81928571D01*
X201190476Y-82023809D01*
X201190476Y-82261904D01*
X201238095Y-82357142D01*
X201285714Y-82404761D01*
X201380952Y-82452380D01*
X201619047Y-82452380D01*
X201714285Y-82404761D01*
X201761904Y-82357142D01*
%TO.C,SW34*%
X204809523Y-64404761D02*
X204666666Y-64452380D01*
X204428571Y-64452380D01*
X204333333Y-64404761D01*
X204285714Y-64357142D01*
X204238095Y-64261904D01*
X204238095Y-64166666D01*
X204285714Y-64071428D01*
X204333333Y-64023809D01*
X204428571Y-63976190D01*
X204619047Y-63928571D01*
X204714285Y-63880952D01*
X204761904Y-63833333D01*
X204809523Y-63738095D01*
X204809523Y-63642857D01*
X204761904Y-63547619D01*
X204714285Y-63500000D01*
X204619047Y-63452380D01*
X204380952Y-63452380D01*
X204238095Y-63500000D01*
X203904761Y-63452380D02*
X203666666Y-64452380D01*
X203476190Y-63738095D01*
X203285714Y-64452380D01*
X203047619Y-63452380D01*
X202761904Y-63452380D02*
X202142857Y-63452380D01*
X202476190Y-63833333D01*
X202333333Y-63833333D01*
X202238095Y-63880952D01*
X202190476Y-63928571D01*
X202142857Y-64023809D01*
X202142857Y-64261904D01*
X202190476Y-64357142D01*
X202238095Y-64404761D01*
X202333333Y-64452380D01*
X202619047Y-64452380D01*
X202714285Y-64404761D01*
X202761904Y-64357142D01*
X201285714Y-63785714D02*
X201285714Y-64452380D01*
X201523809Y-63404761D02*
X201761904Y-64119047D01*
X201142857Y-64119047D01*
%TO.C,SW63*%
X100135287Y-139950475D02*
X100282814Y-139980664D01*
X100489011Y-140099711D01*
X100547680Y-140188570D01*
X100565110Y-140253619D01*
X100558730Y-140359907D01*
X100511111Y-140442385D01*
X100422253Y-140501054D01*
X100357204Y-140518484D01*
X100250916Y-140512104D01*
X100062149Y-140458106D01*
X99955861Y-140451726D01*
X99890812Y-140469156D01*
X99801954Y-140527825D01*
X99754334Y-140610303D01*
X99747955Y-140716592D01*
X99765385Y-140781640D01*
X99824054Y-140870499D01*
X100030250Y-140989546D01*
X100177778Y-141019736D01*
X100442643Y-141227642D02*
X101148840Y-140480664D01*
X100956654Y-141194491D01*
X101478754Y-140671140D01*
X101184951Y-141656213D01*
X101886019Y-142060975D02*
X101721062Y-141965737D01*
X101662393Y-141876878D01*
X101644963Y-141811830D01*
X101633913Y-141640493D01*
X101687912Y-141451726D01*
X101878388Y-141121811D01*
X101967246Y-141063142D01*
X102032295Y-141045713D01*
X102138583Y-141052092D01*
X102303540Y-141147330D01*
X102362209Y-141236189D01*
X102379639Y-141301238D01*
X102373259Y-141407526D01*
X102254212Y-141613722D01*
X102165353Y-141672391D01*
X102100305Y-141689821D01*
X101994016Y-141683441D01*
X101829059Y-141588203D01*
X101770390Y-141499345D01*
X101752960Y-141434296D01*
X101759340Y-141328008D01*
X102257173Y-142275261D02*
X102793284Y-142584784D01*
X102695085Y-142088203D01*
X102818803Y-142159632D01*
X102925091Y-142166012D01*
X102990139Y-142148582D01*
X103078998Y-142089913D01*
X103198045Y-141883716D01*
X103204425Y-141777428D01*
X103186995Y-141712379D01*
X103128326Y-141623521D01*
X102880891Y-141480664D01*
X102774602Y-141474284D01*
X102709554Y-141491714D01*
%TO.C,SW49*%
X128809523Y-46404761D02*
X128666666Y-46452380D01*
X128428571Y-46452380D01*
X128333333Y-46404761D01*
X128285714Y-46357142D01*
X128238095Y-46261904D01*
X128238095Y-46166666D01*
X128285714Y-46071428D01*
X128333333Y-46023809D01*
X128428571Y-45976190D01*
X128619047Y-45928571D01*
X128714285Y-45880952D01*
X128761904Y-45833333D01*
X128809523Y-45738095D01*
X128809523Y-45642857D01*
X128761904Y-45547619D01*
X128714285Y-45500000D01*
X128619047Y-45452380D01*
X128380952Y-45452380D01*
X128238095Y-45500000D01*
X127904761Y-45452380D02*
X127666666Y-46452380D01*
X127476190Y-45738095D01*
X127285714Y-46452380D01*
X127047619Y-45452380D01*
X126238095Y-45785714D02*
X126238095Y-46452380D01*
X126476190Y-45404761D02*
X126714285Y-46119047D01*
X126095238Y-46119047D01*
X125666666Y-46452380D02*
X125476190Y-46452380D01*
X125380952Y-46404761D01*
X125333333Y-46357142D01*
X125238095Y-46214285D01*
X125190476Y-46023809D01*
X125190476Y-45642857D01*
X125238095Y-45547619D01*
X125285714Y-45500000D01*
X125380952Y-45452380D01*
X125571428Y-45452380D01*
X125666666Y-45500000D01*
X125714285Y-45547619D01*
X125761904Y-45642857D01*
X125761904Y-45880952D01*
X125714285Y-45976190D01*
X125666666Y-46023809D01*
X125571428Y-46071428D01*
X125380952Y-46071428D01*
X125285714Y-46023809D01*
X125238095Y-45976190D01*
X125190476Y-45880952D01*
%TO.C,SW55*%
X109809523Y-82404761D02*
X109666666Y-82452380D01*
X109428571Y-82452380D01*
X109333333Y-82404761D01*
X109285714Y-82357142D01*
X109238095Y-82261904D01*
X109238095Y-82166666D01*
X109285714Y-82071428D01*
X109333333Y-82023809D01*
X109428571Y-81976190D01*
X109619047Y-81928571D01*
X109714285Y-81880952D01*
X109761904Y-81833333D01*
X109809523Y-81738095D01*
X109809523Y-81642857D01*
X109761904Y-81547619D01*
X109714285Y-81500000D01*
X109619047Y-81452380D01*
X109380952Y-81452380D01*
X109238095Y-81500000D01*
X108904761Y-81452380D02*
X108666666Y-82452380D01*
X108476190Y-81738095D01*
X108285714Y-82452380D01*
X108047619Y-81452380D01*
X107190476Y-81452380D02*
X107666666Y-81452380D01*
X107714285Y-81928571D01*
X107666666Y-81880952D01*
X107571428Y-81833333D01*
X107333333Y-81833333D01*
X107238095Y-81880952D01*
X107190476Y-81928571D01*
X107142857Y-82023809D01*
X107142857Y-82261904D01*
X107190476Y-82357142D01*
X107238095Y-82404761D01*
X107333333Y-82452380D01*
X107571428Y-82452380D01*
X107666666Y-82404761D01*
X107714285Y-82357142D01*
X106238095Y-81452380D02*
X106714285Y-81452380D01*
X106761904Y-81928571D01*
X106714285Y-81880952D01*
X106619047Y-81833333D01*
X106380952Y-81833333D01*
X106285714Y-81880952D01*
X106238095Y-81928571D01*
X106190476Y-82023809D01*
X106190476Y-82261904D01*
X106238095Y-82357142D01*
X106285714Y-82404761D01*
X106380952Y-82452380D01*
X106619047Y-82452380D01*
X106714285Y-82404761D01*
X106761904Y-82357142D01*
%TO.C,SW53*%
X109809523Y-46404761D02*
X109666666Y-46452380D01*
X109428571Y-46452380D01*
X109333333Y-46404761D01*
X109285714Y-46357142D01*
X109238095Y-46261904D01*
X109238095Y-46166666D01*
X109285714Y-46071428D01*
X109333333Y-46023809D01*
X109428571Y-45976190D01*
X109619047Y-45928571D01*
X109714285Y-45880952D01*
X109761904Y-45833333D01*
X109809523Y-45738095D01*
X109809523Y-45642857D01*
X109761904Y-45547619D01*
X109714285Y-45500000D01*
X109619047Y-45452380D01*
X109380952Y-45452380D01*
X109238095Y-45500000D01*
X108904761Y-45452380D02*
X108666666Y-46452380D01*
X108476190Y-45738095D01*
X108285714Y-46452380D01*
X108047619Y-45452380D01*
X107190476Y-45452380D02*
X107666666Y-45452380D01*
X107714285Y-45928571D01*
X107666666Y-45880952D01*
X107571428Y-45833333D01*
X107333333Y-45833333D01*
X107238095Y-45880952D01*
X107190476Y-45928571D01*
X107142857Y-46023809D01*
X107142857Y-46261904D01*
X107190476Y-46357142D01*
X107238095Y-46404761D01*
X107333333Y-46452380D01*
X107571428Y-46452380D01*
X107666666Y-46404761D01*
X107714285Y-46357142D01*
X106809523Y-45452380D02*
X106190476Y-45452380D01*
X106523809Y-45833333D01*
X106380952Y-45833333D01*
X106285714Y-45880952D01*
X106238095Y-45928571D01*
X106190476Y-46023809D01*
X106190476Y-46261904D01*
X106238095Y-46357142D01*
X106285714Y-46404761D01*
X106380952Y-46452380D01*
X106666666Y-46452380D01*
X106761904Y-46404761D01*
X106809523Y-46357142D01*
%TO.C,SW40*%
X185809523Y-100404761D02*
X185666666Y-100452380D01*
X185428571Y-100452380D01*
X185333333Y-100404761D01*
X185285714Y-100357142D01*
X185238095Y-100261904D01*
X185238095Y-100166666D01*
X185285714Y-100071428D01*
X185333333Y-100023809D01*
X185428571Y-99976190D01*
X185619047Y-99928571D01*
X185714285Y-99880952D01*
X185761904Y-99833333D01*
X185809523Y-99738095D01*
X185809523Y-99642857D01*
X185761904Y-99547619D01*
X185714285Y-99500000D01*
X185619047Y-99452380D01*
X185380952Y-99452380D01*
X185238095Y-99500000D01*
X184904761Y-99452380D02*
X184666666Y-100452380D01*
X184476190Y-99738095D01*
X184285714Y-100452380D01*
X184047619Y-99452380D01*
X183238095Y-99785714D02*
X183238095Y-100452380D01*
X183476190Y-99404761D02*
X183714285Y-100119047D01*
X183095238Y-100119047D01*
X182523809Y-99452380D02*
X182428571Y-99452380D01*
X182333333Y-99500000D01*
X182285714Y-99547619D01*
X182238095Y-99642857D01*
X182190476Y-99833333D01*
X182190476Y-100071428D01*
X182238095Y-100261904D01*
X182285714Y-100357142D01*
X182333333Y-100404761D01*
X182428571Y-100452380D01*
X182523809Y-100452380D01*
X182619047Y-100404761D01*
X182666666Y-100357142D01*
X182714285Y-100261904D01*
X182761904Y-100071428D01*
X182761904Y-99833333D01*
X182714285Y-99642857D01*
X182666666Y-99547619D01*
X182619047Y-99500000D01*
X182523809Y-99452380D01*
%TO.C,SW43*%
X166809523Y-82404761D02*
X166666666Y-82452380D01*
X166428571Y-82452380D01*
X166333333Y-82404761D01*
X166285714Y-82357142D01*
X166238095Y-82261904D01*
X166238095Y-82166666D01*
X166285714Y-82071428D01*
X166333333Y-82023809D01*
X166428571Y-81976190D01*
X166619047Y-81928571D01*
X166714285Y-81880952D01*
X166761904Y-81833333D01*
X166809523Y-81738095D01*
X166809523Y-81642857D01*
X166761904Y-81547619D01*
X166714285Y-81500000D01*
X166619047Y-81452380D01*
X166380952Y-81452380D01*
X166238095Y-81500000D01*
X165904761Y-81452380D02*
X165666666Y-82452380D01*
X165476190Y-81738095D01*
X165285714Y-82452380D01*
X165047619Y-81452380D01*
X164238095Y-81785714D02*
X164238095Y-82452380D01*
X164476190Y-81404761D02*
X164714285Y-82119047D01*
X164095238Y-82119047D01*
X163809523Y-81452380D02*
X163190476Y-81452380D01*
X163523809Y-81833333D01*
X163380952Y-81833333D01*
X163285714Y-81880952D01*
X163238095Y-81928571D01*
X163190476Y-82023809D01*
X163190476Y-82261904D01*
X163238095Y-82357142D01*
X163285714Y-82404761D01*
X163380952Y-82452380D01*
X163666666Y-82452380D01*
X163761904Y-82404761D01*
X163809523Y-82357142D01*
%TO.C,SW56*%
X109809523Y-100404761D02*
X109666666Y-100452380D01*
X109428571Y-100452380D01*
X109333333Y-100404761D01*
X109285714Y-100357142D01*
X109238095Y-100261904D01*
X109238095Y-100166666D01*
X109285714Y-100071428D01*
X109333333Y-100023809D01*
X109428571Y-99976190D01*
X109619047Y-99928571D01*
X109714285Y-99880952D01*
X109761904Y-99833333D01*
X109809523Y-99738095D01*
X109809523Y-99642857D01*
X109761904Y-99547619D01*
X109714285Y-99500000D01*
X109619047Y-99452380D01*
X109380952Y-99452380D01*
X109238095Y-99500000D01*
X108904761Y-99452380D02*
X108666666Y-100452380D01*
X108476190Y-99738095D01*
X108285714Y-100452380D01*
X108047619Y-99452380D01*
X107190476Y-99452380D02*
X107666666Y-99452380D01*
X107714285Y-99928571D01*
X107666666Y-99880952D01*
X107571428Y-99833333D01*
X107333333Y-99833333D01*
X107238095Y-99880952D01*
X107190476Y-99928571D01*
X107142857Y-100023809D01*
X107142857Y-100261904D01*
X107190476Y-100357142D01*
X107238095Y-100404761D01*
X107333333Y-100452380D01*
X107571428Y-100452380D01*
X107666666Y-100404761D01*
X107714285Y-100357142D01*
X106285714Y-99452380D02*
X106476190Y-99452380D01*
X106571428Y-99500000D01*
X106619047Y-99547619D01*
X106714285Y-99690476D01*
X106761904Y-99880952D01*
X106761904Y-100261904D01*
X106714285Y-100357142D01*
X106666666Y-100404761D01*
X106571428Y-100452380D01*
X106380952Y-100452380D01*
X106285714Y-100404761D01*
X106238095Y-100357142D01*
X106190476Y-100261904D01*
X106190476Y-100023809D01*
X106238095Y-99928571D01*
X106285714Y-99880952D01*
X106380952Y-99833333D01*
X106571428Y-99833333D01*
X106666666Y-99880952D01*
X106714285Y-99928571D01*
X106761904Y-100023809D01*
%TO.C,SW46*%
X147809523Y-64404761D02*
X147666666Y-64452380D01*
X147428571Y-64452380D01*
X147333333Y-64404761D01*
X147285714Y-64357142D01*
X147238095Y-64261904D01*
X147238095Y-64166666D01*
X147285714Y-64071428D01*
X147333333Y-64023809D01*
X147428571Y-63976190D01*
X147619047Y-63928571D01*
X147714285Y-63880952D01*
X147761904Y-63833333D01*
X147809523Y-63738095D01*
X147809523Y-63642857D01*
X147761904Y-63547619D01*
X147714285Y-63500000D01*
X147619047Y-63452380D01*
X147380952Y-63452380D01*
X147238095Y-63500000D01*
X146904761Y-63452380D02*
X146666666Y-64452380D01*
X146476190Y-63738095D01*
X146285714Y-64452380D01*
X146047619Y-63452380D01*
X145238095Y-63785714D02*
X145238095Y-64452380D01*
X145476190Y-63404761D02*
X145714285Y-64119047D01*
X145095238Y-64119047D01*
X144285714Y-63452380D02*
X144476190Y-63452380D01*
X144571428Y-63500000D01*
X144619047Y-63547619D01*
X144714285Y-63690476D01*
X144761904Y-63880952D01*
X144761904Y-64261904D01*
X144714285Y-64357142D01*
X144666666Y-64404761D01*
X144571428Y-64452380D01*
X144380952Y-64452380D01*
X144285714Y-64404761D01*
X144238095Y-64357142D01*
X144190476Y-64261904D01*
X144190476Y-64023809D01*
X144238095Y-63928571D01*
X144285714Y-63880952D01*
X144380952Y-63833333D01*
X144571428Y-63833333D01*
X144666666Y-63880952D01*
X144714285Y-63928571D01*
X144761904Y-64023809D01*
%TO.C,SW51*%
X128809523Y-82404761D02*
X128666666Y-82452380D01*
X128428571Y-82452380D01*
X128333333Y-82404761D01*
X128285714Y-82357142D01*
X128238095Y-82261904D01*
X128238095Y-82166666D01*
X128285714Y-82071428D01*
X128333333Y-82023809D01*
X128428571Y-81976190D01*
X128619047Y-81928571D01*
X128714285Y-81880952D01*
X128761904Y-81833333D01*
X128809523Y-81738095D01*
X128809523Y-81642857D01*
X128761904Y-81547619D01*
X128714285Y-81500000D01*
X128619047Y-81452380D01*
X128380952Y-81452380D01*
X128238095Y-81500000D01*
X127904761Y-81452380D02*
X127666666Y-82452380D01*
X127476190Y-81738095D01*
X127285714Y-82452380D01*
X127047619Y-81452380D01*
X126190476Y-81452380D02*
X126666666Y-81452380D01*
X126714285Y-81928571D01*
X126666666Y-81880952D01*
X126571428Y-81833333D01*
X126333333Y-81833333D01*
X126238095Y-81880952D01*
X126190476Y-81928571D01*
X126142857Y-82023809D01*
X126142857Y-82261904D01*
X126190476Y-82357142D01*
X126238095Y-82404761D01*
X126333333Y-82452380D01*
X126571428Y-82452380D01*
X126666666Y-82404761D01*
X126714285Y-82357142D01*
X125190476Y-82452380D02*
X125761904Y-82452380D01*
X125476190Y-82452380D02*
X125476190Y-81452380D01*
X125571428Y-81595238D01*
X125666666Y-81690476D01*
X125761904Y-81738095D01*
D12*
%TO.C,U3*%
X96720289Y-126378113D02*
X97415434Y-126564376D01*
X97486259Y-126627181D01*
X97516193Y-126679028D01*
X97535171Y-126771767D01*
X97491344Y-126935330D01*
X97428540Y-127006155D01*
X97376692Y-127036089D01*
X97283954Y-127055067D01*
X96588809Y-126868803D01*
X96501156Y-127195930D02*
X96358719Y-127727511D01*
X96762543Y-127528929D01*
X96729673Y-127651601D01*
X96748650Y-127744340D01*
X96778584Y-127796187D01*
X96849409Y-127858991D01*
X97053864Y-127913775D01*
X97146602Y-127894797D01*
X97198450Y-127864863D01*
X97261254Y-127794038D01*
X97326994Y-127548693D01*
X97308016Y-127455955D01*
X97278082Y-127404107D01*
D13*
X108813745Y-126523755D02*
X108819245Y-126615386D01*
X108781679Y-126755583D01*
X108738614Y-126804149D01*
X108703061Y-126824675D01*
X108639469Y-126837689D01*
X108583390Y-126822662D01*
X108534824Y-126779597D01*
X108514298Y-126744044D01*
X108501285Y-126680452D01*
X108503298Y-126560781D01*
X108490285Y-126497189D01*
X108469759Y-126461636D01*
X108421193Y-126418571D01*
X108365114Y-126403544D01*
X108301522Y-126416557D01*
X108265969Y-126437084D01*
X108222904Y-126485649D01*
X108185338Y-126625847D01*
X108190838Y-126717478D01*
X108595864Y-127336899D02*
X108638930Y-127288333D01*
X108668982Y-127176175D01*
X108655969Y-127112583D01*
X108607403Y-127069517D01*
X108383088Y-127009412D01*
X108319496Y-127022425D01*
X108276430Y-127070991D01*
X108246377Y-127183149D01*
X108259391Y-127246741D01*
X108307956Y-127289807D01*
X108364035Y-127304833D01*
X108495246Y-127039465D01*
X108460627Y-127841609D02*
X108503693Y-127793043D01*
X108533746Y-127680885D01*
X108520732Y-127617293D01*
X108472167Y-127574227D01*
X108247851Y-127514122D01*
X108184259Y-127527135D01*
X108141193Y-127575701D01*
X108111141Y-127687859D01*
X108124154Y-127751451D01*
X108172720Y-127794517D01*
X108228798Y-127809543D01*
X108360009Y-127544175D01*
X108325391Y-128346319D02*
X108368456Y-128297753D01*
X108398509Y-128185595D01*
X108385496Y-128122003D01*
X108336930Y-128078937D01*
X108112614Y-128018832D01*
X108049022Y-128031845D01*
X108005957Y-128080411D01*
X107975904Y-128192569D01*
X107988917Y-128256161D01*
X108037483Y-128299227D01*
X108093562Y-128314253D01*
X108224772Y-128048885D01*
X108210680Y-128886581D02*
X107621852Y-128728805D01*
X108182641Y-128879068D02*
X108225707Y-128830502D01*
X108255759Y-128718345D01*
X108242746Y-128654753D01*
X108222220Y-128619200D01*
X108173654Y-128576134D01*
X108005417Y-128531055D01*
X107941825Y-128544069D01*
X107906273Y-128564595D01*
X107863207Y-128613161D01*
X107833154Y-128725318D01*
X107846167Y-128788910D01*
X107675378Y-129314147D02*
X108067930Y-129419331D01*
X107742996Y-129061792D02*
X108051430Y-129144436D01*
X108099996Y-129187502D01*
X108113009Y-129251094D01*
X108090470Y-129335212D01*
X108047404Y-129383778D01*
X108011852Y-129404305D01*
X107992799Y-129699725D02*
X107600247Y-129594541D01*
X107403971Y-129541949D02*
X107439523Y-129521423D01*
X107460049Y-129556975D01*
X107424497Y-129577502D01*
X107403971Y-129541949D01*
X107460049Y-129556975D01*
X107525115Y-129874936D02*
X107917667Y-129980120D01*
X107581194Y-129889962D02*
X107545642Y-129910488D01*
X107502576Y-129959054D01*
X107480036Y-130043172D01*
X107493049Y-130106764D01*
X107541615Y-130149830D01*
X107850049Y-130232475D01*
X107752378Y-130596988D02*
X107739365Y-130533396D01*
X107718839Y-130497843D01*
X107670273Y-130454777D01*
X107502036Y-130409698D01*
X107438444Y-130422711D01*
X107402892Y-130443238D01*
X107359826Y-130491804D01*
X107337287Y-130575922D01*
X107350300Y-130639514D01*
X107370826Y-130675067D01*
X107419392Y-130718132D01*
X107587628Y-130763211D01*
X107651220Y-130750198D01*
X107686773Y-130729672D01*
X107729839Y-130681106D01*
X107752378Y-130596988D01*
X107058366Y-130831764D02*
X107542010Y-131382092D01*
X106953182Y-131224316D02*
X107647194Y-130989540D01*
X107481905Y-131606408D02*
X106893077Y-131448632D01*
X107246050Y-131813684D02*
X107170918Y-132094078D01*
X107429313Y-131802684D02*
X106787893Y-131841184D01*
X107324129Y-132195236D01*
X106652656Y-132345894D02*
X106622603Y-132458052D01*
X106635616Y-132521644D01*
X106676669Y-132592749D01*
X106781314Y-132650841D01*
X106977590Y-132703433D01*
X107097261Y-132705446D01*
X107168366Y-132664394D01*
X107211432Y-132615828D01*
X107241484Y-132503670D01*
X107228471Y-132440078D01*
X107187418Y-132368973D01*
X107082774Y-132310881D01*
X106886498Y-132258289D01*
X106766827Y-132256276D01*
X106695722Y-132297328D01*
X106652656Y-132345894D01*
D11*
%TO.C,R6*%
X121166666Y-47952380D02*
X121500000Y-47476190D01*
X121738095Y-47952380D02*
X121738095Y-46952380D01*
X121357142Y-46952380D01*
X121261904Y-47000000D01*
X121214285Y-47047619D01*
X121166666Y-47142857D01*
X121166666Y-47285714D01*
X121214285Y-47380952D01*
X121261904Y-47428571D01*
X121357142Y-47476190D01*
X121738095Y-47476190D01*
X120309523Y-46952380D02*
X120500000Y-46952380D01*
X120595238Y-47000000D01*
X120642857Y-47047619D01*
X120738095Y-47190476D01*
X120785714Y-47380952D01*
X120785714Y-47761904D01*
X120738095Y-47857142D01*
X120690476Y-47904761D01*
X120595238Y-47952380D01*
X120404761Y-47952380D01*
X120309523Y-47904761D01*
X120261904Y-47857142D01*
X120214285Y-47761904D01*
X120214285Y-47523809D01*
X120261904Y-47428571D01*
X120309523Y-47380952D01*
X120404761Y-47333333D01*
X120595238Y-47333333D01*
X120690476Y-47380952D01*
X120738095Y-47428571D01*
X120785714Y-47523809D01*
%TO.C,SW50*%
X128809523Y-64404761D02*
X128666666Y-64452380D01*
X128428571Y-64452380D01*
X128333333Y-64404761D01*
X128285714Y-64357142D01*
X128238095Y-64261904D01*
X128238095Y-64166666D01*
X128285714Y-64071428D01*
X128333333Y-64023809D01*
X128428571Y-63976190D01*
X128619047Y-63928571D01*
X128714285Y-63880952D01*
X128761904Y-63833333D01*
X128809523Y-63738095D01*
X128809523Y-63642857D01*
X128761904Y-63547619D01*
X128714285Y-63500000D01*
X128619047Y-63452380D01*
X128380952Y-63452380D01*
X128238095Y-63500000D01*
X127904761Y-63452380D02*
X127666666Y-64452380D01*
X127476190Y-63738095D01*
X127285714Y-64452380D01*
X127047619Y-63452380D01*
X126190476Y-63452380D02*
X126666666Y-63452380D01*
X126714285Y-63928571D01*
X126666666Y-63880952D01*
X126571428Y-63833333D01*
X126333333Y-63833333D01*
X126238095Y-63880952D01*
X126190476Y-63928571D01*
X126142857Y-64023809D01*
X126142857Y-64261904D01*
X126190476Y-64357142D01*
X126238095Y-64404761D01*
X126333333Y-64452380D01*
X126571428Y-64452380D01*
X126666666Y-64404761D01*
X126714285Y-64357142D01*
X125523809Y-63452380D02*
X125428571Y-63452380D01*
X125333333Y-63500000D01*
X125285714Y-63547619D01*
X125238095Y-63642857D01*
X125190476Y-63833333D01*
X125190476Y-64071428D01*
X125238095Y-64261904D01*
X125285714Y-64357142D01*
X125333333Y-64404761D01*
X125428571Y-64452380D01*
X125523809Y-64452380D01*
X125619047Y-64404761D01*
X125666666Y-64357142D01*
X125714285Y-64261904D01*
X125761904Y-64071428D01*
X125761904Y-63833333D01*
X125714285Y-63642857D01*
X125666666Y-63547619D01*
X125619047Y-63500000D01*
X125523809Y-63452380D01*
%TO.C,SW62*%
X82135287Y-170538933D02*
X82282814Y-170569122D01*
X82489011Y-170688169D01*
X82547680Y-170777028D01*
X82565110Y-170842077D01*
X82558730Y-170948365D01*
X82511111Y-171030843D01*
X82422253Y-171089512D01*
X82357204Y-171106942D01*
X82250916Y-171100562D01*
X82062149Y-171046564D01*
X81955861Y-171040184D01*
X81890812Y-171057614D01*
X81801954Y-171116283D01*
X81754334Y-171198761D01*
X81747955Y-171305050D01*
X81765385Y-171370098D01*
X81824054Y-171458957D01*
X82030250Y-171578004D01*
X82177778Y-171608194D01*
X82442643Y-171816100D02*
X83148840Y-171069122D01*
X82956654Y-171782949D01*
X83478754Y-171259598D01*
X83184951Y-172244671D01*
X83886019Y-172649433D02*
X83721062Y-172554195D01*
X83662393Y-172465336D01*
X83644963Y-172400288D01*
X83633913Y-172228951D01*
X83687912Y-172040184D01*
X83878388Y-171710269D01*
X83967246Y-171651600D01*
X84032295Y-171634171D01*
X84138583Y-171640550D01*
X84303540Y-171735788D01*
X84362209Y-171824647D01*
X84379639Y-171889696D01*
X84373259Y-171995984D01*
X84254212Y-172202180D01*
X84165353Y-172260849D01*
X84100305Y-172278279D01*
X83994016Y-172271899D01*
X83829059Y-172176661D01*
X83770390Y-172087803D01*
X83752960Y-172022754D01*
X83759340Y-171916466D01*
X84346031Y-172805050D02*
X84363461Y-172870098D01*
X84422130Y-172958957D01*
X84628326Y-173078004D01*
X84734614Y-173084384D01*
X84799663Y-173066954D01*
X84888522Y-173008285D01*
X84936141Y-172925807D01*
X84966330Y-172778279D01*
X84757173Y-171997693D01*
X85293284Y-172307217D01*
%TO.C,R7*%
X209522380Y-35333333D02*
X209046190Y-35000000D01*
X209522380Y-34761904D02*
X208522380Y-34761904D01*
X208522380Y-35142857D01*
X208570000Y-35238095D01*
X208617619Y-35285714D01*
X208712857Y-35333333D01*
X208855714Y-35333333D01*
X208950952Y-35285714D01*
X208998571Y-35238095D01*
X209046190Y-35142857D01*
X209046190Y-34761904D01*
X208522380Y-35666666D02*
X208522380Y-36333333D01*
X209522380Y-35904761D01*
%TO.C,SW64*%
X116135287Y-148950475D02*
X116282814Y-148980664D01*
X116489011Y-149099711D01*
X116547680Y-149188570D01*
X116565110Y-149253619D01*
X116558730Y-149359907D01*
X116511111Y-149442385D01*
X116422253Y-149501054D01*
X116357204Y-149518484D01*
X116250916Y-149512104D01*
X116062149Y-149458106D01*
X115955861Y-149451726D01*
X115890812Y-149469156D01*
X115801954Y-149527825D01*
X115754334Y-149610303D01*
X115747955Y-149716592D01*
X115765385Y-149781640D01*
X115824054Y-149870499D01*
X116030250Y-149989546D01*
X116177778Y-150019736D01*
X116442643Y-150227642D02*
X117148840Y-149480664D01*
X116956654Y-150194491D01*
X117478754Y-149671140D01*
X117184951Y-150656213D01*
X117886019Y-151060975D02*
X117721062Y-150965737D01*
X117662393Y-150876878D01*
X117644963Y-150811830D01*
X117633913Y-150640493D01*
X117687912Y-150451726D01*
X117878388Y-150121811D01*
X117967246Y-150063142D01*
X118032295Y-150045713D01*
X118138583Y-150052092D01*
X118303540Y-150147330D01*
X118362209Y-150236189D01*
X118379639Y-150301238D01*
X118373259Y-150407526D01*
X118254212Y-150613722D01*
X118165353Y-150672391D01*
X118100305Y-150689821D01*
X117994016Y-150683441D01*
X117829059Y-150588203D01*
X117770390Y-150499345D01*
X117752960Y-150434296D01*
X117759340Y-150328008D01*
X118877472Y-151248490D02*
X119210805Y-150671140D01*
X118480799Y-151459357D02*
X118631745Y-150721720D01*
X119167856Y-151031244D01*
%TO.C,J2*%
X87653333Y-45802380D02*
X87653333Y-46516666D01*
X87700952Y-46659523D01*
X87796190Y-46754761D01*
X87939047Y-46802380D01*
X88034285Y-46802380D01*
X87224761Y-45897619D02*
X87177142Y-45850000D01*
X87081904Y-45802380D01*
X86843809Y-45802380D01*
X86748571Y-45850000D01*
X86700952Y-45897619D01*
X86653333Y-45992857D01*
X86653333Y-46088095D01*
X86700952Y-46230952D01*
X87272380Y-46802380D01*
X86653333Y-46802380D01*
%TO.C,SW54*%
X109809523Y-64404761D02*
X109666666Y-64452380D01*
X109428571Y-64452380D01*
X109333333Y-64404761D01*
X109285714Y-64357142D01*
X109238095Y-64261904D01*
X109238095Y-64166666D01*
X109285714Y-64071428D01*
X109333333Y-64023809D01*
X109428571Y-63976190D01*
X109619047Y-63928571D01*
X109714285Y-63880952D01*
X109761904Y-63833333D01*
X109809523Y-63738095D01*
X109809523Y-63642857D01*
X109761904Y-63547619D01*
X109714285Y-63500000D01*
X109619047Y-63452380D01*
X109380952Y-63452380D01*
X109238095Y-63500000D01*
X108904761Y-63452380D02*
X108666666Y-64452380D01*
X108476190Y-63738095D01*
X108285714Y-64452380D01*
X108047619Y-63452380D01*
X107190476Y-63452380D02*
X107666666Y-63452380D01*
X107714285Y-63928571D01*
X107666666Y-63880952D01*
X107571428Y-63833333D01*
X107333333Y-63833333D01*
X107238095Y-63880952D01*
X107190476Y-63928571D01*
X107142857Y-64023809D01*
X107142857Y-64261904D01*
X107190476Y-64357142D01*
X107238095Y-64404761D01*
X107333333Y-64452380D01*
X107571428Y-64452380D01*
X107666666Y-64404761D01*
X107714285Y-64357142D01*
X106285714Y-63785714D02*
X106285714Y-64452380D01*
X106523809Y-63404761D02*
X106761904Y-64119047D01*
X106142857Y-64119047D01*
%TO.C,SW60*%
X90809523Y-100404761D02*
X90666666Y-100452380D01*
X90428571Y-100452380D01*
X90333333Y-100404761D01*
X90285714Y-100357142D01*
X90238095Y-100261904D01*
X90238095Y-100166666D01*
X90285714Y-100071428D01*
X90333333Y-100023809D01*
X90428571Y-99976190D01*
X90619047Y-99928571D01*
X90714285Y-99880952D01*
X90761904Y-99833333D01*
X90809523Y-99738095D01*
X90809523Y-99642857D01*
X90761904Y-99547619D01*
X90714285Y-99500000D01*
X90619047Y-99452380D01*
X90380952Y-99452380D01*
X90238095Y-99500000D01*
X89904761Y-99452380D02*
X89666666Y-100452380D01*
X89476190Y-99738095D01*
X89285714Y-100452380D01*
X89047619Y-99452380D01*
X88238095Y-99452380D02*
X88428571Y-99452380D01*
X88523809Y-99500000D01*
X88571428Y-99547619D01*
X88666666Y-99690476D01*
X88714285Y-99880952D01*
X88714285Y-100261904D01*
X88666666Y-100357142D01*
X88619047Y-100404761D01*
X88523809Y-100452380D01*
X88333333Y-100452380D01*
X88238095Y-100404761D01*
X88190476Y-100357142D01*
X88142857Y-100261904D01*
X88142857Y-100023809D01*
X88190476Y-99928571D01*
X88238095Y-99880952D01*
X88333333Y-99833333D01*
X88523809Y-99833333D01*
X88619047Y-99880952D01*
X88666666Y-99928571D01*
X88714285Y-100023809D01*
X87523809Y-99452380D02*
X87428571Y-99452380D01*
X87333333Y-99500000D01*
X87285714Y-99547619D01*
X87238095Y-99642857D01*
X87190476Y-99833333D01*
X87190476Y-100071428D01*
X87238095Y-100261904D01*
X87285714Y-100357142D01*
X87333333Y-100404761D01*
X87428571Y-100452380D01*
X87523809Y-100452380D01*
X87619047Y-100404761D01*
X87666666Y-100357142D01*
X87714285Y-100261904D01*
X87761904Y-100071428D01*
X87761904Y-99833333D01*
X87714285Y-99642857D01*
X87666666Y-99547619D01*
X87619047Y-99500000D01*
X87523809Y-99452380D01*
%TO.C,SW41*%
X166809523Y-46404761D02*
X166666666Y-46452380D01*
X166428571Y-46452380D01*
X166333333Y-46404761D01*
X166285714Y-46357142D01*
X166238095Y-46261904D01*
X166238095Y-46166666D01*
X166285714Y-46071428D01*
X166333333Y-46023809D01*
X166428571Y-45976190D01*
X166619047Y-45928571D01*
X166714285Y-45880952D01*
X166761904Y-45833333D01*
X166809523Y-45738095D01*
X166809523Y-45642857D01*
X166761904Y-45547619D01*
X166714285Y-45500000D01*
X166619047Y-45452380D01*
X166380952Y-45452380D01*
X166238095Y-45500000D01*
X165904761Y-45452380D02*
X165666666Y-46452380D01*
X165476190Y-45738095D01*
X165285714Y-46452380D01*
X165047619Y-45452380D01*
X164238095Y-45785714D02*
X164238095Y-46452380D01*
X164476190Y-45404761D02*
X164714285Y-46119047D01*
X164095238Y-46119047D01*
X163190476Y-46452380D02*
X163761904Y-46452380D01*
X163476190Y-46452380D02*
X163476190Y-45452380D01*
X163571428Y-45595238D01*
X163666666Y-45690476D01*
X163761904Y-45738095D01*
%TO.C,SW59*%
X90809523Y-82404761D02*
X90666666Y-82452380D01*
X90428571Y-82452380D01*
X90333333Y-82404761D01*
X90285714Y-82357142D01*
X90238095Y-82261904D01*
X90238095Y-82166666D01*
X90285714Y-82071428D01*
X90333333Y-82023809D01*
X90428571Y-81976190D01*
X90619047Y-81928571D01*
X90714285Y-81880952D01*
X90761904Y-81833333D01*
X90809523Y-81738095D01*
X90809523Y-81642857D01*
X90761904Y-81547619D01*
X90714285Y-81500000D01*
X90619047Y-81452380D01*
X90380952Y-81452380D01*
X90238095Y-81500000D01*
X89904761Y-81452380D02*
X89666666Y-82452380D01*
X89476190Y-81738095D01*
X89285714Y-82452380D01*
X89047619Y-81452380D01*
X88190476Y-81452380D02*
X88666666Y-81452380D01*
X88714285Y-81928571D01*
X88666666Y-81880952D01*
X88571428Y-81833333D01*
X88333333Y-81833333D01*
X88238095Y-81880952D01*
X88190476Y-81928571D01*
X88142857Y-82023809D01*
X88142857Y-82261904D01*
X88190476Y-82357142D01*
X88238095Y-82404761D01*
X88333333Y-82452380D01*
X88571428Y-82452380D01*
X88666666Y-82404761D01*
X88714285Y-82357142D01*
X87666666Y-82452380D02*
X87476190Y-82452380D01*
X87380952Y-82404761D01*
X87333333Y-82357142D01*
X87238095Y-82214285D01*
X87190476Y-82023809D01*
X87190476Y-81642857D01*
X87238095Y-81547619D01*
X87285714Y-81500000D01*
X87380952Y-81452380D01*
X87571428Y-81452380D01*
X87666666Y-81500000D01*
X87714285Y-81547619D01*
X87761904Y-81642857D01*
X87761904Y-81880952D01*
X87714285Y-81976190D01*
X87666666Y-82023809D01*
X87571428Y-82071428D01*
X87380952Y-82071428D01*
X87285714Y-82023809D01*
X87238095Y-81976190D01*
X87190476Y-81880952D01*
%TO.C,SW36*%
X204809523Y-100404761D02*
X204666666Y-100452380D01*
X204428571Y-100452380D01*
X204333333Y-100404761D01*
X204285714Y-100357142D01*
X204238095Y-100261904D01*
X204238095Y-100166666D01*
X204285714Y-100071428D01*
X204333333Y-100023809D01*
X204428571Y-99976190D01*
X204619047Y-99928571D01*
X204714285Y-99880952D01*
X204761904Y-99833333D01*
X204809523Y-99738095D01*
X204809523Y-99642857D01*
X204761904Y-99547619D01*
X204714285Y-99500000D01*
X204619047Y-99452380D01*
X204380952Y-99452380D01*
X204238095Y-99500000D01*
X203904761Y-99452380D02*
X203666666Y-100452380D01*
X203476190Y-99738095D01*
X203285714Y-100452380D01*
X203047619Y-99452380D01*
X202761904Y-99452380D02*
X202142857Y-99452380D01*
X202476190Y-99833333D01*
X202333333Y-99833333D01*
X202238095Y-99880952D01*
X202190476Y-99928571D01*
X202142857Y-100023809D01*
X202142857Y-100261904D01*
X202190476Y-100357142D01*
X202238095Y-100404761D01*
X202333333Y-100452380D01*
X202619047Y-100452380D01*
X202714285Y-100404761D01*
X202761904Y-100357142D01*
X201285714Y-99452380D02*
X201476190Y-99452380D01*
X201571428Y-99500000D01*
X201619047Y-99547619D01*
X201714285Y-99690476D01*
X201761904Y-99880952D01*
X201761904Y-100261904D01*
X201714285Y-100357142D01*
X201666666Y-100404761D01*
X201571428Y-100452380D01*
X201380952Y-100452380D01*
X201285714Y-100404761D01*
X201238095Y-100357142D01*
X201190476Y-100261904D01*
X201190476Y-100023809D01*
X201238095Y-99928571D01*
X201285714Y-99880952D01*
X201380952Y-99833333D01*
X201571428Y-99833333D01*
X201666666Y-99880952D01*
X201714285Y-99928571D01*
X201761904Y-100023809D01*
%TO.C,SW61*%
X84135287Y-129950475D02*
X84282814Y-129980664D01*
X84489011Y-130099711D01*
X84547680Y-130188570D01*
X84565110Y-130253619D01*
X84558730Y-130359907D01*
X84511111Y-130442385D01*
X84422253Y-130501054D01*
X84357204Y-130518484D01*
X84250916Y-130512104D01*
X84062149Y-130458106D01*
X83955861Y-130451726D01*
X83890812Y-130469156D01*
X83801954Y-130527825D01*
X83754334Y-130610303D01*
X83747955Y-130716592D01*
X83765385Y-130781640D01*
X83824054Y-130870499D01*
X84030250Y-130989546D01*
X84177778Y-131019736D01*
X84442643Y-131227642D02*
X85148840Y-130480664D01*
X84956654Y-131194491D01*
X85478754Y-130671140D01*
X85184951Y-131656213D01*
X85886019Y-132060975D02*
X85721062Y-131965737D01*
X85662393Y-131876878D01*
X85644963Y-131811830D01*
X85633913Y-131640493D01*
X85687912Y-131451726D01*
X85878388Y-131121811D01*
X85967246Y-131063142D01*
X86032295Y-131045713D01*
X86138583Y-131052092D01*
X86303540Y-131147330D01*
X86362209Y-131236189D01*
X86379639Y-131301238D01*
X86373259Y-131407526D01*
X86254212Y-131613722D01*
X86165353Y-131672391D01*
X86100305Y-131689821D01*
X85994016Y-131683441D01*
X85829059Y-131588203D01*
X85770390Y-131499345D01*
X85752960Y-131434296D01*
X85759340Y-131328008D01*
X87293284Y-131718759D02*
X86798412Y-131433045D01*
X87045848Y-131575902D02*
X86545848Y-132441927D01*
X86534798Y-132270590D01*
X86499938Y-132140493D01*
X86441269Y-132051634D01*
%TO.C,SW48*%
X147809523Y-100404761D02*
X147666666Y-100452380D01*
X147428571Y-100452380D01*
X147333333Y-100404761D01*
X147285714Y-100357142D01*
X147238095Y-100261904D01*
X147238095Y-100166666D01*
X147285714Y-100071428D01*
X147333333Y-100023809D01*
X147428571Y-99976190D01*
X147619047Y-99928571D01*
X147714285Y-99880952D01*
X147761904Y-99833333D01*
X147809523Y-99738095D01*
X147809523Y-99642857D01*
X147761904Y-99547619D01*
X147714285Y-99500000D01*
X147619047Y-99452380D01*
X147380952Y-99452380D01*
X147238095Y-99500000D01*
X146904761Y-99452380D02*
X146666666Y-100452380D01*
X146476190Y-99738095D01*
X146285714Y-100452380D01*
X146047619Y-99452380D01*
X145238095Y-99785714D02*
X145238095Y-100452380D01*
X145476190Y-99404761D02*
X145714285Y-100119047D01*
X145095238Y-100119047D01*
X144571428Y-99880952D02*
X144666666Y-99833333D01*
X144714285Y-99785714D01*
X144761904Y-99690476D01*
X144761904Y-99642857D01*
X144714285Y-99547619D01*
X144666666Y-99500000D01*
X144571428Y-99452380D01*
X144380952Y-99452380D01*
X144285714Y-99500000D01*
X144238095Y-99547619D01*
X144190476Y-99642857D01*
X144190476Y-99690476D01*
X144238095Y-99785714D01*
X144285714Y-99833333D01*
X144380952Y-99880952D01*
X144571428Y-99880952D01*
X144666666Y-99928571D01*
X144714285Y-99976190D01*
X144761904Y-100071428D01*
X144761904Y-100261904D01*
X144714285Y-100357142D01*
X144666666Y-100404761D01*
X144571428Y-100452380D01*
X144380952Y-100452380D01*
X144285714Y-100404761D01*
X144238095Y-100357142D01*
X144190476Y-100261904D01*
X144190476Y-100071428D01*
X144238095Y-99976190D01*
X144285714Y-99928571D01*
X144380952Y-99880952D01*
%TO.C,SW52*%
X128809523Y-100404761D02*
X128666666Y-100452380D01*
X128428571Y-100452380D01*
X128333333Y-100404761D01*
X128285714Y-100357142D01*
X128238095Y-100261904D01*
X128238095Y-100166666D01*
X128285714Y-100071428D01*
X128333333Y-100023809D01*
X128428571Y-99976190D01*
X128619047Y-99928571D01*
X128714285Y-99880952D01*
X128761904Y-99833333D01*
X128809523Y-99738095D01*
X128809523Y-99642857D01*
X128761904Y-99547619D01*
X128714285Y-99500000D01*
X128619047Y-99452380D01*
X128380952Y-99452380D01*
X128238095Y-99500000D01*
X127904761Y-99452380D02*
X127666666Y-100452380D01*
X127476190Y-99738095D01*
X127285714Y-100452380D01*
X127047619Y-99452380D01*
X126190476Y-99452380D02*
X126666666Y-99452380D01*
X126714285Y-99928571D01*
X126666666Y-99880952D01*
X126571428Y-99833333D01*
X126333333Y-99833333D01*
X126238095Y-99880952D01*
X126190476Y-99928571D01*
X126142857Y-100023809D01*
X126142857Y-100261904D01*
X126190476Y-100357142D01*
X126238095Y-100404761D01*
X126333333Y-100452380D01*
X126571428Y-100452380D01*
X126666666Y-100404761D01*
X126714285Y-100357142D01*
X125761904Y-99547619D02*
X125714285Y-99500000D01*
X125619047Y-99452380D01*
X125380952Y-99452380D01*
X125285714Y-99500000D01*
X125238095Y-99547619D01*
X125190476Y-99642857D01*
X125190476Y-99738095D01*
X125238095Y-99880952D01*
X125809523Y-100452380D01*
X125190476Y-100452380D01*
%TO.C,SW44*%
X166809523Y-100404761D02*
X166666666Y-100452380D01*
X166428571Y-100452380D01*
X166333333Y-100404761D01*
X166285714Y-100357142D01*
X166238095Y-100261904D01*
X166238095Y-100166666D01*
X166285714Y-100071428D01*
X166333333Y-100023809D01*
X166428571Y-99976190D01*
X166619047Y-99928571D01*
X166714285Y-99880952D01*
X166761904Y-99833333D01*
X166809523Y-99738095D01*
X166809523Y-99642857D01*
X166761904Y-99547619D01*
X166714285Y-99500000D01*
X166619047Y-99452380D01*
X166380952Y-99452380D01*
X166238095Y-99500000D01*
X165904761Y-99452380D02*
X165666666Y-100452380D01*
X165476190Y-99738095D01*
X165285714Y-100452380D01*
X165047619Y-99452380D01*
X164238095Y-99785714D02*
X164238095Y-100452380D01*
X164476190Y-99404761D02*
X164714285Y-100119047D01*
X164095238Y-100119047D01*
X163285714Y-99785714D02*
X163285714Y-100452380D01*
X163523809Y-99404761D02*
X163761904Y-100119047D01*
X163142857Y-100119047D01*
%TO.C,R8*%
X148666666Y-42952380D02*
X149000000Y-42476190D01*
X149238095Y-42952380D02*
X149238095Y-41952380D01*
X148857142Y-41952380D01*
X148761904Y-42000000D01*
X148714285Y-42047619D01*
X148666666Y-42142857D01*
X148666666Y-42285714D01*
X148714285Y-42380952D01*
X148761904Y-42428571D01*
X148857142Y-42476190D01*
X149238095Y-42476190D01*
X148095238Y-42380952D02*
X148190476Y-42333333D01*
X148238095Y-42285714D01*
X148285714Y-42190476D01*
X148285714Y-42142857D01*
X148238095Y-42047619D01*
X148190476Y-42000000D01*
X148095238Y-41952380D01*
X147904761Y-41952380D01*
X147809523Y-42000000D01*
X147761904Y-42047619D01*
X147714285Y-42142857D01*
X147714285Y-42190476D01*
X147761904Y-42285714D01*
X147809523Y-42333333D01*
X147904761Y-42380952D01*
X148095238Y-42380952D01*
X148190476Y-42428571D01*
X148238095Y-42476190D01*
X148285714Y-42571428D01*
X148285714Y-42761904D01*
X148238095Y-42857142D01*
X148190476Y-42904761D01*
X148095238Y-42952380D01*
X147904761Y-42952380D01*
X147809523Y-42904761D01*
X147761904Y-42857142D01*
X147714285Y-42761904D01*
X147714285Y-42571428D01*
X147761904Y-42476190D01*
X147809523Y-42428571D01*
X147904761Y-42380952D01*
%TO.C,SW39*%
X185809523Y-82404761D02*
X185666666Y-82452380D01*
X185428571Y-82452380D01*
X185333333Y-82404761D01*
X185285714Y-82357142D01*
X185238095Y-82261904D01*
X185238095Y-82166666D01*
X185285714Y-82071428D01*
X185333333Y-82023809D01*
X185428571Y-81976190D01*
X185619047Y-81928571D01*
X185714285Y-81880952D01*
X185761904Y-81833333D01*
X185809523Y-81738095D01*
X185809523Y-81642857D01*
X185761904Y-81547619D01*
X185714285Y-81500000D01*
X185619047Y-81452380D01*
X185380952Y-81452380D01*
X185238095Y-81500000D01*
X184904761Y-81452380D02*
X184666666Y-82452380D01*
X184476190Y-81738095D01*
X184285714Y-82452380D01*
X184047619Y-81452380D01*
X183761904Y-81452380D02*
X183142857Y-81452380D01*
X183476190Y-81833333D01*
X183333333Y-81833333D01*
X183238095Y-81880952D01*
X183190476Y-81928571D01*
X183142857Y-82023809D01*
X183142857Y-82261904D01*
X183190476Y-82357142D01*
X183238095Y-82404761D01*
X183333333Y-82452380D01*
X183619047Y-82452380D01*
X183714285Y-82404761D01*
X183761904Y-82357142D01*
X182666666Y-82452380D02*
X182476190Y-82452380D01*
X182380952Y-82404761D01*
X182333333Y-82357142D01*
X182238095Y-82214285D01*
X182190476Y-82023809D01*
X182190476Y-81642857D01*
X182238095Y-81547619D01*
X182285714Y-81500000D01*
X182380952Y-81452380D01*
X182571428Y-81452380D01*
X182666666Y-81500000D01*
X182714285Y-81547619D01*
X182761904Y-81642857D01*
X182761904Y-81880952D01*
X182714285Y-81976190D01*
X182666666Y-82023809D01*
X182571428Y-82071428D01*
X182380952Y-82071428D01*
X182285714Y-82023809D01*
X182238095Y-81976190D01*
X182190476Y-81880952D01*
%TO.C,SW58*%
X90809523Y-64404761D02*
X90666666Y-64452380D01*
X90428571Y-64452380D01*
X90333333Y-64404761D01*
X90285714Y-64357142D01*
X90238095Y-64261904D01*
X90238095Y-64166666D01*
X90285714Y-64071428D01*
X90333333Y-64023809D01*
X90428571Y-63976190D01*
X90619047Y-63928571D01*
X90714285Y-63880952D01*
X90761904Y-63833333D01*
X90809523Y-63738095D01*
X90809523Y-63642857D01*
X90761904Y-63547619D01*
X90714285Y-63500000D01*
X90619047Y-63452380D01*
X90380952Y-63452380D01*
X90238095Y-63500000D01*
X89904761Y-63452380D02*
X89666666Y-64452380D01*
X89476190Y-63738095D01*
X89285714Y-64452380D01*
X89047619Y-63452380D01*
X88190476Y-63452380D02*
X88666666Y-63452380D01*
X88714285Y-63928571D01*
X88666666Y-63880952D01*
X88571428Y-63833333D01*
X88333333Y-63833333D01*
X88238095Y-63880952D01*
X88190476Y-63928571D01*
X88142857Y-64023809D01*
X88142857Y-64261904D01*
X88190476Y-64357142D01*
X88238095Y-64404761D01*
X88333333Y-64452380D01*
X88571428Y-64452380D01*
X88666666Y-64404761D01*
X88714285Y-64357142D01*
X87571428Y-63880952D02*
X87666666Y-63833333D01*
X87714285Y-63785714D01*
X87761904Y-63690476D01*
X87761904Y-63642857D01*
X87714285Y-63547619D01*
X87666666Y-63500000D01*
X87571428Y-63452380D01*
X87380952Y-63452380D01*
X87285714Y-63500000D01*
X87238095Y-63547619D01*
X87190476Y-63642857D01*
X87190476Y-63690476D01*
X87238095Y-63785714D01*
X87285714Y-63833333D01*
X87380952Y-63880952D01*
X87571428Y-63880952D01*
X87666666Y-63928571D01*
X87714285Y-63976190D01*
X87761904Y-64071428D01*
X87761904Y-64261904D01*
X87714285Y-64357142D01*
X87666666Y-64404761D01*
X87571428Y-64452380D01*
X87380952Y-64452380D01*
X87285714Y-64404761D01*
X87238095Y-64357142D01*
X87190476Y-64261904D01*
X87190476Y-64071428D01*
X87238095Y-63976190D01*
X87285714Y-63928571D01*
X87380952Y-63880952D01*
D14*
%TO.C,SW38*%
X191600000Y-65400000D02*
X191600000Y-80600000D01*
X176400000Y-65400000D02*
X191600000Y-65400000D01*
X176400000Y-80600000D02*
X176400000Y-65400000D01*
X191600000Y-80600000D02*
X176400000Y-80600000D01*
%TO.C,SW57*%
X81400000Y-47400000D02*
X96600000Y-47400000D01*
X96600000Y-47400000D02*
X96600000Y-62600000D01*
X81400000Y-62600000D02*
X81400000Y-47400000D01*
X96600000Y-62600000D02*
X81400000Y-62600000D01*
D15*
%TO.C,U4*%
X208650000Y-43850000D02*
X208650000Y-45550000D01*
X209050000Y-36150000D02*
X208650000Y-36150000D01*
X190950000Y-43850000D02*
X190950000Y-43350000D01*
X190950000Y-43850000D02*
X191350000Y-43850000D01*
X190950000Y-36150000D02*
X190950000Y-36650000D01*
X209050000Y-43450000D02*
X209050000Y-43200000D01*
X209050000Y-36150000D02*
X209050000Y-36650000D01*
X190950000Y-36150000D02*
X191350000Y-36150000D01*
X208650000Y-43850000D02*
X209050000Y-43450000D01*
D14*
%TO.C,SW47*%
X153600000Y-98600000D02*
X138400000Y-98600000D01*
X153600000Y-83400000D02*
X153600000Y-98600000D01*
X138400000Y-98600000D02*
X138400000Y-83400000D01*
X138400000Y-83400000D02*
X153600000Y-83400000D01*
%TO.C,R5*%
X123477500Y-45254724D02*
X123477500Y-44745276D01*
X124522500Y-45254724D02*
X124522500Y-44745276D01*
%TO.C,SW45*%
X153600000Y-62600000D02*
X138400000Y-62600000D01*
X153600000Y-47400000D02*
X153600000Y-62600000D01*
X138400000Y-47400000D02*
X153600000Y-47400000D01*
X138400000Y-62600000D02*
X138400000Y-47400000D01*
%TO.C,SW37*%
X176400000Y-62600000D02*
X176400000Y-47400000D01*
X191600000Y-62600000D02*
X176400000Y-62600000D01*
X191600000Y-47400000D02*
X191600000Y-62600000D01*
X176400000Y-47400000D02*
X191600000Y-47400000D01*
%TO.C,SW33*%
X195400000Y-62600000D02*
X195400000Y-47400000D01*
X195400000Y-47400000D02*
X210600000Y-47400000D01*
X210600000Y-47400000D02*
X210600000Y-62600000D01*
X210600000Y-62600000D02*
X195400000Y-62600000D01*
D15*
%TO.C,U5*%
X144150000Y-43850000D02*
X144150000Y-45550000D01*
X126450000Y-43850000D02*
X126850000Y-43850000D01*
X126450000Y-36150000D02*
X126450000Y-36650000D01*
X144550000Y-36150000D02*
X144150000Y-36150000D01*
X144550000Y-36150000D02*
X144550000Y-36650000D01*
X126450000Y-36150000D02*
X126850000Y-36150000D01*
X144150000Y-43850000D02*
X144550000Y-43450000D01*
X126450000Y-43850000D02*
X126450000Y-43350000D01*
X144550000Y-43450000D02*
X144550000Y-43200000D01*
D14*
%TO.C,SW42*%
X157400000Y-80600000D02*
X157400000Y-65400000D01*
X172600000Y-80600000D02*
X157400000Y-80600000D01*
X157400000Y-65400000D02*
X172600000Y-65400000D01*
X172600000Y-65400000D02*
X172600000Y-80600000D01*
%TO.C,SW35*%
X210600000Y-98600000D02*
X195400000Y-98600000D01*
X195400000Y-98600000D02*
X195400000Y-83400000D01*
X210600000Y-83400000D02*
X210600000Y-98600000D01*
X195400000Y-83400000D02*
X210600000Y-83400000D01*
%TO.C,SW34*%
X210600000Y-65400000D02*
X210600000Y-80600000D01*
X195400000Y-65400000D02*
X210600000Y-65400000D01*
X210600000Y-80600000D02*
X195400000Y-80600000D01*
X195400000Y-80600000D02*
X195400000Y-65400000D01*
%TO.C,SW63*%
X94218207Y-138618207D02*
X107381793Y-146218207D01*
X107381793Y-146218207D02*
X99781793Y-159381793D01*
X99781793Y-159381793D02*
X86618207Y-151781793D01*
X86618207Y-151781793D02*
X94218207Y-138618207D01*
%TO.C,SW49*%
X119400000Y-62600000D02*
X119400000Y-47400000D01*
X119400000Y-47400000D02*
X134600000Y-47400000D01*
X134600000Y-47400000D02*
X134600000Y-62600000D01*
X134600000Y-62600000D02*
X119400000Y-62600000D01*
%TO.C,SW55*%
X100400000Y-83400000D02*
X115600000Y-83400000D01*
X115600000Y-98600000D02*
X100400000Y-98600000D01*
X115600000Y-83400000D02*
X115600000Y-98600000D01*
X100400000Y-98600000D02*
X100400000Y-83400000D01*
%TO.C,SW53*%
X115600000Y-47400000D02*
X115600000Y-62600000D01*
X100400000Y-62600000D02*
X100400000Y-47400000D01*
X115600000Y-62600000D02*
X100400000Y-62600000D01*
X100400000Y-47400000D02*
X115600000Y-47400000D01*
%TO.C,SW40*%
X191600000Y-116600000D02*
X176400000Y-116600000D01*
X176400000Y-101400000D02*
X191600000Y-101400000D01*
X176400000Y-116600000D02*
X176400000Y-101400000D01*
X191600000Y-101400000D02*
X191600000Y-116600000D01*
%TO.C,SW43*%
X157400000Y-98600000D02*
X157400000Y-83400000D01*
X172600000Y-83400000D02*
X172600000Y-98600000D01*
X157400000Y-83400000D02*
X172600000Y-83400000D01*
X172600000Y-98600000D02*
X157400000Y-98600000D01*
%TO.C,SW56*%
X115600000Y-116600000D02*
X100400000Y-116600000D01*
X100400000Y-116600000D02*
X100400000Y-101400000D01*
X115600000Y-101400000D02*
X115600000Y-116600000D01*
X100400000Y-101400000D02*
X115600000Y-101400000D01*
%TO.C,SW46*%
X153600000Y-80600000D02*
X138400000Y-80600000D01*
X138400000Y-65400000D02*
X153600000Y-65400000D01*
X153600000Y-65400000D02*
X153600000Y-80600000D01*
X138400000Y-80600000D02*
X138400000Y-65400000D01*
%TO.C,SW51*%
X134600000Y-83400000D02*
X134600000Y-98600000D01*
X119400000Y-83400000D02*
X134600000Y-83400000D01*
X134600000Y-98600000D02*
X119400000Y-98600000D01*
X119400000Y-98600000D02*
X119400000Y-83400000D01*
D16*
%TO.C,U3*%
X95343979Y-130912663D02*
X102446721Y-132815837D01*
D17*
X100843004Y-131273801D02*
X100382824Y-132991217D01*
X101728767Y-122570495D02*
X101268587Y-124287911D01*
X101651860Y-125310969D02*
X99198408Y-124653569D01*
X103421582Y-131964729D02*
X102961402Y-133682145D01*
X102961402Y-133682145D02*
X100382824Y-132991217D01*
D16*
X97671834Y-122224991D02*
X95343979Y-130912663D01*
X120469522Y-123779143D02*
X115863118Y-140970478D01*
D17*
X115759207Y-129091022D02*
X114280056Y-134611288D01*
X103421582Y-131964729D02*
X100843004Y-131273801D01*
X99198408Y-124653569D02*
X97883608Y-129560472D01*
D16*
X104775891Y-124123258D02*
X97673149Y-122220084D01*
D17*
X99493606Y-130912231D02*
X96917482Y-130221960D01*
X101651860Y-125310969D02*
X100337059Y-130217873D01*
X101268587Y-124287911D02*
X98692463Y-123597641D01*
D16*
X95580433Y-135535749D02*
X100013284Y-118992125D01*
D17*
X96917482Y-130221960D02*
X96457302Y-131939376D01*
D16*
X102446721Y-132815837D02*
X104775891Y-124123258D01*
D17*
X99152643Y-121880225D02*
X98692463Y-123597641D01*
X99033426Y-132629647D02*
X96457302Y-131939376D01*
D16*
X115863118Y-140970478D02*
X95580433Y-135535749D01*
D17*
X100337059Y-130217873D02*
X97883608Y-129560472D01*
D16*
X100013284Y-118992125D02*
X100834549Y-118517968D01*
D17*
X105196563Y-125340409D02*
X102617985Y-124649481D01*
D16*
X100834549Y-118517968D02*
X120469522Y-123779143D01*
D17*
X101728767Y-122570495D02*
X99152643Y-121880225D01*
X105656743Y-123622993D02*
X105196563Y-125340409D01*
X118212658Y-129748422D02*
X116733507Y-135268688D01*
X118212658Y-129748422D02*
X115759207Y-129091022D01*
X103078166Y-122932065D02*
X102617985Y-124649481D01*
X116733507Y-135268688D02*
X114280056Y-134611288D01*
X105656743Y-123622993D02*
X103078166Y-122932065D01*
X99493606Y-130912231D02*
X99033426Y-132629647D01*
D18*
X103284433Y-118220022D02*
G75*
G03*
X103284433Y-118220022I-127000J0D01*
G01*
D14*
%TO.C,R6*%
X121522500Y-45254724D02*
X121522500Y-44745276D01*
X120477500Y-45254724D02*
X120477500Y-44745276D01*
%TO.C,SW50*%
X134600000Y-65400000D02*
X134600000Y-80600000D01*
X134600000Y-80600000D02*
X119400000Y-80600000D01*
X119400000Y-65400000D02*
X134600000Y-65400000D01*
X119400000Y-80600000D02*
X119400000Y-65400000D01*
%TO.C,SW62*%
X98381793Y-161218207D02*
X90781793Y-174381793D01*
X85218207Y-153618207D02*
X98381793Y-161218207D01*
X77618207Y-166781793D02*
X85218207Y-153618207D01*
X90781793Y-174381793D02*
X77618207Y-166781793D01*
%TO.C,R7*%
X209977500Y-35245276D02*
X209977500Y-35754724D01*
X211022500Y-35245276D02*
X211022500Y-35754724D01*
%TO.C,SW64*%
X123381793Y-155218207D02*
X115781793Y-168381793D01*
X102618207Y-160781793D02*
X110218207Y-147618207D01*
X115781793Y-168381793D02*
X102618207Y-160781793D01*
X110218207Y-147618207D02*
X123381793Y-155218207D01*
%TO.C,J2*%
X87920000Y-44100000D02*
X90320000Y-44100000D01*
X80895000Y-38500000D02*
X80895000Y-37900000D01*
X91870000Y-44100000D02*
X91870000Y-45500000D01*
X80895000Y-38500000D02*
X78895000Y-38500000D01*
X92995000Y-37900000D02*
X92995000Y-44100000D01*
X91420000Y-37900000D02*
X80895000Y-37900000D01*
X80895000Y-43500000D02*
X78895000Y-43500000D01*
X91870000Y-44100000D02*
X92995000Y-44100000D01*
X78895000Y-43500000D02*
X78895000Y-38500000D01*
X80895000Y-44100000D02*
X80895000Y-43500000D01*
X90320000Y-44100000D02*
X90320000Y-45500000D01*
X80895000Y-44100000D02*
X83270000Y-44100000D01*
X84920000Y-44100000D02*
X86270000Y-44100000D01*
%TO.C,SW54*%
X115600000Y-80600000D02*
X100400000Y-80600000D01*
X100400000Y-65400000D02*
X115600000Y-65400000D01*
X115600000Y-65400000D02*
X115600000Y-80600000D01*
X100400000Y-80600000D02*
X100400000Y-65400000D01*
%TO.C,SW60*%
X81400000Y-116600000D02*
X81400000Y-101400000D01*
X96600000Y-101400000D02*
X96600000Y-116600000D01*
X81400000Y-101400000D02*
X96600000Y-101400000D01*
X96600000Y-116600000D02*
X81400000Y-116600000D01*
%TO.C,SW41*%
X172600000Y-62600000D02*
X157400000Y-62600000D01*
X157400000Y-47400000D02*
X172600000Y-47400000D01*
X157400000Y-62600000D02*
X157400000Y-47400000D01*
X172600000Y-47400000D02*
X172600000Y-62600000D01*
%TO.C,SW59*%
X96600000Y-98600000D02*
X81400000Y-98600000D01*
X81400000Y-83400000D02*
X96600000Y-83400000D01*
X96600000Y-83400000D02*
X96600000Y-98600000D01*
X81400000Y-98600000D02*
X81400000Y-83400000D01*
%TO.C,SW36*%
X195400000Y-101400000D02*
X210600000Y-101400000D01*
X195400000Y-116600000D02*
X195400000Y-101400000D01*
X210600000Y-116600000D02*
X195400000Y-116600000D01*
X210600000Y-101400000D02*
X210600000Y-116600000D01*
%TO.C,SW61*%
X83781793Y-149381793D02*
X70618207Y-141781793D01*
X78218207Y-128618207D02*
X91381793Y-136218207D01*
X70618207Y-141781793D02*
X78218207Y-128618207D01*
X91381793Y-136218207D02*
X83781793Y-149381793D01*
%TO.C,SW48*%
X138400000Y-101400000D02*
X153600000Y-101400000D01*
X153600000Y-116600000D02*
X138400000Y-116600000D01*
X153600000Y-101400000D02*
X153600000Y-116600000D01*
X138400000Y-116600000D02*
X138400000Y-101400000D01*
%TO.C,SW52*%
X134600000Y-101400000D02*
X134600000Y-116600000D01*
X119400000Y-116600000D02*
X119400000Y-101400000D01*
X119400000Y-101400000D02*
X134600000Y-101400000D01*
X134600000Y-116600000D02*
X119400000Y-116600000D01*
%TO.C,SW44*%
X157400000Y-101400000D02*
X172600000Y-101400000D01*
X172600000Y-101400000D02*
X172600000Y-116600000D01*
X157400000Y-116600000D02*
X157400000Y-101400000D01*
X172600000Y-116600000D02*
X157400000Y-116600000D01*
%TO.C,R8*%
X149022500Y-39745276D02*
X149022500Y-40254724D01*
X147977500Y-39745276D02*
X147977500Y-40254724D01*
%TO.C,SW39*%
X191600000Y-98600000D02*
X176400000Y-98600000D01*
X191600000Y-83400000D02*
X191600000Y-98600000D01*
X176400000Y-98600000D02*
X176400000Y-83400000D01*
X176400000Y-83400000D02*
X191600000Y-83400000D01*
%TO.C,SW58*%
X96600000Y-65400000D02*
X96600000Y-80600000D01*
X81400000Y-80600000D02*
X81400000Y-65400000D01*
X96600000Y-80600000D02*
X81400000Y-80600000D01*
X81400000Y-65400000D02*
X96600000Y-65400000D01*
%TD*%
M02*
