M48
; DRILL file {KiCad (6.0.11)} date Wed 24 May 2023 02:48:26 PM PDT
; FORMAT={-:-/ absolute / inch / decimal}
; #@! TF.CreationDate,2023-05-24T14:48:26-07:00
; #@! TF.GenerationSoftware,Kicad,Pcbnew,(6.0.11)
; #@! TF.FileFunction,Plated,1,2,PTH
FMAT,2
INCH
; #@! TA.AperFunction,Plated,PTH,ViaDrill
T1C0.0157
; #@! TA.AperFunction,Plated,PTH,ComponentDrill
T2C0.0472
; #@! TA.AperFunction,Plated,PTH,ComponentDrill
T3C0.0630
%
G90
G05
T1
X3.2087Y-1.5551
X3.2087Y-1.7323
X3.248Y-1.7717
X3.2874Y-4.7244
X3.2874Y-4.7638
X3.2874Y-4.8425
X3.3465Y-1.6535
X3.4252Y-1.6535
X3.4449Y-1.559
X3.622Y-1.5748
X3.6811Y-1.3583
X3.927Y-1.4467
X3.927Y-1.703
X3.9764Y-1.4561
X3.977Y-1.6935
X4.027Y-1.4455
X4.027Y-1.7041
X4.077Y-1.4567
X4.0885Y-1.6916
X4.127Y-1.6998
X4.1339Y-1.4567
X4.1732Y-1.4567
X4.177Y-1.6967
X4.227Y-1.4567
X4.227Y-1.6929
X4.2738Y-1.696
X4.2913Y-1.4567
X4.3307Y-1.4744
X4.3687Y-1.4848
X4.4094Y-1.5059
X4.4291Y-1.6023
X4.4488Y-1.5187
X4.4816Y-1.5413
X4.5164Y-1.5596
X4.9213Y-1.6732
X4.9491Y-1.3861
X5.0591Y-1.8898
X5.1181Y-1.8701
X5.1969Y-1.8307
X5.315Y-1.6929
X5.3327Y-2.2835
X5.3346Y-2.7756
X5.3346Y-3.4843
X5.3346Y-4.1929
X5.3543Y-1.6929
X5.3937Y-2.0472
X5.4134Y-1.6929
X5.4249Y-2.0167
X5.4528Y-1.6929
X5.4528Y-1.9882
X5.4921Y-1.9665
X5.5118Y-1.6929
X5.5315Y-1.938
X5.5512Y-1.6929
X5.5709Y-1.9183
X5.6102Y-1.6929
X5.6102Y-1.8769
X5.6496Y-1.6929
X5.6496Y-1.8592
X6.4138Y-1.4228
X6.4961Y-1.703
X6.5004Y-1.4667
X6.5504Y-1.4561
X6.5504Y-1.6923
X6.6004Y-1.4567
X6.6004Y-1.6817
X6.6504Y-1.4535
X6.6504Y-1.6754
X6.7004Y-1.4567
X6.7004Y-1.686
X6.7504Y-1.4604
X6.7504Y-1.6892
X6.8004Y-1.4711
X6.8004Y-1.6785
X6.8504Y-1.4711
X6.8504Y-1.6929
X6.8504Y-1.8898
X6.8898Y-1.9045
X6.9094Y-1.4961
X6.9291Y-1.9685
X6.9685Y-1.5286
X7.0244Y-1.5295
X7.2042Y-1.7525
X7.2146Y-1.7126
X7.2235Y-1.6732
X7.2239Y-1.6147
X7.2677Y-1.4528
X7.3156Y-1.4281
X7.3541Y-1.4104
X7.3819Y-1.378
X7.5984Y-1.6929
X7.6575Y-1.6929
X7.8543Y-1.6732
X7.8937Y-1.4764
X7.899Y-1.6785
X7.9331Y-1.4567
X7.949Y-1.677
X7.9921Y-1.6732
X7.999Y-1.4567
X8.0487Y-1.4542
X8.0512Y-1.6732
X8.0906Y-1.6732
X8.1496Y-1.6732
X8.189Y-1.6732
T2
X3.0933Y-5.2445
X3.2193Y-6.4878
X3.3051Y-5.2713
X3.3051Y-5.2713
X3.3071Y-2.0157
X3.3071Y-2.7244
X3.3071Y-3.4331
X3.3071Y-4.1417
X3.3484Y-6.6579
X3.3484Y-6.6579
X3.4343Y-5.4413
X3.5039Y-1.9331
X3.5039Y-1.9331
X3.5039Y-2.6417
X3.5039Y-2.6417
X3.5039Y-3.3504
X3.5039Y-3.3504
X3.5039Y-4.0591
X3.5039Y-4.0591
X3.5602Y-6.6847
X3.7008Y-2.0157
X3.7008Y-2.7244
X3.7008Y-3.4331
X3.7008Y-4.1417
X3.7232Y-5.6382
X3.935Y-5.665
X3.935Y-5.665
X4.0551Y-2.0157
X4.0551Y-2.7244
X4.0551Y-3.4331
X4.0551Y-4.1417
X4.0642Y-5.835
X4.252Y-1.9331
X4.252Y-1.9331
X4.252Y-2.6417
X4.252Y-2.6417
X4.252Y-3.3504
X4.252Y-3.3504
X4.252Y-4.0591
X4.252Y-4.0591
X4.3531Y-5.9925
X4.4488Y-2.0157
X4.4488Y-2.7244
X4.4488Y-3.4331
X4.4488Y-4.1417
X4.565Y-6.0193
X4.565Y-6.0193
X4.6941Y-6.1893
X4.8031Y-2.0157
X4.8031Y-2.7244
X4.8031Y-3.4331
X4.8031Y-4.1417
X5.0Y-1.9331
X5.0Y-1.9331
X5.0Y-2.6417
X5.0Y-2.6417
X5.0Y-3.3504
X5.0Y-3.3504
X5.0Y-4.0591
X5.0Y-4.0591
X5.1969Y-2.0157
X5.1969Y-2.7244
X5.1969Y-3.4331
X5.1969Y-4.1417
X5.5512Y-2.0157
X5.5512Y-2.7244
X5.5512Y-3.4331
X5.5512Y-4.1417
X5.748Y-1.9331
X5.748Y-1.9331
X5.748Y-2.6417
X5.748Y-2.6417
X5.748Y-3.3504
X5.748Y-3.3504
X5.748Y-4.0591
X5.748Y-4.0591
X5.9449Y-2.0157
X5.9449Y-2.7244
X5.9449Y-3.4331
X5.9449Y-4.1417
X6.2992Y-2.0157
X6.2992Y-2.7244
X6.2992Y-3.4331
X6.2992Y-4.1417
X6.4961Y-1.9331
X6.4961Y-1.9331
X6.4961Y-2.6417
X6.4961Y-2.6417
X6.4961Y-3.3504
X6.4961Y-3.3504
X6.4961Y-4.0591
X6.4961Y-4.0591
X6.6929Y-2.0157
X6.6929Y-2.7244
X6.6929Y-3.4331
X6.6929Y-4.1417
X7.0472Y-2.0157
X7.0472Y-2.7244
X7.0472Y-3.4331
X7.0472Y-4.1417
X7.2441Y-1.9331
X7.2441Y-1.9331
X7.2441Y-2.6417
X7.2441Y-2.6417
X7.2441Y-3.3504
X7.2441Y-3.3504
X7.2441Y-4.0591
X7.2441Y-4.0591
X7.4409Y-2.0157
X7.4409Y-2.7244
X7.4409Y-3.4331
X7.4409Y-4.1417
X7.7953Y-2.0157
X7.7953Y-2.7244
X7.7953Y-3.4331
X7.7953Y-4.1417
X7.9921Y-1.9331
X7.9921Y-1.9331
X7.9921Y-2.6417
X7.9921Y-2.6417
X7.9921Y-3.3504
X7.9921Y-3.3504
X7.9921Y-4.0591
X7.9921Y-4.0591
X8.189Y-2.0157
X8.189Y-2.7244
X8.189Y-3.4331
X8.189Y-4.1417
T3
X2.9171Y-5.5496
X3.2581Y-5.7465
X3.3071Y-2.3681
X3.3071Y-3.0768
X3.3071Y-3.7854
X3.3071Y-4.4941
X3.3955Y-6.1827
X3.547Y-5.9433
X3.7008Y-2.3681
X3.7008Y-3.0768
X3.7008Y-3.7854
X3.7008Y-4.4941
X3.7364Y-6.3795
X3.888Y-6.1402
X4.0551Y-2.3681
X4.0551Y-3.0768
X4.0551Y-3.7854
X4.0551Y-4.4941
X4.177Y-6.2976
X4.4488Y-2.3681
X4.4488Y-3.0768
X4.4488Y-3.7854
X4.4488Y-4.4941
X4.5179Y-6.4945
X4.8031Y-2.3681
X4.8031Y-3.0768
X4.8031Y-3.7854
X4.8031Y-4.4941
X5.1969Y-2.3681
X5.1969Y-3.0768
X5.1969Y-3.7854
X5.1969Y-4.4941
X5.5512Y-2.3681
X5.5512Y-3.0768
X5.5512Y-3.7854
X5.5512Y-4.4941
X5.9449Y-2.3681
X5.9449Y-3.0768
X5.9449Y-3.7854
X5.9449Y-4.4941
X6.2992Y-2.3681
X6.2992Y-3.0768
X6.2992Y-3.7854
X6.2992Y-4.4941
X6.6929Y-2.3681
X6.6929Y-3.0768
X6.6929Y-3.7854
X6.6929Y-4.4941
X7.0472Y-2.3681
X7.0472Y-3.0768
X7.0472Y-3.7854
X7.0472Y-4.4941
X7.4409Y-2.3681
X7.4409Y-3.0768
X7.4409Y-3.7854
X7.4409Y-4.4941
X7.7953Y-2.3681
X7.7953Y-3.0768
X7.7953Y-3.7854
X7.7953Y-4.4941
X8.189Y-2.3681
X8.189Y-3.0768
X8.189Y-3.7854
X8.189Y-4.4941
T0
M30
