%TF.GenerationSoftware,KiCad,Pcbnew,(6.0.11)*%
%TF.CreationDate,2023-05-24T14:48:24-07:00*%
%TF.ProjectId,keeb,6b656562-2e6b-4696-9361-645f70636258,rev?*%
%TF.SameCoordinates,Original*%
%TF.FileFunction,Soldermask,Top*%
%TF.FilePolarity,Negative*%
%FSLAX46Y46*%
G04 Gerber Fmt 4.6, Leading zero omitted, Abs format (unit mm)*
G04 Created by KiCad (PCBNEW (6.0.11)) date 2023-05-24 14:48:24*
%MOMM*%
%LPD*%
G01*
G04 APERTURE LIST*
G04 Aperture macros list*
%AMRoundRect*
0 Rectangle with rounded corners*
0 $1 Rounding radius*
0 $2 $3 $4 $5 $6 $7 $8 $9 X,Y pos of 4 corners*
0 Add a 4 corners polygon primitive as box body*
4,1,4,$2,$3,$4,$5,$6,$7,$8,$9,$2,$3,0*
0 Add four circle primitives for the rounded corners*
1,1,$1+$1,$2,$3*
1,1,$1+$1,$4,$5*
1,1,$1+$1,$6,$7*
1,1,$1+$1,$8,$9*
0 Add four rect primitives between the rounded corners*
20,1,$1+$1,$2,$3,$4,$5,0*
20,1,$1+$1,$4,$5,$6,$7,0*
20,1,$1+$1,$6,$7,$8,$9,0*
20,1,$1+$1,$8,$9,$2,$3,0*%
G04 Aperture macros list end*
%ADD10C,1.900000*%
%ADD11C,1.650000*%
%ADD12C,5.050000*%
%ADD13C,1.250000*%
%ADD14RoundRect,0.237500X-0.237500X0.250000X-0.237500X-0.250000X0.237500X-0.250000X0.237500X0.250000X0*%
%ADD15C,1.500000*%
%ADD16R,1.200000X2.500000*%
%ADD17R,0.600000X2.000000*%
%ADD18RoundRect,0.237500X0.237500X-0.250000X0.237500X0.250000X-0.237500X0.250000X-0.237500X-0.250000X0*%
%ADD19C,2.600000*%
%ADD20C,2.200000*%
G04 APERTURE END LIST*
D10*
%TO.C,SW25*%
X83500000Y-55000000D03*
D11*
X84000000Y-60150000D03*
D12*
X89000000Y-55000000D03*
D10*
X94500000Y-55000000D03*
D13*
X94000000Y-51200000D03*
X89000000Y-49100000D03*
%TD*%
%TO.C,SW5*%
X184000000Y-49100000D03*
X189000000Y-51200000D03*
D10*
X178500000Y-55000000D03*
X189500000Y-55000000D03*
D11*
X179000000Y-60150000D03*
D12*
X184000000Y-55000000D03*
%TD*%
D10*
%TO.C,SW12*%
X170500000Y-109000000D03*
D11*
X160000000Y-114150000D03*
D13*
X170000000Y-105200000D03*
D12*
X165000000Y-109000000D03*
D13*
X165000000Y-103100000D03*
D10*
X159500000Y-109000000D03*
%TD*%
D11*
%TO.C,SW6*%
X179000000Y-78150000D03*
D10*
X189500000Y-73000000D03*
D13*
X184000000Y-67100000D03*
D10*
X178500000Y-73000000D03*
D12*
X184000000Y-73000000D03*
D13*
X189000000Y-69200000D03*
%TD*%
%TO.C,SW7*%
X184000000Y-85100000D03*
D10*
X178500000Y-91000000D03*
D12*
X184000000Y-91000000D03*
D13*
X189000000Y-87200000D03*
D10*
X189500000Y-91000000D03*
D11*
X179000000Y-96150000D03*
%TD*%
D12*
%TO.C,SW19*%
X127000000Y-91000000D03*
D13*
X127000000Y-85100000D03*
D10*
X121500000Y-91000000D03*
D11*
X122000000Y-96150000D03*
D10*
X132500000Y-91000000D03*
D13*
X132000000Y-87200000D03*
%TD*%
D14*
%TO.C,R2*%
X94935000Y-36087500D03*
X94935000Y-37912500D03*
%TD*%
D12*
%TO.C,SW3*%
X203000000Y-91000000D03*
D11*
X198000000Y-96150000D03*
D13*
X203000000Y-85100000D03*
D10*
X208500000Y-91000000D03*
X197500000Y-91000000D03*
D13*
X208000000Y-87200000D03*
%TD*%
D11*
%TO.C,SW9*%
X160000000Y-60150000D03*
D10*
X159500000Y-55000000D03*
D13*
X165000000Y-49100000D03*
D10*
X170500000Y-55000000D03*
D12*
X165000000Y-55000000D03*
D13*
X170000000Y-51200000D03*
%TD*%
%TO.C,SW14*%
X151000000Y-69200000D03*
D11*
X141000000Y-78150000D03*
D10*
X140500000Y-73000000D03*
D13*
X146000000Y-67100000D03*
D10*
X151500000Y-73000000D03*
D12*
X146000000Y-73000000D03*
%TD*%
D11*
%TO.C,SW1*%
X198000000Y-60150000D03*
D10*
X208500000Y-55000000D03*
X197500000Y-55000000D03*
D13*
X208000000Y-51200000D03*
D12*
X203000000Y-55000000D03*
D13*
X203000000Y-49100000D03*
%TD*%
D10*
%TO.C,SW32*%
X117763140Y-160750000D03*
D11*
X106094873Y-159960031D03*
D13*
X119230127Y-157209103D03*
D12*
X113000000Y-158000000D03*
D13*
X115950000Y-152890450D03*
D10*
X108236860Y-155250000D03*
%TD*%
D12*
%TO.C,SW20*%
X127000000Y-109000000D03*
D13*
X132000000Y-105200000D03*
D11*
X122000000Y-114150000D03*
D10*
X132500000Y-109000000D03*
X121500000Y-109000000D03*
D13*
X127000000Y-103100000D03*
%TD*%
%TO.C,SW29*%
X87230127Y-138209103D03*
X83950000Y-133890450D03*
D10*
X85763140Y-141750000D03*
D12*
X81000000Y-139000000D03*
D10*
X76236860Y-136250000D03*
D11*
X74094873Y-140960031D03*
%TD*%
D13*
%TO.C,SW10*%
X165000000Y-67100000D03*
D11*
X160000000Y-78150000D03*
D13*
X170000000Y-69200000D03*
D10*
X159500000Y-73000000D03*
X170500000Y-73000000D03*
D12*
X165000000Y-73000000D03*
%TD*%
D15*
%TO.C,J1*%
X89495000Y-41000000D03*
X82495000Y-41000000D03*
D16*
X87095000Y-37750000D03*
X84095000Y-37750000D03*
X92195000Y-44250000D03*
X91095000Y-37750000D03*
%TD*%
D13*
%TO.C,SW8*%
X189000000Y-105200000D03*
D11*
X179000000Y-114150000D03*
D13*
X184000000Y-103100000D03*
D10*
X178500000Y-109000000D03*
D12*
X184000000Y-109000000D03*
D10*
X189500000Y-109000000D03*
%TD*%
%TO.C,SW31*%
X101763140Y-151750000D03*
D13*
X103230127Y-148209103D03*
D10*
X92236860Y-146250000D03*
D13*
X99950000Y-143890450D03*
D11*
X90094873Y-150960031D03*
D12*
X97000000Y-149000000D03*
%TD*%
%TO.C,SW15*%
X146000000Y-91000000D03*
D11*
X141000000Y-96150000D03*
D13*
X146000000Y-85100000D03*
D10*
X140500000Y-91000000D03*
X151500000Y-91000000D03*
D13*
X151000000Y-87200000D03*
%TD*%
D10*
%TO.C,SW2*%
X208500000Y-73000000D03*
X197500000Y-73000000D03*
D13*
X203000000Y-67100000D03*
D11*
X198000000Y-78150000D03*
D12*
X203000000Y-73000000D03*
D13*
X208000000Y-69200000D03*
%TD*%
D14*
%TO.C,R3*%
X122500000Y-35087500D03*
X122500000Y-36912500D03*
%TD*%
D17*
%TO.C,U1*%
X165110000Y-44700000D03*
X166380000Y-44700000D03*
X167650000Y-44700000D03*
X168920000Y-44700000D03*
X170190000Y-44700000D03*
X171460000Y-44700000D03*
X172730000Y-44700000D03*
X174000000Y-44700000D03*
X175270000Y-44700000D03*
X176540000Y-44700000D03*
X177810000Y-44700000D03*
X179080000Y-44700000D03*
X180350000Y-44700000D03*
X181620000Y-44700000D03*
X181620000Y-35300000D03*
X180350000Y-35300000D03*
X179080000Y-35300000D03*
X177810000Y-35300000D03*
X176540000Y-35300000D03*
X175270000Y-35300000D03*
X174000000Y-35300000D03*
X172730000Y-35300000D03*
X171460000Y-35300000D03*
X170190000Y-35300000D03*
X168920000Y-35300000D03*
X167650000Y-35300000D03*
X166380000Y-35300000D03*
X165110000Y-35300000D03*
%TD*%
D10*
%TO.C,SW11*%
X159500000Y-91000000D03*
D11*
X160000000Y-96150000D03*
D10*
X170500000Y-91000000D03*
D12*
X165000000Y-91000000D03*
D13*
X165000000Y-85100000D03*
X170000000Y-87200000D03*
%TD*%
D10*
%TO.C,SW30*%
X83236860Y-161250000D03*
D13*
X85050000Y-169109550D03*
X81769873Y-164790897D03*
D12*
X88000000Y-164000000D03*
D11*
X94905127Y-162039969D03*
D10*
X92763140Y-166750000D03*
%TD*%
D14*
%TO.C,R4*%
X119412500Y-35087500D03*
X119412500Y-36912500D03*
%TD*%
D12*
%TO.C,SW22*%
X108000000Y-73000000D03*
D10*
X102500000Y-73000000D03*
D11*
X103000000Y-78150000D03*
D13*
X108000000Y-67100000D03*
D10*
X113500000Y-73000000D03*
D13*
X113000000Y-69200000D03*
%TD*%
D10*
%TO.C,SW4*%
X197500000Y-109000000D03*
D13*
X208000000Y-105200000D03*
D12*
X203000000Y-109000000D03*
D13*
X203000000Y-103100000D03*
D11*
X198000000Y-114150000D03*
D10*
X208500000Y-109000000D03*
%TD*%
D11*
%TO.C,SW21*%
X103000000Y-60150000D03*
D10*
X113500000Y-55000000D03*
D13*
X113000000Y-51200000D03*
D12*
X108000000Y-55000000D03*
D10*
X102500000Y-55000000D03*
D13*
X108000000Y-49100000D03*
%TD*%
D10*
%TO.C,SW17*%
X132500000Y-55000000D03*
X121500000Y-55000000D03*
D13*
X127000000Y-49100000D03*
D12*
X127000000Y-55000000D03*
D11*
X122000000Y-60150000D03*
D13*
X132000000Y-51200000D03*
%TD*%
D12*
%TO.C,SW16*%
X146000000Y-109000000D03*
D10*
X151500000Y-109000000D03*
D11*
X141000000Y-114150000D03*
D13*
X146000000Y-103100000D03*
D10*
X140500000Y-109000000D03*
D13*
X151000000Y-105200000D03*
%TD*%
D18*
%TO.C,R1*%
X95000000Y-45490552D03*
X95000000Y-43665552D03*
%TD*%
D10*
%TO.C,SW26*%
X94500000Y-73000000D03*
X83500000Y-73000000D03*
D13*
X94000000Y-69200000D03*
D12*
X89000000Y-73000000D03*
D11*
X84000000Y-78150000D03*
D13*
X89000000Y-67100000D03*
%TD*%
D17*
%TO.C,U2*%
X99745000Y-44700000D03*
X101015000Y-44700000D03*
X102285000Y-44700000D03*
X103555000Y-44700000D03*
X104825000Y-44700000D03*
X106095000Y-44700000D03*
X107365000Y-44700000D03*
X108635000Y-44700000D03*
X109905000Y-44700000D03*
X111175000Y-44700000D03*
X112445000Y-44700000D03*
X113715000Y-44700000D03*
X114985000Y-44700000D03*
X116255000Y-44700000D03*
X116255000Y-35300000D03*
X114985000Y-35300000D03*
X113715000Y-35300000D03*
X112445000Y-35300000D03*
X111175000Y-35300000D03*
X109905000Y-35300000D03*
X108635000Y-35300000D03*
X107365000Y-35300000D03*
X106095000Y-35300000D03*
X104825000Y-35300000D03*
X103555000Y-35300000D03*
X102285000Y-35300000D03*
X101015000Y-35300000D03*
X99745000Y-35300000D03*
%TD*%
D13*
%TO.C,SW24*%
X113000000Y-105200000D03*
D11*
X103000000Y-114150000D03*
D10*
X102500000Y-109000000D03*
D12*
X108000000Y-109000000D03*
D13*
X108000000Y-103100000D03*
D10*
X113500000Y-109000000D03*
%TD*%
D13*
%TO.C,SW18*%
X127000000Y-67100000D03*
D10*
X132500000Y-73000000D03*
D13*
X132000000Y-69200000D03*
D11*
X122000000Y-78150000D03*
D12*
X127000000Y-73000000D03*
D10*
X121500000Y-73000000D03*
%TD*%
D12*
%TO.C,SW27*%
X89000000Y-91000000D03*
D11*
X84000000Y-96150000D03*
D10*
X94500000Y-91000000D03*
D13*
X94000000Y-87200000D03*
D10*
X83500000Y-91000000D03*
D13*
X89000000Y-85100000D03*
%TD*%
D10*
%TO.C,SW28*%
X94500000Y-109000000D03*
D12*
X89000000Y-109000000D03*
D10*
X83500000Y-109000000D03*
D13*
X89000000Y-103100000D03*
X94000000Y-105200000D03*
D11*
X84000000Y-114150000D03*
%TD*%
%TO.C,SW13*%
X141000000Y-60150000D03*
D12*
X146000000Y-55000000D03*
D10*
X151500000Y-55000000D03*
D13*
X146000000Y-49100000D03*
X151000000Y-51200000D03*
D10*
X140500000Y-55000000D03*
%TD*%
D12*
%TO.C,SW23*%
X108000000Y-91000000D03*
D11*
X103000000Y-96150000D03*
D10*
X102500000Y-91000000D03*
D13*
X108000000Y-85100000D03*
D10*
X113500000Y-91000000D03*
D13*
X113000000Y-87200000D03*
%TD*%
D19*
%TO.C,SW38*%
X189000000Y-78150000D03*
D20*
X184000000Y-67100000D03*
X179000000Y-69200000D03*
%TD*%
D19*
%TO.C,SW57*%
X94000000Y-60150000D03*
D20*
X89000000Y-49100000D03*
X84000000Y-51200000D03*
%TD*%
D19*
%TO.C,SW47*%
X151000000Y-96150000D03*
D20*
X146000000Y-85100000D03*
X141000000Y-87200000D03*
%TD*%
D19*
%TO.C,SW45*%
X151000000Y-60150000D03*
D20*
X146000000Y-49100000D03*
X141000000Y-51200000D03*
%TD*%
D19*
%TO.C,SW37*%
X189000000Y-60150000D03*
D20*
X184000000Y-49100000D03*
X179000000Y-51200000D03*
%TD*%
D19*
%TO.C,SW33*%
X208000000Y-60150000D03*
D20*
X203000000Y-49100000D03*
X198000000Y-51200000D03*
%TD*%
D19*
%TO.C,SW42*%
X170000000Y-78150000D03*
D20*
X165000000Y-67100000D03*
X160000000Y-69200000D03*
%TD*%
D19*
%TO.C,SW35*%
X208000000Y-96150000D03*
D20*
X203000000Y-85100000D03*
X198000000Y-87200000D03*
%TD*%
D19*
%TO.C,SW34*%
X208000000Y-78150000D03*
D20*
X203000000Y-67100000D03*
X198000000Y-69200000D03*
%TD*%
D19*
%TO.C,SW63*%
X98755127Y-155960031D03*
D20*
X99950000Y-143890450D03*
X94569873Y-143209103D03*
%TD*%
D19*
%TO.C,SW49*%
X132000000Y-60150000D03*
D20*
X127000000Y-49100000D03*
X122000000Y-51200000D03*
%TD*%
D19*
%TO.C,SW55*%
X113000000Y-96150000D03*
D20*
X108000000Y-85100000D03*
X103000000Y-87200000D03*
%TD*%
D19*
%TO.C,SW53*%
X113000000Y-60150000D03*
D20*
X108000000Y-49100000D03*
X103000000Y-51200000D03*
%TD*%
D19*
%TO.C,SW40*%
X189000000Y-114150000D03*
D20*
X184000000Y-103100000D03*
X179000000Y-105200000D03*
%TD*%
D19*
%TO.C,SW43*%
X170000000Y-96150000D03*
D20*
X165000000Y-85100000D03*
X160000000Y-87200000D03*
%TD*%
D19*
%TO.C,SW56*%
X113000000Y-114150000D03*
D20*
X108000000Y-103100000D03*
X103000000Y-105200000D03*
%TD*%
D19*
%TO.C,SW46*%
X151000000Y-78150000D03*
D20*
X146000000Y-67100000D03*
X141000000Y-69200000D03*
%TD*%
D19*
%TO.C,SW51*%
X132000000Y-96150000D03*
D20*
X127000000Y-85100000D03*
X122000000Y-87200000D03*
%TD*%
D19*
%TO.C,SW50*%
X132000000Y-78150000D03*
D20*
X127000000Y-67100000D03*
X122000000Y-69200000D03*
%TD*%
D19*
%TO.C,SW62*%
X86244873Y-157039969D03*
D20*
X85050000Y-169109550D03*
X90430127Y-169790897D03*
%TD*%
D19*
%TO.C,SW64*%
X114755127Y-164960031D03*
D20*
X115950000Y-152890450D03*
X110569873Y-152209103D03*
%TD*%
D15*
%TO.C,J2*%
X89495000Y-41000000D03*
X82495000Y-41000000D03*
%TD*%
D19*
%TO.C,SW54*%
X113000000Y-78150000D03*
D20*
X108000000Y-67100000D03*
X103000000Y-69200000D03*
%TD*%
D19*
%TO.C,SW60*%
X94000000Y-114150000D03*
D20*
X89000000Y-103100000D03*
X84000000Y-105200000D03*
%TD*%
D19*
%TO.C,SW41*%
X170000000Y-60150000D03*
D20*
X165000000Y-49100000D03*
X160000000Y-51200000D03*
%TD*%
D19*
%TO.C,SW59*%
X94000000Y-96150000D03*
D20*
X89000000Y-85100000D03*
X84000000Y-87200000D03*
%TD*%
D19*
%TO.C,SW36*%
X208000000Y-114150000D03*
D20*
X203000000Y-103100000D03*
X198000000Y-105200000D03*
%TD*%
D19*
%TO.C,SW61*%
X82755127Y-145960031D03*
D20*
X83950000Y-133890450D03*
X78569873Y-133209103D03*
%TD*%
D19*
%TO.C,SW48*%
X151000000Y-114150000D03*
D20*
X146000000Y-103100000D03*
X141000000Y-105200000D03*
%TD*%
D19*
%TO.C,SW52*%
X132000000Y-114150000D03*
D20*
X127000000Y-103100000D03*
X122000000Y-105200000D03*
%TD*%
D19*
%TO.C,SW44*%
X170000000Y-114150000D03*
D20*
X165000000Y-103100000D03*
X160000000Y-105200000D03*
%TD*%
D19*
%TO.C,SW39*%
X189000000Y-96150000D03*
D20*
X184000000Y-85100000D03*
X179000000Y-87200000D03*
%TD*%
D19*
%TO.C,SW58*%
X94000000Y-78150000D03*
D20*
X89000000Y-67100000D03*
X84000000Y-69200000D03*
%TD*%
M02*
