M48
; DRILL file {KiCad (6.0.11)} date Wed 24 May 2023 02:48:26 PM PDT
; FORMAT={-:-/ absolute / inch / decimal}
; #@! TF.CreationDate,2023-05-24T14:48:26-07:00
; #@! TF.GenerationSoftware,Kicad,Pcbnew,(6.0.11)
; #@! TF.FileFunction,NonPlated,1,2,NPTH
FMAT,2
INCH
; #@! TA.AperFunction,NonPlated,NPTH,ComponentDrill
T1C0.0591
; #@! TA.AperFunction,NonPlated,NPTH,ComponentDrill
T2C0.0748
; #@! TA.AperFunction,NonPlated,NPTH,ComponentDrill
T3C0.1988
%
G90
G05
T1
X3.2478Y-1.6142
X3.2478Y-1.6142
X3.5234Y-1.6142
X3.5234Y-1.6142
T2
X3.0015Y-5.3642
X3.277Y-6.3484
X3.2874Y-2.1654
X3.2874Y-2.874
X3.2874Y-3.5827
X3.2874Y-4.2913
X3.3765Y-5.5807
X3.6314Y-5.7579
X3.6521Y-6.565
X3.7205Y-2.1654
X3.7205Y-2.874
X3.7205Y-3.5827
X3.7205Y-4.2913
X4.0064Y-5.9744
X4.0354Y-2.1654
X4.0354Y-2.874
X4.0354Y-3.5827
X4.0354Y-4.2913
X4.2613Y-6.1122
X4.4685Y-2.1654
X4.4685Y-2.874
X4.4685Y-3.5827
X4.4685Y-4.2913
X4.6363Y-6.3287
X4.7835Y-2.1654
X4.7835Y-2.874
X4.7835Y-3.5827
X4.7835Y-4.2913
X5.2165Y-2.1654
X5.2165Y-2.874
X5.2165Y-3.5827
X5.2165Y-4.2913
X5.5315Y-2.1654
X5.5315Y-2.874
X5.5315Y-3.5827
X5.5315Y-4.2913
X5.9646Y-2.1654
X5.9646Y-2.874
X5.9646Y-3.5827
X5.9646Y-4.2913
X6.2795Y-2.1654
X6.2795Y-2.874
X6.2795Y-3.5827
X6.2795Y-4.2913
X6.7126Y-2.1654
X6.7126Y-2.874
X6.7126Y-3.5827
X6.7126Y-4.2913
X7.0276Y-2.1654
X7.0276Y-2.874
X7.0276Y-3.5827
X7.0276Y-4.2913
X7.4606Y-2.1654
X7.4606Y-2.874
X7.4606Y-3.5827
X7.4606Y-4.2913
X7.7756Y-2.1654
X7.7756Y-2.874
X7.7756Y-3.5827
X7.7756Y-4.2913
X8.2087Y-2.1654
X8.2087Y-2.874
X8.2087Y-3.5827
X8.2087Y-4.2913
T3
X3.189Y-5.4724
X3.4646Y-6.4567
X3.5039Y-2.1654
X3.5039Y-2.874
X3.5039Y-3.5827
X3.5039Y-4.2913
X3.8189Y-5.8661
X4.252Y-2.1654
X4.252Y-2.874
X4.252Y-3.5827
X4.252Y-4.2913
X4.4488Y-6.2205
X5.0Y-2.1654
X5.0Y-2.874
X5.0Y-3.5827
X5.0Y-4.2913
X5.748Y-2.1654
X5.748Y-2.874
X5.748Y-3.5827
X5.748Y-4.2913
X6.4961Y-2.1654
X6.4961Y-2.874
X6.4961Y-3.5827
X6.4961Y-4.2913
X7.2441Y-2.1654
X7.2441Y-2.874
X7.2441Y-3.5827
X7.2441Y-4.2913
X7.9921Y-2.1654
X7.9921Y-2.874
X7.9921Y-3.5827
X7.9921Y-4.2913
T0
M30
