%TF.GenerationSoftware,KiCad,Pcbnew,(6.0.9)*%
%TF.CreationDate,2022-12-02T11:33:43-08:00*%
%TF.ProjectId,keyboard_left,6b657962-6f61-4726-945f-6c6566742e6b,rev?*%
%TF.SameCoordinates,Original*%
%TF.FileFunction,Paste,Bot*%
%TF.FilePolarity,Positive*%
%FSLAX46Y46*%
G04 Gerber Fmt 4.6, Leading zero omitted, Abs format (unit mm)*
G04 Created by KiCad (PCBNEW (6.0.9)) date 2022-12-02 11:33:43*
%MOMM*%
%LPD*%
G01*
G04 APERTURE LIST*
G04 Aperture macros list*
%AMRoundRect*
0 Rectangle with rounded corners*
0 $1 Rounding radius*
0 $2 $3 $4 $5 $6 $7 $8 $9 X,Y pos of 4 corners*
0 Add a 4 corners polygon primitive as box body*
4,1,4,$2,$3,$4,$5,$6,$7,$8,$9,$2,$3,0*
0 Add four circle primitives for the rounded corners*
1,1,$1+$1,$2,$3*
1,1,$1+$1,$4,$5*
1,1,$1+$1,$6,$7*
1,1,$1+$1,$8,$9*
0 Add four rect primitives between the rounded corners*
20,1,$1+$1,$2,$3,$4,$5,0*
20,1,$1+$1,$4,$5,$6,$7,0*
20,1,$1+$1,$6,$7,$8,$9,0*
20,1,$1+$1,$8,$9,$2,$3,0*%
G04 Aperture macros list end*
%ADD10RoundRect,0.237500X-0.237500X0.250000X-0.237500X-0.250000X0.237500X-0.250000X0.237500X0.250000X0*%
%ADD11R,2.000000X0.600000*%
%ADD12O,2.748280X1.998980*%
%ADD13O,1.016000X2.032000*%
%ADD14C,1.143000*%
G04 APERTURE END LIST*
D10*
%TO.C,R1*%
X101500000Y-37587500D03*
X101500000Y-39412500D03*
%TD*%
D11*
%TO.C,U3*%
X66040000Y-39755000D03*
X66040000Y-38485000D03*
X66040000Y-37215000D03*
X66040000Y-35945000D03*
X66040000Y-34675000D03*
X66040000Y-33405000D03*
X66040000Y-32135000D03*
X66040000Y-30865000D03*
X66040000Y-29595000D03*
X66040000Y-28325000D03*
X66040000Y-27055000D03*
X66040000Y-25785000D03*
X66040000Y-24515000D03*
X66040000Y-23245000D03*
X75440000Y-23245000D03*
X75440000Y-24515000D03*
X75440000Y-25785000D03*
X75440000Y-27055000D03*
X75440000Y-28325000D03*
X75440000Y-29595000D03*
X75440000Y-30865000D03*
X75440000Y-32135000D03*
X75440000Y-33405000D03*
X75440000Y-34675000D03*
X75440000Y-35945000D03*
X75440000Y-37215000D03*
X75440000Y-38485000D03*
X75440000Y-39755000D03*
%TD*%
D10*
%TO.C,R2*%
X99500000Y-37587500D03*
X99500000Y-39412500D03*
%TD*%
%TO.C,R3*%
X116450000Y-27587500D03*
X116450000Y-29412500D03*
%TD*%
%TO.C,R4*%
X77500000Y-27587500D03*
X77500000Y-29412500D03*
%TD*%
D12*
%TO.C,U1*%
X96501290Y-24500490D03*
X96501290Y-27040490D03*
X96501290Y-29580490D03*
X96501290Y-32120490D03*
X96501290Y-34660490D03*
X96501290Y-37200490D03*
X96501290Y-39740490D03*
X80336730Y-39740490D03*
X80336730Y-37200490D03*
X80336730Y-34660490D03*
X80336730Y-32120490D03*
X80336730Y-29580490D03*
X80336730Y-27040490D03*
X80336730Y-24500490D03*
D13*
X89634410Y-40818310D03*
X87084410Y-40818310D03*
D14*
X89635607Y-23814123D03*
X87095607Y-23814123D03*
X89635607Y-26354123D03*
X87095607Y-26354123D03*
%TD*%
D11*
%TO.C,U2*%
X104750000Y-39755000D03*
X104750000Y-38485000D03*
X104750000Y-37215000D03*
X104750000Y-35945000D03*
X104750000Y-34675000D03*
X104750000Y-33405000D03*
X104750000Y-32135000D03*
X104750000Y-30865000D03*
X104750000Y-29595000D03*
X104750000Y-28325000D03*
X104750000Y-27055000D03*
X104750000Y-25785000D03*
X104750000Y-24515000D03*
X104750000Y-23245000D03*
X114150000Y-23245000D03*
X114150000Y-24515000D03*
X114150000Y-25785000D03*
X114150000Y-27055000D03*
X114150000Y-28325000D03*
X114150000Y-29595000D03*
X114150000Y-30865000D03*
X114150000Y-32135000D03*
X114150000Y-33405000D03*
X114150000Y-34675000D03*
X114150000Y-35945000D03*
X114150000Y-37215000D03*
X114150000Y-38485000D03*
X114150000Y-39755000D03*
%TD*%
M02*
