%TF.GenerationSoftware,KiCad,Pcbnew,(6.0.9)*%
%TF.CreationDate,2022-12-02T11:33:43-08:00*%
%TF.ProjectId,keyboard_left,6b657962-6f61-4726-945f-6c6566742e6b,rev?*%
%TF.SameCoordinates,Original*%
%TF.FileFunction,Legend,Top*%
%TF.FilePolarity,Positive*%
%FSLAX46Y46*%
G04 Gerber Fmt 4.6, Leading zero omitted, Abs format (unit mm)*
G04 Created by KiCad (PCBNEW (6.0.9)) date 2022-12-02 11:33:43*
%MOMM*%
%LPD*%
G01*
G04 APERTURE LIST*
%ADD10C,0.150000*%
%ADD11C,0.120000*%
G04 APERTURE END LIST*
D10*
%TO.C,SW27*%
X67690476Y-82904761D02*
X67833333Y-82952380D01*
X68071428Y-82952380D01*
X68166666Y-82904761D01*
X68214285Y-82857142D01*
X68261904Y-82761904D01*
X68261904Y-82666666D01*
X68214285Y-82571428D01*
X68166666Y-82523809D01*
X68071428Y-82476190D01*
X67880952Y-82428571D01*
X67785714Y-82380952D01*
X67738095Y-82333333D01*
X67690476Y-82238095D01*
X67690476Y-82142857D01*
X67738095Y-82047619D01*
X67785714Y-82000000D01*
X67880952Y-81952380D01*
X68119047Y-81952380D01*
X68261904Y-82000000D01*
X68595238Y-81952380D02*
X68833333Y-82952380D01*
X69023809Y-82238095D01*
X69214285Y-82952380D01*
X69452380Y-81952380D01*
X69785714Y-82047619D02*
X69833333Y-82000000D01*
X69928571Y-81952380D01*
X70166666Y-81952380D01*
X70261904Y-82000000D01*
X70309523Y-82047619D01*
X70357142Y-82142857D01*
X70357142Y-82238095D01*
X70309523Y-82380952D01*
X69738095Y-82952380D01*
X70357142Y-82952380D01*
X70690476Y-81952380D02*
X71357142Y-81952380D01*
X70928571Y-82952380D01*
%TO.C,SW9*%
X141166666Y-46904761D02*
X141309523Y-46952380D01*
X141547619Y-46952380D01*
X141642857Y-46904761D01*
X141690476Y-46857142D01*
X141738095Y-46761904D01*
X141738095Y-46666666D01*
X141690476Y-46571428D01*
X141642857Y-46523809D01*
X141547619Y-46476190D01*
X141357142Y-46428571D01*
X141261904Y-46380952D01*
X141214285Y-46333333D01*
X141166666Y-46238095D01*
X141166666Y-46142857D01*
X141214285Y-46047619D01*
X141261904Y-46000000D01*
X141357142Y-45952380D01*
X141595238Y-45952380D01*
X141738095Y-46000000D01*
X142071428Y-45952380D02*
X142309523Y-46952380D01*
X142500000Y-46238095D01*
X142690476Y-46952380D01*
X142928571Y-45952380D01*
X143357142Y-46952380D02*
X143547619Y-46952380D01*
X143642857Y-46904761D01*
X143690476Y-46857142D01*
X143785714Y-46714285D01*
X143833333Y-46523809D01*
X143833333Y-46142857D01*
X143785714Y-46047619D01*
X143738095Y-46000000D01*
X143642857Y-45952380D01*
X143452380Y-45952380D01*
X143357142Y-46000000D01*
X143309523Y-46047619D01*
X143261904Y-46142857D01*
X143261904Y-46380952D01*
X143309523Y-46476190D01*
X143357142Y-46523809D01*
X143452380Y-46571428D01*
X143642857Y-46571428D01*
X143738095Y-46523809D01*
X143785714Y-46476190D01*
X143833333Y-46380952D01*
%TO.C,SW11*%
X143690476Y-82904761D02*
X143833333Y-82952380D01*
X144071428Y-82952380D01*
X144166666Y-82904761D01*
X144214285Y-82857142D01*
X144261904Y-82761904D01*
X144261904Y-82666666D01*
X144214285Y-82571428D01*
X144166666Y-82523809D01*
X144071428Y-82476190D01*
X143880952Y-82428571D01*
X143785714Y-82380952D01*
X143738095Y-82333333D01*
X143690476Y-82238095D01*
X143690476Y-82142857D01*
X143738095Y-82047619D01*
X143785714Y-82000000D01*
X143880952Y-81952380D01*
X144119047Y-81952380D01*
X144261904Y-82000000D01*
X144595238Y-81952380D02*
X144833333Y-82952380D01*
X145023809Y-82238095D01*
X145214285Y-82952380D01*
X145452380Y-81952380D01*
X146357142Y-82952380D02*
X145785714Y-82952380D01*
X146071428Y-82952380D02*
X146071428Y-81952380D01*
X145976190Y-82095238D01*
X145880952Y-82190476D01*
X145785714Y-82238095D01*
X147309523Y-82952380D02*
X146738095Y-82952380D01*
X147023809Y-82952380D02*
X147023809Y-81952380D01*
X146928571Y-82095238D01*
X146833333Y-82190476D01*
X146738095Y-82238095D01*
%TO.C,SW15*%
X151135287Y-122461066D02*
X151282814Y-122430877D01*
X151489011Y-122311830D01*
X151547680Y-122222971D01*
X151565110Y-122157922D01*
X151558730Y-122051634D01*
X151511111Y-121969156D01*
X151422253Y-121910487D01*
X151357204Y-121893057D01*
X151250916Y-121899437D01*
X151062149Y-121953435D01*
X150955861Y-121959815D01*
X150890812Y-121942385D01*
X150801954Y-121883716D01*
X150754334Y-121801238D01*
X150747955Y-121694949D01*
X150765385Y-121629901D01*
X150824054Y-121541042D01*
X151030250Y-121421995D01*
X151177778Y-121391805D01*
X151442643Y-121183899D02*
X152148840Y-121930877D01*
X151956654Y-121217050D01*
X152478754Y-121740401D01*
X152184951Y-120755328D01*
X153468497Y-121168972D02*
X152973626Y-121454687D01*
X153221062Y-121311830D02*
X152721062Y-120445804D01*
X152710012Y-120617141D01*
X152675152Y-120747239D01*
X152616483Y-120836097D01*
X153752044Y-119850566D02*
X153339651Y-120088661D01*
X153536507Y-120524864D01*
X153553937Y-120459815D01*
X153612606Y-120370957D01*
X153818803Y-120251909D01*
X153925091Y-120245529D01*
X153990139Y-120262959D01*
X154078998Y-120321628D01*
X154198045Y-120527825D01*
X154204425Y-120634113D01*
X154186995Y-120699162D01*
X154128326Y-120788020D01*
X153922130Y-120907068D01*
X153815842Y-120913447D01*
X153750793Y-120896018D01*
%TO.C,SW5*%
X125166666Y-100904761D02*
X125309523Y-100952380D01*
X125547619Y-100952380D01*
X125642857Y-100904761D01*
X125690476Y-100857142D01*
X125738095Y-100761904D01*
X125738095Y-100666666D01*
X125690476Y-100571428D01*
X125642857Y-100523809D01*
X125547619Y-100476190D01*
X125357142Y-100428571D01*
X125261904Y-100380952D01*
X125214285Y-100333333D01*
X125166666Y-100238095D01*
X125166666Y-100142857D01*
X125214285Y-100047619D01*
X125261904Y-100000000D01*
X125357142Y-99952380D01*
X125595238Y-99952380D01*
X125738095Y-100000000D01*
X126071428Y-99952380D02*
X126309523Y-100952380D01*
X126500000Y-100238095D01*
X126690476Y-100952380D01*
X126928571Y-99952380D01*
X127785714Y-99952380D02*
X127309523Y-99952380D01*
X127261904Y-100428571D01*
X127309523Y-100380952D01*
X127404761Y-100333333D01*
X127642857Y-100333333D01*
X127738095Y-100380952D01*
X127785714Y-100428571D01*
X127833333Y-100523809D01*
X127833333Y-100761904D01*
X127785714Y-100857142D01*
X127738095Y-100904761D01*
X127642857Y-100952380D01*
X127404761Y-100952380D01*
X127309523Y-100904761D01*
X127261904Y-100857142D01*
%TO.C,SW14*%
X164135287Y-135461066D02*
X164282814Y-135430877D01*
X164489011Y-135311830D01*
X164547680Y-135222971D01*
X164565110Y-135157922D01*
X164558730Y-135051634D01*
X164511111Y-134969156D01*
X164422253Y-134910487D01*
X164357204Y-134893057D01*
X164250916Y-134899437D01*
X164062149Y-134953435D01*
X163955861Y-134959815D01*
X163890812Y-134942385D01*
X163801954Y-134883716D01*
X163754334Y-134801238D01*
X163747955Y-134694949D01*
X163765385Y-134629901D01*
X163824054Y-134541042D01*
X164030250Y-134421995D01*
X164177778Y-134391805D01*
X164442643Y-134183899D02*
X165148840Y-134930877D01*
X164956654Y-134217050D01*
X165478754Y-134740401D01*
X165184951Y-133755328D01*
X166468497Y-134168972D02*
X165973626Y-134454687D01*
X166221062Y-134311830D02*
X165721062Y-133445804D01*
X165710012Y-133617141D01*
X165675152Y-133747239D01*
X165616483Y-133836097D01*
X166877472Y-133163051D02*
X167210805Y-133740401D01*
X166480799Y-132952184D02*
X166631745Y-133689821D01*
X167167856Y-133380297D01*
%TO.C,SW21*%
X29690476Y-100904761D02*
X29833333Y-100952380D01*
X30071428Y-100952380D01*
X30166666Y-100904761D01*
X30214285Y-100857142D01*
X30261904Y-100761904D01*
X30261904Y-100666666D01*
X30214285Y-100571428D01*
X30166666Y-100523809D01*
X30071428Y-100476190D01*
X29880952Y-100428571D01*
X29785714Y-100380952D01*
X29738095Y-100333333D01*
X29690476Y-100238095D01*
X29690476Y-100142857D01*
X29738095Y-100047619D01*
X29785714Y-100000000D01*
X29880952Y-99952380D01*
X30119047Y-99952380D01*
X30261904Y-100000000D01*
X30595238Y-99952380D02*
X30833333Y-100952380D01*
X31023809Y-100238095D01*
X31214285Y-100952380D01*
X31452380Y-99952380D01*
X31785714Y-100047619D02*
X31833333Y-100000000D01*
X31928571Y-99952380D01*
X32166666Y-99952380D01*
X32261904Y-100000000D01*
X32309523Y-100047619D01*
X32357142Y-100142857D01*
X32357142Y-100238095D01*
X32309523Y-100380952D01*
X31738095Y-100952380D01*
X32357142Y-100952380D01*
X33309523Y-100952380D02*
X32738095Y-100952380D01*
X33023809Y-100952380D02*
X33023809Y-99952380D01*
X32928571Y-100095238D01*
X32833333Y-100190476D01*
X32738095Y-100238095D01*
%TO.C,SW3*%
X106166666Y-82904761D02*
X106309523Y-82952380D01*
X106547619Y-82952380D01*
X106642857Y-82904761D01*
X106690476Y-82857142D01*
X106738095Y-82761904D01*
X106738095Y-82666666D01*
X106690476Y-82571428D01*
X106642857Y-82523809D01*
X106547619Y-82476190D01*
X106357142Y-82428571D01*
X106261904Y-82380952D01*
X106214285Y-82333333D01*
X106166666Y-82238095D01*
X106166666Y-82142857D01*
X106214285Y-82047619D01*
X106261904Y-82000000D01*
X106357142Y-81952380D01*
X106595238Y-81952380D01*
X106738095Y-82000000D01*
X107071428Y-81952380D02*
X107309523Y-82952380D01*
X107500000Y-82238095D01*
X107690476Y-82952380D01*
X107928571Y-81952380D01*
X108214285Y-81952380D02*
X108833333Y-81952380D01*
X108500000Y-82333333D01*
X108642857Y-82333333D01*
X108738095Y-82380952D01*
X108785714Y-82428571D01*
X108833333Y-82523809D01*
X108833333Y-82761904D01*
X108785714Y-82857142D01*
X108738095Y-82904761D01*
X108642857Y-82952380D01*
X108357142Y-82952380D01*
X108261904Y-82904761D01*
X108214285Y-82857142D01*
%TO.C,SW10*%
X143690476Y-64904761D02*
X143833333Y-64952380D01*
X144071428Y-64952380D01*
X144166666Y-64904761D01*
X144214285Y-64857142D01*
X144261904Y-64761904D01*
X144261904Y-64666666D01*
X144214285Y-64571428D01*
X144166666Y-64523809D01*
X144071428Y-64476190D01*
X143880952Y-64428571D01*
X143785714Y-64380952D01*
X143738095Y-64333333D01*
X143690476Y-64238095D01*
X143690476Y-64142857D01*
X143738095Y-64047619D01*
X143785714Y-64000000D01*
X143880952Y-63952380D01*
X144119047Y-63952380D01*
X144261904Y-64000000D01*
X144595238Y-63952380D02*
X144833333Y-64952380D01*
X145023809Y-64238095D01*
X145214285Y-64952380D01*
X145452380Y-63952380D01*
X146357142Y-64952380D02*
X145785714Y-64952380D01*
X146071428Y-64952380D02*
X146071428Y-63952380D01*
X145976190Y-64095238D01*
X145880952Y-64190476D01*
X145785714Y-64238095D01*
X146976190Y-63952380D02*
X147071428Y-63952380D01*
X147166666Y-64000000D01*
X147214285Y-64047619D01*
X147261904Y-64142857D01*
X147309523Y-64333333D01*
X147309523Y-64571428D01*
X147261904Y-64761904D01*
X147214285Y-64857142D01*
X147166666Y-64904761D01*
X147071428Y-64952380D01*
X146976190Y-64952380D01*
X146880952Y-64904761D01*
X146833333Y-64857142D01*
X146785714Y-64761904D01*
X146738095Y-64571428D01*
X146738095Y-64333333D01*
X146785714Y-64142857D01*
X146833333Y-64047619D01*
X146880952Y-64000000D01*
X146976190Y-63952380D01*
%TO.C,J1*%
X147129166Y-33239880D02*
X147129166Y-33954166D01*
X147081547Y-34097023D01*
X146986309Y-34192261D01*
X146843452Y-34239880D01*
X146748214Y-34239880D01*
X148129166Y-34239880D02*
X147557738Y-34239880D01*
X147843452Y-34239880D02*
X147843452Y-33239880D01*
X147748214Y-33382738D01*
X147652976Y-33477976D01*
X147557738Y-33525595D01*
%TO.C,SW24*%
X29690476Y-46904761D02*
X29833333Y-46952380D01*
X30071428Y-46952380D01*
X30166666Y-46904761D01*
X30214285Y-46857142D01*
X30261904Y-46761904D01*
X30261904Y-46666666D01*
X30214285Y-46571428D01*
X30166666Y-46523809D01*
X30071428Y-46476190D01*
X29880952Y-46428571D01*
X29785714Y-46380952D01*
X29738095Y-46333333D01*
X29690476Y-46238095D01*
X29690476Y-46142857D01*
X29738095Y-46047619D01*
X29785714Y-46000000D01*
X29880952Y-45952380D01*
X30119047Y-45952380D01*
X30261904Y-46000000D01*
X30595238Y-45952380D02*
X30833333Y-46952380D01*
X31023809Y-46238095D01*
X31214285Y-46952380D01*
X31452380Y-45952380D01*
X31785714Y-46047619D02*
X31833333Y-46000000D01*
X31928571Y-45952380D01*
X32166666Y-45952380D01*
X32261904Y-46000000D01*
X32309523Y-46047619D01*
X32357142Y-46142857D01*
X32357142Y-46238095D01*
X32309523Y-46380952D01*
X31738095Y-46952380D01*
X32357142Y-46952380D01*
X33214285Y-46285714D02*
X33214285Y-46952380D01*
X32976190Y-45904761D02*
X32738095Y-46619047D01*
X33357142Y-46619047D01*
%TO.C,SW26*%
X67690476Y-64904761D02*
X67833333Y-64952380D01*
X68071428Y-64952380D01*
X68166666Y-64904761D01*
X68214285Y-64857142D01*
X68261904Y-64761904D01*
X68261904Y-64666666D01*
X68214285Y-64571428D01*
X68166666Y-64523809D01*
X68071428Y-64476190D01*
X67880952Y-64428571D01*
X67785714Y-64380952D01*
X67738095Y-64333333D01*
X67690476Y-64238095D01*
X67690476Y-64142857D01*
X67738095Y-64047619D01*
X67785714Y-64000000D01*
X67880952Y-63952380D01*
X68119047Y-63952380D01*
X68261904Y-64000000D01*
X68595238Y-63952380D02*
X68833333Y-64952380D01*
X69023809Y-64238095D01*
X69214285Y-64952380D01*
X69452380Y-63952380D01*
X69785714Y-64047619D02*
X69833333Y-64000000D01*
X69928571Y-63952380D01*
X70166666Y-63952380D01*
X70261904Y-64000000D01*
X70309523Y-64047619D01*
X70357142Y-64142857D01*
X70357142Y-64238095D01*
X70309523Y-64380952D01*
X69738095Y-64952380D01*
X70357142Y-64952380D01*
X71214285Y-63952380D02*
X71023809Y-63952380D01*
X70928571Y-64000000D01*
X70880952Y-64047619D01*
X70785714Y-64190476D01*
X70738095Y-64380952D01*
X70738095Y-64761904D01*
X70785714Y-64857142D01*
X70833333Y-64904761D01*
X70928571Y-64952380D01*
X71119047Y-64952380D01*
X71214285Y-64904761D01*
X71261904Y-64857142D01*
X71309523Y-64761904D01*
X71309523Y-64523809D01*
X71261904Y-64428571D01*
X71214285Y-64380952D01*
X71119047Y-64333333D01*
X70928571Y-64333333D01*
X70833333Y-64380952D01*
X70785714Y-64428571D01*
X70738095Y-64523809D01*
%TO.C,SW16*%
X135135287Y-131461066D02*
X135282814Y-131430877D01*
X135489011Y-131311830D01*
X135547680Y-131222971D01*
X135565110Y-131157922D01*
X135558730Y-131051634D01*
X135511111Y-130969156D01*
X135422253Y-130910487D01*
X135357204Y-130893057D01*
X135250916Y-130899437D01*
X135062149Y-130953435D01*
X134955861Y-130959815D01*
X134890812Y-130942385D01*
X134801954Y-130883716D01*
X134754334Y-130801238D01*
X134747955Y-130694949D01*
X134765385Y-130629901D01*
X134824054Y-130541042D01*
X135030250Y-130421995D01*
X135177778Y-130391805D01*
X135442643Y-130183899D02*
X136148840Y-130930877D01*
X135956654Y-130217050D01*
X136478754Y-130740401D01*
X136184951Y-129755328D01*
X137468497Y-130168972D02*
X136973626Y-130454687D01*
X137221062Y-130311830D02*
X136721062Y-129445804D01*
X136710012Y-129617141D01*
X136675152Y-129747239D01*
X136616483Y-129836097D01*
X137710805Y-128874376D02*
X137545848Y-128969614D01*
X137487179Y-129058472D01*
X137469749Y-129123521D01*
X137458699Y-129294858D01*
X137512698Y-129483625D01*
X137703174Y-129813539D01*
X137792032Y-129872208D01*
X137857081Y-129889638D01*
X137963369Y-129883258D01*
X138128326Y-129788020D01*
X138186995Y-129699162D01*
X138204425Y-129634113D01*
X138198045Y-129527825D01*
X138078998Y-129321628D01*
X137990139Y-129262959D01*
X137925091Y-129245529D01*
X137818803Y-129251909D01*
X137653845Y-129347147D01*
X137595176Y-129436006D01*
X137577746Y-129501054D01*
X137584126Y-129607343D01*
%TO.C,SW2*%
X106166666Y-64904761D02*
X106309523Y-64952380D01*
X106547619Y-64952380D01*
X106642857Y-64904761D01*
X106690476Y-64857142D01*
X106738095Y-64761904D01*
X106738095Y-64666666D01*
X106690476Y-64571428D01*
X106642857Y-64523809D01*
X106547619Y-64476190D01*
X106357142Y-64428571D01*
X106261904Y-64380952D01*
X106214285Y-64333333D01*
X106166666Y-64238095D01*
X106166666Y-64142857D01*
X106214285Y-64047619D01*
X106261904Y-64000000D01*
X106357142Y-63952380D01*
X106595238Y-63952380D01*
X106738095Y-64000000D01*
X107071428Y-63952380D02*
X107309523Y-64952380D01*
X107500000Y-64238095D01*
X107690476Y-64952380D01*
X107928571Y-63952380D01*
X108261904Y-64047619D02*
X108309523Y-64000000D01*
X108404761Y-63952380D01*
X108642857Y-63952380D01*
X108738095Y-64000000D01*
X108785714Y-64047619D01*
X108833333Y-64142857D01*
X108833333Y-64238095D01*
X108785714Y-64380952D01*
X108214285Y-64952380D01*
X108833333Y-64952380D01*
%TO.C,SW25*%
X64690476Y-46904761D02*
X64833333Y-46952380D01*
X65071428Y-46952380D01*
X65166666Y-46904761D01*
X65214285Y-46857142D01*
X65261904Y-46761904D01*
X65261904Y-46666666D01*
X65214285Y-46571428D01*
X65166666Y-46523809D01*
X65071428Y-46476190D01*
X64880952Y-46428571D01*
X64785714Y-46380952D01*
X64738095Y-46333333D01*
X64690476Y-46238095D01*
X64690476Y-46142857D01*
X64738095Y-46047619D01*
X64785714Y-46000000D01*
X64880952Y-45952380D01*
X65119047Y-45952380D01*
X65261904Y-46000000D01*
X65595238Y-45952380D02*
X65833333Y-46952380D01*
X66023809Y-46238095D01*
X66214285Y-46952380D01*
X66452380Y-45952380D01*
X66785714Y-46047619D02*
X66833333Y-46000000D01*
X66928571Y-45952380D01*
X67166666Y-45952380D01*
X67261904Y-46000000D01*
X67309523Y-46047619D01*
X67357142Y-46142857D01*
X67357142Y-46238095D01*
X67309523Y-46380952D01*
X66738095Y-46952380D01*
X67357142Y-46952380D01*
X68261904Y-45952380D02*
X67785714Y-45952380D01*
X67738095Y-46428571D01*
X67785714Y-46380952D01*
X67880952Y-46333333D01*
X68119047Y-46333333D01*
X68214285Y-46380952D01*
X68261904Y-46428571D01*
X68309523Y-46523809D01*
X68309523Y-46761904D01*
X68261904Y-46857142D01*
X68214285Y-46904761D01*
X68119047Y-46952380D01*
X67880952Y-46952380D01*
X67785714Y-46904761D01*
X67738095Y-46857142D01*
%TO.C,SW13*%
X165085287Y-108570616D02*
X165232814Y-108540427D01*
X165439011Y-108421380D01*
X165497680Y-108332521D01*
X165515110Y-108267472D01*
X165508730Y-108161184D01*
X165461111Y-108078706D01*
X165372253Y-108020037D01*
X165307204Y-108002607D01*
X165200916Y-108008987D01*
X165012149Y-108062985D01*
X164905861Y-108069365D01*
X164840812Y-108051935D01*
X164751954Y-107993266D01*
X164704334Y-107910788D01*
X164697955Y-107804499D01*
X164715385Y-107739451D01*
X164774054Y-107650592D01*
X164980250Y-107531545D01*
X165127778Y-107501355D01*
X165392643Y-107293449D02*
X166098840Y-108040427D01*
X165906654Y-107326600D01*
X166428754Y-107849951D01*
X166134951Y-106864878D01*
X167418497Y-107278522D02*
X166923626Y-107564237D01*
X167171062Y-107421380D02*
X166671062Y-106555354D01*
X166660012Y-106726691D01*
X166625152Y-106856789D01*
X166566483Y-106945647D01*
X167207173Y-106245830D02*
X167743284Y-105936307D01*
X167645085Y-106432888D01*
X167768803Y-106361459D01*
X167875091Y-106355079D01*
X167940139Y-106372509D01*
X168028998Y-106431178D01*
X168148045Y-106637375D01*
X168154425Y-106743663D01*
X168136995Y-106808712D01*
X168078326Y-106897570D01*
X167830891Y-107040427D01*
X167724602Y-107046807D01*
X167659554Y-107029377D01*
%TO.C,SW32*%
X86690476Y-100904761D02*
X86833333Y-100952380D01*
X87071428Y-100952380D01*
X87166666Y-100904761D01*
X87214285Y-100857142D01*
X87261904Y-100761904D01*
X87261904Y-100666666D01*
X87214285Y-100571428D01*
X87166666Y-100523809D01*
X87071428Y-100476190D01*
X86880952Y-100428571D01*
X86785714Y-100380952D01*
X86738095Y-100333333D01*
X86690476Y-100238095D01*
X86690476Y-100142857D01*
X86738095Y-100047619D01*
X86785714Y-100000000D01*
X86880952Y-99952380D01*
X87119047Y-99952380D01*
X87261904Y-100000000D01*
X87595238Y-99952380D02*
X87833333Y-100952380D01*
X88023809Y-100238095D01*
X88214285Y-100952380D01*
X88452380Y-99952380D01*
X88738095Y-99952380D02*
X89357142Y-99952380D01*
X89023809Y-100333333D01*
X89166666Y-100333333D01*
X89261904Y-100380952D01*
X89309523Y-100428571D01*
X89357142Y-100523809D01*
X89357142Y-100761904D01*
X89309523Y-100857142D01*
X89261904Y-100904761D01*
X89166666Y-100952380D01*
X88880952Y-100952380D01*
X88785714Y-100904761D01*
X88738095Y-100857142D01*
X89738095Y-100047619D02*
X89785714Y-100000000D01*
X89880952Y-99952380D01*
X90119047Y-99952380D01*
X90214285Y-100000000D01*
X90261904Y-100047619D01*
X90309523Y-100142857D01*
X90309523Y-100238095D01*
X90261904Y-100380952D01*
X89690476Y-100952380D01*
X90309523Y-100952380D01*
%TO.C,SW12*%
X143690476Y-100904761D02*
X143833333Y-100952380D01*
X144071428Y-100952380D01*
X144166666Y-100904761D01*
X144214285Y-100857142D01*
X144261904Y-100761904D01*
X144261904Y-100666666D01*
X144214285Y-100571428D01*
X144166666Y-100523809D01*
X144071428Y-100476190D01*
X143880952Y-100428571D01*
X143785714Y-100380952D01*
X143738095Y-100333333D01*
X143690476Y-100238095D01*
X143690476Y-100142857D01*
X143738095Y-100047619D01*
X143785714Y-100000000D01*
X143880952Y-99952380D01*
X144119047Y-99952380D01*
X144261904Y-100000000D01*
X144595238Y-99952380D02*
X144833333Y-100952380D01*
X145023809Y-100238095D01*
X145214285Y-100952380D01*
X145452380Y-99952380D01*
X146357142Y-100952380D02*
X145785714Y-100952380D01*
X146071428Y-100952380D02*
X146071428Y-99952380D01*
X145976190Y-100095238D01*
X145880952Y-100190476D01*
X145785714Y-100238095D01*
X146738095Y-100047619D02*
X146785714Y-100000000D01*
X146880952Y-99952380D01*
X147119047Y-99952380D01*
X147214285Y-100000000D01*
X147261904Y-100047619D01*
X147309523Y-100142857D01*
X147309523Y-100238095D01*
X147261904Y-100380952D01*
X146690476Y-100952380D01*
X147309523Y-100952380D01*
%TO.C,SW18*%
X48690476Y-82904761D02*
X48833333Y-82952380D01*
X49071428Y-82952380D01*
X49166666Y-82904761D01*
X49214285Y-82857142D01*
X49261904Y-82761904D01*
X49261904Y-82666666D01*
X49214285Y-82571428D01*
X49166666Y-82523809D01*
X49071428Y-82476190D01*
X48880952Y-82428571D01*
X48785714Y-82380952D01*
X48738095Y-82333333D01*
X48690476Y-82238095D01*
X48690476Y-82142857D01*
X48738095Y-82047619D01*
X48785714Y-82000000D01*
X48880952Y-81952380D01*
X49119047Y-81952380D01*
X49261904Y-82000000D01*
X49595238Y-81952380D02*
X49833333Y-82952380D01*
X50023809Y-82238095D01*
X50214285Y-82952380D01*
X50452380Y-81952380D01*
X51357142Y-82952380D02*
X50785714Y-82952380D01*
X51071428Y-82952380D02*
X51071428Y-81952380D01*
X50976190Y-82095238D01*
X50880952Y-82190476D01*
X50785714Y-82238095D01*
X51928571Y-82380952D02*
X51833333Y-82333333D01*
X51785714Y-82285714D01*
X51738095Y-82190476D01*
X51738095Y-82142857D01*
X51785714Y-82047619D01*
X51833333Y-82000000D01*
X51928571Y-81952380D01*
X52119047Y-81952380D01*
X52214285Y-82000000D01*
X52261904Y-82047619D01*
X52309523Y-82142857D01*
X52309523Y-82190476D01*
X52261904Y-82285714D01*
X52214285Y-82333333D01*
X52119047Y-82380952D01*
X51928571Y-82380952D01*
X51833333Y-82428571D01*
X51785714Y-82476190D01*
X51738095Y-82571428D01*
X51738095Y-82761904D01*
X51785714Y-82857142D01*
X51833333Y-82904761D01*
X51928571Y-82952380D01*
X52119047Y-82952380D01*
X52214285Y-82904761D01*
X52261904Y-82857142D01*
X52309523Y-82761904D01*
X52309523Y-82571428D01*
X52261904Y-82476190D01*
X52214285Y-82428571D01*
X52119047Y-82380952D01*
%TO.C,SW29*%
X83690476Y-46904761D02*
X83833333Y-46952380D01*
X84071428Y-46952380D01*
X84166666Y-46904761D01*
X84214285Y-46857142D01*
X84261904Y-46761904D01*
X84261904Y-46666666D01*
X84214285Y-46571428D01*
X84166666Y-46523809D01*
X84071428Y-46476190D01*
X83880952Y-46428571D01*
X83785714Y-46380952D01*
X83738095Y-46333333D01*
X83690476Y-46238095D01*
X83690476Y-46142857D01*
X83738095Y-46047619D01*
X83785714Y-46000000D01*
X83880952Y-45952380D01*
X84119047Y-45952380D01*
X84261904Y-46000000D01*
X84595238Y-45952380D02*
X84833333Y-46952380D01*
X85023809Y-46238095D01*
X85214285Y-46952380D01*
X85452380Y-45952380D01*
X85785714Y-46047619D02*
X85833333Y-46000000D01*
X85928571Y-45952380D01*
X86166666Y-45952380D01*
X86261904Y-46000000D01*
X86309523Y-46047619D01*
X86357142Y-46142857D01*
X86357142Y-46238095D01*
X86309523Y-46380952D01*
X85738095Y-46952380D01*
X86357142Y-46952380D01*
X86833333Y-46952380D02*
X87023809Y-46952380D01*
X87119047Y-46904761D01*
X87166666Y-46857142D01*
X87261904Y-46714285D01*
X87309523Y-46523809D01*
X87309523Y-46142857D01*
X87261904Y-46047619D01*
X87214285Y-46000000D01*
X87119047Y-45952380D01*
X86928571Y-45952380D01*
X86833333Y-46000000D01*
X86785714Y-46047619D01*
X86738095Y-46142857D01*
X86738095Y-46380952D01*
X86785714Y-46476190D01*
X86833333Y-46523809D01*
X86928571Y-46571428D01*
X87119047Y-46571428D01*
X87214285Y-46523809D01*
X87261904Y-46476190D01*
X87309523Y-46380952D01*
%TO.C,SW28*%
X67690476Y-100904761D02*
X67833333Y-100952380D01*
X68071428Y-100952380D01*
X68166666Y-100904761D01*
X68214285Y-100857142D01*
X68261904Y-100761904D01*
X68261904Y-100666666D01*
X68214285Y-100571428D01*
X68166666Y-100523809D01*
X68071428Y-100476190D01*
X67880952Y-100428571D01*
X67785714Y-100380952D01*
X67738095Y-100333333D01*
X67690476Y-100238095D01*
X67690476Y-100142857D01*
X67738095Y-100047619D01*
X67785714Y-100000000D01*
X67880952Y-99952380D01*
X68119047Y-99952380D01*
X68261904Y-100000000D01*
X68595238Y-99952380D02*
X68833333Y-100952380D01*
X69023809Y-100238095D01*
X69214285Y-100952380D01*
X69452380Y-99952380D01*
X69785714Y-100047619D02*
X69833333Y-100000000D01*
X69928571Y-99952380D01*
X70166666Y-99952380D01*
X70261904Y-100000000D01*
X70309523Y-100047619D01*
X70357142Y-100142857D01*
X70357142Y-100238095D01*
X70309523Y-100380952D01*
X69738095Y-100952380D01*
X70357142Y-100952380D01*
X70928571Y-100380952D02*
X70833333Y-100333333D01*
X70785714Y-100285714D01*
X70738095Y-100190476D01*
X70738095Y-100142857D01*
X70785714Y-100047619D01*
X70833333Y-100000000D01*
X70928571Y-99952380D01*
X71119047Y-99952380D01*
X71214285Y-100000000D01*
X71261904Y-100047619D01*
X71309523Y-100142857D01*
X71309523Y-100190476D01*
X71261904Y-100285714D01*
X71214285Y-100333333D01*
X71119047Y-100380952D01*
X70928571Y-100380952D01*
X70833333Y-100428571D01*
X70785714Y-100476190D01*
X70738095Y-100571428D01*
X70738095Y-100761904D01*
X70785714Y-100857142D01*
X70833333Y-100904761D01*
X70928571Y-100952380D01*
X71119047Y-100952380D01*
X71214285Y-100904761D01*
X71261904Y-100857142D01*
X71309523Y-100761904D01*
X71309523Y-100571428D01*
X71261904Y-100476190D01*
X71214285Y-100428571D01*
X71119047Y-100380952D01*
%TO.C,SW30*%
X86690476Y-64904761D02*
X86833333Y-64952380D01*
X87071428Y-64952380D01*
X87166666Y-64904761D01*
X87214285Y-64857142D01*
X87261904Y-64761904D01*
X87261904Y-64666666D01*
X87214285Y-64571428D01*
X87166666Y-64523809D01*
X87071428Y-64476190D01*
X86880952Y-64428571D01*
X86785714Y-64380952D01*
X86738095Y-64333333D01*
X86690476Y-64238095D01*
X86690476Y-64142857D01*
X86738095Y-64047619D01*
X86785714Y-64000000D01*
X86880952Y-63952380D01*
X87119047Y-63952380D01*
X87261904Y-64000000D01*
X87595238Y-63952380D02*
X87833333Y-64952380D01*
X88023809Y-64238095D01*
X88214285Y-64952380D01*
X88452380Y-63952380D01*
X88738095Y-63952380D02*
X89357142Y-63952380D01*
X89023809Y-64333333D01*
X89166666Y-64333333D01*
X89261904Y-64380952D01*
X89309523Y-64428571D01*
X89357142Y-64523809D01*
X89357142Y-64761904D01*
X89309523Y-64857142D01*
X89261904Y-64904761D01*
X89166666Y-64952380D01*
X88880952Y-64952380D01*
X88785714Y-64904761D01*
X88738095Y-64857142D01*
X89976190Y-63952380D02*
X90071428Y-63952380D01*
X90166666Y-64000000D01*
X90214285Y-64047619D01*
X90261904Y-64142857D01*
X90309523Y-64333333D01*
X90309523Y-64571428D01*
X90261904Y-64761904D01*
X90214285Y-64857142D01*
X90166666Y-64904761D01*
X90071428Y-64952380D01*
X89976190Y-64952380D01*
X89880952Y-64904761D01*
X89833333Y-64857142D01*
X89785714Y-64761904D01*
X89738095Y-64571428D01*
X89738095Y-64333333D01*
X89785714Y-64142857D01*
X89833333Y-64047619D01*
X89880952Y-64000000D01*
X89976190Y-63952380D01*
%TO.C,SW8*%
X122166666Y-46904761D02*
X122309523Y-46952380D01*
X122547619Y-46952380D01*
X122642857Y-46904761D01*
X122690476Y-46857142D01*
X122738095Y-46761904D01*
X122738095Y-46666666D01*
X122690476Y-46571428D01*
X122642857Y-46523809D01*
X122547619Y-46476190D01*
X122357142Y-46428571D01*
X122261904Y-46380952D01*
X122214285Y-46333333D01*
X122166666Y-46238095D01*
X122166666Y-46142857D01*
X122214285Y-46047619D01*
X122261904Y-46000000D01*
X122357142Y-45952380D01*
X122595238Y-45952380D01*
X122738095Y-46000000D01*
X123071428Y-45952380D02*
X123309523Y-46952380D01*
X123500000Y-46238095D01*
X123690476Y-46952380D01*
X123928571Y-45952380D01*
X124452380Y-46380952D02*
X124357142Y-46333333D01*
X124309523Y-46285714D01*
X124261904Y-46190476D01*
X124261904Y-46142857D01*
X124309523Y-46047619D01*
X124357142Y-46000000D01*
X124452380Y-45952380D01*
X124642857Y-45952380D01*
X124738095Y-46000000D01*
X124785714Y-46047619D01*
X124833333Y-46142857D01*
X124833333Y-46190476D01*
X124785714Y-46285714D01*
X124738095Y-46333333D01*
X124642857Y-46380952D01*
X124452380Y-46380952D01*
X124357142Y-46428571D01*
X124309523Y-46476190D01*
X124261904Y-46571428D01*
X124261904Y-46761904D01*
X124309523Y-46857142D01*
X124357142Y-46904761D01*
X124452380Y-46952380D01*
X124642857Y-46952380D01*
X124738095Y-46904761D01*
X124785714Y-46857142D01*
X124833333Y-46761904D01*
X124833333Y-46571428D01*
X124785714Y-46476190D01*
X124738095Y-46428571D01*
X124642857Y-46380952D01*
%TO.C,SW1*%
X106166666Y-46904761D02*
X106309523Y-46952380D01*
X106547619Y-46952380D01*
X106642857Y-46904761D01*
X106690476Y-46857142D01*
X106738095Y-46761904D01*
X106738095Y-46666666D01*
X106690476Y-46571428D01*
X106642857Y-46523809D01*
X106547619Y-46476190D01*
X106357142Y-46428571D01*
X106261904Y-46380952D01*
X106214285Y-46333333D01*
X106166666Y-46238095D01*
X106166666Y-46142857D01*
X106214285Y-46047619D01*
X106261904Y-46000000D01*
X106357142Y-45952380D01*
X106595238Y-45952380D01*
X106738095Y-46000000D01*
X107071428Y-45952380D02*
X107309523Y-46952380D01*
X107500000Y-46238095D01*
X107690476Y-46952380D01*
X107928571Y-45952380D01*
X108833333Y-46952380D02*
X108261904Y-46952380D01*
X108547619Y-46952380D02*
X108547619Y-45952380D01*
X108452380Y-46095238D01*
X108357142Y-46190476D01*
X108261904Y-46238095D01*
%TO.C,SW7*%
X125166666Y-64904761D02*
X125309523Y-64952380D01*
X125547619Y-64952380D01*
X125642857Y-64904761D01*
X125690476Y-64857142D01*
X125738095Y-64761904D01*
X125738095Y-64666666D01*
X125690476Y-64571428D01*
X125642857Y-64523809D01*
X125547619Y-64476190D01*
X125357142Y-64428571D01*
X125261904Y-64380952D01*
X125214285Y-64333333D01*
X125166666Y-64238095D01*
X125166666Y-64142857D01*
X125214285Y-64047619D01*
X125261904Y-64000000D01*
X125357142Y-63952380D01*
X125595238Y-63952380D01*
X125738095Y-64000000D01*
X126071428Y-63952380D02*
X126309523Y-64952380D01*
X126500000Y-64238095D01*
X126690476Y-64952380D01*
X126928571Y-63952380D01*
X127214285Y-63952380D02*
X127880952Y-63952380D01*
X127452380Y-64952380D01*
%TO.C,SW31*%
X86690476Y-82904761D02*
X86833333Y-82952380D01*
X87071428Y-82952380D01*
X87166666Y-82904761D01*
X87214285Y-82857142D01*
X87261904Y-82761904D01*
X87261904Y-82666666D01*
X87214285Y-82571428D01*
X87166666Y-82523809D01*
X87071428Y-82476190D01*
X86880952Y-82428571D01*
X86785714Y-82380952D01*
X86738095Y-82333333D01*
X86690476Y-82238095D01*
X86690476Y-82142857D01*
X86738095Y-82047619D01*
X86785714Y-82000000D01*
X86880952Y-81952380D01*
X87119047Y-81952380D01*
X87261904Y-82000000D01*
X87595238Y-81952380D02*
X87833333Y-82952380D01*
X88023809Y-82238095D01*
X88214285Y-82952380D01*
X88452380Y-81952380D01*
X88738095Y-81952380D02*
X89357142Y-81952380D01*
X89023809Y-82333333D01*
X89166666Y-82333333D01*
X89261904Y-82380952D01*
X89309523Y-82428571D01*
X89357142Y-82523809D01*
X89357142Y-82761904D01*
X89309523Y-82857142D01*
X89261904Y-82904761D01*
X89166666Y-82952380D01*
X88880952Y-82952380D01*
X88785714Y-82904761D01*
X88738095Y-82857142D01*
X90309523Y-82952380D02*
X89738095Y-82952380D01*
X90023809Y-82952380D02*
X90023809Y-81952380D01*
X89928571Y-82095238D01*
X89833333Y-82190476D01*
X89738095Y-82238095D01*
%TO.C,SW23*%
X29690476Y-64904761D02*
X29833333Y-64952380D01*
X30071428Y-64952380D01*
X30166666Y-64904761D01*
X30214285Y-64857142D01*
X30261904Y-64761904D01*
X30261904Y-64666666D01*
X30214285Y-64571428D01*
X30166666Y-64523809D01*
X30071428Y-64476190D01*
X29880952Y-64428571D01*
X29785714Y-64380952D01*
X29738095Y-64333333D01*
X29690476Y-64238095D01*
X29690476Y-64142857D01*
X29738095Y-64047619D01*
X29785714Y-64000000D01*
X29880952Y-63952380D01*
X30119047Y-63952380D01*
X30261904Y-64000000D01*
X30595238Y-63952380D02*
X30833333Y-64952380D01*
X31023809Y-64238095D01*
X31214285Y-64952380D01*
X31452380Y-63952380D01*
X31785714Y-64047619D02*
X31833333Y-64000000D01*
X31928571Y-63952380D01*
X32166666Y-63952380D01*
X32261904Y-64000000D01*
X32309523Y-64047619D01*
X32357142Y-64142857D01*
X32357142Y-64238095D01*
X32309523Y-64380952D01*
X31738095Y-64952380D01*
X32357142Y-64952380D01*
X32690476Y-63952380D02*
X33309523Y-63952380D01*
X32976190Y-64333333D01*
X33119047Y-64333333D01*
X33214285Y-64380952D01*
X33261904Y-64428571D01*
X33309523Y-64523809D01*
X33309523Y-64761904D01*
X33261904Y-64857142D01*
X33214285Y-64904761D01*
X33119047Y-64952380D01*
X32833333Y-64952380D01*
X32738095Y-64904761D01*
X32690476Y-64857142D01*
%TO.C,SW6*%
X125166666Y-82904761D02*
X125309523Y-82952380D01*
X125547619Y-82952380D01*
X125642857Y-82904761D01*
X125690476Y-82857142D01*
X125738095Y-82761904D01*
X125738095Y-82666666D01*
X125690476Y-82571428D01*
X125642857Y-82523809D01*
X125547619Y-82476190D01*
X125357142Y-82428571D01*
X125261904Y-82380952D01*
X125214285Y-82333333D01*
X125166666Y-82238095D01*
X125166666Y-82142857D01*
X125214285Y-82047619D01*
X125261904Y-82000000D01*
X125357142Y-81952380D01*
X125595238Y-81952380D01*
X125738095Y-82000000D01*
X126071428Y-81952380D02*
X126309523Y-82952380D01*
X126500000Y-82238095D01*
X126690476Y-82952380D01*
X126928571Y-81952380D01*
X127738095Y-81952380D02*
X127547619Y-81952380D01*
X127452380Y-82000000D01*
X127404761Y-82047619D01*
X127309523Y-82190476D01*
X127261904Y-82380952D01*
X127261904Y-82761904D01*
X127309523Y-82857142D01*
X127357142Y-82904761D01*
X127452380Y-82952380D01*
X127642857Y-82952380D01*
X127738095Y-82904761D01*
X127785714Y-82857142D01*
X127833333Y-82761904D01*
X127833333Y-82523809D01*
X127785714Y-82428571D01*
X127738095Y-82380952D01*
X127642857Y-82333333D01*
X127452380Y-82333333D01*
X127357142Y-82380952D01*
X127309523Y-82428571D01*
X127261904Y-82523809D01*
%TO.C,SW22*%
X29690476Y-82904761D02*
X29833333Y-82952380D01*
X30071428Y-82952380D01*
X30166666Y-82904761D01*
X30214285Y-82857142D01*
X30261904Y-82761904D01*
X30261904Y-82666666D01*
X30214285Y-82571428D01*
X30166666Y-82523809D01*
X30071428Y-82476190D01*
X29880952Y-82428571D01*
X29785714Y-82380952D01*
X29738095Y-82333333D01*
X29690476Y-82238095D01*
X29690476Y-82142857D01*
X29738095Y-82047619D01*
X29785714Y-82000000D01*
X29880952Y-81952380D01*
X30119047Y-81952380D01*
X30261904Y-82000000D01*
X30595238Y-81952380D02*
X30833333Y-82952380D01*
X31023809Y-82238095D01*
X31214285Y-82952380D01*
X31452380Y-81952380D01*
X31785714Y-82047619D02*
X31833333Y-82000000D01*
X31928571Y-81952380D01*
X32166666Y-81952380D01*
X32261904Y-82000000D01*
X32309523Y-82047619D01*
X32357142Y-82142857D01*
X32357142Y-82238095D01*
X32309523Y-82380952D01*
X31738095Y-82952380D01*
X32357142Y-82952380D01*
X32738095Y-82047619D02*
X32785714Y-82000000D01*
X32880952Y-81952380D01*
X33119047Y-81952380D01*
X33214285Y-82000000D01*
X33261904Y-82047619D01*
X33309523Y-82142857D01*
X33309523Y-82238095D01*
X33261904Y-82380952D01*
X32690476Y-82952380D01*
X33309523Y-82952380D01*
%TO.C,SW17*%
X48690476Y-100904761D02*
X48833333Y-100952380D01*
X49071428Y-100952380D01*
X49166666Y-100904761D01*
X49214285Y-100857142D01*
X49261904Y-100761904D01*
X49261904Y-100666666D01*
X49214285Y-100571428D01*
X49166666Y-100523809D01*
X49071428Y-100476190D01*
X48880952Y-100428571D01*
X48785714Y-100380952D01*
X48738095Y-100333333D01*
X48690476Y-100238095D01*
X48690476Y-100142857D01*
X48738095Y-100047619D01*
X48785714Y-100000000D01*
X48880952Y-99952380D01*
X49119047Y-99952380D01*
X49261904Y-100000000D01*
X49595238Y-99952380D02*
X49833333Y-100952380D01*
X50023809Y-100238095D01*
X50214285Y-100952380D01*
X50452380Y-99952380D01*
X51357142Y-100952380D02*
X50785714Y-100952380D01*
X51071428Y-100952380D02*
X51071428Y-99952380D01*
X50976190Y-100095238D01*
X50880952Y-100190476D01*
X50785714Y-100238095D01*
X51690476Y-99952380D02*
X52357142Y-99952380D01*
X51928571Y-100952380D01*
%TO.C,SW4*%
X103166666Y-100904761D02*
X103309523Y-100952380D01*
X103547619Y-100952380D01*
X103642857Y-100904761D01*
X103690476Y-100857142D01*
X103738095Y-100761904D01*
X103738095Y-100666666D01*
X103690476Y-100571428D01*
X103642857Y-100523809D01*
X103547619Y-100476190D01*
X103357142Y-100428571D01*
X103261904Y-100380952D01*
X103214285Y-100333333D01*
X103166666Y-100238095D01*
X103166666Y-100142857D01*
X103214285Y-100047619D01*
X103261904Y-100000000D01*
X103357142Y-99952380D01*
X103595238Y-99952380D01*
X103738095Y-100000000D01*
X104071428Y-99952380D02*
X104309523Y-100952380D01*
X104500000Y-100238095D01*
X104690476Y-100952380D01*
X104928571Y-99952380D01*
X105738095Y-100285714D02*
X105738095Y-100952380D01*
X105500000Y-99904761D02*
X105261904Y-100619047D01*
X105880952Y-100619047D01*
%TO.C,SW20*%
X48690476Y-46904761D02*
X48833333Y-46952380D01*
X49071428Y-46952380D01*
X49166666Y-46904761D01*
X49214285Y-46857142D01*
X49261904Y-46761904D01*
X49261904Y-46666666D01*
X49214285Y-46571428D01*
X49166666Y-46523809D01*
X49071428Y-46476190D01*
X48880952Y-46428571D01*
X48785714Y-46380952D01*
X48738095Y-46333333D01*
X48690476Y-46238095D01*
X48690476Y-46142857D01*
X48738095Y-46047619D01*
X48785714Y-46000000D01*
X48880952Y-45952380D01*
X49119047Y-45952380D01*
X49261904Y-46000000D01*
X49595238Y-45952380D02*
X49833333Y-46952380D01*
X50023809Y-46238095D01*
X50214285Y-46952380D01*
X50452380Y-45952380D01*
X50785714Y-46047619D02*
X50833333Y-46000000D01*
X50928571Y-45952380D01*
X51166666Y-45952380D01*
X51261904Y-46000000D01*
X51309523Y-46047619D01*
X51357142Y-46142857D01*
X51357142Y-46238095D01*
X51309523Y-46380952D01*
X50738095Y-46952380D01*
X51357142Y-46952380D01*
X51976190Y-45952380D02*
X52071428Y-45952380D01*
X52166666Y-46000000D01*
X52214285Y-46047619D01*
X52261904Y-46142857D01*
X52309523Y-46333333D01*
X52309523Y-46571428D01*
X52261904Y-46761904D01*
X52214285Y-46857142D01*
X52166666Y-46904761D01*
X52071428Y-46952380D01*
X51976190Y-46952380D01*
X51880952Y-46904761D01*
X51833333Y-46857142D01*
X51785714Y-46761904D01*
X51738095Y-46571428D01*
X51738095Y-46333333D01*
X51785714Y-46142857D01*
X51833333Y-46047619D01*
X51880952Y-46000000D01*
X51976190Y-45952380D01*
%TO.C,SW19*%
X48690476Y-64904761D02*
X48833333Y-64952380D01*
X49071428Y-64952380D01*
X49166666Y-64904761D01*
X49214285Y-64857142D01*
X49261904Y-64761904D01*
X49261904Y-64666666D01*
X49214285Y-64571428D01*
X49166666Y-64523809D01*
X49071428Y-64476190D01*
X48880952Y-64428571D01*
X48785714Y-64380952D01*
X48738095Y-64333333D01*
X48690476Y-64238095D01*
X48690476Y-64142857D01*
X48738095Y-64047619D01*
X48785714Y-64000000D01*
X48880952Y-63952380D01*
X49119047Y-63952380D01*
X49261904Y-64000000D01*
X49595238Y-63952380D02*
X49833333Y-64952380D01*
X50023809Y-64238095D01*
X50214285Y-64952380D01*
X50452380Y-63952380D01*
X51357142Y-64952380D02*
X50785714Y-64952380D01*
X51071428Y-64952380D02*
X51071428Y-63952380D01*
X50976190Y-64095238D01*
X50880952Y-64190476D01*
X50785714Y-64238095D01*
X51833333Y-64952380D02*
X52023809Y-64952380D01*
X52119047Y-64904761D01*
X52166666Y-64857142D01*
X52261904Y-64714285D01*
X52309523Y-64523809D01*
X52309523Y-64142857D01*
X52261904Y-64047619D01*
X52214285Y-64000000D01*
X52119047Y-63952380D01*
X51928571Y-63952380D01*
X51833333Y-64000000D01*
X51785714Y-64047619D01*
X51738095Y-64142857D01*
X51738095Y-64380952D01*
X51785714Y-64476190D01*
X51833333Y-64523809D01*
X51928571Y-64571428D01*
X52119047Y-64571428D01*
X52214285Y-64523809D01*
X52261904Y-64476190D01*
X52309523Y-64380952D01*
D11*
%TO.C,SW27*%
X77100000Y-99100000D02*
X77100000Y-83900000D01*
X61900000Y-99100000D02*
X77100000Y-99100000D01*
X61900000Y-83900000D02*
X61900000Y-99100000D01*
X77100000Y-83900000D02*
X61900000Y-83900000D01*
%TO.C,SW9*%
X137900000Y-63100000D02*
X153100000Y-63100000D01*
X137900000Y-47900000D02*
X137900000Y-63100000D01*
X153100000Y-63100000D02*
X153100000Y-47900000D01*
X153100000Y-47900000D02*
X137900000Y-47900000D01*
%TO.C,SW11*%
X153100000Y-99100000D02*
X153100000Y-83900000D01*
X137900000Y-83900000D02*
X137900000Y-99100000D01*
X137900000Y-99100000D02*
X153100000Y-99100000D01*
X153100000Y-83900000D02*
X137900000Y-83900000D01*
%TO.C,SW15*%
X146618207Y-126218207D02*
X154218207Y-139381793D01*
X159781793Y-118618207D02*
X146618207Y-126218207D01*
X154218207Y-139381793D02*
X167381793Y-131781793D01*
X167381793Y-131781793D02*
X159781793Y-118618207D01*
%TO.C,SW5*%
X134100000Y-101900000D02*
X118900000Y-101900000D01*
X118900000Y-101900000D02*
X118900000Y-117100000D01*
X134100000Y-117100000D02*
X134100000Y-101900000D01*
X118900000Y-117100000D02*
X134100000Y-117100000D01*
%TO.C,SW14*%
X180381793Y-144781793D02*
X172781793Y-131618207D01*
X159618207Y-139218207D02*
X167218207Y-152381793D01*
X172781793Y-131618207D02*
X159618207Y-139218207D01*
X167218207Y-152381793D02*
X180381793Y-144781793D01*
%TO.C,SW21*%
X39100000Y-117100000D02*
X39100000Y-101900000D01*
X23900000Y-117100000D02*
X39100000Y-117100000D01*
X23900000Y-101900000D02*
X23900000Y-117100000D01*
X39100000Y-101900000D02*
X23900000Y-101900000D01*
%TO.C,SW3*%
X99900000Y-99100000D02*
X115100000Y-99100000D01*
X115100000Y-99100000D02*
X115100000Y-83900000D01*
X99900000Y-83900000D02*
X99900000Y-99100000D01*
X115100000Y-83900000D02*
X99900000Y-83900000D01*
%TO.C,SW10*%
X153100000Y-81100000D02*
X153100000Y-65900000D01*
X153100000Y-65900000D02*
X137900000Y-65900000D01*
X137900000Y-81100000D02*
X153100000Y-81100000D01*
X137900000Y-65900000D02*
X137900000Y-81100000D01*
%TO.C,J1*%
X153887500Y-31537500D02*
X151512500Y-31537500D01*
X153887500Y-30937500D02*
X155887500Y-30937500D01*
X153887500Y-25937500D02*
X153887500Y-25337500D01*
X142912500Y-31537500D02*
X142912500Y-32937500D01*
X155887500Y-30937500D02*
X155887500Y-25937500D01*
X153887500Y-25937500D02*
X155887500Y-25937500D01*
X149862500Y-31537500D02*
X148512500Y-31537500D01*
X142912500Y-31537500D02*
X141787500Y-31537500D01*
X141787500Y-25337500D02*
X141787500Y-31537500D01*
X146862500Y-31537500D02*
X144462500Y-31537500D01*
X153887500Y-31537500D02*
X153887500Y-30937500D01*
X144462500Y-31537500D02*
X144462500Y-32937500D01*
X143362500Y-25337500D02*
X153887500Y-25337500D01*
%TO.C,SW24*%
X23900000Y-47900000D02*
X23900000Y-63100000D01*
X39100000Y-47900000D02*
X23900000Y-47900000D01*
X23900000Y-63100000D02*
X39100000Y-63100000D01*
X39100000Y-63100000D02*
X39100000Y-47900000D01*
%TO.C,SW26*%
X61900000Y-65900000D02*
X61900000Y-81100000D01*
X77100000Y-81100000D02*
X77100000Y-65900000D01*
X77100000Y-65900000D02*
X61900000Y-65900000D01*
X61900000Y-81100000D02*
X77100000Y-81100000D01*
%TO.C,SW16*%
X130618207Y-135218207D02*
X138218207Y-148381793D01*
X151381793Y-140781793D02*
X143781793Y-127618207D01*
X143781793Y-127618207D02*
X130618207Y-135218207D01*
X138218207Y-148381793D02*
X151381793Y-140781793D01*
%TO.C,SW2*%
X115100000Y-65900000D02*
X99900000Y-65900000D01*
X99900000Y-81100000D02*
X115100000Y-81100000D01*
X99900000Y-65900000D02*
X99900000Y-81100000D01*
X115100000Y-81100000D02*
X115100000Y-65900000D01*
%TO.C,SW25*%
X61900000Y-63100000D02*
X77100000Y-63100000D01*
X77100000Y-47900000D02*
X61900000Y-47900000D01*
X77100000Y-63100000D02*
X77100000Y-47900000D01*
X61900000Y-47900000D02*
X61900000Y-63100000D01*
%TO.C,SW13*%
X168168207Y-125491343D02*
X181331793Y-117891343D01*
X173731793Y-104727757D02*
X160568207Y-112327757D01*
X181331793Y-117891343D02*
X173731793Y-104727757D01*
X160568207Y-112327757D02*
X168168207Y-125491343D01*
%TO.C,SW32*%
X96100000Y-101900000D02*
X80900000Y-101900000D01*
X80900000Y-101900000D02*
X80900000Y-117100000D01*
X80900000Y-117100000D02*
X96100000Y-117100000D01*
X96100000Y-117100000D02*
X96100000Y-101900000D01*
%TO.C,SW12*%
X153100000Y-117100000D02*
X153100000Y-101900000D01*
X153100000Y-101900000D02*
X137900000Y-101900000D01*
X137900000Y-117100000D02*
X153100000Y-117100000D01*
X137900000Y-101900000D02*
X137900000Y-117100000D01*
%TO.C,SW18*%
X58100000Y-99100000D02*
X58100000Y-83900000D01*
X58100000Y-83900000D02*
X42900000Y-83900000D01*
X42900000Y-83900000D02*
X42900000Y-99100000D01*
X42900000Y-99100000D02*
X58100000Y-99100000D01*
%TO.C,SW29*%
X80900000Y-63100000D02*
X96100000Y-63100000D01*
X96100000Y-47900000D02*
X80900000Y-47900000D01*
X96100000Y-63100000D02*
X96100000Y-47900000D01*
X80900000Y-47900000D02*
X80900000Y-63100000D01*
%TO.C,SW28*%
X61900000Y-117100000D02*
X77100000Y-117100000D01*
X77100000Y-117100000D02*
X77100000Y-101900000D01*
X61900000Y-101900000D02*
X61900000Y-117100000D01*
X77100000Y-101900000D02*
X61900000Y-101900000D01*
%TO.C,SW30*%
X96100000Y-65900000D02*
X80900000Y-65900000D01*
X80900000Y-81100000D02*
X96100000Y-81100000D01*
X80900000Y-65900000D02*
X80900000Y-81100000D01*
X96100000Y-81100000D02*
X96100000Y-65900000D01*
%TO.C,SW8*%
X134100000Y-47900000D02*
X118900000Y-47900000D01*
X118900000Y-47900000D02*
X118900000Y-63100000D01*
X118900000Y-63100000D02*
X134100000Y-63100000D01*
X134100000Y-63100000D02*
X134100000Y-47900000D01*
%TO.C,SW1*%
X99900000Y-47900000D02*
X99900000Y-63100000D01*
X115100000Y-63100000D02*
X115100000Y-47900000D01*
X99900000Y-63100000D02*
X115100000Y-63100000D01*
X115100000Y-47900000D02*
X99900000Y-47900000D01*
%TO.C,SW7*%
X134100000Y-65900000D02*
X118900000Y-65900000D01*
X118900000Y-65900000D02*
X118900000Y-81100000D01*
X134100000Y-81100000D02*
X134100000Y-65900000D01*
X118900000Y-81100000D02*
X134100000Y-81100000D01*
%TO.C,SW31*%
X96100000Y-99100000D02*
X96100000Y-83900000D01*
X96100000Y-83900000D02*
X80900000Y-83900000D01*
X80900000Y-99100000D02*
X96100000Y-99100000D01*
X80900000Y-83900000D02*
X80900000Y-99100000D01*
%TO.C,SW23*%
X39100000Y-81100000D02*
X39100000Y-65900000D01*
X39100000Y-65900000D02*
X23900000Y-65900000D01*
X23900000Y-65900000D02*
X23900000Y-81100000D01*
X23900000Y-81100000D02*
X39100000Y-81100000D01*
%TO.C,SW6*%
X118900000Y-83900000D02*
X118900000Y-99100000D01*
X134100000Y-99100000D02*
X134100000Y-83900000D01*
X134100000Y-83900000D02*
X118900000Y-83900000D01*
X118900000Y-99100000D02*
X134100000Y-99100000D01*
%TO.C,SW22*%
X23900000Y-83900000D02*
X23900000Y-99100000D01*
X23900000Y-99100000D02*
X39100000Y-99100000D01*
X39100000Y-99100000D02*
X39100000Y-83900000D01*
X39100000Y-83900000D02*
X23900000Y-83900000D01*
%TO.C,SW17*%
X58100000Y-117100000D02*
X58100000Y-101900000D01*
X58100000Y-101900000D02*
X42900000Y-101900000D01*
X42900000Y-101900000D02*
X42900000Y-117100000D01*
X42900000Y-117100000D02*
X58100000Y-117100000D01*
%TO.C,SW4*%
X99900000Y-117100000D02*
X115100000Y-117100000D01*
X115100000Y-101900000D02*
X99900000Y-101900000D01*
X99900000Y-101900000D02*
X99900000Y-117100000D01*
X115100000Y-117100000D02*
X115100000Y-101900000D01*
%TO.C,SW20*%
X42900000Y-63100000D02*
X58100000Y-63100000D01*
X58100000Y-47900000D02*
X42900000Y-47900000D01*
X58100000Y-63100000D02*
X58100000Y-47900000D01*
X42900000Y-47900000D02*
X42900000Y-63100000D01*
%TO.C,SW19*%
X58100000Y-81100000D02*
X58100000Y-65900000D01*
X42900000Y-81100000D02*
X58100000Y-81100000D01*
X42900000Y-65900000D02*
X42900000Y-81100000D01*
X58100000Y-65900000D02*
X42900000Y-65900000D01*
%TD*%
M02*
