%TF.GenerationSoftware,KiCad,Pcbnew,(6.0.9)*%
%TF.CreationDate,2022-12-02T11:33:43-08:00*%
%TF.ProjectId,keyboard_left,6b657962-6f61-4726-945f-6c6566742e6b,rev?*%
%TF.SameCoordinates,Original*%
%TF.FileFunction,Soldermask,Top*%
%TF.FilePolarity,Negative*%
%FSLAX46Y46*%
G04 Gerber Fmt 4.6, Leading zero omitted, Abs format (unit mm)*
G04 Created by KiCad (PCBNEW (6.0.9)) date 2022-12-02 11:33:43*
%MOMM*%
%LPD*%
G01*
G04 APERTURE LIST*
%ADD10C,1.250000*%
%ADD11C,1.900000*%
%ADD12C,1.650000*%
%ADD13C,5.050000*%
%ADD14C,1.500000*%
%ADD15R,1.200000X2.500000*%
G04 APERTURE END LIST*
D10*
%TO.C,SW27*%
X74500000Y-87700000D03*
D11*
X64000000Y-91500000D03*
D10*
X69500000Y-85600000D03*
D12*
X64500000Y-96650000D03*
D11*
X75000000Y-91500000D03*
D13*
X69500000Y-91500000D03*
%TD*%
%TO.C,SW9*%
X145500000Y-55500000D03*
D10*
X145500000Y-49600000D03*
X150500000Y-51700000D03*
D11*
X151000000Y-55500000D03*
D12*
X140500000Y-60650000D03*
D11*
X140000000Y-55500000D03*
%TD*%
D12*
%TO.C,SW11*%
X140500000Y-96650000D03*
D13*
X145500000Y-91500000D03*
D11*
X140000000Y-91500000D03*
X151000000Y-91500000D03*
D10*
X145500000Y-85600000D03*
X150500000Y-87700000D03*
%TD*%
D13*
%TO.C,SW15*%
X157000000Y-129000000D03*
D11*
X152236860Y-131750000D03*
D12*
X155244873Y-135960031D03*
D11*
X161763140Y-126250000D03*
D10*
X159430127Y-123209103D03*
X154050000Y-123890450D03*
%TD*%
D11*
%TO.C,SW5*%
X121000000Y-109500000D03*
D10*
X131500000Y-105700000D03*
D12*
X121500000Y-114650000D03*
D13*
X126500000Y-109500000D03*
D10*
X126500000Y-103600000D03*
D11*
X132000000Y-109500000D03*
%TD*%
D13*
%TO.C,SW14*%
X170000000Y-142000000D03*
D10*
X167050000Y-136890450D03*
D11*
X174763140Y-139250000D03*
X165236860Y-144750000D03*
D12*
X168244873Y-148960031D03*
D10*
X172430127Y-136209103D03*
%TD*%
D11*
%TO.C,SW21*%
X37000000Y-109500000D03*
D12*
X26500000Y-114650000D03*
D10*
X36500000Y-105700000D03*
D11*
X26000000Y-109500000D03*
D13*
X31500000Y-109500000D03*
D10*
X31500000Y-103600000D03*
%TD*%
D11*
%TO.C,SW3*%
X113000000Y-91500000D03*
X102000000Y-91500000D03*
D10*
X107500000Y-85600000D03*
D13*
X107500000Y-91500000D03*
D10*
X112500000Y-87700000D03*
D12*
X102500000Y-96650000D03*
%TD*%
D11*
%TO.C,SW10*%
X140000000Y-73500000D03*
X151000000Y-73500000D03*
D13*
X145500000Y-73500000D03*
D10*
X145500000Y-67600000D03*
D12*
X140500000Y-78650000D03*
D10*
X150500000Y-69700000D03*
%TD*%
D14*
%TO.C,J1*%
X145287500Y-28437500D03*
X152287500Y-28437500D03*
D15*
X147687500Y-31687500D03*
X150687500Y-31687500D03*
X142587500Y-25187500D03*
X143687500Y-31687500D03*
%TD*%
D12*
%TO.C,SW24*%
X26500000Y-60650000D03*
D10*
X36500000Y-51700000D03*
D13*
X31500000Y-55500000D03*
D10*
X31500000Y-49600000D03*
D11*
X37000000Y-55500000D03*
X26000000Y-55500000D03*
%TD*%
%TO.C,SW26*%
X75000000Y-73500000D03*
D12*
X64500000Y-78650000D03*
D10*
X69500000Y-67600000D03*
X74500000Y-69700000D03*
D13*
X69500000Y-73500000D03*
D11*
X64000000Y-73500000D03*
%TD*%
D12*
%TO.C,SW16*%
X139244873Y-144960031D03*
D11*
X145763140Y-135250000D03*
X136236860Y-140750000D03*
D10*
X138050000Y-132890450D03*
D13*
X141000000Y-138000000D03*
D10*
X143430127Y-132209103D03*
%TD*%
%TO.C,SW2*%
X112500000Y-69700000D03*
D12*
X102500000Y-78650000D03*
D10*
X107500000Y-67600000D03*
D13*
X107500000Y-73500000D03*
D11*
X102000000Y-73500000D03*
X113000000Y-73500000D03*
%TD*%
%TO.C,SW25*%
X75000000Y-55500000D03*
D10*
X74500000Y-51700000D03*
X69500000Y-49600000D03*
D13*
X69500000Y-55500000D03*
D12*
X64500000Y-60650000D03*
D11*
X64000000Y-55500000D03*
%TD*%
%TO.C,SW13*%
X166186860Y-117859550D03*
D13*
X170950000Y-115109550D03*
D10*
X173380127Y-109318653D03*
D12*
X169194873Y-122069581D03*
D10*
X168000000Y-110000000D03*
D11*
X175713140Y-112359550D03*
%TD*%
D13*
%TO.C,SW32*%
X88500000Y-109500000D03*
D10*
X93500000Y-105700000D03*
X88500000Y-103600000D03*
D11*
X83000000Y-109500000D03*
X94000000Y-109500000D03*
D12*
X83500000Y-114650000D03*
%TD*%
D13*
%TO.C,SW12*%
X145500000Y-109500000D03*
D10*
X150500000Y-105700000D03*
D11*
X140000000Y-109500000D03*
X151000000Y-109500000D03*
D10*
X145500000Y-103600000D03*
D12*
X140500000Y-114650000D03*
%TD*%
D11*
%TO.C,SW18*%
X56000000Y-91500000D03*
D10*
X50500000Y-85600000D03*
X55500000Y-87700000D03*
D11*
X45000000Y-91500000D03*
D13*
X50500000Y-91500000D03*
D12*
X45500000Y-96650000D03*
%TD*%
%TO.C,SW29*%
X83500000Y-60650000D03*
D10*
X93500000Y-51700000D03*
D11*
X94000000Y-55500000D03*
X83000000Y-55500000D03*
D10*
X88500000Y-49600000D03*
D13*
X88500000Y-55500000D03*
%TD*%
D11*
%TO.C,SW28*%
X64000000Y-109500000D03*
X75000000Y-109500000D03*
D10*
X74500000Y-105700000D03*
D12*
X64500000Y-114650000D03*
D13*
X69500000Y-109500000D03*
D10*
X69500000Y-103600000D03*
%TD*%
D11*
%TO.C,SW30*%
X83000000Y-73500000D03*
D12*
X83500000Y-78650000D03*
D11*
X94000000Y-73500000D03*
D10*
X88500000Y-67600000D03*
D13*
X88500000Y-73500000D03*
D10*
X93500000Y-69700000D03*
%TD*%
D12*
%TO.C,SW8*%
X121500000Y-60650000D03*
D10*
X131500000Y-51700000D03*
D11*
X132000000Y-55500000D03*
X121000000Y-55500000D03*
D13*
X126500000Y-55500000D03*
D10*
X126500000Y-49600000D03*
%TD*%
D11*
%TO.C,SW1*%
X113000000Y-55500000D03*
D13*
X107500000Y-55500000D03*
D10*
X112500000Y-51700000D03*
D12*
X102500000Y-60650000D03*
D11*
X102000000Y-55500000D03*
D10*
X107500000Y-49600000D03*
%TD*%
%TO.C,SW7*%
X126500000Y-67600000D03*
D11*
X121000000Y-73500000D03*
D13*
X126500000Y-73500000D03*
D10*
X131500000Y-69700000D03*
D11*
X132000000Y-73500000D03*
D12*
X121500000Y-78650000D03*
%TD*%
D13*
%TO.C,SW31*%
X88500000Y-91500000D03*
D11*
X83000000Y-91500000D03*
D10*
X93500000Y-87700000D03*
X88500000Y-85600000D03*
D12*
X83500000Y-96650000D03*
D11*
X94000000Y-91500000D03*
%TD*%
D13*
%TO.C,SW23*%
X31500000Y-73500000D03*
D11*
X37000000Y-73500000D03*
X26000000Y-73500000D03*
D10*
X31500000Y-67600000D03*
X36500000Y-69700000D03*
D12*
X26500000Y-78650000D03*
%TD*%
%TO.C,SW6*%
X121500000Y-96650000D03*
D10*
X131500000Y-87700000D03*
D11*
X121000000Y-91500000D03*
X132000000Y-91500000D03*
D13*
X126500000Y-91500000D03*
D10*
X126500000Y-85600000D03*
%TD*%
%TO.C,SW22*%
X36500000Y-87700000D03*
D11*
X26000000Y-91500000D03*
D10*
X31500000Y-85600000D03*
D13*
X31500000Y-91500000D03*
D12*
X26500000Y-96650000D03*
D11*
X37000000Y-91500000D03*
%TD*%
D12*
%TO.C,SW17*%
X45500000Y-114650000D03*
D11*
X56000000Y-109500000D03*
D13*
X50500000Y-109500000D03*
D11*
X45000000Y-109500000D03*
D10*
X50500000Y-103600000D03*
X55500000Y-105700000D03*
%TD*%
D12*
%TO.C,SW4*%
X102500000Y-114650000D03*
D13*
X107500000Y-109500000D03*
D10*
X107500000Y-103600000D03*
D11*
X102000000Y-109500000D03*
D10*
X112500000Y-105700000D03*
D11*
X113000000Y-109500000D03*
%TD*%
D10*
%TO.C,SW20*%
X50500000Y-49600000D03*
D11*
X45000000Y-55500000D03*
D10*
X55500000Y-51700000D03*
D13*
X50500000Y-55500000D03*
D11*
X56000000Y-55500000D03*
D12*
X45500000Y-60650000D03*
%TD*%
D11*
%TO.C,SW19*%
X45000000Y-73500000D03*
D13*
X50500000Y-73500000D03*
D10*
X55500000Y-69700000D03*
D11*
X56000000Y-73500000D03*
D12*
X45500000Y-78650000D03*
D10*
X50500000Y-67600000D03*
%TD*%
M02*
