M48
; DRILL file {KiCad (6.0.9)} date Fri 02 Dec 2022 02:54:03 PM PST
; FORMAT={-:-/ absolute / inch / decimal}
; #@! TF.CreationDate,2022-12-02T14:54:03-08:00
; #@! TF.GenerationSoftware,Kicad,Pcbnew,(6.0.9)
; #@! TF.FileFunction,Plated,1,2,PTH
FMAT,2
INCH
; #@! TA.AperFunction,Plated,PTH,ViaDrill
T1C0.0157
; #@! TA.AperFunction,Plated,PTH,ComponentDrill
T2C0.0472
; #@! TA.AperFunction,Plated,PTH,ComponentDrill
T3C0.0630
%
G90
G05
T1
X2.6575Y-1.2008
X2.6575Y-1.2795
X2.6575Y-1.3189
X2.6575Y-1.3583
X2.6575Y-1.3976
X2.6575Y-1.4764
X2.6575Y-1.5157
X2.6575Y-1.5551
X2.8762Y-1.4152
X2.8868Y-1.3652
X2.8937Y-1.2008
X2.8937Y-1.3189
X2.8937Y-1.5157
X2.8937Y-1.5551
X2.9049Y-1.4652
X2.9081Y-1.2652
X4.0354Y-0.9646
X4.1929Y-0.9646
X4.1929Y-1.2008
X4.1929Y-1.2402
X4.1929Y-1.3189
X4.1929Y-1.3583
X4.1929Y-1.3976
X4.1929Y-1.4764
X4.1929Y-1.5157
X4.1929Y-1.5551
X4.4291Y-1.2008
X4.4291Y-1.2402
X4.4291Y-1.3189
X4.4291Y-1.3583
X4.4291Y-1.3976
X4.4291Y-1.4764
X4.4291Y-1.5157
X4.4291Y-1.5551
X5.6501Y-1.0802
X5.6501Y-1.159
T2
X1.2402Y-1.9528
X1.2402Y-2.6614
X1.2402Y-3.3701
X1.2402Y-4.0787
X1.437Y-2.0354
X1.437Y-2.7441
X1.437Y-3.4528
X1.437Y-4.1614
X1.9882Y-1.9528
X1.9882Y-2.6614
X1.9882Y-3.3701
X1.9882Y-4.0787
X2.185Y-2.0354
X2.185Y-2.7441
X2.185Y-3.4528
X2.185Y-4.1614
X2.7362Y-1.9528
X2.7362Y-2.6614
X2.7362Y-3.3701
X2.7362Y-4.0787
X2.9331Y-2.0354
X2.9331Y-2.7441
X2.9331Y-3.4528
X2.9331Y-4.1614
X3.4843Y-1.9528
X3.4843Y-2.6614
X3.4843Y-3.3701
X3.4843Y-4.0787
X3.6811Y-2.0354
X3.6811Y-2.7441
X3.6811Y-3.4528
X3.6811Y-4.1614
X4.2323Y-1.9528
X4.2323Y-2.6614
X4.2323Y-3.3701
X4.2323Y-4.0787
X4.4291Y-2.0354
X4.4291Y-2.7441
X4.4291Y-3.4528
X4.4291Y-4.1614
X4.9803Y-1.9528
X4.9803Y-2.6614
X4.9803Y-3.3701
X4.9803Y-4.0787
X5.1772Y-2.0354
X5.1772Y-2.7441
X5.1772Y-3.4528
X5.1772Y-4.1614
X5.435Y-5.2319
X5.6469Y-5.2051
X5.7283Y-1.9528
X5.7283Y-2.6614
X5.7283Y-3.3701
X5.7283Y-4.0787
X5.9252Y-2.0354
X5.9252Y-2.7441
X5.9252Y-3.4528
X5.9252Y-4.1614
X6.065Y-4.8776
X6.2768Y-4.8508
X6.5768Y-5.3894
X6.6142Y-4.3307
X6.7886Y-5.3626
X6.826Y-4.3039
T3
X1.0433Y-2.3878
X1.0433Y-3.0965
X1.0433Y-3.8051
X1.0433Y-4.5138
X1.7913Y-2.3878
X1.7913Y-3.0965
X1.7913Y-3.8051
X1.7913Y-4.5138
X2.5394Y-2.3878
X2.5394Y-3.0965
X2.5394Y-3.8051
X2.5394Y-4.5138
X3.2874Y-2.3878
X3.2874Y-3.0965
X3.2874Y-3.8051
X3.2874Y-4.5138
X4.0354Y-2.3878
X4.0354Y-3.0965
X4.0354Y-3.8051
X4.0354Y-4.5138
X4.7835Y-2.3878
X4.7835Y-3.0965
X4.7835Y-3.8051
X4.7835Y-4.5138
X5.4821Y-5.7071
X5.5315Y-2.3878
X5.5315Y-3.0965
X5.5315Y-3.8051
X5.5315Y-4.5138
X6.112Y-5.3528
X6.6238Y-5.8646
X6.6612Y-4.8059
T0
M30
