M48
; DRILL file {KiCad (6.0.9)} date Fri 02 Dec 2022 02:54:03 PM PST
; FORMAT={-:-/ absolute / inch / decimal}
; #@! TF.CreationDate,2022-12-02T14:54:03-08:00
; #@! TF.GenerationSoftware,Kicad,Pcbnew,(6.0.9)
; #@! TF.FileFunction,NonPlated,1,2,NPTH
FMAT,2
INCH
; #@! TA.AperFunction,NonPlated,NPTH,ComponentDrill
T1C0.0591
; #@! TA.AperFunction,NonPlated,NPTH,ComponentDrill
T2C0.0748
; #@! TA.AperFunction,NonPlated,NPTH,ComponentDrill
T3C0.1988
%
G90
G05
T1
X5.72Y-1.1196
X5.9956Y-1.1196
T2
X1.0236Y-2.185
X1.0236Y-2.8937
X1.0236Y-3.6024
X1.0236Y-4.311
X1.4567Y-2.185
X1.4567Y-2.8937
X1.4567Y-3.6024
X1.4567Y-4.311
X1.7717Y-2.185
X1.7717Y-2.8937
X1.7717Y-3.6024
X1.7717Y-4.311
X2.2047Y-2.185
X2.2047Y-2.8937
X2.2047Y-3.6024
X2.2047Y-4.311
X2.5197Y-2.185
X2.5197Y-2.8937
X2.5197Y-3.6024
X2.5197Y-4.311
X2.9528Y-2.185
X2.9528Y-2.8937
X2.9528Y-3.6024
X2.9528Y-4.311
X3.2677Y-2.185
X3.2677Y-2.8937
X3.2677Y-3.6024
X3.2677Y-4.311
X3.7008Y-2.185
X3.7008Y-2.8937
X3.7008Y-3.6024
X3.7008Y-4.311
X4.0157Y-2.185
X4.0157Y-2.8937
X4.0157Y-3.6024
X4.0157Y-4.311
X4.4488Y-2.185
X4.4488Y-2.8937
X4.4488Y-3.6024
X4.4488Y-4.311
X4.7638Y-2.185
X4.7638Y-2.8937
X4.7638Y-3.6024
X4.7638Y-4.311
X5.1969Y-2.185
X5.1969Y-2.8937
X5.1969Y-3.6024
X5.1969Y-4.311
X5.3637Y-5.5413
X5.5118Y-2.185
X5.5118Y-2.8937
X5.5118Y-3.6024
X5.5118Y-4.311
X5.7387Y-5.3248
X5.9449Y-2.185
X5.9449Y-2.8937
X5.9449Y-3.6024
X5.9449Y-4.311
X5.9936Y-5.187
X6.3686Y-4.9705
X6.5054Y-5.6988
X6.5428Y-4.6401
X6.8804Y-5.4823
X6.9178Y-4.4236
T3
X1.2402Y-2.185
X1.2402Y-2.8937
X1.2402Y-3.6024
X1.2402Y-4.311
X1.9882Y-2.185
X1.9882Y-2.8937
X1.9882Y-3.6024
X1.9882Y-4.311
X2.7362Y-2.185
X2.7362Y-2.8937
X2.7362Y-3.6024
X2.7362Y-4.311
X3.4843Y-2.185
X3.4843Y-2.8937
X3.4843Y-3.6024
X3.4843Y-4.311
X4.2323Y-2.185
X4.2323Y-2.8937
X4.2323Y-3.6024
X4.2323Y-4.311
X4.9803Y-2.185
X4.9803Y-2.8937
X4.9803Y-3.6024
X4.9803Y-4.311
X5.5512Y-5.4331
X5.7283Y-2.185
X5.7283Y-2.8937
X5.7283Y-3.6024
X5.7283Y-4.311
X6.1811Y-5.0787
X6.6929Y-5.5906
X6.7303Y-4.5319
T0
M30
