%TF.GenerationSoftware,KiCad,Pcbnew,(6.0.9)*%
%TF.CreationDate,2022-12-02T11:24:13-08:00*%
%TF.ProjectId,keyboard_right,6b657962-6f61-4726-945f-72696768742e,rev?*%
%TF.SameCoordinates,Original*%
%TF.FileFunction,Legend,Bot*%
%TF.FilePolarity,Positive*%
%FSLAX46Y46*%
G04 Gerber Fmt 4.6, Leading zero omitted, Abs format (unit mm)*
G04 Created by KiCad (PCBNEW (6.0.9)) date 2022-12-02 11:24:13*
%MOMM*%
%LPD*%
G01*
G04 APERTURE LIST*
%ADD10C,0.150000*%
%ADD11C,0.100000*%
%ADD12C,0.120000*%
G04 APERTURE END LIST*
D10*
%TO.C,U2*%
X104559404Y-24412380D02*
X104559404Y-25221904D01*
X104511785Y-25317142D01*
X104464166Y-25364761D01*
X104368928Y-25412380D01*
X104178452Y-25412380D01*
X104083214Y-25364761D01*
X104035595Y-25317142D01*
X103987976Y-25221904D01*
X103987976Y-24412380D01*
X103559404Y-24507619D02*
X103511785Y-24460000D01*
X103416547Y-24412380D01*
X103178452Y-24412380D01*
X103083214Y-24460000D01*
X103035595Y-24507619D01*
X102987976Y-24602857D01*
X102987976Y-24698095D01*
X103035595Y-24840952D01*
X103607023Y-25412380D01*
X102987976Y-25412380D01*
%TO.C,U1*%
X127559404Y-23412380D02*
X127559404Y-24221904D01*
X127511785Y-24317142D01*
X127464166Y-24364761D01*
X127368928Y-24412380D01*
X127178452Y-24412380D01*
X127083214Y-24364761D01*
X127035595Y-24317142D01*
X126987976Y-24221904D01*
X126987976Y-23412380D01*
X125987976Y-24412380D02*
X126559404Y-24412380D01*
X126273690Y-24412380D02*
X126273690Y-23412380D01*
X126368928Y-23555238D01*
X126464166Y-23650476D01*
X126559404Y-23698095D01*
%TO.C,R4*%
X98679880Y-37833333D02*
X98203690Y-37500000D01*
X98679880Y-37261904D02*
X97679880Y-37261904D01*
X97679880Y-37642857D01*
X97727500Y-37738095D01*
X97775119Y-37785714D01*
X97870357Y-37833333D01*
X98013214Y-37833333D01*
X98108452Y-37785714D01*
X98156071Y-37738095D01*
X98203690Y-37642857D01*
X98203690Y-37261904D01*
X98013214Y-38690476D02*
X98679880Y-38690476D01*
X97632261Y-38452380D02*
X98346547Y-38214285D01*
X98346547Y-38833333D01*
%TO.C,R3*%
X121679880Y-36833333D02*
X121203690Y-36500000D01*
X121679880Y-36261904D02*
X120679880Y-36261904D01*
X120679880Y-36642857D01*
X120727500Y-36738095D01*
X120775119Y-36785714D01*
X120870357Y-36833333D01*
X121013214Y-36833333D01*
X121108452Y-36785714D01*
X121156071Y-36738095D01*
X121203690Y-36642857D01*
X121203690Y-36261904D01*
X120679880Y-37166666D02*
X120679880Y-37785714D01*
X121060833Y-37452380D01*
X121060833Y-37595238D01*
X121108452Y-37690476D01*
X121156071Y-37738095D01*
X121251309Y-37785714D01*
X121489404Y-37785714D01*
X121584642Y-37738095D01*
X121632261Y-37690476D01*
X121679880Y-37595238D01*
X121679880Y-37309523D01*
X121632261Y-37214285D01*
X121584642Y-37166666D01*
D11*
%TO.C,U2*%
X107647500Y-26350000D02*
X107247500Y-25950000D01*
X107247500Y-25950000D02*
X106997500Y-25950000D01*
X107647500Y-44050000D02*
X107647500Y-43650000D01*
X107647500Y-44050000D02*
X107147500Y-44050000D01*
X99947500Y-44050000D02*
X99947500Y-43650000D01*
X99947500Y-44050000D02*
X100447500Y-44050000D01*
X99947500Y-25950000D02*
X99947500Y-26350000D01*
X99947500Y-25950000D02*
X100447500Y-25950000D01*
X107647500Y-26350000D02*
X109347500Y-26350000D01*
%TO.C,U1*%
X130647500Y-25350000D02*
X130247500Y-24950000D01*
X130247500Y-24950000D02*
X129997500Y-24950000D01*
X130647500Y-43050000D02*
X130647500Y-42650000D01*
X130647500Y-43050000D02*
X130147500Y-43050000D01*
X122947500Y-43050000D02*
X122947500Y-42650000D01*
X122947500Y-43050000D02*
X123447500Y-43050000D01*
X122947500Y-24950000D02*
X122947500Y-25350000D01*
X122947500Y-24950000D02*
X123447500Y-24950000D01*
X130647500Y-25350000D02*
X132347500Y-25350000D01*
D12*
%TO.C,R4*%
X97320000Y-38254724D02*
X97320000Y-37745276D01*
X96275000Y-38254724D02*
X96275000Y-37745276D01*
%TO.C,R3*%
X120320000Y-37254724D02*
X120320000Y-36745276D01*
X119275000Y-37254724D02*
X119275000Y-36745276D01*
%TD*%
M02*
