%TF.GenerationSoftware,KiCad,Pcbnew,(6.0.9)*%
%TF.CreationDate,2022-12-02T11:24:13-08:00*%
%TF.ProjectId,keyboard_right,6b657962-6f61-4726-945f-72696768742e,rev?*%
%TF.SameCoordinates,Original*%
%TF.FileFunction,Copper,L1,Top*%
%TF.FilePolarity,Positive*%
%FSLAX46Y46*%
G04 Gerber Fmt 4.6, Leading zero omitted, Abs format (unit mm)*
G04 Created by KiCad (PCBNEW (6.0.9)) date 2022-12-02 11:24:13*
%MOMM*%
%LPD*%
G01*
G04 APERTURE LIST*
G04 Aperture macros list*
%AMRoundRect*
0 Rectangle with rounded corners*
0 $1 Rounding radius*
0 $2 $3 $4 $5 $6 $7 $8 $9 X,Y pos of 4 corners*
0 Add a 4 corners polygon primitive as box body*
4,1,4,$2,$3,$4,$5,$6,$7,$8,$9,$2,$3,0*
0 Add four circle primitives for the rounded corners*
1,1,$1+$1,$2,$3*
1,1,$1+$1,$4,$5*
1,1,$1+$1,$6,$7*
1,1,$1+$1,$8,$9*
0 Add four rect primitives between the rounded corners*
20,1,$1+$1,$2,$3,$4,$5,0*
20,1,$1+$1,$4,$5,$6,$7,0*
20,1,$1+$1,$6,$7,$8,$9,0*
20,1,$1+$1,$8,$9,$2,$3,0*%
G04 Aperture macros list end*
%TA.AperFunction,ComponentPad*%
%ADD10C,2.200000*%
%TD*%
%TA.AperFunction,ComponentPad*%
%ADD11C,2.600000*%
%TD*%
%TA.AperFunction,SMDPad,CuDef*%
%ADD12RoundRect,0.237500X-0.250000X-0.237500X0.250000X-0.237500X0.250000X0.237500X-0.250000X0.237500X0*%
%TD*%
%TA.AperFunction,SMDPad,CuDef*%
%ADD13RoundRect,0.237500X0.237500X-0.250000X0.237500X0.250000X-0.237500X0.250000X-0.237500X-0.250000X0*%
%TD*%
%TA.AperFunction,SMDPad,CuDef*%
%ADD14R,1.200000X2.500000*%
%TD*%
%TA.AperFunction,ViaPad*%
%ADD15C,0.800000*%
%TD*%
%TA.AperFunction,Conductor*%
%ADD16C,0.250000*%
%TD*%
G04 APERTURE END LIST*
D10*
%TO.P,SW32,1,1*%
%TO.N,+5V*%
X95950000Y-133890450D03*
%TO.P,SW32,2,2*%
%TO.N,Net-(SW32-Pad2)*%
X99230127Y-138209103D03*
D11*
%TO.P,SW32,*%
%TO.N,*%
X86094873Y-140960031D03*
%TD*%
D10*
%TO.P,SW30,1,1*%
%TO.N,+5V*%
X62050000Y-147109550D03*
%TO.P,SW30,2,2*%
%TO.N,Net-(SW30-Pad2)*%
X58769873Y-142790897D03*
D11*
%TO.P,SW30,*%
%TO.N,*%
X71905127Y-140039969D03*
%TD*%
D10*
%TO.P,SW29,1,1*%
%TO.N,+5V*%
X61050000Y-120109550D03*
%TO.P,SW29,2,2*%
%TO.N,Net-(SW29-Pad2)*%
X57769873Y-115790897D03*
D11*
%TO.P,SW29,*%
%TO.N,*%
X70905127Y-113039969D03*
%TD*%
D10*
%TO.P,SW4,1,1*%
%TO.N,+5V*%
X203000000Y-103100000D03*
%TO.P,SW4,2,2*%
%TO.N,Net-(SW4-Pad2)*%
X208000000Y-105200000D03*
D11*
%TO.P,SW4,*%
%TO.N,*%
X198000000Y-114150000D03*
%TD*%
D10*
%TO.P,SW2,1,1*%
%TO.N,+5V*%
X203000000Y-67100000D03*
%TO.P,SW2,2,2*%
%TO.N,Net-(SW2-Pad2)*%
X208000000Y-69200000D03*
D11*
%TO.P,SW2,*%
%TO.N,*%
X198000000Y-78150000D03*
%TD*%
D10*
%TO.P,SW1,1,1*%
%TO.N,+5V*%
X203000000Y-49100000D03*
%TO.P,SW1,2,2*%
%TO.N,Net-(SW1-Pad2)*%
X208000000Y-51200000D03*
D11*
%TO.P,SW1,*%
%TO.N,*%
X198000000Y-60150000D03*
%TD*%
D10*
%TO.P,SW16,1,1*%
%TO.N,+5V*%
X146000000Y-103100000D03*
%TO.P,SW16,2,2*%
%TO.N,Net-(SW16-Pad2)*%
X151000000Y-105200000D03*
D11*
%TO.P,SW16,*%
%TO.N,*%
X141000000Y-114150000D03*
%TD*%
D10*
%TO.P,SW14,1,1*%
%TO.N,+5V*%
X146000000Y-67100000D03*
%TO.P,SW14,2,2*%
%TO.N,Net-(SW14-Pad2)*%
X151000000Y-69200000D03*
D11*
%TO.P,SW14,*%
%TO.N,*%
X141000000Y-78150000D03*
%TD*%
D10*
%TO.P,SW13,1,1*%
%TO.N,+5V*%
X146000000Y-49100000D03*
%TO.P,SW13,2,2*%
%TO.N,Net-(SW13-Pad2)*%
X151000000Y-51200000D03*
D11*
%TO.P,SW13,*%
%TO.N,*%
X141000000Y-60150000D03*
%TD*%
D10*
%TO.P,SW31,1,1*%
%TO.N,+5V*%
X80950000Y-123890450D03*
%TO.P,SW31,2,2*%
%TO.N,Net-(SW31-Pad2)*%
X84230127Y-128209103D03*
D11*
%TO.P,SW31,*%
%TO.N,*%
X71094873Y-130960031D03*
%TD*%
D10*
%TO.P,SW28,1,1*%
%TO.N,+5V*%
X89000000Y-103100000D03*
%TO.P,SW28,2,2*%
%TO.N,Net-(SW28-Pad2)*%
X94000000Y-105200000D03*
D11*
%TO.P,SW28,*%
%TO.N,*%
X84000000Y-114150000D03*
%TD*%
D10*
%TO.P,SW27,1,1*%
%TO.N,+5V*%
X89000000Y-85100000D03*
%TO.P,SW27,2,2*%
%TO.N,Net-(SW27-Pad2)*%
X94000000Y-87200000D03*
D11*
%TO.P,SW27,*%
%TO.N,*%
X84000000Y-96150000D03*
%TD*%
D10*
%TO.P,SW26,1,1*%
%TO.N,+5V*%
X89000000Y-67100000D03*
%TO.P,SW26,2,2*%
%TO.N,Net-(SW26-Pad2)*%
X94000000Y-69200000D03*
D11*
%TO.P,SW26,*%
%TO.N,*%
X84000000Y-78150000D03*
%TD*%
D10*
%TO.P,SW25,1,1*%
%TO.N,+5V*%
X89000000Y-49100000D03*
%TO.P,SW25,2,2*%
%TO.N,Net-(SW25-Pad2)*%
X94000000Y-51200000D03*
D11*
%TO.P,SW25,*%
%TO.N,*%
X84000000Y-60150000D03*
%TD*%
D10*
%TO.P,SW24,1,1*%
%TO.N,+5V*%
X108000000Y-103100000D03*
%TO.P,SW24,2,2*%
%TO.N,Net-(SW24-Pad2)*%
X113000000Y-105200000D03*
D11*
%TO.P,SW24,*%
%TO.N,*%
X103000000Y-114150000D03*
%TD*%
D10*
%TO.P,SW23,1,1*%
%TO.N,+5V*%
X108000000Y-85100000D03*
%TO.P,SW23,2,2*%
%TO.N,Net-(SW23-Pad2)*%
X113000000Y-87200000D03*
D11*
%TO.P,SW23,*%
%TO.N,*%
X103000000Y-96150000D03*
%TD*%
D10*
%TO.P,SW22,1,1*%
%TO.N,+5V*%
X108000000Y-67100000D03*
%TO.P,SW22,2,2*%
%TO.N,Net-(SW22-Pad2)*%
X113000000Y-69200000D03*
D11*
%TO.P,SW22,*%
%TO.N,*%
X103000000Y-78150000D03*
%TD*%
D10*
%TO.P,SW21,1,1*%
%TO.N,+5V*%
X108000000Y-49100000D03*
%TO.P,SW21,2,2*%
%TO.N,Net-(SW21-Pad2)*%
X113000000Y-51200000D03*
D11*
%TO.P,SW21,*%
%TO.N,*%
X103000000Y-60150000D03*
%TD*%
D10*
%TO.P,SW20,1,1*%
%TO.N,+5V*%
X127000000Y-103100000D03*
%TO.P,SW20,2,2*%
%TO.N,Net-(SW20-Pad2)*%
X132000000Y-105200000D03*
D11*
%TO.P,SW20,*%
%TO.N,*%
X122000000Y-114150000D03*
%TD*%
D10*
%TO.P,SW19,1,1*%
%TO.N,+5V*%
X127000000Y-85100000D03*
%TO.P,SW19,2,2*%
%TO.N,Net-(SW19-Pad2)*%
X132000000Y-87200000D03*
D11*
%TO.P,SW19,*%
%TO.N,*%
X122000000Y-96150000D03*
%TD*%
D10*
%TO.P,SW18,1,1*%
%TO.N,+5V*%
X127000000Y-67100000D03*
%TO.P,SW18,2,2*%
%TO.N,Net-(SW18-Pad2)*%
X132000000Y-69200000D03*
D11*
%TO.P,SW18,*%
%TO.N,*%
X122000000Y-78150000D03*
%TD*%
D10*
%TO.P,SW17,1,1*%
%TO.N,+5V*%
X127000000Y-49100000D03*
%TO.P,SW17,2,2*%
%TO.N,Net-(SW17-Pad2)*%
X132000000Y-51200000D03*
D11*
%TO.P,SW17,*%
%TO.N,*%
X122000000Y-60150000D03*
%TD*%
D10*
%TO.P,SW15,1,1*%
%TO.N,+5V*%
X146000000Y-85100000D03*
%TO.P,SW15,2,2*%
%TO.N,Net-(SW15-Pad2)*%
X151000000Y-87200000D03*
D11*
%TO.P,SW15,*%
%TO.N,*%
X141000000Y-96150000D03*
%TD*%
D10*
%TO.P,SW12,1,1*%
%TO.N,+5V*%
X165000000Y-103100000D03*
%TO.P,SW12,2,2*%
%TO.N,Net-(SW12-Pad2)*%
X170000000Y-105200000D03*
D11*
%TO.P,SW12,*%
%TO.N,*%
X160000000Y-114150000D03*
%TD*%
D10*
%TO.P,SW11,1,1*%
%TO.N,+5V*%
X165000000Y-85100000D03*
%TO.P,SW11,2,2*%
%TO.N,Net-(SW11-Pad2)*%
X170000000Y-87200000D03*
D11*
%TO.P,SW11,*%
%TO.N,*%
X160000000Y-96150000D03*
%TD*%
D10*
%TO.P,SW10,1,1*%
%TO.N,+5V*%
X165000000Y-67100000D03*
%TO.P,SW10,2,2*%
%TO.N,Net-(SW10-Pad2)*%
X170000000Y-69200000D03*
D11*
%TO.P,SW10,*%
%TO.N,*%
X160000000Y-78150000D03*
%TD*%
D10*
%TO.P,SW9,1,1*%
%TO.N,+5V*%
X165000000Y-49100000D03*
%TO.P,SW9,2,2*%
%TO.N,Net-(SW9-Pad2)*%
X170000000Y-51200000D03*
D11*
%TO.P,SW9,*%
%TO.N,*%
X160000000Y-60150000D03*
%TD*%
D10*
%TO.P,SW8,1,1*%
%TO.N,+5V*%
X184000000Y-103100000D03*
%TO.P,SW8,2,2*%
%TO.N,Net-(SW8-Pad2)*%
X189000000Y-105200000D03*
D11*
%TO.P,SW8,*%
%TO.N,*%
X179000000Y-114150000D03*
%TD*%
D10*
%TO.P,SW7,1,1*%
%TO.N,+5V*%
X184000000Y-85100000D03*
%TO.P,SW7,2,2*%
%TO.N,Net-(SW7-Pad2)*%
X189000000Y-87200000D03*
D11*
%TO.P,SW7,*%
%TO.N,*%
X179000000Y-96150000D03*
%TD*%
D10*
%TO.P,SW6,1,1*%
%TO.N,+5V*%
X184000000Y-67100000D03*
%TO.P,SW6,2,2*%
%TO.N,Net-(SW6-Pad2)*%
X189000000Y-69200000D03*
D11*
%TO.P,SW6,*%
%TO.N,*%
X179000000Y-78150000D03*
%TD*%
D10*
%TO.P,SW5,1,1*%
%TO.N,+5V*%
X184000000Y-49100000D03*
%TO.P,SW5,2,2*%
%TO.N,Net-(SW5-Pad2)*%
X189000000Y-51200000D03*
D11*
%TO.P,SW5,*%
%TO.N,*%
X179000000Y-60150000D03*
%TD*%
D10*
%TO.P,SW3,1,1*%
%TO.N,+5V*%
X203000000Y-85100000D03*
%TO.P,SW3,2,2*%
%TO.N,Net-(SW3-Pad2)*%
X208000000Y-87200000D03*
D11*
%TO.P,SW3,*%
%TO.N,*%
X198000000Y-96150000D03*
%TD*%
D12*
%TO.P,R2,2*%
%TO.N,+5V*%
X87912500Y-23000000D03*
%TO.P,R2,1*%
%TO.N,/SDA*%
X86087500Y-23000000D03*
%TD*%
D13*
%TO.P,R1,2*%
%TO.N,+5V*%
X88000000Y-35087500D03*
%TO.P,R1,1*%
%TO.N,/SCK*%
X88000000Y-36912500D03*
%TD*%
D14*
%TO.P,J1,R1*%
%TO.N,/SDA*%
X86825000Y-25750000D03*
%TO.P,J1,R2*%
%TO.N,/SCK*%
X83825000Y-25750000D03*
%TO.P,J1,S*%
%TO.N,+5V*%
X91925000Y-32250000D03*
%TO.P,J1,T*%
%TO.N,GND*%
X90825000Y-25750000D03*
%TD*%
D15*
%TO.N,Net-(SW32-Pad2)*%
X101000000Y-27000000D03*
%TO.N,Net-(SW31-Pad2)*%
X101000000Y-28000000D03*
%TO.N,Net-(SW29-Pad2)*%
X101000000Y-31000000D03*
%TO.N,Net-(SW16-Pad2)*%
X124000000Y-26000000D03*
%TO.N,Net-(SW15-Pad2)*%
X124000000Y-27000000D03*
%TO.N,Net-(SW14-Pad2)*%
X124000000Y-28000000D03*
%TO.N,Net-(SW13-Pad2)*%
X124000000Y-30000000D03*
%TO.N,Net-(SW12-Pad2)*%
X124000000Y-31000000D03*
%TO.N,Net-(SW11-Pad2)*%
X124000000Y-32000000D03*
%TO.N,Net-(SW10-Pad2)*%
X124000000Y-33000000D03*
%TO.N,Net-(SW9-Pad2)*%
X124000000Y-35000000D03*
%TO.N,Net-(SW8-Pad2)*%
X130000000Y-34000000D03*
%TO.N,Net-(SW7-Pad2)*%
X130000000Y-33000000D03*
%TO.N,Net-(SW6-Pad2)*%
X130000000Y-32000000D03*
%TO.N,Net-(SW5-Pad2)*%
X130000000Y-31000000D03*
%TO.N,Net-(SW4-Pad2)*%
X130000000Y-30000000D03*
%TO.N,Net-(SW3-Pad2)*%
X130000000Y-28000000D03*
%TO.N,Net-(SW2-Pad2)*%
X130000000Y-27000000D03*
%TO.N,Net-(SW1-Pad2)*%
X130000000Y-26000000D03*
%TO.N,Net-(SW17-Pad2)*%
X107000000Y-27000000D03*
%TO.N,Net-(SW18-Pad2)*%
X107000000Y-28000000D03*
%TO.N,Net-(SW19-Pad2)*%
X107000000Y-29000000D03*
%TO.N,Net-(SW20-Pad2)*%
X107000000Y-31000000D03*
%TO.N,Net-(SW21-Pad2)*%
X107000000Y-32000000D03*
%TO.N,Net-(SW22-Pad2)*%
X107000000Y-33000000D03*
%TO.N,Net-(SW23-Pad2)*%
X107000000Y-34000000D03*
%TO.N,Net-(SW24-Pad2)*%
X107000000Y-36000000D03*
%TO.N,Net-(SW30-Pad2)*%
X101000000Y-29000000D03*
%TO.N,Net-(SW28-Pad2)*%
X101000000Y-32000000D03*
%TO.N,Net-(SW27-Pad2)*%
X101000000Y-33000000D03*
%TO.N,Net-(SW26-Pad2)*%
X101000000Y-34000000D03*
%TO.N,Net-(SW25-Pad2)*%
X101000000Y-36000000D03*
%TO.N,/SDA*%
X89528604Y-40165000D03*
%TO.N,/SCK*%
X89715000Y-39000000D03*
%TO.N,+5V*%
X93000000Y-35000000D03*
%TO.N,GND*%
X93000000Y-24000000D03*
%TD*%
D16*
%TO.N,Net-(SW32-Pad2)*%
X103450000Y-29424695D02*
X101025305Y-27000000D01*
X101025305Y-27000000D02*
X101000000Y-27000000D01*
%TO.N,Net-(SW31-Pad2)*%
X101000000Y-28000000D02*
X101025305Y-28000000D01*
X101025305Y-28000000D02*
X103000000Y-29974695D01*
%TO.N,Net-(SW29-Pad2)*%
X102000000Y-31974695D02*
X101025305Y-31000000D01*
X101025305Y-31000000D02*
X101000000Y-31000000D01*
%TO.N,Net-(SW32-Pad2)*%
X99230127Y-48880127D02*
X99230127Y-138209103D01*
X103450000Y-29424695D02*
X103450000Y-37459188D01*
X103450000Y-37459188D02*
X97350000Y-43559188D01*
X97350000Y-43559188D02*
X97350000Y-47000000D01*
X97350000Y-47000000D02*
X99230127Y-48880127D01*
%TO.N,Net-(SW31-Pad2)*%
X103000000Y-29974695D02*
X103000000Y-37272792D01*
X103000000Y-37272792D02*
X96900000Y-43372792D01*
X96900000Y-43372792D02*
X96900000Y-115539230D01*
X96900000Y-115539230D02*
X84230127Y-128209103D01*
%TO.N,Net-(SW30-Pad2)*%
X101000000Y-29000000D02*
X102450000Y-30450000D01*
X102450000Y-37186396D02*
X96450000Y-43186396D01*
X102450000Y-30450000D02*
X102450000Y-37186396D01*
X96450000Y-43186396D02*
X96450000Y-113973975D01*
X96450000Y-113973975D02*
X89423975Y-121000000D01*
X58769873Y-136230127D02*
X58769873Y-142790897D01*
X89423975Y-121000000D02*
X74000000Y-121000000D01*
X74000000Y-121000000D02*
X58769873Y-136230127D01*
%TO.N,Net-(SW29-Pad2)*%
X59878977Y-117900001D02*
X57769873Y-115790897D01*
X67101221Y-116000000D02*
X65201220Y-117900001D01*
X102000000Y-31974695D02*
X102000000Y-37000000D01*
X102000000Y-37000000D02*
X96000000Y-43000000D01*
X96000000Y-43000000D02*
X96000000Y-111000000D01*
X96000000Y-111000000D02*
X91000000Y-116000000D01*
X91000000Y-116000000D02*
X67101221Y-116000000D01*
X65201220Y-117900001D02*
X59878977Y-117900001D01*
%TO.N,Net-(SW8-Pad2)*%
X130000000Y-34000000D02*
X161090812Y-34000000D01*
X161090812Y-34000000D02*
X175000000Y-47909188D01*
X175000000Y-47909188D02*
X175000000Y-97000000D01*
X183200000Y-105200000D02*
X189000000Y-105200000D01*
X175000000Y-97000000D02*
X183200000Y-105200000D01*
%TO.N,Net-(SW7-Pad2)*%
X130000000Y-33000000D02*
X160727208Y-33000000D01*
X175550000Y-47822792D02*
X175550000Y-82550000D01*
X180200000Y-87200000D02*
X189000000Y-87200000D01*
X160727208Y-33000000D02*
X175550000Y-47822792D01*
X175550000Y-82550000D02*
X180200000Y-87200000D01*
%TO.N,Net-(SW6-Pad2)*%
X130000000Y-32000000D02*
X160363604Y-32000000D01*
X160363604Y-32000000D02*
X176000000Y-47636396D01*
X176000000Y-47636396D02*
X176000000Y-65000000D01*
X176000000Y-65000000D02*
X180200000Y-69200000D01*
X180200000Y-69200000D02*
X189000000Y-69200000D01*
%TO.N,Net-(SW5-Pad2)*%
X130000000Y-31000000D02*
X160000000Y-31000000D01*
X160000000Y-31000000D02*
X180200000Y-51200000D01*
X180200000Y-51200000D02*
X189000000Y-51200000D01*
%TO.N,Net-(SW4-Pad2)*%
X130000000Y-30000000D02*
X177727208Y-30000000D01*
X177727208Y-30000000D02*
X194100000Y-46372792D01*
X194100000Y-46372792D02*
X194100000Y-99100000D01*
X194100000Y-99100000D02*
X200200000Y-105200000D01*
X200200000Y-105200000D02*
X208000000Y-105200000D01*
%TO.N,Net-(SW3-Pad2)*%
X130000000Y-28000000D02*
X176363604Y-28000000D01*
X176363604Y-28000000D02*
X194550000Y-46186396D01*
X194550000Y-46186396D02*
X194550000Y-81550000D01*
X194550000Y-81550000D02*
X200200000Y-87200000D01*
X200200000Y-87200000D02*
X208000000Y-87200000D01*
%TO.N,Net-(SW2-Pad2)*%
X130000000Y-27000000D02*
X176000000Y-27000000D01*
X176000000Y-27000000D02*
X195000000Y-46000000D01*
X195000000Y-66000000D02*
X198200000Y-69200000D01*
X195000000Y-46000000D02*
X195000000Y-66000000D01*
X198200000Y-69200000D02*
X208000000Y-69200000D01*
%TO.N,Net-(SW1-Pad2)*%
X130000000Y-26000000D02*
X182800000Y-26000000D01*
X182800000Y-26000000D02*
X208000000Y-51200000D01*
%TO.N,Net-(SW9-Pad2)*%
X124000000Y-35000000D02*
X124000000Y-36454416D01*
X124000000Y-36454416D02*
X133195584Y-45650000D01*
X133195584Y-45650000D02*
X150650000Y-45650000D01*
X150650000Y-45650000D02*
X156200000Y-51200000D01*
X156200000Y-51200000D02*
X170000000Y-51200000D01*
%TO.N,Net-(SW10-Pad2)*%
X124000000Y-33000000D02*
X123000000Y-33000000D01*
X123000000Y-33000000D02*
X122800000Y-33200000D01*
X122800000Y-33200000D02*
X122800000Y-35890812D01*
X122800000Y-35890812D02*
X133009188Y-46100000D01*
X133009188Y-46100000D02*
X150372792Y-46100000D01*
X150372792Y-46100000D02*
X154900000Y-50627208D01*
X154900000Y-50627208D02*
X154900000Y-64900000D01*
X154900000Y-64900000D02*
X159200000Y-69200000D01*
X159200000Y-69200000D02*
X170000000Y-69200000D01*
%TO.N,Net-(SW11-Pad2)*%
X124000000Y-32000000D02*
X123000000Y-32000000D01*
X123000000Y-32000000D02*
X122350000Y-32650000D01*
X122350000Y-36077208D02*
X132822792Y-46550000D01*
X122350000Y-32650000D02*
X122350000Y-36077208D01*
X132822792Y-46550000D02*
X150186396Y-46550000D01*
X150186396Y-46550000D02*
X154450000Y-50813604D01*
X154450000Y-50813604D02*
X154450000Y-79000000D01*
X154450000Y-79000000D02*
X162650000Y-87200000D01*
X162650000Y-87200000D02*
X170000000Y-87200000D01*
%TO.N,Net-(SW12-Pad2)*%
X124000000Y-31000000D02*
X122636396Y-31000000D01*
X122636396Y-31000000D02*
X121900000Y-31736396D01*
X121900000Y-31736396D02*
X121900000Y-36263604D01*
X121900000Y-36263604D02*
X132636396Y-47000000D01*
X159200000Y-105200000D02*
X170000000Y-105200000D01*
X132636396Y-47000000D02*
X150000000Y-47000000D01*
X154000000Y-100000000D02*
X159200000Y-105200000D01*
X150000000Y-47000000D02*
X154000000Y-51000000D01*
X154000000Y-51000000D02*
X154000000Y-100000000D01*
%TO.N,Net-(SW13-Pad2)*%
X124000000Y-30000000D02*
X123000000Y-30000000D01*
X123000000Y-30000000D02*
X121450000Y-31550000D01*
X121450000Y-31550000D02*
X121450000Y-36450000D01*
X121450000Y-36450000D02*
X136200000Y-51200000D01*
X136200000Y-51200000D02*
X151000000Y-51200000D01*
%TO.N,Net-(SW14-Pad2)*%
X124000000Y-28000000D02*
X121000000Y-31000000D01*
X121000000Y-31000000D02*
X121000000Y-36727208D01*
X121000000Y-36727208D02*
X135900000Y-51627208D01*
X135900000Y-51627208D02*
X135900000Y-67000000D01*
X135900000Y-67000000D02*
X138100000Y-69200000D01*
X138100000Y-69200000D02*
X151000000Y-69200000D01*
%TO.N,Net-(SW15-Pad2)*%
X124000000Y-27000000D02*
X123974695Y-27000000D01*
X123974695Y-27000000D02*
X120450000Y-30524695D01*
X120450000Y-30524695D02*
X120450000Y-36813604D01*
X120450000Y-36813604D02*
X135450000Y-51813604D01*
X135450000Y-51813604D02*
X135450000Y-80000000D01*
X135450000Y-80000000D02*
X142650000Y-87200000D01*
X142650000Y-87200000D02*
X151000000Y-87200000D01*
%TO.N,Net-(SW16-Pad2)*%
X124000000Y-26000000D02*
X123974695Y-26000000D01*
X123974695Y-26000000D02*
X120000000Y-29974695D01*
X120000000Y-29974695D02*
X120000000Y-37000000D01*
X120000000Y-37000000D02*
X135000000Y-52000000D01*
X135000000Y-52000000D02*
X135000000Y-95000000D01*
X135000000Y-95000000D02*
X145200000Y-105200000D01*
X145200000Y-105200000D02*
X151000000Y-105200000D01*
%TO.N,Net-(SW17-Pad2)*%
X107000000Y-27000000D02*
X108000000Y-27000000D01*
X108000000Y-27000000D02*
X118450000Y-37450000D01*
X118450000Y-37450000D02*
X118450000Y-48450000D01*
X118450000Y-48450000D02*
X121200000Y-51200000D01*
X121200000Y-51200000D02*
X132000000Y-51200000D01*
%TO.N,Net-(SW18-Pad2)*%
X107000000Y-28000000D02*
X108272792Y-28000000D01*
X108272792Y-28000000D02*
X118000000Y-37727208D01*
X118000000Y-37727208D02*
X118000000Y-65000000D01*
X118000000Y-65000000D02*
X122200000Y-69200000D01*
X122200000Y-69200000D02*
X132000000Y-69200000D01*
%TO.N,Net-(SW19-Pad2)*%
X107000000Y-29000000D02*
X108636396Y-29000000D01*
X122650000Y-87200000D02*
X132000000Y-87200000D01*
X108636396Y-29000000D02*
X117450000Y-37813604D01*
X117450000Y-37813604D02*
X117450000Y-82000000D01*
X117450000Y-82000000D02*
X122650000Y-87200000D01*
%TO.N,Net-(SW20-Pad2)*%
X107000000Y-31000000D02*
X110000000Y-31000000D01*
X110000000Y-31000000D02*
X117000000Y-38000000D01*
X117000000Y-38000000D02*
X117000000Y-102000000D01*
X117000000Y-102000000D02*
X120200000Y-105200000D01*
X120200000Y-105200000D02*
X132000000Y-105200000D01*
%TO.N,Net-(SW21-Pad2)*%
X107000000Y-32000000D02*
X110000000Y-32000000D01*
X110000000Y-32000000D02*
X113000000Y-35000000D01*
X113000000Y-35000000D02*
X113000000Y-51200000D01*
%TO.N,Net-(SW22-Pad2)*%
X107000000Y-33000000D02*
X108000000Y-33000000D01*
X108000000Y-33000000D02*
X111350001Y-36350001D01*
X111350001Y-67550001D02*
X113000000Y-69200000D01*
X111350001Y-36350001D02*
X111350001Y-67550001D01*
%TO.N,Net-(SW23-Pad2)*%
X107000000Y-34000000D02*
X110900001Y-37900001D01*
X110900001Y-37900001D02*
X110900001Y-85100001D01*
X110900001Y-85100001D02*
X113000000Y-87200000D01*
%TO.N,Net-(SW24-Pad2)*%
X113000000Y-105200000D02*
X105099999Y-97299999D01*
X105099999Y-37900001D02*
X107000000Y-36000000D01*
X105099999Y-97299999D02*
X105099999Y-37900001D01*
%TO.N,Net-(SW28-Pad2)*%
X88884745Y-105000000D02*
X89000000Y-105000000D01*
X86099999Y-102215254D02*
X88884745Y-105000000D01*
X86099999Y-46874696D02*
X86099999Y-102215254D01*
X100974695Y-32000000D02*
X86099999Y-46874696D01*
X89000000Y-105000000D02*
X89200000Y-105200000D01*
X89200000Y-105200000D02*
X94000000Y-105200000D01*
%TO.N,Net-(SW27-Pad2)*%
X92125000Y-85325000D02*
X94000000Y-87200000D01*
X92125000Y-42238604D02*
X92125000Y-85325000D01*
X94000000Y-40363604D02*
X92125000Y-42238604D01*
X94000000Y-39974695D02*
X94000000Y-40363604D01*
X100974695Y-33000000D02*
X94000000Y-39974695D01*
X101000000Y-33000000D02*
X100974695Y-33000000D01*
%TO.N,Net-(SW26-Pad2)*%
X101000000Y-34000000D02*
X92575000Y-42425000D01*
X92575000Y-42425000D02*
X92575000Y-67775000D01*
X92575000Y-67775000D02*
X94000000Y-69200000D01*
%TO.N,Net-(SW25-Pad2)*%
X101000000Y-36000000D02*
X94000000Y-43000000D01*
X94000000Y-43000000D02*
X94000000Y-51200000D01*
%TO.N,Net-(SW28-Pad2)*%
X101000000Y-32000000D02*
X100974695Y-32000000D01*
%TO.N,+5V*%
X87912500Y-23000000D02*
X87912500Y-26912500D01*
X87912500Y-26912500D02*
X88000000Y-27000000D01*
X88000000Y-27000000D02*
X88000000Y-29365992D01*
%TO.N,/SDA*%
X86087500Y-23000000D02*
X84075000Y-23000000D01*
X84075000Y-23000000D02*
X82900000Y-24175000D01*
X86825000Y-25750000D02*
X86825000Y-23737500D01*
X86825000Y-23737500D02*
X86087500Y-23000000D01*
%TO.N,/SCK*%
X83825000Y-32737500D02*
X88000000Y-36912500D01*
X83825000Y-25750000D02*
X83825000Y-32737500D01*
%TO.N,/SDA*%
X82900000Y-24175000D02*
X82900000Y-28084008D01*
X83000000Y-33636396D02*
X89528604Y-40165000D01*
X83000000Y-33000000D02*
X83000000Y-33636396D01*
X83350001Y-32649999D02*
X83000000Y-33000000D01*
X83350001Y-28534009D02*
X83350001Y-32649999D01*
X82900000Y-28084008D02*
X83350001Y-28534009D01*
%TO.N,/SCK*%
X88000000Y-37285000D02*
X89715000Y-39000000D01*
X88000000Y-36912500D02*
X88000000Y-37285000D01*
%TO.N,GND*%
X93000000Y-24000000D02*
X91250000Y-25750000D01*
X91250000Y-25750000D02*
X90825000Y-25750000D01*
%TO.N,+5V*%
X93000000Y-35000000D02*
X91925000Y-33925000D01*
X91925000Y-33925000D02*
X91925000Y-32250000D01*
X91925000Y-32250000D02*
X90837500Y-32250000D01*
X90837500Y-32250000D02*
X88000000Y-35087500D01*
X91925000Y-32250000D02*
X90884008Y-32250000D01*
X90884008Y-32250000D02*
X88000000Y-29365992D01*
%TD*%
M02*
