M48
; DRILL file {KiCad (6.0.10)} date Sun 22 Jan 2023 10:35:51 PM PST
; FORMAT={-:-/ absolute / inch / decimal}
; #@! TF.CreationDate,2023-01-22T22:35:51-08:00
; #@! TF.GenerationSoftware,Kicad,Pcbnew,(6.0.10)
; #@! TF.FileFunction,Plated,1,2,PTH
FMAT,2
INCH
; #@! TA.AperFunction,Plated,PTH,ViaDrill
T1C0.0157
; #@! TA.AperFunction,Plated,PTH,ComponentDrill
T2C0.0472
; #@! TA.AperFunction,Plated,PTH,ComponentDrill
T3C0.0630
%
G90
G05
T1
X3.3465Y-1.9291
X3.5433Y-1.7717
X3.927Y-1.4467
X3.927Y-1.703
X3.9764Y-1.4561
X3.977Y-1.6935
X4.027Y-1.4455
X4.027Y-1.7041
X4.077Y-1.4567
X4.0885Y-1.6916
X4.127Y-1.6998
X4.1339Y-1.4567
X4.1732Y-1.4567
X4.177Y-1.6967
X4.227Y-1.4567
X4.227Y-1.6929
X4.2738Y-1.696
X4.2913Y-1.4567
X5.6693Y-1.5748
X6.4961Y-1.703
X6.5004Y-1.4667
X6.5504Y-1.4561
X6.5504Y-1.6923
X6.6004Y-1.4567
X6.6004Y-1.6817
X6.6504Y-1.4535
X6.6504Y-1.6754
X6.7004Y-1.4567
X6.7004Y-1.686
X6.7504Y-1.4604
X6.7504Y-1.6892
X6.8004Y-1.4711
X6.8004Y-1.6785
X6.8504Y-1.4711
X6.8504Y-1.6929
T2
X3.0618Y-6.4091
X3.1909Y-6.5791
X3.3839Y-5.1138
X3.5039Y-1.9331
X3.5039Y-2.6417
X3.5039Y-3.3504
X3.5039Y-4.0591
X3.513Y-5.2838
X3.7008Y-2.0157
X3.7008Y-2.7244
X3.7008Y-3.4331
X3.7008Y-4.1417
X3.935Y-5.665
X4.0642Y-5.835
X4.252Y-1.9331
X4.252Y-2.6417
X4.252Y-3.3504
X4.252Y-4.0591
X4.4488Y-2.0157
X4.4488Y-2.7244
X4.4488Y-3.4331
X4.4488Y-4.1417
X4.5256Y-6.0587
X4.6547Y-6.2287
X5.0Y-1.9331
X5.0Y-2.6417
X5.0Y-3.3504
X5.0Y-4.0591
X5.1969Y-2.0157
X5.1969Y-2.7244
X5.1969Y-3.4331
X5.1969Y-4.1417
X5.748Y-1.9331
X5.748Y-2.6417
X5.748Y-3.3504
X5.748Y-4.0591
X5.9449Y-2.0157
X5.9449Y-2.7244
X5.9449Y-3.4331
X5.9449Y-4.1417
X6.4961Y-1.9331
X6.4961Y-2.6417
X6.4961Y-3.3504
X6.4961Y-4.0591
X6.6929Y-2.0157
X6.6929Y-2.7244
X6.6929Y-3.4331
X6.6929Y-4.1417
X7.2441Y-1.9331
X7.2441Y-2.6417
X7.2441Y-3.3504
X7.2441Y-4.0591
X7.4409Y-2.0157
X7.4409Y-2.7244
X7.4409Y-3.4331
X7.4409Y-4.1417
X7.9921Y-1.9331
X7.9921Y-2.6417
X7.9921Y-3.3504
X7.9921Y-4.0591
X8.189Y-2.0157
X8.189Y-2.7244
X8.189Y-3.4331
X8.189Y-4.1417
T3
X2.9959Y-5.3921
X3.3071Y-2.3681
X3.3071Y-3.0768
X3.3071Y-3.7854
X3.3071Y-4.4941
X3.547Y-5.9433
X3.5789Y-6.3008
X4.0551Y-2.3681
X4.0551Y-3.0768
X4.0551Y-3.7854
X4.0551Y-4.4941
X4.1376Y-6.337
X4.8031Y-2.3681
X4.8031Y-3.0768
X4.8031Y-3.7854
X4.8031Y-4.4941
X5.5512Y-2.3681
X5.5512Y-3.0768
X5.5512Y-3.7854
X5.5512Y-4.4941
X6.2992Y-2.3681
X6.2992Y-3.0768
X6.2992Y-3.7854
X6.2992Y-4.4941
X7.0472Y-2.3681
X7.0472Y-3.0768
X7.0472Y-3.7854
X7.0472Y-4.4941
X7.7953Y-2.3681
X7.7953Y-3.0768
X7.7953Y-3.7854
X7.7953Y-4.4941
T0
M30
