%TF.GenerationSoftware,KiCad,Pcbnew,(6.0.9)*%
%TF.CreationDate,2022-12-02T11:24:13-08:00*%
%TF.ProjectId,keyboard_right,6b657962-6f61-4726-945f-72696768742e,rev?*%
%TF.SameCoordinates,Original*%
%TF.FileFunction,Paste,Bot*%
%TF.FilePolarity,Positive*%
%FSLAX46Y46*%
G04 Gerber Fmt 4.6, Leading zero omitted, Abs format (unit mm)*
G04 Created by KiCad (PCBNEW (6.0.9)) date 2022-12-02 11:24:13*
%MOMM*%
%LPD*%
G01*
G04 APERTURE LIST*
G04 Aperture macros list*
%AMRoundRect*
0 Rectangle with rounded corners*
0 $1 Rounding radius*
0 $2 $3 $4 $5 $6 $7 $8 $9 X,Y pos of 4 corners*
0 Add a 4 corners polygon primitive as box body*
4,1,4,$2,$3,$4,$5,$6,$7,$8,$9,$2,$3,0*
0 Add four circle primitives for the rounded corners*
1,1,$1+$1,$2,$3*
1,1,$1+$1,$4,$5*
1,1,$1+$1,$6,$7*
1,1,$1+$1,$8,$9*
0 Add four rect primitives between the rounded corners*
20,1,$1+$1,$2,$3,$4,$5,0*
20,1,$1+$1,$4,$5,$6,$7,0*
20,1,$1+$1,$6,$7,$8,$9,0*
20,1,$1+$1,$8,$9,$2,$3,0*%
G04 Aperture macros list end*
%ADD10R,2.000000X0.600000*%
%ADD11RoundRect,0.237500X0.237500X-0.250000X0.237500X0.250000X-0.237500X0.250000X-0.237500X-0.250000X0*%
G04 APERTURE END LIST*
D10*
%TO.C,U2*%
X108497500Y-26745000D03*
X108497500Y-28015000D03*
X108497500Y-29285000D03*
X108497500Y-30555000D03*
X108497500Y-31825000D03*
X108497500Y-33095000D03*
X108497500Y-34365000D03*
X108497500Y-35635000D03*
X108497500Y-36905000D03*
X108497500Y-38175000D03*
X108497500Y-39445000D03*
X108497500Y-40715000D03*
X108497500Y-41985000D03*
X108497500Y-43255000D03*
X99097500Y-43255000D03*
X99097500Y-41985000D03*
X99097500Y-40715000D03*
X99097500Y-39445000D03*
X99097500Y-38175000D03*
X99097500Y-36905000D03*
X99097500Y-35635000D03*
X99097500Y-34365000D03*
X99097500Y-33095000D03*
X99097500Y-31825000D03*
X99097500Y-30555000D03*
X99097500Y-29285000D03*
X99097500Y-28015000D03*
X99097500Y-26745000D03*
%TD*%
%TO.C,U1*%
X131497500Y-25745000D03*
X131497500Y-27015000D03*
X131497500Y-28285000D03*
X131497500Y-29555000D03*
X131497500Y-30825000D03*
X131497500Y-32095000D03*
X131497500Y-33365000D03*
X131497500Y-34635000D03*
X131497500Y-35905000D03*
X131497500Y-37175000D03*
X131497500Y-38445000D03*
X131497500Y-39715000D03*
X131497500Y-40985000D03*
X131497500Y-42255000D03*
X122097500Y-42255000D03*
X122097500Y-40985000D03*
X122097500Y-39715000D03*
X122097500Y-38445000D03*
X122097500Y-37175000D03*
X122097500Y-35905000D03*
X122097500Y-34635000D03*
X122097500Y-33365000D03*
X122097500Y-32095000D03*
X122097500Y-30825000D03*
X122097500Y-29555000D03*
X122097500Y-28285000D03*
X122097500Y-27015000D03*
X122097500Y-25745000D03*
%TD*%
D11*
%TO.C,R4*%
X96797500Y-38912500D03*
X96797500Y-37087500D03*
%TD*%
%TO.C,R3*%
X119797500Y-37912500D03*
X119797500Y-36087500D03*
%TD*%
M02*
