%TF.GenerationSoftware,KiCad,Pcbnew,(6.0.9)*%
%TF.CreationDate,2022-12-02T11:24:13-08:00*%
%TF.ProjectId,keyboard_right,6b657962-6f61-4726-945f-72696768742e,rev?*%
%TF.SameCoordinates,Original*%
%TF.FileFunction,Copper,L2,Bot*%
%TF.FilePolarity,Positive*%
%FSLAX46Y46*%
G04 Gerber Fmt 4.6, Leading zero omitted, Abs format (unit mm)*
G04 Created by KiCad (PCBNEW (6.0.9)) date 2022-12-02 11:24:13*
%MOMM*%
%LPD*%
G01*
G04 APERTURE LIST*
G04 Aperture macros list*
%AMRoundRect*
0 Rectangle with rounded corners*
0 $1 Rounding radius*
0 $2 $3 $4 $5 $6 $7 $8 $9 X,Y pos of 4 corners*
0 Add a 4 corners polygon primitive as box body*
4,1,4,$2,$3,$4,$5,$6,$7,$8,$9,$2,$3,0*
0 Add four circle primitives for the rounded corners*
1,1,$1+$1,$2,$3*
1,1,$1+$1,$4,$5*
1,1,$1+$1,$6,$7*
1,1,$1+$1,$8,$9*
0 Add four rect primitives between the rounded corners*
20,1,$1+$1,$2,$3,$4,$5,0*
20,1,$1+$1,$4,$5,$6,$7,0*
20,1,$1+$1,$6,$7,$8,$9,0*
20,1,$1+$1,$8,$9,$2,$3,0*%
G04 Aperture macros list end*
%TA.AperFunction,ComponentPad*%
%ADD10C,2.200000*%
%TD*%
%TA.AperFunction,ComponentPad*%
%ADD11C,2.600000*%
%TD*%
%TA.AperFunction,SMDPad,CuDef*%
%ADD12R,2.000000X0.600000*%
%TD*%
%TA.AperFunction,SMDPad,CuDef*%
%ADD13RoundRect,0.237500X0.237500X-0.250000X0.237500X0.250000X-0.237500X0.250000X-0.237500X-0.250000X0*%
%TD*%
%TA.AperFunction,ViaPad*%
%ADD14C,0.800000*%
%TD*%
%TA.AperFunction,Conductor*%
%ADD15C,0.250000*%
%TD*%
G04 APERTURE END LIST*
D10*
%TO.P,SW32,1,1*%
%TO.N,+5V*%
X95950000Y-133890450D03*
%TO.P,SW32,2,2*%
%TO.N,Net-(SW32-Pad2)*%
X99230127Y-138209103D03*
D11*
%TO.P,SW32,*%
%TO.N,*%
X86094873Y-140960031D03*
%TD*%
D10*
%TO.P,SW30,1,1*%
%TO.N,+5V*%
X62050000Y-147109550D03*
%TO.P,SW30,2,2*%
%TO.N,Net-(SW30-Pad2)*%
X58769873Y-142790897D03*
D11*
%TO.P,SW30,*%
%TO.N,*%
X71905127Y-140039969D03*
%TD*%
D10*
%TO.P,SW29,1,1*%
%TO.N,+5V*%
X61050000Y-120109550D03*
%TO.P,SW29,2,2*%
%TO.N,Net-(SW29-Pad2)*%
X57769873Y-115790897D03*
D11*
%TO.P,SW29,*%
%TO.N,*%
X70905127Y-113039969D03*
%TD*%
D10*
%TO.P,SW4,1,1*%
%TO.N,+5V*%
X203000000Y-103100000D03*
%TO.P,SW4,2,2*%
%TO.N,Net-(SW4-Pad2)*%
X208000000Y-105200000D03*
D11*
%TO.P,SW4,*%
%TO.N,*%
X198000000Y-114150000D03*
%TD*%
D10*
%TO.P,SW2,1,1*%
%TO.N,+5V*%
X203000000Y-67100000D03*
%TO.P,SW2,2,2*%
%TO.N,Net-(SW2-Pad2)*%
X208000000Y-69200000D03*
D11*
%TO.P,SW2,*%
%TO.N,*%
X198000000Y-78150000D03*
%TD*%
D10*
%TO.P,SW1,1,1*%
%TO.N,+5V*%
X203000000Y-49100000D03*
%TO.P,SW1,2,2*%
%TO.N,Net-(SW1-Pad2)*%
X208000000Y-51200000D03*
D11*
%TO.P,SW1,*%
%TO.N,*%
X198000000Y-60150000D03*
%TD*%
D10*
%TO.P,SW16,1,1*%
%TO.N,+5V*%
X146000000Y-103100000D03*
%TO.P,SW16,2,2*%
%TO.N,Net-(SW16-Pad2)*%
X151000000Y-105200000D03*
D11*
%TO.P,SW16,*%
%TO.N,*%
X141000000Y-114150000D03*
%TD*%
D10*
%TO.P,SW14,1,1*%
%TO.N,+5V*%
X146000000Y-67100000D03*
%TO.P,SW14,2,2*%
%TO.N,Net-(SW14-Pad2)*%
X151000000Y-69200000D03*
D11*
%TO.P,SW14,*%
%TO.N,*%
X141000000Y-78150000D03*
%TD*%
D10*
%TO.P,SW13,1,1*%
%TO.N,+5V*%
X146000000Y-49100000D03*
%TO.P,SW13,2,2*%
%TO.N,Net-(SW13-Pad2)*%
X151000000Y-51200000D03*
D11*
%TO.P,SW13,*%
%TO.N,*%
X141000000Y-60150000D03*
%TD*%
D12*
%TO.P,U2,1,GPB0*%
%TO.N,Net-(SW17-Pad2)*%
X108497500Y-26745000D03*
%TO.P,U2,2,GPB1*%
%TO.N,Net-(SW18-Pad2)*%
X108497500Y-28015000D03*
%TO.P,U2,3,GPB2*%
%TO.N,Net-(SW19-Pad2)*%
X108497500Y-29285000D03*
%TO.P,U2,4,GPB3*%
%TO.N,Net-(SW20-Pad2)*%
X108497500Y-30555000D03*
%TO.P,U2,5,GPB4*%
%TO.N,Net-(SW21-Pad2)*%
X108497500Y-31825000D03*
%TO.P,U2,6,GPB5*%
%TO.N,Net-(SW22-Pad2)*%
X108497500Y-33095000D03*
%TO.P,U2,7,GPB6*%
%TO.N,Net-(SW23-Pad2)*%
X108497500Y-34365000D03*
%TO.P,U2,8,GPB7*%
%TO.N,Net-(SW24-Pad2)*%
X108497500Y-35635000D03*
%TO.P,U2,9,VDD*%
%TO.N,+5V*%
X108497500Y-36905000D03*
%TO.P,U2,10,VSS*%
%TO.N,GND*%
X108497500Y-38175000D03*
%TO.P,U2,11,NC*%
%TO.N,unconnected-(U2-Pad11)*%
X108497500Y-39445000D03*
%TO.P,U2,12,SCK*%
%TO.N,/SCK*%
X108497500Y-40715000D03*
%TO.P,U2,13,SDA*%
%TO.N,/SDA*%
X108497500Y-41985000D03*
%TO.P,U2,14,NC*%
%TO.N,unconnected-(U2-Pad14)*%
X108497500Y-43255000D03*
%TO.P,U2,15,A0*%
%TO.N,+5V*%
X99097500Y-43255000D03*
%TO.P,U2,16,A1*%
X99097500Y-41985000D03*
%TO.P,U2,17,A2*%
%TO.N,GND*%
X99097500Y-40715000D03*
%TO.P,U2,18,~{RESET}*%
%TO.N,/Reset 2*%
X99097500Y-39445000D03*
%TO.P,U2,19,INTB*%
%TO.N,unconnected-(U2-Pad19)*%
X99097500Y-38175000D03*
%TO.P,U2,20,INTA*%
%TO.N,unconnected-(U2-Pad20)*%
X99097500Y-36905000D03*
%TO.P,U2,21,GPA0*%
%TO.N,Net-(SW25-Pad2)*%
X99097500Y-35635000D03*
%TO.P,U2,22,GPA1*%
%TO.N,Net-(SW26-Pad2)*%
X99097500Y-34365000D03*
%TO.P,U2,23,GPA2*%
%TO.N,Net-(SW27-Pad2)*%
X99097500Y-33095000D03*
%TO.P,U2,24,GPA3*%
%TO.N,Net-(SW28-Pad2)*%
X99097500Y-31825000D03*
%TO.P,U2,25,GPA4*%
%TO.N,Net-(SW29-Pad2)*%
X99097500Y-30555000D03*
%TO.P,U2,26,GPA5*%
%TO.N,Net-(SW30-Pad2)*%
X99097500Y-29285000D03*
%TO.P,U2,27,GPA6*%
%TO.N,Net-(SW31-Pad2)*%
X99097500Y-28015000D03*
%TO.P,U2,28,GPA7*%
%TO.N,Net-(SW32-Pad2)*%
X99097500Y-26745000D03*
%TD*%
%TO.P,U1,1,GPB0*%
%TO.N,Net-(SW1-Pad2)*%
X131497500Y-25745000D03*
%TO.P,U1,2,GPB1*%
%TO.N,Net-(SW2-Pad2)*%
X131497500Y-27015000D03*
%TO.P,U1,3,GPB2*%
%TO.N,Net-(SW3-Pad2)*%
X131497500Y-28285000D03*
%TO.P,U1,4,GPB3*%
%TO.N,Net-(SW4-Pad2)*%
X131497500Y-29555000D03*
%TO.P,U1,5,GPB4*%
%TO.N,Net-(SW5-Pad2)*%
X131497500Y-30825000D03*
%TO.P,U1,6,GPB5*%
%TO.N,Net-(SW6-Pad2)*%
X131497500Y-32095000D03*
%TO.P,U1,7,GPB6*%
%TO.N,Net-(SW7-Pad2)*%
X131497500Y-33365000D03*
%TO.P,U1,8,GPB7*%
%TO.N,Net-(SW8-Pad2)*%
X131497500Y-34635000D03*
%TO.P,U1,9,VDD*%
%TO.N,+5V*%
X131497500Y-35905000D03*
%TO.P,U1,10,VSS*%
%TO.N,GND*%
X131497500Y-37175000D03*
%TO.P,U1,11,NC*%
%TO.N,unconnected-(U1-Pad11)*%
X131497500Y-38445000D03*
%TO.P,U1,12,SCK*%
%TO.N,/SCK*%
X131497500Y-39715000D03*
%TO.P,U1,13,SDA*%
%TO.N,/SDA*%
X131497500Y-40985000D03*
%TO.P,U1,14,NC*%
%TO.N,unconnected-(U1-Pad14)*%
X131497500Y-42255000D03*
%TO.P,U1,15,A0*%
%TO.N,GND*%
X122097500Y-42255000D03*
%TO.P,U1,16,A1*%
%TO.N,+5V*%
X122097500Y-40985000D03*
%TO.P,U1,17,A2*%
%TO.N,GND*%
X122097500Y-39715000D03*
%TO.P,U1,18,~{RESET}*%
%TO.N,/Reset 1*%
X122097500Y-38445000D03*
%TO.P,U1,19,INTB*%
%TO.N,unconnected-(U1-Pad19)*%
X122097500Y-37175000D03*
%TO.P,U1,20,INTA*%
%TO.N,unconnected-(U1-Pad20)*%
X122097500Y-35905000D03*
%TO.P,U1,21,GPA0*%
%TO.N,Net-(SW9-Pad2)*%
X122097500Y-34635000D03*
%TO.P,U1,22,GPA1*%
%TO.N,Net-(SW10-Pad2)*%
X122097500Y-33365000D03*
%TO.P,U1,23,GPA2*%
%TO.N,Net-(SW11-Pad2)*%
X122097500Y-32095000D03*
%TO.P,U1,24,GPA3*%
%TO.N,Net-(SW12-Pad2)*%
X122097500Y-30825000D03*
%TO.P,U1,25,GPA4*%
%TO.N,Net-(SW13-Pad2)*%
X122097500Y-29555000D03*
%TO.P,U1,26,GPA5*%
%TO.N,Net-(SW14-Pad2)*%
X122097500Y-28285000D03*
%TO.P,U1,27,GPA6*%
%TO.N,Net-(SW15-Pad2)*%
X122097500Y-27015000D03*
%TO.P,U1,28,GPA7*%
%TO.N,Net-(SW16-Pad2)*%
X122097500Y-25745000D03*
%TD*%
D10*
%TO.P,SW31,1,1*%
%TO.N,+5V*%
X80950000Y-123890450D03*
%TO.P,SW31,2,2*%
%TO.N,Net-(SW31-Pad2)*%
X84230127Y-128209103D03*
D11*
%TO.P,SW31,*%
%TO.N,*%
X71094873Y-130960031D03*
%TD*%
D10*
%TO.P,SW28,1,1*%
%TO.N,+5V*%
X89000000Y-103100000D03*
%TO.P,SW28,2,2*%
%TO.N,Net-(SW28-Pad2)*%
X94000000Y-105200000D03*
D11*
%TO.P,SW28,*%
%TO.N,*%
X84000000Y-114150000D03*
%TD*%
D10*
%TO.P,SW27,1,1*%
%TO.N,+5V*%
X89000000Y-85100000D03*
%TO.P,SW27,2,2*%
%TO.N,Net-(SW27-Pad2)*%
X94000000Y-87200000D03*
D11*
%TO.P,SW27,*%
%TO.N,*%
X84000000Y-96150000D03*
%TD*%
D10*
%TO.P,SW26,1,1*%
%TO.N,+5V*%
X89000000Y-67100000D03*
%TO.P,SW26,2,2*%
%TO.N,Net-(SW26-Pad2)*%
X94000000Y-69200000D03*
D11*
%TO.P,SW26,*%
%TO.N,*%
X84000000Y-78150000D03*
%TD*%
D10*
%TO.P,SW25,1,1*%
%TO.N,+5V*%
X89000000Y-49100000D03*
%TO.P,SW25,2,2*%
%TO.N,Net-(SW25-Pad2)*%
X94000000Y-51200000D03*
D11*
%TO.P,SW25,*%
%TO.N,*%
X84000000Y-60150000D03*
%TD*%
D10*
%TO.P,SW24,1,1*%
%TO.N,+5V*%
X108000000Y-103100000D03*
%TO.P,SW24,2,2*%
%TO.N,Net-(SW24-Pad2)*%
X113000000Y-105200000D03*
D11*
%TO.P,SW24,*%
%TO.N,*%
X103000000Y-114150000D03*
%TD*%
D10*
%TO.P,SW23,1,1*%
%TO.N,+5V*%
X108000000Y-85100000D03*
%TO.P,SW23,2,2*%
%TO.N,Net-(SW23-Pad2)*%
X113000000Y-87200000D03*
D11*
%TO.P,SW23,*%
%TO.N,*%
X103000000Y-96150000D03*
%TD*%
D10*
%TO.P,SW22,1,1*%
%TO.N,+5V*%
X108000000Y-67100000D03*
%TO.P,SW22,2,2*%
%TO.N,Net-(SW22-Pad2)*%
X113000000Y-69200000D03*
D11*
%TO.P,SW22,*%
%TO.N,*%
X103000000Y-78150000D03*
%TD*%
D10*
%TO.P,SW21,1,1*%
%TO.N,+5V*%
X108000000Y-49100000D03*
%TO.P,SW21,2,2*%
%TO.N,Net-(SW21-Pad2)*%
X113000000Y-51200000D03*
D11*
%TO.P,SW21,*%
%TO.N,*%
X103000000Y-60150000D03*
%TD*%
D10*
%TO.P,SW20,1,1*%
%TO.N,+5V*%
X127000000Y-103100000D03*
%TO.P,SW20,2,2*%
%TO.N,Net-(SW20-Pad2)*%
X132000000Y-105200000D03*
D11*
%TO.P,SW20,*%
%TO.N,*%
X122000000Y-114150000D03*
%TD*%
D10*
%TO.P,SW19,1,1*%
%TO.N,+5V*%
X127000000Y-85100000D03*
%TO.P,SW19,2,2*%
%TO.N,Net-(SW19-Pad2)*%
X132000000Y-87200000D03*
D11*
%TO.P,SW19,*%
%TO.N,*%
X122000000Y-96150000D03*
%TD*%
D10*
%TO.P,SW18,1,1*%
%TO.N,+5V*%
X127000000Y-67100000D03*
%TO.P,SW18,2,2*%
%TO.N,Net-(SW18-Pad2)*%
X132000000Y-69200000D03*
D11*
%TO.P,SW18,*%
%TO.N,*%
X122000000Y-78150000D03*
%TD*%
D10*
%TO.P,SW17,1,1*%
%TO.N,+5V*%
X127000000Y-49100000D03*
%TO.P,SW17,2,2*%
%TO.N,Net-(SW17-Pad2)*%
X132000000Y-51200000D03*
D11*
%TO.P,SW17,*%
%TO.N,*%
X122000000Y-60150000D03*
%TD*%
D10*
%TO.P,SW15,1,1*%
%TO.N,+5V*%
X146000000Y-85100000D03*
%TO.P,SW15,2,2*%
%TO.N,Net-(SW15-Pad2)*%
X151000000Y-87200000D03*
D11*
%TO.P,SW15,*%
%TO.N,*%
X141000000Y-96150000D03*
%TD*%
D10*
%TO.P,SW12,1,1*%
%TO.N,+5V*%
X165000000Y-103100000D03*
%TO.P,SW12,2,2*%
%TO.N,Net-(SW12-Pad2)*%
X170000000Y-105200000D03*
D11*
%TO.P,SW12,*%
%TO.N,*%
X160000000Y-114150000D03*
%TD*%
D10*
%TO.P,SW11,1,1*%
%TO.N,+5V*%
X165000000Y-85100000D03*
%TO.P,SW11,2,2*%
%TO.N,Net-(SW11-Pad2)*%
X170000000Y-87200000D03*
D11*
%TO.P,SW11,*%
%TO.N,*%
X160000000Y-96150000D03*
%TD*%
D10*
%TO.P,SW10,1,1*%
%TO.N,+5V*%
X165000000Y-67100000D03*
%TO.P,SW10,2,2*%
%TO.N,Net-(SW10-Pad2)*%
X170000000Y-69200000D03*
D11*
%TO.P,SW10,*%
%TO.N,*%
X160000000Y-78150000D03*
%TD*%
D10*
%TO.P,SW9,1,1*%
%TO.N,+5V*%
X165000000Y-49100000D03*
%TO.P,SW9,2,2*%
%TO.N,Net-(SW9-Pad2)*%
X170000000Y-51200000D03*
D11*
%TO.P,SW9,*%
%TO.N,*%
X160000000Y-60150000D03*
%TD*%
D10*
%TO.P,SW8,1,1*%
%TO.N,+5V*%
X184000000Y-103100000D03*
%TO.P,SW8,2,2*%
%TO.N,Net-(SW8-Pad2)*%
X189000000Y-105200000D03*
D11*
%TO.P,SW8,*%
%TO.N,*%
X179000000Y-114150000D03*
%TD*%
D10*
%TO.P,SW7,1,1*%
%TO.N,+5V*%
X184000000Y-85100000D03*
%TO.P,SW7,2,2*%
%TO.N,Net-(SW7-Pad2)*%
X189000000Y-87200000D03*
D11*
%TO.P,SW7,*%
%TO.N,*%
X179000000Y-96150000D03*
%TD*%
D10*
%TO.P,SW6,1,1*%
%TO.N,+5V*%
X184000000Y-67100000D03*
%TO.P,SW6,2,2*%
%TO.N,Net-(SW6-Pad2)*%
X189000000Y-69200000D03*
D11*
%TO.P,SW6,*%
%TO.N,*%
X179000000Y-78150000D03*
%TD*%
D10*
%TO.P,SW5,1,1*%
%TO.N,+5V*%
X184000000Y-49100000D03*
%TO.P,SW5,2,2*%
%TO.N,Net-(SW5-Pad2)*%
X189000000Y-51200000D03*
D11*
%TO.P,SW5,*%
%TO.N,*%
X179000000Y-60150000D03*
%TD*%
D10*
%TO.P,SW3,1,1*%
%TO.N,+5V*%
X203000000Y-85100000D03*
%TO.P,SW3,2,2*%
%TO.N,Net-(SW3-Pad2)*%
X208000000Y-87200000D03*
D11*
%TO.P,SW3,*%
%TO.N,*%
X198000000Y-96150000D03*
%TD*%
D13*
%TO.P,R4,1*%
%TO.N,/Reset 2*%
X96797500Y-38912500D03*
%TO.P,R4,2*%
%TO.N,+5V*%
X96797500Y-37087500D03*
%TD*%
%TO.P,R3,1*%
%TO.N,/Reset 1*%
X119797500Y-37912500D03*
%TO.P,R3,2*%
%TO.N,+5V*%
X119797500Y-36087500D03*
%TD*%
D14*
%TO.N,Net-(SW32-Pad2)*%
X101000000Y-27000000D03*
%TO.N,Net-(SW31-Pad2)*%
X101000000Y-28000000D03*
%TO.N,Net-(SW29-Pad2)*%
X101000000Y-31000000D03*
%TO.N,Net-(SW16-Pad2)*%
X124000000Y-26000000D03*
%TO.N,Net-(SW15-Pad2)*%
X124000000Y-27000000D03*
%TO.N,Net-(SW14-Pad2)*%
X124000000Y-28000000D03*
%TO.N,Net-(SW13-Pad2)*%
X124000000Y-30000000D03*
%TO.N,Net-(SW12-Pad2)*%
X124000000Y-31000000D03*
%TO.N,Net-(SW11-Pad2)*%
X124000000Y-32000000D03*
%TO.N,Net-(SW10-Pad2)*%
X124000000Y-33000000D03*
%TO.N,Net-(SW9-Pad2)*%
X124000000Y-35000000D03*
%TO.N,Net-(SW8-Pad2)*%
X130000000Y-34000000D03*
%TO.N,Net-(SW7-Pad2)*%
X130000000Y-33000000D03*
%TO.N,Net-(SW6-Pad2)*%
X130000000Y-32000000D03*
%TO.N,Net-(SW5-Pad2)*%
X130000000Y-31000000D03*
%TO.N,Net-(SW4-Pad2)*%
X130000000Y-30000000D03*
%TO.N,Net-(SW3-Pad2)*%
X130000000Y-28000000D03*
%TO.N,Net-(SW2-Pad2)*%
X130000000Y-27000000D03*
%TO.N,Net-(SW1-Pad2)*%
X130000000Y-26000000D03*
%TO.N,Net-(SW17-Pad2)*%
X107000000Y-27000000D03*
%TO.N,Net-(SW18-Pad2)*%
X107000000Y-28000000D03*
%TO.N,Net-(SW19-Pad2)*%
X107000000Y-29000000D03*
%TO.N,Net-(SW20-Pad2)*%
X107000000Y-31000000D03*
%TO.N,Net-(SW21-Pad2)*%
X107000000Y-32000000D03*
%TO.N,Net-(SW22-Pad2)*%
X107000000Y-33000000D03*
%TO.N,Net-(SW23-Pad2)*%
X107000000Y-34000000D03*
%TO.N,Net-(SW24-Pad2)*%
X107000000Y-36000000D03*
%TO.N,Net-(SW30-Pad2)*%
X101000000Y-29000000D03*
%TO.N,Net-(SW28-Pad2)*%
X101000000Y-32000000D03*
%TO.N,Net-(SW27-Pad2)*%
X101000000Y-33000000D03*
%TO.N,Net-(SW26-Pad2)*%
X101000000Y-34000000D03*
%TO.N,Net-(SW25-Pad2)*%
X101000000Y-36000000D03*
%TO.N,/SDA*%
X89528604Y-40165000D03*
%TO.N,/SCK*%
X89715000Y-39000000D03*
%TO.N,+5V*%
X93000000Y-35000000D03*
%TO.N,GND*%
X93000000Y-24000000D03*
%TD*%
D15*
%TO.N,Net-(SW31-Pad2)*%
X101000000Y-28000000D02*
X99112500Y-28000000D01*
X99112500Y-28000000D02*
X99097500Y-28015000D01*
%TO.N,Net-(SW29-Pad2)*%
X100555000Y-30555000D02*
X101000000Y-31000000D01*
X99097500Y-30555000D02*
X100555000Y-30555000D01*
%TO.N,+5V*%
X80950000Y-123890450D02*
X79008329Y-123890450D01*
X79008329Y-123890450D02*
X73000000Y-129898779D01*
X67900001Y-141099999D02*
X67900001Y-144099999D01*
X73000000Y-129898779D02*
X73000000Y-136000000D01*
X73000000Y-136000000D02*
X67900001Y-141099999D01*
X67900001Y-144099999D02*
X64890450Y-147109550D01*
X64890450Y-147109550D02*
X62050000Y-147109550D01*
X80950000Y-123890450D02*
X85950000Y-123890450D01*
X85950000Y-123890450D02*
X95950000Y-133890450D01*
X80950000Y-123890450D02*
X64830900Y-123890450D01*
X64830900Y-123890450D02*
X61050000Y-120109550D01*
X89000000Y-103100000D02*
X86099999Y-106000001D01*
X86099999Y-106000001D02*
X86099999Y-118740451D01*
X86099999Y-118740451D02*
X80950000Y-123890450D01*
X184000000Y-103100000D02*
X203000000Y-103100000D01*
X165000000Y-103100000D02*
X184000000Y-103100000D01*
X146000000Y-103100000D02*
X165000000Y-103100000D01*
X127000000Y-103100000D02*
X146000000Y-103100000D01*
X108000000Y-103100000D02*
X127000000Y-103100000D01*
X89000000Y-103100000D02*
X108000000Y-103100000D01*
X108000000Y-85100000D02*
X89000000Y-85100000D01*
X127000000Y-85100000D02*
X108000000Y-85100000D01*
X146000000Y-85100000D02*
X127000000Y-85100000D01*
X184000000Y-85100000D02*
X203000000Y-85100000D01*
X165000000Y-85100000D02*
X184000000Y-85100000D01*
X146000000Y-85100000D02*
X165000000Y-85100000D01*
X184000000Y-67100000D02*
X203000000Y-67100000D01*
X165000000Y-67100000D02*
X184000000Y-67100000D01*
X146000000Y-67100000D02*
X165000000Y-67100000D01*
X108000000Y-67100000D02*
X89000000Y-67100000D01*
X127000000Y-67100000D02*
X108000000Y-67100000D01*
X146000000Y-67100000D02*
X127000000Y-67100000D01*
X146000000Y-85100000D02*
X143099999Y-88000001D01*
X143099999Y-88000001D02*
X143099999Y-100199999D01*
X143099999Y-100199999D02*
X146000000Y-103100000D01*
X146000000Y-67100000D02*
X143099999Y-70000001D01*
X143099999Y-70000001D02*
X143099999Y-82199999D01*
X143099999Y-82199999D02*
X146000000Y-85100000D01*
X146000000Y-49100000D02*
X143099999Y-52000001D01*
X143099999Y-52000001D02*
X143099999Y-64199999D01*
X143099999Y-64199999D02*
X146000000Y-67100000D01*
X203000000Y-49100000D02*
X184000000Y-49100000D01*
X184000000Y-49100000D02*
X165000000Y-49100000D01*
X165000000Y-49100000D02*
X146000000Y-49100000D01*
X108000000Y-49100000D02*
X127000000Y-49100000D01*
X89000000Y-49100000D02*
X108000000Y-49100000D01*
X146000000Y-49100000D02*
X127000000Y-49100000D01*
X137892500Y-38892500D02*
X146000000Y-47000000D01*
X133000000Y-38892500D02*
X137892500Y-38892500D01*
X146000000Y-47000000D02*
X146000000Y-49100000D01*
%TO.N,GND*%
X115202500Y-24000000D02*
X126000000Y-24000000D01*
X126000000Y-24000000D02*
X127797500Y-25797500D01*
X105797500Y-24000000D02*
X115202500Y-24000000D01*
X115202500Y-24000000D02*
X118547500Y-27345000D01*
%TO.N,+5V*%
X131497500Y-35905000D02*
X132905000Y-35905000D01*
X132905000Y-35905000D02*
X133000000Y-36000000D01*
X123985000Y-40985000D02*
X128277500Y-40985000D01*
X128277500Y-40985000D02*
X130192500Y-39070000D01*
X130192500Y-39070000D02*
X132822500Y-39070000D01*
X132822500Y-39070000D02*
X133000000Y-38892500D01*
X133000000Y-38892500D02*
X133000000Y-36000000D01*
%TO.N,Net-(SW1-Pad2)*%
X130255000Y-25745000D02*
X130000000Y-26000000D01*
X131497500Y-25745000D02*
X130255000Y-25745000D01*
%TO.N,Net-(SW2-Pad2)*%
X130015000Y-27015000D02*
X130000000Y-27000000D01*
X131497500Y-27015000D02*
X130015000Y-27015000D01*
%TO.N,Net-(SW3-Pad2)*%
X130285000Y-28285000D02*
X130000000Y-28000000D01*
X131497500Y-28285000D02*
X130285000Y-28285000D01*
%TO.N,Net-(SW4-Pad2)*%
X130445000Y-29555000D02*
X130000000Y-30000000D01*
X131497500Y-29555000D02*
X130445000Y-29555000D01*
%TO.N,Net-(SW5-Pad2)*%
X130175000Y-30825000D02*
X130000000Y-31000000D01*
X131497500Y-30825000D02*
X130175000Y-30825000D01*
%TO.N,Net-(SW6-Pad2)*%
X130095000Y-32095000D02*
X130000000Y-32000000D01*
X131497500Y-32095000D02*
X130095000Y-32095000D01*
%TO.N,Net-(SW7-Pad2)*%
X130365000Y-33365000D02*
X130000000Y-33000000D01*
X131497500Y-33365000D02*
X130365000Y-33365000D01*
%TO.N,Net-(SW8-Pad2)*%
X130635000Y-34635000D02*
X130000000Y-34000000D01*
X131497500Y-34635000D02*
X130635000Y-34635000D01*
%TO.N,Net-(SW9-Pad2)*%
X123635000Y-34635000D02*
X124000000Y-35000000D01*
X122097500Y-34635000D02*
X123635000Y-34635000D01*
%TO.N,Net-(SW10-Pad2)*%
X123635000Y-33365000D02*
X124000000Y-33000000D01*
X122097500Y-33365000D02*
X123635000Y-33365000D01*
%TO.N,Net-(SW11-Pad2)*%
X123905000Y-32095000D02*
X124000000Y-32000000D01*
X122097500Y-32095000D02*
X123905000Y-32095000D01*
%TO.N,Net-(SW12-Pad2)*%
X123825000Y-30825000D02*
X124000000Y-31000000D01*
X122097500Y-30825000D02*
X123825000Y-30825000D01*
%TO.N,Net-(SW13-Pad2)*%
X123555000Y-29555000D02*
X124000000Y-30000000D01*
X122097500Y-29555000D02*
X123555000Y-29555000D01*
%TO.N,Net-(SW14-Pad2)*%
X123715000Y-28285000D02*
X124000000Y-28000000D01*
X122097500Y-28285000D02*
X123715000Y-28285000D01*
%TO.N,Net-(SW15-Pad2)*%
X123985000Y-27015000D02*
X124000000Y-27000000D01*
X122097500Y-27015000D02*
X123985000Y-27015000D01*
%TO.N,Net-(SW16-Pad2)*%
X123745000Y-25745000D02*
X124000000Y-26000000D01*
X122097500Y-25745000D02*
X123745000Y-25745000D01*
%TO.N,Net-(SW24-Pad2)*%
X107365000Y-35635000D02*
X107000000Y-36000000D01*
X108497500Y-35635000D02*
X107365000Y-35635000D01*
%TO.N,Net-(SW23-Pad2)*%
X107365000Y-34365000D02*
X107000000Y-34000000D01*
X108497500Y-34365000D02*
X107365000Y-34365000D01*
%TO.N,Net-(SW22-Pad2)*%
X107095000Y-33095000D02*
X107000000Y-33000000D01*
X108497500Y-33095000D02*
X107095000Y-33095000D01*
%TO.N,Net-(SW21-Pad2)*%
X107175000Y-31825000D02*
X107000000Y-32000000D01*
X108497500Y-31825000D02*
X107175000Y-31825000D01*
%TO.N,Net-(SW20-Pad2)*%
X107445000Y-30555000D02*
X107000000Y-31000000D01*
X108497500Y-30555000D02*
X107445000Y-30555000D01*
%TO.N,Net-(SW19-Pad2)*%
X107285000Y-29285000D02*
X107000000Y-29000000D01*
X108497500Y-29285000D02*
X107285000Y-29285000D01*
%TO.N,Net-(SW18-Pad2)*%
X107015000Y-28015000D02*
X107000000Y-28000000D01*
X108497500Y-28015000D02*
X107015000Y-28015000D01*
%TO.N,Net-(SW17-Pad2)*%
X107255000Y-26745000D02*
X107000000Y-27000000D01*
X108497500Y-26745000D02*
X107255000Y-26745000D01*
%TO.N,Net-(SW25-Pad2)*%
X100635000Y-35635000D02*
X101000000Y-36000000D01*
X99097500Y-35635000D02*
X100635000Y-35635000D01*
%TO.N,Net-(SW26-Pad2)*%
X100635000Y-34365000D02*
X101000000Y-34000000D01*
X99097500Y-34365000D02*
X100635000Y-34365000D01*
%TO.N,Net-(SW27-Pad2)*%
X100905000Y-33095000D02*
X101000000Y-33000000D01*
X99097500Y-33095000D02*
X100905000Y-33095000D01*
%TO.N,Net-(SW28-Pad2)*%
X100825000Y-31825000D02*
X101000000Y-32000000D01*
X99097500Y-31825000D02*
X100825000Y-31825000D01*
%TO.N,Net-(SW30-Pad2)*%
X100715000Y-29285000D02*
X101000000Y-29000000D01*
X99097500Y-29285000D02*
X100715000Y-29285000D01*
%TO.N,Net-(SW32-Pad2)*%
X100745000Y-26745000D02*
X101000000Y-27000000D01*
X99097500Y-26745000D02*
X100745000Y-26745000D01*
%TO.N,+5V*%
X124000000Y-42302500D02*
X124000000Y-41000000D01*
X123422500Y-42880000D02*
X124000000Y-42302500D01*
X115677500Y-42880000D02*
X123422500Y-42880000D01*
X124000000Y-41000000D02*
X123985000Y-40985000D01*
X123985000Y-40985000D02*
X122097500Y-40985000D01*
%TO.N,/SCK*%
X89715000Y-39000000D02*
X90000000Y-39000000D01*
X90000000Y-39000000D02*
X98550000Y-47550000D01*
X106000000Y-42550000D02*
X106000000Y-42000000D01*
X98550000Y-47550000D02*
X101000000Y-47550000D01*
X106000000Y-42000000D02*
X107285000Y-40715000D01*
X101000000Y-47550000D02*
X106000000Y-42550000D01*
X107285000Y-40715000D02*
X108497500Y-40715000D01*
%TO.N,/SDA*%
X89528604Y-44528604D02*
X93000000Y-48000000D01*
X89528604Y-40165000D02*
X89528604Y-44528604D01*
X93000000Y-48000000D02*
X101782500Y-48000000D01*
X101782500Y-48000000D02*
X107797500Y-41985000D01*
X107797500Y-41985000D02*
X108497500Y-41985000D01*
%TO.N,+5V*%
X95087500Y-37087500D02*
X93000000Y-35000000D01*
X96797500Y-37087500D02*
X95087500Y-37087500D01*
%TO.N,GND*%
X105797500Y-24000000D02*
X93000000Y-24000000D01*
X130797500Y-37175000D02*
X127797500Y-34175000D01*
X127797500Y-34175000D02*
X127797500Y-25797500D01*
X105797500Y-24000000D02*
X105797500Y-36155000D01*
X105797500Y-36155000D02*
X107817500Y-38175000D01*
X107817500Y-38175000D02*
X108497500Y-38175000D01*
%TO.N,+5V*%
X99097500Y-41985000D02*
X98397500Y-41985000D01*
X98397500Y-41985000D02*
X95797500Y-39385000D01*
X95797500Y-39385000D02*
X95797500Y-38087500D01*
X95797500Y-38087500D02*
X96797500Y-37087500D01*
%TO.N,GND*%
X99097500Y-40715000D02*
X100082500Y-40715000D01*
X100082500Y-40715000D02*
X102622500Y-38175000D01*
X102622500Y-38175000D02*
X108497500Y-38175000D01*
%TO.N,+5V*%
X99097500Y-41985000D02*
X99097500Y-43255000D01*
X111797500Y-39000000D02*
X109702500Y-36905000D01*
X115677500Y-42880000D02*
X111797500Y-39000000D01*
X111797500Y-39000000D02*
X111617500Y-38820000D01*
X111617500Y-38820000D02*
X102977500Y-38820000D01*
X102977500Y-38820000D02*
X99812500Y-41985000D01*
X99812500Y-41985000D02*
X99097500Y-41985000D01*
%TO.N,/SCK*%
X131497500Y-39715000D02*
X130797500Y-39715000D01*
X130797500Y-39715000D02*
X126962500Y-43550000D01*
X126962500Y-43550000D02*
X113983896Y-43550000D01*
X113983896Y-43550000D02*
X111148896Y-40715000D01*
X111148896Y-40715000D02*
X108497500Y-40715000D01*
%TO.N,/SDA*%
X127782500Y-44000000D02*
X113797500Y-44000000D01*
X130797500Y-40985000D02*
X127782500Y-44000000D01*
X131497500Y-40985000D02*
X130797500Y-40985000D01*
X113797500Y-44000000D02*
X111782500Y-41985000D01*
X111782500Y-41985000D02*
X108497500Y-41985000D01*
%TO.N,+5V*%
X109702500Y-36905000D02*
X108497500Y-36905000D01*
%TO.N,/Reset 2*%
X96797500Y-38912500D02*
X97330000Y-39445000D01*
X97330000Y-39445000D02*
X99097500Y-39445000D01*
%TO.N,GND*%
X118547500Y-27345000D02*
X118547500Y-39385000D01*
X118547500Y-39385000D02*
X121417500Y-42255000D01*
X121417500Y-42255000D02*
X122097500Y-42255000D01*
%TO.N,+5V*%
X122097500Y-40985000D02*
X121397500Y-40985000D01*
X121397500Y-40985000D02*
X118997500Y-38585000D01*
X118997500Y-38585000D02*
X118997500Y-36887500D01*
X118997500Y-36887500D02*
X119797500Y-36087500D01*
%TO.N,GND*%
X130797500Y-37175000D02*
X128257500Y-39715000D01*
X128257500Y-39715000D02*
X122097500Y-39715000D01*
%TO.N,/Reset 1*%
X119797500Y-37912500D02*
X120330000Y-38445000D01*
X120330000Y-38445000D02*
X122097500Y-38445000D01*
%TO.N,GND*%
X131497500Y-37175000D02*
X130797500Y-37175000D01*
%TD*%
M02*
