%TF.GenerationSoftware,KiCad,Pcbnew,(6.0.9)*%
%TF.CreationDate,2022-12-02T11:24:13-08:00*%
%TF.ProjectId,keyboard_right,6b657962-6f61-4726-945f-72696768742e,rev?*%
%TF.SameCoordinates,Original*%
%TF.FileFunction,Soldermask,Top*%
%TF.FilePolarity,Negative*%
%FSLAX46Y46*%
G04 Gerber Fmt 4.6, Leading zero omitted, Abs format (unit mm)*
G04 Created by KiCad (PCBNEW (6.0.9)) date 2022-12-02 11:24:13*
%MOMM*%
%LPD*%
G01*
G04 APERTURE LIST*
G04 Aperture macros list*
%AMRoundRect*
0 Rectangle with rounded corners*
0 $1 Rounding radius*
0 $2 $3 $4 $5 $6 $7 $8 $9 X,Y pos of 4 corners*
0 Add a 4 corners polygon primitive as box body*
4,1,4,$2,$3,$4,$5,$6,$7,$8,$9,$2,$3,0*
0 Add four circle primitives for the rounded corners*
1,1,$1+$1,$2,$3*
1,1,$1+$1,$4,$5*
1,1,$1+$1,$6,$7*
1,1,$1+$1,$8,$9*
0 Add four rect primitives between the rounded corners*
20,1,$1+$1,$2,$3,$4,$5,0*
20,1,$1+$1,$4,$5,$6,$7,0*
20,1,$1+$1,$6,$7,$8,$9,0*
20,1,$1+$1,$8,$9,$2,$3,0*%
G04 Aperture macros list end*
%ADD10C,1.250000*%
%ADD11C,5.050000*%
%ADD12C,1.900000*%
%ADD13C,1.650000*%
%ADD14RoundRect,0.237500X-0.250000X-0.237500X0.250000X-0.237500X0.250000X0.237500X-0.250000X0.237500X0*%
%ADD15RoundRect,0.237500X0.237500X-0.250000X0.237500X0.250000X-0.237500X0.250000X-0.237500X-0.250000X0*%
%ADD16C,1.500000*%
%ADD17R,1.200000X2.500000*%
G04 APERTURE END LIST*
D10*
%TO.C,SW32*%
X95950000Y-133890450D03*
X99230127Y-138209103D03*
D11*
X93000000Y-139000000D03*
D12*
X88236860Y-136250000D03*
X97763140Y-141750000D03*
D13*
X86094873Y-140960031D03*
%TD*%
D10*
%TO.C,SW30*%
X62050000Y-147109550D03*
X58769873Y-142790897D03*
D11*
X65000000Y-142000000D03*
D12*
X69763140Y-144750000D03*
X60236860Y-139250000D03*
D13*
X71905127Y-140039969D03*
%TD*%
D10*
%TO.C,SW29*%
X61050000Y-120109550D03*
X57769873Y-115790897D03*
D11*
X64000000Y-115000000D03*
D12*
X68763140Y-117750000D03*
X59236860Y-112250000D03*
D13*
X70905127Y-113039969D03*
%TD*%
D10*
%TO.C,SW4*%
X203000000Y-103100000D03*
X208000000Y-105200000D03*
D11*
X203000000Y-109000000D03*
D12*
X197500000Y-109000000D03*
X208500000Y-109000000D03*
D13*
X198000000Y-114150000D03*
%TD*%
D10*
%TO.C,SW2*%
X203000000Y-67100000D03*
X208000000Y-69200000D03*
D11*
X203000000Y-73000000D03*
D12*
X197500000Y-73000000D03*
X208500000Y-73000000D03*
D13*
X198000000Y-78150000D03*
%TD*%
D10*
%TO.C,SW1*%
X203000000Y-49100000D03*
X208000000Y-51200000D03*
D11*
X203000000Y-55000000D03*
D12*
X197500000Y-55000000D03*
X208500000Y-55000000D03*
D13*
X198000000Y-60150000D03*
%TD*%
D10*
%TO.C,SW16*%
X146000000Y-103100000D03*
X151000000Y-105200000D03*
D11*
X146000000Y-109000000D03*
D12*
X140500000Y-109000000D03*
X151500000Y-109000000D03*
D13*
X141000000Y-114150000D03*
%TD*%
D10*
%TO.C,SW14*%
X146000000Y-67100000D03*
X151000000Y-69200000D03*
D11*
X146000000Y-73000000D03*
D12*
X140500000Y-73000000D03*
X151500000Y-73000000D03*
D13*
X141000000Y-78150000D03*
%TD*%
D10*
%TO.C,SW13*%
X146000000Y-49100000D03*
X151000000Y-51200000D03*
D11*
X146000000Y-55000000D03*
D12*
X140500000Y-55000000D03*
X151500000Y-55000000D03*
D13*
X141000000Y-60150000D03*
%TD*%
D10*
%TO.C,SW31*%
X80950000Y-123890450D03*
X84230127Y-128209103D03*
D11*
X78000000Y-129000000D03*
D12*
X73236860Y-126250000D03*
X82763140Y-131750000D03*
D13*
X71094873Y-130960031D03*
%TD*%
D10*
%TO.C,SW28*%
X89000000Y-103100000D03*
X94000000Y-105200000D03*
D11*
X89000000Y-109000000D03*
D12*
X83500000Y-109000000D03*
X94500000Y-109000000D03*
D13*
X84000000Y-114150000D03*
%TD*%
D10*
%TO.C,SW27*%
X89000000Y-85100000D03*
X94000000Y-87200000D03*
D11*
X89000000Y-91000000D03*
D12*
X83500000Y-91000000D03*
X94500000Y-91000000D03*
D13*
X84000000Y-96150000D03*
%TD*%
D10*
%TO.C,SW26*%
X89000000Y-67100000D03*
X94000000Y-69200000D03*
D11*
X89000000Y-73000000D03*
D12*
X83500000Y-73000000D03*
X94500000Y-73000000D03*
D13*
X84000000Y-78150000D03*
%TD*%
D10*
%TO.C,SW25*%
X89000000Y-49100000D03*
X94000000Y-51200000D03*
D11*
X89000000Y-55000000D03*
D12*
X83500000Y-55000000D03*
X94500000Y-55000000D03*
D13*
X84000000Y-60150000D03*
%TD*%
D10*
%TO.C,SW24*%
X108000000Y-103100000D03*
X113000000Y-105200000D03*
D11*
X108000000Y-109000000D03*
D12*
X102500000Y-109000000D03*
X113500000Y-109000000D03*
D13*
X103000000Y-114150000D03*
%TD*%
D10*
%TO.C,SW23*%
X108000000Y-85100000D03*
X113000000Y-87200000D03*
D11*
X108000000Y-91000000D03*
D12*
X102500000Y-91000000D03*
X113500000Y-91000000D03*
D13*
X103000000Y-96150000D03*
%TD*%
D10*
%TO.C,SW22*%
X108000000Y-67100000D03*
X113000000Y-69200000D03*
D11*
X108000000Y-73000000D03*
D12*
X102500000Y-73000000D03*
X113500000Y-73000000D03*
D13*
X103000000Y-78150000D03*
%TD*%
D10*
%TO.C,SW21*%
X108000000Y-49100000D03*
X113000000Y-51200000D03*
D11*
X108000000Y-55000000D03*
D12*
X102500000Y-55000000D03*
X113500000Y-55000000D03*
D13*
X103000000Y-60150000D03*
%TD*%
D10*
%TO.C,SW20*%
X127000000Y-103100000D03*
X132000000Y-105200000D03*
D11*
X127000000Y-109000000D03*
D12*
X121500000Y-109000000D03*
X132500000Y-109000000D03*
D13*
X122000000Y-114150000D03*
%TD*%
D10*
%TO.C,SW19*%
X127000000Y-85100000D03*
X132000000Y-87200000D03*
D11*
X127000000Y-91000000D03*
D12*
X121500000Y-91000000D03*
X132500000Y-91000000D03*
D13*
X122000000Y-96150000D03*
%TD*%
D10*
%TO.C,SW18*%
X127000000Y-67100000D03*
X132000000Y-69200000D03*
D11*
X127000000Y-73000000D03*
D12*
X121500000Y-73000000D03*
X132500000Y-73000000D03*
D13*
X122000000Y-78150000D03*
%TD*%
D10*
%TO.C,SW17*%
X127000000Y-49100000D03*
X132000000Y-51200000D03*
D11*
X127000000Y-55000000D03*
D12*
X121500000Y-55000000D03*
X132500000Y-55000000D03*
D13*
X122000000Y-60150000D03*
%TD*%
D10*
%TO.C,SW15*%
X146000000Y-85100000D03*
X151000000Y-87200000D03*
D11*
X146000000Y-91000000D03*
D12*
X140500000Y-91000000D03*
X151500000Y-91000000D03*
D13*
X141000000Y-96150000D03*
%TD*%
D10*
%TO.C,SW12*%
X165000000Y-103100000D03*
X170000000Y-105200000D03*
D11*
X165000000Y-109000000D03*
D12*
X159500000Y-109000000D03*
X170500000Y-109000000D03*
D13*
X160000000Y-114150000D03*
%TD*%
D10*
%TO.C,SW11*%
X165000000Y-85100000D03*
X170000000Y-87200000D03*
D11*
X165000000Y-91000000D03*
D12*
X159500000Y-91000000D03*
X170500000Y-91000000D03*
D13*
X160000000Y-96150000D03*
%TD*%
D10*
%TO.C,SW10*%
X165000000Y-67100000D03*
X170000000Y-69200000D03*
D11*
X165000000Y-73000000D03*
D12*
X159500000Y-73000000D03*
X170500000Y-73000000D03*
D13*
X160000000Y-78150000D03*
%TD*%
D10*
%TO.C,SW9*%
X165000000Y-49100000D03*
X170000000Y-51200000D03*
D11*
X165000000Y-55000000D03*
D12*
X159500000Y-55000000D03*
X170500000Y-55000000D03*
D13*
X160000000Y-60150000D03*
%TD*%
D10*
%TO.C,SW8*%
X184000000Y-103100000D03*
X189000000Y-105200000D03*
D11*
X184000000Y-109000000D03*
D12*
X178500000Y-109000000D03*
X189500000Y-109000000D03*
D13*
X179000000Y-114150000D03*
%TD*%
D10*
%TO.C,SW7*%
X184000000Y-85100000D03*
X189000000Y-87200000D03*
D11*
X184000000Y-91000000D03*
D12*
X178500000Y-91000000D03*
X189500000Y-91000000D03*
D13*
X179000000Y-96150000D03*
%TD*%
D10*
%TO.C,SW6*%
X184000000Y-67100000D03*
X189000000Y-69200000D03*
D11*
X184000000Y-73000000D03*
D12*
X178500000Y-73000000D03*
X189500000Y-73000000D03*
D13*
X179000000Y-78150000D03*
%TD*%
D10*
%TO.C,SW5*%
X184000000Y-49100000D03*
X189000000Y-51200000D03*
D11*
X184000000Y-55000000D03*
D12*
X178500000Y-55000000D03*
X189500000Y-55000000D03*
D13*
X179000000Y-60150000D03*
%TD*%
D10*
%TO.C,SW3*%
X203000000Y-85100000D03*
X208000000Y-87200000D03*
D11*
X203000000Y-91000000D03*
D12*
X197500000Y-91000000D03*
X208500000Y-91000000D03*
D13*
X198000000Y-96150000D03*
%TD*%
D14*
%TO.C,R2*%
X87912500Y-23000000D03*
X86087500Y-23000000D03*
%TD*%
D15*
%TO.C,R1*%
X88000000Y-35087500D03*
X88000000Y-36912500D03*
%TD*%
D16*
%TO.C,J1*%
X89225000Y-29000000D03*
X82225000Y-29000000D03*
D17*
X86825000Y-25750000D03*
X83825000Y-25750000D03*
X91925000Y-32250000D03*
X90825000Y-25750000D03*
%TD*%
M02*
