%TF.GenerationSoftware,KiCad,Pcbnew,(6.0.10)*%
%TF.CreationDate,2023-01-22T23:08:19-08:00*%
%TF.ProjectId,keyboard_right,6b657962-6f61-4726-945f-72696768742e,rev?*%
%TF.SameCoordinates,Original*%
%TF.FileFunction,Copper,L2,Bot*%
%TF.FilePolarity,Positive*%
%FSLAX46Y46*%
G04 Gerber Fmt 4.6, Leading zero omitted, Abs format (unit mm)*
G04 Created by KiCad (PCBNEW (6.0.10)) date 2023-01-22 23:08:19*
%MOMM*%
%LPD*%
G01*
G04 APERTURE LIST*
%TA.AperFunction,ComponentPad*%
%ADD10C,2.600000*%
%TD*%
%TA.AperFunction,ComponentPad*%
%ADD11C,2.200000*%
%TD*%
%TA.AperFunction,ViaPad*%
%ADD12C,0.800000*%
%TD*%
%TA.AperFunction,Conductor*%
%ADD13C,0.250000*%
%TD*%
G04 APERTURE END LIST*
D10*
%TO.P,SW25,*%
%TO.N,*%
X84000000Y-60150000D03*
D11*
%TO.P,SW25,1,1*%
%TO.N,+5V*%
X89000000Y-49100000D03*
%TO.P,SW25,2,2*%
%TO.N,Net-(SW25-Pad2)*%
X94000000Y-51200000D03*
%TD*%
D10*
%TO.P,SW5,*%
%TO.N,*%
X179000000Y-60150000D03*
D11*
%TO.P,SW5,1,1*%
%TO.N,+5V*%
X184000000Y-49100000D03*
%TO.P,SW5,2,2*%
%TO.N,Net-(SW5-Pad2)*%
X189000000Y-51200000D03*
%TD*%
D10*
%TO.P,SW12,*%
%TO.N,*%
X160000000Y-114150000D03*
D11*
%TO.P,SW12,1,1*%
%TO.N,+5V*%
X165000000Y-103100000D03*
%TO.P,SW12,2,2*%
%TO.N,Net-(SW12-Pad2)*%
X170000000Y-105200000D03*
%TD*%
D10*
%TO.P,SW6,*%
%TO.N,*%
X179000000Y-78150000D03*
D11*
%TO.P,SW6,1,1*%
%TO.N,+5V*%
X184000000Y-67100000D03*
%TO.P,SW6,2,2*%
%TO.N,Net-(SW6-Pad2)*%
X189000000Y-69200000D03*
%TD*%
D10*
%TO.P,SW7,*%
%TO.N,*%
X179000000Y-96150000D03*
D11*
%TO.P,SW7,1,1*%
%TO.N,+5V*%
X184000000Y-85100000D03*
%TO.P,SW7,2,2*%
%TO.N,Net-(SW7-Pad2)*%
X189000000Y-87200000D03*
%TD*%
D10*
%TO.P,SW19,*%
%TO.N,*%
X122000000Y-96150000D03*
D11*
%TO.P,SW19,1,1*%
%TO.N,+5V*%
X127000000Y-85100000D03*
%TO.P,SW19,2,2*%
%TO.N,Net-(SW19-Pad2)*%
X132000000Y-87200000D03*
%TD*%
D10*
%TO.P,SW3,*%
%TO.N,*%
X198000000Y-96150000D03*
D11*
%TO.P,SW3,1,1*%
%TO.N,+5V*%
X203000000Y-85100000D03*
%TO.P,SW3,2,2*%
%TO.N,Net-(SW3-Pad2)*%
X208000000Y-87200000D03*
%TD*%
D10*
%TO.P,SW9,*%
%TO.N,*%
X160000000Y-60150000D03*
D11*
%TO.P,SW9,1,1*%
%TO.N,+5V*%
X165000000Y-49100000D03*
%TO.P,SW9,2,2*%
%TO.N,Net-(SW9-Pad2)*%
X170000000Y-51200000D03*
%TD*%
D10*
%TO.P,SW14,*%
%TO.N,*%
X141000000Y-78150000D03*
D11*
%TO.P,SW14,1,1*%
%TO.N,+5V*%
X146000000Y-67100000D03*
%TO.P,SW14,2,2*%
%TO.N,Net-(SW14-Pad2)*%
X151000000Y-69200000D03*
%TD*%
D10*
%TO.P,SW1,*%
%TO.N,*%
X198000000Y-60150000D03*
D11*
%TO.P,SW1,1,1*%
%TO.N,+5V*%
X203000000Y-49100000D03*
%TO.P,SW1,2,2*%
%TO.N,Net-(SW1-Pad2)*%
X208000000Y-51200000D03*
%TD*%
D10*
%TO.P,SW32,*%
%TO.N,*%
X106094873Y-159960031D03*
D11*
%TO.P,SW32,1,1*%
%TO.N,+5V*%
X115950000Y-152890450D03*
%TO.P,SW32,2,2*%
%TO.N,Net-(SW32-Pad2)*%
X119230127Y-157209103D03*
%TD*%
D10*
%TO.P,SW20,*%
%TO.N,*%
X122000000Y-114150000D03*
D11*
%TO.P,SW20,1,1*%
%TO.N,+5V*%
X127000000Y-103100000D03*
%TO.P,SW20,2,2*%
%TO.N,Net-(SW20-Pad2)*%
X132000000Y-105200000D03*
%TD*%
D10*
%TO.P,SW29,*%
%TO.N,*%
X74094873Y-140960031D03*
D11*
%TO.P,SW29,1,1*%
%TO.N,+5V*%
X83950000Y-133890450D03*
%TO.P,SW29,2,2*%
%TO.N,Net-(SW29-Pad2)*%
X87230127Y-138209103D03*
%TD*%
D10*
%TO.P,SW10,*%
%TO.N,*%
X160000000Y-78150000D03*
D11*
%TO.P,SW10,1,1*%
%TO.N,+5V*%
X165000000Y-67100000D03*
%TO.P,SW10,2,2*%
%TO.N,Net-(SW10-Pad2)*%
X170000000Y-69200000D03*
%TD*%
D10*
%TO.P,SW8,*%
%TO.N,*%
X179000000Y-114150000D03*
D11*
%TO.P,SW8,1,1*%
%TO.N,+5V*%
X184000000Y-103100000D03*
%TO.P,SW8,2,2*%
%TO.N,Net-(SW8-Pad2)*%
X189000000Y-105200000D03*
%TD*%
D10*
%TO.P,SW31,*%
%TO.N,*%
X90094873Y-150960031D03*
D11*
%TO.P,SW31,1,1*%
%TO.N,+5V*%
X99950000Y-143890450D03*
%TO.P,SW31,2,2*%
%TO.N,Net-(SW31-Pad2)*%
X103230127Y-148209103D03*
%TD*%
D10*
%TO.P,SW15,*%
%TO.N,*%
X141000000Y-96150000D03*
D11*
%TO.P,SW15,1,1*%
%TO.N,+5V*%
X146000000Y-85100000D03*
%TO.P,SW15,2,2*%
%TO.N,Net-(SW15-Pad2)*%
X151000000Y-87200000D03*
%TD*%
D10*
%TO.P,SW2,*%
%TO.N,*%
X198000000Y-78150000D03*
D11*
%TO.P,SW2,1,1*%
%TO.N,+5V*%
X203000000Y-67100000D03*
%TO.P,SW2,2,2*%
%TO.N,Net-(SW2-Pad2)*%
X208000000Y-69200000D03*
%TD*%
D10*
%TO.P,SW11,*%
%TO.N,*%
X160000000Y-96150000D03*
D11*
%TO.P,SW11,1,1*%
%TO.N,+5V*%
X165000000Y-85100000D03*
%TO.P,SW11,2,2*%
%TO.N,Net-(SW11-Pad2)*%
X170000000Y-87200000D03*
%TD*%
D10*
%TO.P,SW30,*%
%TO.N,*%
X94905127Y-162039969D03*
D11*
%TO.P,SW30,1,1*%
%TO.N,+5V*%
X85050000Y-169109550D03*
%TO.P,SW30,2,2*%
%TO.N,Net-(SW30-Pad2)*%
X81769873Y-164790897D03*
%TD*%
D10*
%TO.P,SW22,*%
%TO.N,*%
X103000000Y-78150000D03*
D11*
%TO.P,SW22,1,1*%
%TO.N,+5V*%
X108000000Y-67100000D03*
%TO.P,SW22,2,2*%
%TO.N,Net-(SW22-Pad2)*%
X113000000Y-69200000D03*
%TD*%
D10*
%TO.P,SW4,*%
%TO.N,*%
X198000000Y-114150000D03*
D11*
%TO.P,SW4,1,1*%
%TO.N,+5V*%
X203000000Y-103100000D03*
%TO.P,SW4,2,2*%
%TO.N,Net-(SW4-Pad2)*%
X208000000Y-105200000D03*
%TD*%
D10*
%TO.P,SW21,*%
%TO.N,*%
X103000000Y-60150000D03*
D11*
%TO.P,SW21,1,1*%
%TO.N,+5V*%
X108000000Y-49100000D03*
%TO.P,SW21,2,2*%
%TO.N,Net-(SW21-Pad2)*%
X113000000Y-51200000D03*
%TD*%
D10*
%TO.P,SW17,*%
%TO.N,*%
X122000000Y-60150000D03*
D11*
%TO.P,SW17,1,1*%
%TO.N,+5V*%
X127000000Y-49100000D03*
%TO.P,SW17,2,2*%
%TO.N,Net-(SW17-Pad2)*%
X132000000Y-51200000D03*
%TD*%
D10*
%TO.P,SW16,*%
%TO.N,*%
X141000000Y-114150000D03*
D11*
%TO.P,SW16,1,1*%
%TO.N,+5V*%
X146000000Y-103100000D03*
%TO.P,SW16,2,2*%
%TO.N,Net-(SW16-Pad2)*%
X151000000Y-105200000D03*
%TD*%
D10*
%TO.P,SW26,*%
%TO.N,*%
X84000000Y-78150000D03*
D11*
%TO.P,SW26,1,1*%
%TO.N,+5V*%
X89000000Y-67100000D03*
%TO.P,SW26,2,2*%
%TO.N,Net-(SW26-Pad2)*%
X94000000Y-69200000D03*
%TD*%
D10*
%TO.P,SW24,*%
%TO.N,*%
X103000000Y-114150000D03*
D11*
%TO.P,SW24,1,1*%
%TO.N,+5V*%
X108000000Y-103100000D03*
%TO.P,SW24,2,2*%
%TO.N,Net-(SW24-Pad2)*%
X113000000Y-105200000D03*
%TD*%
D10*
%TO.P,SW18,*%
%TO.N,*%
X122000000Y-78150000D03*
D11*
%TO.P,SW18,1,1*%
%TO.N,+5V*%
X127000000Y-67100000D03*
%TO.P,SW18,2,2*%
%TO.N,Net-(SW18-Pad2)*%
X132000000Y-69200000D03*
%TD*%
D10*
%TO.P,SW27,*%
%TO.N,*%
X84000000Y-96150000D03*
D11*
%TO.P,SW27,1,1*%
%TO.N,+5V*%
X89000000Y-85100000D03*
%TO.P,SW27,2,2*%
%TO.N,Net-(SW27-Pad2)*%
X94000000Y-87200000D03*
%TD*%
D10*
%TO.P,SW28,*%
%TO.N,*%
X84000000Y-114150000D03*
D11*
%TO.P,SW28,1,1*%
%TO.N,+5V*%
X89000000Y-103100000D03*
%TO.P,SW28,2,2*%
%TO.N,Net-(SW28-Pad2)*%
X94000000Y-105200000D03*
%TD*%
D10*
%TO.P,SW13,*%
%TO.N,*%
X141000000Y-60150000D03*
D11*
%TO.P,SW13,1,1*%
%TO.N,+5V*%
X146000000Y-49100000D03*
%TO.P,SW13,2,2*%
%TO.N,Net-(SW13-Pad2)*%
X151000000Y-51200000D03*
%TD*%
D10*
%TO.P,SW23,*%
%TO.N,*%
X103000000Y-96150000D03*
D11*
%TO.P,SW23,1,1*%
%TO.N,+5V*%
X108000000Y-85100000D03*
%TO.P,SW23,2,2*%
%TO.N,Net-(SW23-Pad2)*%
X113000000Y-87200000D03*
%TD*%
D12*
%TO.N,+5V*%
X90000000Y-45000000D03*
X85000000Y-49000000D03*
X144000000Y-40000000D03*
%TO.N,Net-(SW1-Pad2)*%
X165000000Y-43255000D03*
%TO.N,Net-(SW2-Pad2)*%
X166380000Y-42985000D03*
%TO.N,Net-(SW3-Pad2)*%
X167650000Y-42715000D03*
%TO.N,Net-(SW4-Pad2)*%
X168920000Y-42555000D03*
%TO.N,Net-(SW5-Pad2)*%
X170190000Y-42825000D03*
%TO.N,Net-(SW6-Pad2)*%
X171460000Y-42905000D03*
%TO.N,Net-(SW7-Pad2)*%
X172730000Y-42635000D03*
%TO.N,Net-(SW8-Pad2)*%
X174000000Y-43000000D03*
%TO.N,Net-(SW9-Pad2)*%
X174000000Y-37365000D03*
%TO.N,Net-(SW10-Pad2)*%
X172730000Y-37365000D03*
%TO.N,Net-(SW11-Pad2)*%
X171460000Y-37095000D03*
%TO.N,Net-(SW12-Pad2)*%
X170190000Y-37000000D03*
%TO.N,Net-(SW13-Pad2)*%
X168920000Y-36920000D03*
%TO.N,Net-(SW14-Pad2)*%
X167650000Y-37000000D03*
%TO.N,Net-(SW15-Pad2)*%
X166380000Y-36985000D03*
%TO.N,Net-(SW16-Pad2)*%
X165110000Y-37255000D03*
%TO.N,Net-(SW17-Pad2)*%
X99745000Y-43255000D03*
%TO.N,Net-(SW18-Pad2)*%
X101015000Y-43015000D03*
%TO.N,Net-(SW19-Pad2)*%
X102285000Y-43285000D03*
%TO.N,Net-(SW20-Pad2)*%
X103847253Y-42967599D03*
%TO.N,Net-(SW21-Pad2)*%
X104825000Y-43175000D03*
%TO.N,Net-(SW22-Pad2)*%
X106095000Y-43095000D03*
%TO.N,Net-(SW23-Pad2)*%
X107365000Y-43000000D03*
%TO.N,Net-(SW24-Pad2)*%
X108555500Y-43079500D03*
%TO.N,Net-(SW25-Pad2)*%
X109000000Y-37000000D03*
%TO.N,Net-(SW26-Pad2)*%
X107365000Y-37000000D03*
%TO.N,Net-(SW27-Pad2)*%
X106000000Y-37000000D03*
%TO.N,Net-(SW28-Pad2)*%
X105000000Y-37000000D03*
%TO.N,Net-(SW29-Pad2)*%
X103555000Y-37000000D03*
%TO.N,Net-(SW30-Pad2)*%
X102285000Y-36715000D03*
%TO.N,Net-(SW31-Pad2)*%
X101000614Y-36984781D03*
%TO.N,Net-(SW32-Pad2)*%
X99745000Y-36745000D03*
%TD*%
D13*
%TO.N,+5V*%
X85000000Y-49000000D02*
X85000000Y-48000000D01*
X144000000Y-40000000D02*
X146000000Y-42000000D01*
X85000000Y-48000000D02*
X88000000Y-45000000D01*
X88000000Y-45000000D02*
X90000000Y-45000000D01*
X146000000Y-42000000D02*
X146000000Y-49100000D01*
%TO.N,Net-(SW1-Pad2)*%
X168680000Y-39575000D02*
X196375000Y-39575000D01*
X165000000Y-43255000D02*
X168680000Y-39575000D01*
X196375000Y-39575000D02*
X208000000Y-51200000D01*
%TO.N,Net-(SW2-Pad2)*%
X193900000Y-45627208D02*
X193900000Y-61900000D01*
X188297792Y-40025000D02*
X193900000Y-45627208D01*
X169314695Y-40025000D02*
X188297792Y-40025000D01*
X193900000Y-61900000D02*
X201200000Y-69200000D01*
X166380000Y-42959695D02*
X169314695Y-40025000D01*
X166380000Y-42985000D02*
X166380000Y-42959695D01*
X201200000Y-69200000D02*
X208000000Y-69200000D01*
%TO.N,Net-(SW3-Pad2)*%
X193450000Y-81000000D02*
X199650000Y-87200000D01*
X193450000Y-45813604D02*
X193450000Y-81000000D01*
X188111396Y-40475000D02*
X193450000Y-45813604D01*
X199650000Y-87200000D02*
X208000000Y-87200000D01*
X169890000Y-40475000D02*
X188111396Y-40475000D01*
X167650000Y-42715000D02*
X169890000Y-40475000D01*
%TO.N,Net-(SW4-Pad2)*%
X193000000Y-46000000D02*
X193000000Y-102000000D01*
X168920000Y-42555000D02*
X169375000Y-42100000D01*
X171438604Y-40925000D02*
X187925000Y-40925000D01*
X170263604Y-42100000D02*
X171438604Y-40925000D01*
X193000000Y-102000000D02*
X196200000Y-105200000D01*
X169375000Y-42100000D02*
X170263604Y-42100000D01*
X187925000Y-40925000D02*
X193000000Y-46000000D01*
X196200000Y-105200000D02*
X208000000Y-105200000D01*
%TO.N,Net-(SW5-Pad2)*%
X170190000Y-42825000D02*
X170190000Y-42810000D01*
X171000000Y-42000000D02*
X171363604Y-42000000D01*
X171363604Y-42000000D02*
X171988604Y-41375000D01*
X170190000Y-42810000D02*
X171000000Y-42000000D01*
X171988604Y-41375000D02*
X179175000Y-41375000D01*
X179175000Y-41375000D02*
X189000000Y-51200000D01*
%TO.N,Net-(SW6-Pad2)*%
X171460000Y-42540000D02*
X172175000Y-41825000D01*
X181099999Y-61299999D02*
X189000000Y-69200000D01*
X181099999Y-43936395D02*
X181099999Y-61299999D01*
X172175000Y-41825000D02*
X178988604Y-41825000D01*
X171460000Y-42905000D02*
X171460000Y-42540000D01*
X178988604Y-41825000D02*
X181099999Y-43936395D01*
%TO.N,Net-(SW7-Pad2)*%
X174300305Y-42275000D02*
X174725000Y-42699695D01*
X174725000Y-43000000D02*
X176100000Y-43000000D01*
X177000000Y-43900000D02*
X177000000Y-80115255D01*
X172730000Y-42635000D02*
X173095000Y-43000000D01*
X177000000Y-80115255D02*
X184084745Y-87200000D01*
X176100000Y-43000000D02*
X177000000Y-43900000D01*
X173699695Y-42275000D02*
X174300305Y-42275000D01*
X174725000Y-42699695D02*
X174725000Y-43000000D01*
X173275000Y-42699695D02*
X173699695Y-42275000D01*
X173275000Y-43000000D02*
X173275000Y-42699695D01*
X184084745Y-87200000D02*
X189000000Y-87200000D01*
X173095000Y-43000000D02*
X173275000Y-43000000D01*
%TO.N,Net-(SW8-Pad2)*%
X174000000Y-43000000D02*
X174000000Y-95115255D01*
X184084745Y-105200000D02*
X189000000Y-105200000D01*
X174000000Y-95115255D02*
X184084745Y-105200000D01*
%TO.N,Net-(SW9-Pad2)*%
X164000000Y-46000000D02*
X163575000Y-46425000D01*
X174000000Y-37365000D02*
X174000000Y-38000000D01*
X163575000Y-46425000D02*
X163575000Y-50575000D01*
X168493604Y-39125000D02*
X165618604Y-42000000D01*
X164000000Y-42000000D02*
X164000000Y-46000000D01*
X174000000Y-38000000D02*
X172875000Y-39125000D01*
X165618604Y-42000000D02*
X164000000Y-42000000D01*
X163575000Y-50575000D02*
X164200000Y-51200000D01*
X164200000Y-51200000D02*
X170000000Y-51200000D01*
X172875000Y-39125000D02*
X168493604Y-39125000D01*
%TO.N,Net-(SW10-Pad2)*%
X172730000Y-37365000D02*
X171420000Y-38675000D01*
X162099999Y-43263605D02*
X162099999Y-68099999D01*
X166491104Y-40491104D02*
X164872500Y-40491104D01*
X171420000Y-38675000D02*
X168307208Y-38675000D01*
X164872500Y-40491104D02*
X162099999Y-43263605D01*
X168307208Y-38675000D02*
X166491104Y-40491104D01*
X162099999Y-68099999D02*
X163200000Y-69200000D01*
X163200000Y-69200000D02*
X170000000Y-69200000D01*
%TO.N,Net-(SW11-Pad2)*%
X171460000Y-37540000D02*
X170775000Y-38225000D01*
X165000000Y-87000000D02*
X165200000Y-87200000D01*
X168120812Y-38225000D02*
X166304708Y-40041104D01*
X164000000Y-87000000D02*
X165000000Y-87000000D01*
X171460000Y-37095000D02*
X171460000Y-37540000D01*
X165200000Y-87200000D02*
X170000000Y-87200000D01*
X164686104Y-40041104D02*
X161649999Y-43077209D01*
X161649999Y-84649999D02*
X164000000Y-87000000D01*
X170775000Y-38225000D02*
X168120812Y-38225000D01*
X161649999Y-43077209D02*
X161649999Y-84649999D01*
X166304708Y-40041104D02*
X164686104Y-40041104D01*
%TO.N,Net-(SW12-Pad2)*%
X164200000Y-105200000D02*
X170000000Y-105200000D01*
X161199999Y-63648097D02*
X161199999Y-74651903D01*
X167934416Y-37775000D02*
X166118312Y-39591104D01*
X170190000Y-37000000D02*
X169415000Y-37775000D01*
X158375000Y-59476902D02*
X158375000Y-60823098D01*
X166118312Y-39591104D02*
X164499708Y-39591104D01*
X162099999Y-103099999D02*
X164200000Y-105200000D01*
X161199999Y-74651903D02*
X158375000Y-77476902D01*
X162099999Y-89798780D02*
X162099999Y-103099999D01*
X169415000Y-37775000D02*
X167934416Y-37775000D01*
X158375000Y-60823098D02*
X161199999Y-63648097D01*
X161199999Y-56651903D02*
X158375000Y-59476902D01*
X161199999Y-42890813D02*
X161199999Y-56651903D01*
X158375000Y-77476902D02*
X158375000Y-86073781D01*
X158375000Y-86073781D02*
X162099999Y-89798780D01*
X164499708Y-39591104D02*
X161199999Y-42890813D01*
%TO.N,Net-(SW13-Pad2)*%
X151000000Y-48000000D02*
X151000000Y-51200000D01*
X163370000Y-35630000D02*
X151000000Y-48000000D01*
X167630000Y-35630000D02*
X163370000Y-35630000D01*
X168920000Y-36920000D02*
X167630000Y-35630000D01*
%TO.N,Net-(SW14-Pad2)*%
X163920000Y-36080000D02*
X155000000Y-45000000D01*
X166730000Y-36080000D02*
X163920000Y-36080000D01*
X155000000Y-45000000D02*
X155000000Y-67000000D01*
X155000000Y-67000000D02*
X152800000Y-69200000D01*
X167650000Y-37000000D02*
X166730000Y-36080000D01*
X152800000Y-69200000D02*
X151000000Y-69200000D01*
%TO.N,Net-(SW15-Pad2)*%
X164470000Y-36530000D02*
X155550000Y-45450000D01*
X166380000Y-36985000D02*
X165925000Y-36530000D01*
X155550000Y-86000000D02*
X154350000Y-87200000D01*
X155550000Y-45450000D02*
X155550000Y-86000000D01*
X165925000Y-36530000D02*
X164470000Y-36530000D01*
X154350000Y-87200000D02*
X151000000Y-87200000D01*
%TO.N,Net-(SW16-Pad2)*%
X156000000Y-103000000D02*
X153800000Y-105200000D01*
X165110000Y-37255000D02*
X165110000Y-37890000D01*
X165110000Y-37890000D02*
X156000000Y-47000000D01*
X153800000Y-105200000D02*
X151000000Y-105200000D01*
X156000000Y-47000000D02*
X156000000Y-103000000D01*
%TO.N,Net-(SW17-Pad2)*%
X103345500Y-39654500D02*
X120454500Y-39654500D01*
X99745000Y-43255000D02*
X103345500Y-39654500D01*
X120454500Y-39654500D02*
X132000000Y-51200000D01*
%TO.N,Net-(SW18-Pad2)*%
X101015000Y-43015000D02*
X101015000Y-42621396D01*
X124099999Y-43936395D02*
X124099999Y-61299999D01*
X124099999Y-61299999D02*
X132000000Y-69200000D01*
X103531896Y-40104500D02*
X120268104Y-40104500D01*
X101015000Y-42621396D02*
X103531896Y-40104500D01*
X120268104Y-40104500D02*
X124099999Y-43936395D01*
%TO.N,Net-(SW19-Pad2)*%
X103570000Y-42000000D02*
X104000000Y-42000000D01*
X120527208Y-41000000D02*
X123649999Y-44122791D01*
X102285000Y-43285000D02*
X103570000Y-42000000D01*
X123649999Y-44122791D02*
X123649999Y-85649999D01*
X123649999Y-85649999D02*
X125200000Y-87200000D01*
X104000000Y-42000000D02*
X105445500Y-40554500D01*
X125200000Y-87200000D02*
X132000000Y-87200000D01*
X109827292Y-40554500D02*
X110272792Y-41000000D01*
X105445500Y-40554500D02*
X109827292Y-40554500D01*
X110272792Y-41000000D02*
X120527208Y-41000000D01*
%TO.N,Net-(SW20-Pad2)*%
X118000000Y-47000000D02*
X118000000Y-100000000D01*
X123200000Y-105200000D02*
X132000000Y-105200000D01*
X109640896Y-41004500D02*
X114636396Y-46000000D01*
X103847253Y-42967599D02*
X105810352Y-41004500D01*
X114636396Y-46000000D02*
X117000000Y-46000000D01*
X105810352Y-41004500D02*
X109640896Y-41004500D01*
X118000000Y-100000000D02*
X123200000Y-105200000D01*
X117000000Y-46000000D02*
X118000000Y-47000000D01*
%TO.N,Net-(SW21-Pad2)*%
X107248799Y-41454500D02*
X109454500Y-41454500D01*
X106333299Y-42370000D02*
X107248799Y-41454500D01*
X113000000Y-45000000D02*
X113000000Y-51200000D01*
X104825000Y-43175000D02*
X105370000Y-43175000D01*
X105794695Y-42370000D02*
X106333299Y-42370000D01*
X105370000Y-42794695D02*
X105794695Y-42370000D01*
X105370000Y-43175000D02*
X105370000Y-42794695D01*
X109454500Y-41454500D02*
X113000000Y-45000000D01*
%TO.N,Net-(SW22-Pad2)*%
X109730500Y-42592799D02*
X109730500Y-43000000D01*
X109730500Y-43000000D02*
X110900001Y-44169501D01*
X106640000Y-43095000D02*
X106640000Y-42699695D01*
X110900001Y-44169501D02*
X110900001Y-67100001D01*
X106640000Y-42699695D02*
X107435195Y-41904500D01*
X107435195Y-41904500D02*
X109042201Y-41904500D01*
X106095000Y-43095000D02*
X106640000Y-43095000D01*
X109042201Y-41904500D02*
X109730500Y-42592799D01*
X110900001Y-67100001D02*
X113000000Y-69200000D01*
%TO.N,Net-(SW23-Pad2)*%
X108010500Y-42354500D02*
X108855805Y-42354500D01*
X108898779Y-60000000D02*
X110450001Y-60000000D01*
X111575000Y-68609745D02*
X111575000Y-85775000D01*
X110450001Y-50851218D02*
X108047561Y-50851218D01*
X105099999Y-56201220D02*
X108898779Y-60000000D01*
X109280500Y-43280500D02*
X110450001Y-44450001D01*
X110450001Y-60000000D02*
X110450001Y-67484746D01*
X111575000Y-85775000D02*
X113000000Y-87200000D01*
X109280500Y-42779195D02*
X109280500Y-43280500D01*
X107365000Y-43000000D02*
X108010500Y-42354500D01*
X105099999Y-53798780D02*
X105099999Y-56201220D01*
X110450001Y-67484746D02*
X111575000Y-68609745D01*
X108047561Y-50851218D02*
X105099999Y-53798780D01*
X108855805Y-42354500D02*
X109280500Y-42779195D01*
X110450001Y-44450001D02*
X110450001Y-50851218D01*
%TO.N,Net-(SW24-Pad2)*%
X107200000Y-105200000D02*
X113000000Y-105200000D01*
X108555500Y-43079500D02*
X104649999Y-46985001D01*
X104649999Y-46985001D02*
X104649999Y-102649999D01*
X104649999Y-102649999D02*
X107200000Y-105200000D01*
%TO.N,Net-(SW25-Pad2)*%
X109000000Y-37000000D02*
X106795500Y-39204500D01*
X94000000Y-47000000D02*
X94000000Y-51200000D01*
X106795500Y-39204500D02*
X101795500Y-39204500D01*
X101795500Y-39204500D02*
X94000000Y-47000000D01*
%TO.N,Net-(SW26-Pad2)*%
X92575000Y-47788604D02*
X92575000Y-67775000D01*
X107365000Y-37000000D02*
X105610500Y-38754500D01*
X92575000Y-67775000D02*
X94000000Y-69200000D01*
X105610500Y-38754500D02*
X101609104Y-38754500D01*
X101609104Y-38754500D02*
X92575000Y-47788604D01*
%TO.N,Net-(SW27-Pad2)*%
X106000000Y-37000000D02*
X106000000Y-37025305D01*
X104720805Y-38304500D02*
X101422708Y-38304500D01*
X92125000Y-47602208D02*
X92125000Y-85325000D01*
X101422708Y-38304500D02*
X92125000Y-47602208D01*
X106000000Y-37025305D02*
X104720805Y-38304500D01*
X92125000Y-85325000D02*
X94000000Y-87200000D01*
%TO.N,Net-(SW28-Pad2)*%
X101236312Y-37854500D02*
X91675000Y-47415812D01*
X87798780Y-52099999D02*
X86099999Y-53798780D01*
X104145500Y-37854500D02*
X101236312Y-37854500D01*
X89575001Y-52099999D02*
X87798780Y-52099999D01*
X91675000Y-50000000D02*
X89575001Y-52099999D01*
X86099999Y-97299999D02*
X94000000Y-105200000D01*
X105000000Y-37000000D02*
X104145500Y-37854500D01*
X86099999Y-53798780D02*
X86099999Y-97299999D01*
X91675000Y-47415812D02*
X91675000Y-50000000D01*
%TO.N,Net-(SW29-Pad2)*%
X84128196Y-53224999D02*
X82764770Y-53224999D01*
X85209103Y-138209103D02*
X87230127Y-138209103D01*
X103555000Y-37000000D02*
X103555000Y-36959695D01*
X82000000Y-133800000D02*
X82000000Y-135000000D01*
X86789592Y-48658757D02*
X86789592Y-50563603D01*
X81100000Y-54889769D02*
X81100000Y-132900000D01*
X82764770Y-53224999D02*
X81100000Y-54889769D01*
X97140812Y-39404416D02*
X90138604Y-46406624D01*
X98627208Y-35100000D02*
X97140812Y-36586396D01*
X101695305Y-35100000D02*
X98627208Y-35100000D01*
X82000000Y-135000000D02*
X85209103Y-138209103D01*
X86789592Y-50563603D02*
X84128196Y-53224999D01*
X103555000Y-36959695D02*
X101695305Y-35100000D01*
X81100000Y-132900000D02*
X82000000Y-133800000D01*
X89041725Y-46406624D02*
X86789592Y-48658757D01*
X90138604Y-46406624D02*
X89041725Y-46406624D01*
X97140812Y-36586396D02*
X97140812Y-39404416D01*
%TO.N,Net-(SW30-Pad2)*%
X101186396Y-35550000D02*
X98813604Y-35550000D01*
X89228121Y-46856624D02*
X87239592Y-48845153D01*
X97590812Y-36772792D02*
X97590812Y-39590812D01*
X87239592Y-48845153D02*
X87239592Y-50749999D01*
X81769873Y-148740824D02*
X81769873Y-164790897D01*
X81550000Y-55076165D02*
X81550000Y-114634494D01*
X87239592Y-50749999D02*
X84314592Y-53674999D01*
X92000000Y-138510697D02*
X81769873Y-148740824D01*
X98813604Y-35550000D02*
X97590812Y-36772792D01*
X102285000Y-36715000D02*
X102285000Y-36648604D01*
X102285000Y-36648604D02*
X101186396Y-35550000D01*
X97590812Y-39590812D02*
X90325000Y-46856624D01*
X81550000Y-114634494D02*
X92000000Y-125084494D01*
X90325000Y-46856624D02*
X89228121Y-46856624D01*
X82951166Y-53674999D02*
X81550000Y-55076165D01*
X92000000Y-125084494D02*
X92000000Y-138510697D01*
X84314592Y-53674999D02*
X82951166Y-53674999D01*
%TO.N,Net-(SW31-Pad2)*%
X99000000Y-36000000D02*
X99000000Y-38818020D01*
X101000614Y-36000614D02*
X101000000Y-36000000D01*
X85000000Y-53625987D02*
X85000000Y-56851902D01*
X96000000Y-130000000D02*
X103230127Y-137230127D01*
X82000000Y-114448098D02*
X96000000Y-128448098D01*
X90775000Y-49424999D02*
X89000000Y-51199999D01*
X87425988Y-51199999D02*
X85000000Y-53625987D01*
X99000000Y-38818020D02*
X90775000Y-47043020D01*
X90775000Y-47043020D02*
X90775000Y-49424999D01*
X89000000Y-51199999D02*
X87425988Y-51199999D01*
X96000000Y-128448098D02*
X96000000Y-130000000D01*
X101000614Y-36984781D02*
X101000614Y-36000614D01*
X101000000Y-36000000D02*
X99000000Y-36000000D01*
X85000000Y-56851902D02*
X82000000Y-59851902D01*
X103230127Y-137230127D02*
X103230127Y-148209103D01*
X82000000Y-59851902D02*
X82000000Y-114448098D01*
%TO.N,Net-(SW32-Pad2)*%
X87000000Y-116000000D02*
X119230127Y-148230127D01*
X85649999Y-53612384D02*
X85649999Y-97486395D01*
X86099999Y-97936395D02*
X86099999Y-110201220D01*
X119230127Y-148230127D02*
X119230127Y-157209103D01*
X86099999Y-110201220D02*
X87000000Y-111101221D01*
X91225000Y-49775000D02*
X89350001Y-51649999D01*
X89350001Y-51649999D02*
X87612384Y-51649999D01*
X87612384Y-51649999D02*
X85649999Y-53612384D01*
X85649999Y-97486395D02*
X86099999Y-97936395D01*
X99745000Y-38709416D02*
X91225000Y-47229416D01*
X87000000Y-111101221D02*
X87000000Y-116000000D01*
X91225000Y-47229416D02*
X91225000Y-49775000D01*
X99745000Y-36745000D02*
X99745000Y-38709416D01*
%TD*%
M02*
