M48
; DRILL file {KiCad (6.0.9)} date Fri 02 Dec 2022 02:54:34 PM PST
; FORMAT={-:-/ absolute / inch / decimal}
; #@! TF.CreationDate,2022-12-02T14:54:34-08:00
; #@! TF.GenerationSoftware,Kicad,Pcbnew,(6.0.9)
; #@! TF.FileFunction,NonPlated,1,2,NPTH
FMAT,2
INCH
; #@! TA.AperFunction,NonPlated,NPTH,ComponentDrill
T1C0.0591
; #@! TA.AperFunction,NonPlated,NPTH,ComponentDrill
T2C0.0748
; #@! TA.AperFunction,NonPlated,NPTH,ComponentDrill
T3C0.1988
%
G90
G05
T1
X3.2372Y-1.1417
X3.5128Y-1.1417
T2
X2.3322Y-4.4193
X2.3715Y-5.4823
X2.7072Y-4.6358
X2.7466Y-5.6988
X2.8833Y-4.9705
X3.2584Y-5.187
X3.2874Y-2.1654
X3.2874Y-2.874
X3.2874Y-3.5827
X3.2874Y-4.2913
X3.4739Y-5.3642
X3.7205Y-2.1654
X3.7205Y-2.874
X3.7205Y-3.5827
X3.7205Y-4.2913
X3.8489Y-5.5807
X4.0354Y-2.1654
X4.0354Y-2.874
X4.0354Y-3.5827
X4.0354Y-4.2913
X4.4685Y-2.1654
X4.4685Y-2.874
X4.4685Y-3.5827
X4.4685Y-4.2913
X4.7835Y-2.1654
X4.7835Y-2.874
X4.7835Y-3.5827
X4.7835Y-4.2913
X5.2165Y-2.1654
X5.2165Y-2.874
X5.2165Y-3.5827
X5.2165Y-4.2913
X5.5315Y-2.1654
X5.5315Y-2.874
X5.5315Y-3.5827
X5.5315Y-4.2913
X5.9646Y-2.1654
X5.9646Y-2.874
X5.9646Y-3.5827
X5.9646Y-4.2913
X6.2795Y-2.1654
X6.2795Y-2.874
X6.2795Y-3.5827
X6.2795Y-4.2913
X6.7126Y-2.1654
X6.7126Y-2.874
X6.7126Y-3.5827
X6.7126Y-4.2913
X7.0276Y-2.1654
X7.0276Y-2.874
X7.0276Y-3.5827
X7.0276Y-4.2913
X7.4606Y-2.1654
X7.4606Y-2.874
X7.4606Y-3.5827
X7.4606Y-4.2913
X7.7756Y-2.1654
X7.7756Y-2.874
X7.7756Y-3.5827
X7.7756Y-4.2913
X8.2087Y-2.1654
X8.2087Y-2.874
X8.2087Y-3.5827
X8.2087Y-4.2913
T3
X2.5197Y-4.5276
X2.5591Y-5.5906
X3.0709Y-5.0787
X3.5039Y-2.1654
X3.5039Y-2.874
X3.5039Y-3.5827
X3.5039Y-4.2913
X3.6614Y-5.4724
X4.252Y-2.1654
X4.252Y-2.874
X4.252Y-3.5827
X4.252Y-4.2913
X5.0Y-2.1654
X5.0Y-2.874
X5.0Y-3.5827
X5.0Y-4.2913
X5.748Y-2.1654
X5.748Y-2.874
X5.748Y-3.5827
X5.748Y-4.2913
X6.4961Y-2.1654
X6.4961Y-2.874
X6.4961Y-3.5827
X6.4961Y-4.2913
X7.2441Y-2.1654
X7.2441Y-2.874
X7.2441Y-3.5827
X7.2441Y-4.2913
X7.9921Y-2.1654
X7.9921Y-2.874
X7.9921Y-3.5827
X7.9921Y-4.2913
T0
M30
