M48
; DRILL file {KiCad (6.0.9)} date Fri 02 Dec 2022 02:54:34 PM PST
; FORMAT={-:-/ absolute / inch / decimal}
; #@! TF.CreationDate,2022-12-02T14:54:34-08:00
; #@! TF.GenerationSoftware,Kicad,Pcbnew,(6.0.9)
; #@! TF.FileFunction,Plated,1,2,PTH
FMAT,2
INCH
; #@! TA.AperFunction,Plated,PTH,ViaDrill
T1C0.0157
; #@! TA.AperFunction,Plated,PTH,ComponentDrill
T2C0.0472
; #@! TA.AperFunction,Plated,PTH,ComponentDrill
T3C0.0630
%
G90
G05
T1
X3.5247Y-1.5813
X3.5321Y-1.5354
X3.6614Y-0.9449
X3.6614Y-1.378
X3.9764Y-1.063
X3.9764Y-1.1024
X3.9764Y-1.1417
X3.9764Y-1.2205
X3.9764Y-1.2598
X3.9764Y-1.2992
X3.9764Y-1.3386
X3.9764Y-1.4173
X4.2126Y-1.063
X4.2126Y-1.1024
X4.2126Y-1.1417
X4.2126Y-1.2205
X4.2126Y-1.2598
X4.2126Y-1.2992
X4.2126Y-1.3386
X4.2126Y-1.4173
X4.8819Y-1.0236
X4.8819Y-1.063
X4.8819Y-1.1024
X4.8819Y-1.1811
X4.8819Y-1.2205
X4.8819Y-1.2598
X4.8819Y-1.2992
X4.8819Y-1.378
X5.1181Y-1.0236
X5.1181Y-1.063
X5.1181Y-1.1024
X5.1181Y-1.1811
X5.1181Y-1.2205
X5.1181Y-1.2598
X5.1181Y-1.2992
X5.1181Y-1.3386
T2
X2.2744Y-4.5587
X2.3138Y-5.6217
X2.4035Y-4.7287
X2.4429Y-5.7917
X3.187Y-4.8776
X3.3161Y-5.0476
X3.5039Y-1.9331
X3.5039Y-2.6417
X3.5039Y-3.3504
X3.5039Y-4.0591
X3.7008Y-2.0157
X3.7008Y-2.7244
X3.7008Y-3.4331
X3.7008Y-4.1417
X3.7776Y-5.2713
X3.9067Y-5.4413
X4.252Y-1.9331
X4.252Y-2.6417
X4.252Y-3.3504
X4.252Y-4.0591
X4.4488Y-2.0157
X4.4488Y-2.7244
X4.4488Y-3.4331
X4.4488Y-4.1417
X5.0Y-1.9331
X5.0Y-2.6417
X5.0Y-3.3504
X5.0Y-4.0591
X5.1969Y-2.0157
X5.1969Y-2.7244
X5.1969Y-3.4331
X5.1969Y-4.1417
X5.748Y-1.9331
X5.748Y-2.6417
X5.748Y-3.3504
X5.748Y-4.0591
X5.9449Y-2.0157
X5.9449Y-2.7244
X5.9449Y-3.4331
X5.9449Y-4.1417
X6.4961Y-1.9331
X6.4961Y-2.6417
X6.4961Y-3.3504
X6.4961Y-4.0591
X6.6929Y-2.0157
X6.6929Y-2.7244
X6.6929Y-3.4331
X6.6929Y-4.1417
X7.2441Y-1.9331
X7.2441Y-2.6417
X7.2441Y-3.3504
X7.2441Y-4.0591
X7.4409Y-2.0157
X7.4409Y-2.7244
X7.4409Y-3.4331
X7.4409Y-4.1417
X7.9921Y-1.9331
X7.9921Y-2.6417
X7.9921Y-3.3504
X7.9921Y-4.0591
X8.189Y-2.0157
X8.189Y-2.7244
X8.189Y-3.4331
X8.189Y-4.1417
T3
X2.7915Y-4.4504
X2.799Y-5.1559
X2.8309Y-5.5134
X3.3071Y-2.3681
X3.3071Y-3.0768
X3.3071Y-3.7854
X3.3071Y-4.4941
X3.3896Y-5.5496
X4.0551Y-2.3681
X4.0551Y-3.0768
X4.0551Y-3.7854
X4.0551Y-4.4941
X4.8031Y-2.3681
X4.8031Y-3.0768
X4.8031Y-3.7854
X4.8031Y-4.4941
X5.5512Y-2.3681
X5.5512Y-3.0768
X5.5512Y-3.7854
X5.5512Y-4.4941
X6.2992Y-2.3681
X6.2992Y-3.0768
X6.2992Y-3.7854
X6.2992Y-4.4941
X7.0472Y-2.3681
X7.0472Y-3.0768
X7.0472Y-3.7854
X7.0472Y-4.4941
X7.7953Y-2.3681
X7.7953Y-3.0768
X7.7953Y-3.7854
X7.7953Y-4.4941
T0
M30
